<?xml version="1.0" encoding="UTF-8" standalone="no"?>
<!DOCTYPE svg PUBLIC "-//W3C//DTD SVG 1.1//EN"
 "http://www.w3.org/Graphics/SVG/1.1/DTD/svg11.dtd">
<!-- Generated by graphviz version 2.43.0 (0)
 -->
<!-- Title: BeamFormer_166 Pages: 1 -->
<svg width="2702pt" height="548pt"
 viewBox="0.00 0.00 2701.53 548.00" xmlns="http://www.w3.org/2000/svg" xmlns:xlink="http://www.w3.org/1999/xlink">
<g id="graph0" class="graph" transform="scale(1 1) rotate(0) translate(4 544)">
<title>BeamFormer_166</title>
<polygon fill="white" stroke="transparent" points="-4,4 -4,-544 2697.53,-544 2697.53,4 -4,4"/>
<!-- node0 -->
<g id="node1" class="node">
<title>node0</title>
<ellipse fill="none" stroke="black" cx="1340.34" cy="-522" rx="213.66" ry="18"/>
<text text-anchor="middle" x="1340.34" y="-518.3" font-family="Times,serif" font-size="14.00">&quot;WEIGHTED_ROUND_ROBIN_Splitter_126&quot;</text>
</g>
<!-- node1 -->
<g id="node2" class="node">
<title>node1</title>
<ellipse fill="none" stroke="black" cx="103.34" cy="-450" rx="103.18" ry="18"/>
<text text-anchor="middle" x="103.34" y="-446.3" font-family="Times,serif" font-size="14.00">&quot;InputGenerate_59&quot;</text>
</g>
<!-- node0&#45;&gt;node1 -->
<g id="edge1" class="edge">
<title>node0&#45;&gt;node1</title>
<path fill="none" stroke="black" d="M1132.98,-517.56C907.08,-512.34 535.3,-499.43 216.34,-468 206.24,-467 195.67,-465.73 185.21,-464.32"/>
<polygon fill="black" stroke="black" points="185.62,-460.85 175.24,-462.94 184.66,-467.78 185.62,-460.85"/>
</g>
<!-- node4 -->
<g id="node3" class="node">
<title>node4</title>
<ellipse fill="none" stroke="black" cx="328.34" cy="-450" rx="103.18" ry="18"/>
<text text-anchor="middle" x="328.34" y="-446.3" font-family="Times,serif" font-size="14.00">&quot;InputGenerate_63&quot;</text>
</g>
<!-- node0&#45;&gt;node4 -->
<g id="edge2" class="edge">
<title>node0&#45;&gt;node4</title>
<path fill="none" stroke="black" d="M1145.27,-514.59C962.89,-507.39 683.14,-493.26 441.34,-468 431.5,-466.97 421.2,-465.7 411,-464.32"/>
<polygon fill="black" stroke="black" points="411.25,-460.82 400.86,-462.9 410.28,-467.75 411.25,-460.82"/>
</g>
<!-- node7 -->
<g id="node4" class="node">
<title>node7</title>
<ellipse fill="none" stroke="black" cx="553.34" cy="-450" rx="103.18" ry="18"/>
<text text-anchor="middle" x="553.34" y="-446.3" font-family="Times,serif" font-size="14.00">&quot;InputGenerate_67&quot;</text>
</g>
<!-- node0&#45;&gt;node7 -->
<g id="edge3" class="edge">
<title>node0&#45;&gt;node7</title>
<path fill="none" stroke="black" d="M1170.71,-511C1034.22,-502.15 837.62,-487.59 666.34,-468 656.66,-466.89 646.53,-465.58 636.49,-464.19"/>
<polygon fill="black" stroke="black" points="636.88,-460.71 626.49,-462.78 635.9,-467.64 636.88,-460.71"/>
</g>
<!-- node10 -->
<g id="node5" class="node">
<title>node10</title>
<ellipse fill="none" stroke="black" cx="778.34" cy="-450" rx="103.18" ry="18"/>
<text text-anchor="middle" x="778.34" y="-446.3" font-family="Times,serif" font-size="14.00">&quot;InputGenerate_71&quot;</text>
</g>
<!-- node0&#45;&gt;node10 -->
<g id="edge4" class="edge">
<title>node0&#45;&gt;node10</title>
<path fill="none" stroke="black" d="M1215.37,-507.33C1125.21,-497.2 1000.64,-482.67 891.34,-468 882.07,-466.76 872.39,-465.39 862.76,-464"/>
<polygon fill="black" stroke="black" points="863.15,-460.52 852.75,-462.54 862.14,-467.45 863.15,-460.52"/>
</g>
<!-- node13 -->
<g id="node6" class="node">
<title>node13</title>
<ellipse fill="none" stroke="black" cx="1003.34" cy="-450" rx="103.18" ry="18"/>
<text text-anchor="middle" x="1003.34" y="-446.3" font-family="Times,serif" font-size="14.00">&quot;InputGenerate_75&quot;</text>
</g>
<!-- node0&#45;&gt;node13 -->
<g id="edge5" class="edge">
<title>node0&#45;&gt;node13</title>
<path fill="none" stroke="black" d="M1263.87,-505.12C1207.93,-493.5 1132.46,-477.82 1077.15,-466.33"/>
<polygon fill="black" stroke="black" points="1077.57,-462.84 1067.07,-464.24 1076.15,-469.7 1077.57,-462.84"/>
</g>
<!-- node16 -->
<g id="node7" class="node">
<title>node16</title>
<ellipse fill="none" stroke="black" cx="1228.34" cy="-450" rx="103.18" ry="18"/>
<text text-anchor="middle" x="1228.34" y="-446.3" font-family="Times,serif" font-size="14.00">&quot;InputGenerate_79&quot;</text>
</g>
<!-- node0&#45;&gt;node16 -->
<g id="edge6" class="edge">
<title>node0&#45;&gt;node16</title>
<path fill="none" stroke="black" d="M1313.23,-504.05C1298.26,-494.7 1279.5,-482.98 1263.43,-472.93"/>
<polygon fill="black" stroke="black" points="1265.15,-469.88 1254.82,-467.55 1261.44,-475.82 1265.15,-469.88"/>
</g>
<!-- node19 -->
<g id="node8" class="node">
<title>node19</title>
<ellipse fill="none" stroke="black" cx="1453.34" cy="-450" rx="103.18" ry="18"/>
<text text-anchor="middle" x="1453.34" y="-446.3" font-family="Times,serif" font-size="14.00">&quot;InputGenerate_83&quot;</text>
</g>
<!-- node0&#45;&gt;node19 -->
<g id="edge7" class="edge">
<title>node0&#45;&gt;node19</title>
<path fill="none" stroke="black" d="M1367.69,-504.05C1382.8,-494.7 1401.72,-482.98 1417.94,-472.93"/>
<polygon fill="black" stroke="black" points="1419.97,-475.79 1426.63,-467.55 1416.28,-469.84 1419.97,-475.79"/>
</g>
<!-- node22 -->
<g id="node9" class="node">
<title>node22</title>
<ellipse fill="none" stroke="black" cx="1678.34" cy="-450" rx="103.18" ry="18"/>
<text text-anchor="middle" x="1678.34" y="-446.3" font-family="Times,serif" font-size="14.00">&quot;InputGenerate_87&quot;</text>
</g>
<!-- node0&#45;&gt;node22 -->
<g id="edge8" class="edge">
<title>node0&#45;&gt;node22</title>
<path fill="none" stroke="black" d="M1417.04,-505.12C1473.15,-493.5 1548.84,-477.82 1604.31,-466.33"/>
<polygon fill="black" stroke="black" points="1605.34,-469.69 1614.42,-464.24 1603.92,-462.84 1605.34,-469.69"/>
</g>
<!-- node25 -->
<g id="node10" class="node">
<title>node25</title>
<ellipse fill="none" stroke="black" cx="1903.34" cy="-450" rx="103.18" ry="18"/>
<text text-anchor="middle" x="1903.34" y="-446.3" font-family="Times,serif" font-size="14.00">&quot;InputGenerate_91&quot;</text>
</g>
<!-- node0&#45;&gt;node25 -->
<g id="edge9" class="edge">
<title>node0&#45;&gt;node25</title>
<path fill="none" stroke="black" d="M1465.59,-507.34C1555.95,-497.22 1680.8,-482.69 1790.34,-468 1799.61,-466.76 1809.29,-465.4 1818.93,-464"/>
<polygon fill="black" stroke="black" points="1819.54,-467.45 1828.93,-462.54 1818.53,-460.52 1819.54,-467.45"/>
</g>
<!-- node28 -->
<g id="node11" class="node">
<title>node28</title>
<ellipse fill="none" stroke="black" cx="2128.34" cy="-450" rx="103.18" ry="18"/>
<text text-anchor="middle" x="2128.34" y="-446.3" font-family="Times,serif" font-size="14.00">&quot;InputGenerate_95&quot;</text>
</g>
<!-- node0&#45;&gt;node28 -->
<g id="edge10" class="edge">
<title>node0&#45;&gt;node28</title>
<path fill="none" stroke="black" d="M1510.23,-511.01C1646.92,-502.17 1843.81,-487.61 2015.34,-468 2025.02,-466.89 2035.15,-465.58 2045.2,-464.19"/>
<polygon fill="black" stroke="black" points="2045.78,-467.65 2055.19,-462.78 2044.8,-460.71 2045.78,-467.65"/>
</g>
<!-- node31 -->
<g id="node12" class="node">
<title>node31</title>
<ellipse fill="none" stroke="black" cx="2353.34" cy="-450" rx="103.18" ry="18"/>
<text text-anchor="middle" x="2353.34" y="-446.3" font-family="Times,serif" font-size="14.00">&quot;InputGenerate_99&quot;</text>
</g>
<!-- node0&#45;&gt;node31 -->
<g id="edge11" class="edge">
<title>node0&#45;&gt;node31</title>
<path fill="none" stroke="black" d="M1535.63,-514.6C1718.21,-507.41 1998.27,-493.28 2240.34,-468 2250.18,-466.97 2260.48,-465.7 2270.68,-464.32"/>
<polygon fill="black" stroke="black" points="2271.4,-467.75 2280.82,-462.9 2270.44,-460.82 2271.4,-467.75"/>
</g>
<!-- node34 -->
<g id="node13" class="node">
<title>node34</title>
<ellipse fill="none" stroke="black" cx="2584.34" cy="-450" rx="109.38" ry="18"/>
<text text-anchor="middle" x="2584.34" y="-446.3" font-family="Times,serif" font-size="14.00">&quot;InputGenerate_103&quot;</text>
</g>
<!-- node0&#45;&gt;node34 -->
<g id="edge12" class="edge">
<title>node0&#45;&gt;node34</title>
<path fill="none" stroke="black" d="M1546.3,-517.15C1772.2,-511.57 2145.25,-498.33 2465.34,-468 2476,-466.99 2487.16,-465.7 2498.2,-464.29"/>
<polygon fill="black" stroke="black" points="2498.83,-467.74 2508.29,-462.96 2497.92,-460.8 2498.83,-467.74"/>
</g>
<!-- node3 -->
<g id="node14" class="node">
<title>node3</title>
<ellipse fill="none" stroke="black" cx="107.34" cy="-378" rx="101.28" ry="18"/>
<text text-anchor="middle" x="107.34" y="-374.3" font-family="Times,serif" font-size="14.00">&quot;BeamFirFilter_61&quot;</text>
</g>
<!-- node1&#45;&gt;node3 -->
<g id="edge13" class="edge">
<title>node1&#45;&gt;node3</title>
<path fill="none" stroke="black" d="M104.33,-431.7C104.77,-423.98 105.3,-414.71 105.79,-406.11"/>
<polygon fill="black" stroke="black" points="109.29,-406.29 106.36,-396.1 102.3,-405.89 109.29,-406.29"/>
</g>
<!-- node6 -->
<g id="node16" class="node">
<title>node6</title>
<ellipse fill="none" stroke="black" cx="330.34" cy="-378" rx="101.28" ry="18"/>
<text text-anchor="middle" x="330.34" y="-374.3" font-family="Times,serif" font-size="14.00">&quot;BeamFirFilter_65&quot;</text>
</g>
<!-- node4&#45;&gt;node6 -->
<g id="edge15" class="edge">
<title>node4&#45;&gt;node6</title>
<path fill="none" stroke="black" d="M328.84,-431.7C329.06,-423.98 329.32,-414.71 329.57,-406.11"/>
<polygon fill="black" stroke="black" points="333.07,-406.2 329.85,-396.1 326.07,-406 333.07,-406.2"/>
</g>
<!-- node9 -->
<g id="node17" class="node">
<title>node9</title>
<ellipse fill="none" stroke="black" cx="555.34" cy="-378" rx="101.28" ry="18"/>
<text text-anchor="middle" x="555.34" y="-374.3" font-family="Times,serif" font-size="14.00">&quot;BeamFirFilter_69&quot;</text>
</g>
<!-- node7&#45;&gt;node9 -->
<g id="edge17" class="edge">
<title>node7&#45;&gt;node9</title>
<path fill="none" stroke="black" d="M553.84,-431.7C554.06,-423.98 554.32,-414.71 554.57,-406.11"/>
<polygon fill="black" stroke="black" points="558.07,-406.2 554.85,-396.1 551.07,-406 558.07,-406.2"/>
</g>
<!-- node12 -->
<g id="node18" class="node">
<title>node12</title>
<ellipse fill="none" stroke="black" cx="780.34" cy="-378" rx="101.28" ry="18"/>
<text text-anchor="middle" x="780.34" y="-374.3" font-family="Times,serif" font-size="14.00">&quot;BeamFirFilter_73&quot;</text>
</g>
<!-- node10&#45;&gt;node12 -->
<g id="edge19" class="edge">
<title>node10&#45;&gt;node12</title>
<path fill="none" stroke="black" d="M778.84,-431.7C779.06,-423.98 779.32,-414.71 779.57,-406.11"/>
<polygon fill="black" stroke="black" points="783.07,-406.2 779.85,-396.1 776.07,-406 783.07,-406.2"/>
</g>
<!-- node15 -->
<g id="node19" class="node">
<title>node15</title>
<ellipse fill="none" stroke="black" cx="1005.34" cy="-378" rx="101.28" ry="18"/>
<text text-anchor="middle" x="1005.34" y="-374.3" font-family="Times,serif" font-size="14.00">&quot;BeamFirFilter_77&quot;</text>
</g>
<!-- node13&#45;&gt;node15 -->
<g id="edge21" class="edge">
<title>node13&#45;&gt;node15</title>
<path fill="none" stroke="black" d="M1003.84,-431.7C1004.06,-423.98 1004.32,-414.71 1004.57,-406.11"/>
<polygon fill="black" stroke="black" points="1008.07,-406.2 1004.85,-396.1 1001.07,-406 1008.07,-406.2"/>
</g>
<!-- node18 -->
<g id="node20" class="node">
<title>node18</title>
<ellipse fill="none" stroke="black" cx="1228.34" cy="-378" rx="101.28" ry="18"/>
<text text-anchor="middle" x="1228.34" y="-374.3" font-family="Times,serif" font-size="14.00">&quot;BeamFirFilter_81&quot;</text>
</g>
<!-- node16&#45;&gt;node18 -->
<g id="edge23" class="edge">
<title>node16&#45;&gt;node18</title>
<path fill="none" stroke="black" d="M1228.34,-431.7C1228.34,-423.98 1228.34,-414.71 1228.34,-406.11"/>
<polygon fill="black" stroke="black" points="1231.84,-406.1 1228.34,-396.1 1224.84,-406.1 1231.84,-406.1"/>
</g>
<!-- node21 -->
<g id="node21" class="node">
<title>node21</title>
<ellipse fill="none" stroke="black" cx="1451.34" cy="-378" rx="101.28" ry="18"/>
<text text-anchor="middle" x="1451.34" y="-374.3" font-family="Times,serif" font-size="14.00">&quot;BeamFirFilter_85&quot;</text>
</g>
<!-- node19&#45;&gt;node21 -->
<g id="edge25" class="edge">
<title>node19&#45;&gt;node21</title>
<path fill="none" stroke="black" d="M1452.85,-431.7C1452.63,-423.98 1452.36,-414.71 1452.12,-406.11"/>
<polygon fill="black" stroke="black" points="1455.61,-406 1451.83,-396.1 1448.62,-406.2 1455.61,-406"/>
</g>
<!-- node24 -->
<g id="node22" class="node">
<title>node24</title>
<ellipse fill="none" stroke="black" cx="1675.34" cy="-378" rx="101.28" ry="18"/>
<text text-anchor="middle" x="1675.34" y="-374.3" font-family="Times,serif" font-size="14.00">&quot;BeamFirFilter_89&quot;</text>
</g>
<!-- node22&#45;&gt;node24 -->
<g id="edge27" class="edge">
<title>node22&#45;&gt;node24</title>
<path fill="none" stroke="black" d="M1677.6,-431.7C1677.27,-423.98 1676.87,-414.71 1676.5,-406.11"/>
<polygon fill="black" stroke="black" points="1680,-405.95 1676.07,-396.1 1673.01,-406.25 1680,-405.95"/>
</g>
<!-- node27 -->
<g id="node23" class="node">
<title>node27</title>
<ellipse fill="none" stroke="black" cx="1899.34" cy="-378" rx="101.28" ry="18"/>
<text text-anchor="middle" x="1899.34" y="-374.3" font-family="Times,serif" font-size="14.00">&quot;BeamFirFilter_93&quot;</text>
</g>
<!-- node25&#45;&gt;node27 -->
<g id="edge29" class="edge">
<title>node25&#45;&gt;node27</title>
<path fill="none" stroke="black" d="M1902.35,-431.7C1901.91,-423.98 1901.38,-414.71 1900.89,-406.11"/>
<polygon fill="black" stroke="black" points="1904.38,-405.89 1900.32,-396.1 1897.39,-406.29 1904.38,-405.89"/>
</g>
<!-- node30 -->
<g id="node24" class="node">
<title>node30</title>
<ellipse fill="none" stroke="black" cx="2122.34" cy="-378" rx="101.28" ry="18"/>
<text text-anchor="middle" x="2122.34" y="-374.3" font-family="Times,serif" font-size="14.00">&quot;BeamFirFilter_97&quot;</text>
</g>
<!-- node28&#45;&gt;node30 -->
<g id="edge31" class="edge">
<title>node28&#45;&gt;node30</title>
<path fill="none" stroke="black" d="M2126.86,-431.7C2126.2,-423.98 2125.4,-414.71 2124.66,-406.11"/>
<polygon fill="black" stroke="black" points="2128.15,-405.77 2123.81,-396.1 2121.17,-406.37 2128.15,-405.77"/>
</g>
<!-- node33 -->
<g id="node25" class="node">
<title>node33</title>
<ellipse fill="none" stroke="black" cx="2350.34" cy="-378" rx="107.48" ry="18"/>
<text text-anchor="middle" x="2350.34" y="-374.3" font-family="Times,serif" font-size="14.00">&quot;BeamFirFilter_101&quot;</text>
</g>
<!-- node31&#45;&gt;node33 -->
<g id="edge33" class="edge">
<title>node31&#45;&gt;node33</title>
<path fill="none" stroke="black" d="M2352.6,-431.7C2352.27,-423.98 2351.87,-414.71 2351.5,-406.11"/>
<polygon fill="black" stroke="black" points="2355,-405.95 2351.07,-396.1 2348.01,-406.25 2355,-405.95"/>
</g>
<!-- node36 -->
<g id="node26" class="node">
<title>node36</title>
<ellipse fill="none" stroke="black" cx="2583.34" cy="-378" rx="107.48" ry="18"/>
<text text-anchor="middle" x="2583.34" y="-374.3" font-family="Times,serif" font-size="14.00">&quot;BeamFirFilter_105&quot;</text>
</g>
<!-- node34&#45;&gt;node36 -->
<g id="edge35" class="edge">
<title>node34&#45;&gt;node36</title>
<path fill="none" stroke="black" d="M2584.09,-431.7C2583.98,-423.98 2583.85,-414.71 2583.73,-406.11"/>
<polygon fill="black" stroke="black" points="2587.23,-406.05 2583.59,-396.1 2580.23,-406.15 2587.23,-406.05"/>
</g>
<!-- node37 -->
<g id="node15" class="node">
<title>node37</title>
<ellipse fill="none" stroke="black" cx="1339.34" cy="-306" rx="206.06" ry="18"/>
<text text-anchor="middle" x="1339.34" y="-302.3" font-family="Times,serif" font-size="14.00">&quot;WEIGHTED_ROUND_ROBIN_Joiner_127&quot;</text>
</g>
<!-- node3&#45;&gt;node37 -->
<g id="edge14" class="edge">
<title>node3&#45;&gt;node37</title>
<path fill="none" stroke="black" d="M178.63,-365.15C192.44,-363.17 206.82,-361.33 220.34,-360 536.05,-328.86 903.75,-315.88 1129,-310.57"/>
<polygon fill="black" stroke="black" points="1129.37,-314.06 1139.28,-310.33 1129.21,-307.06 1129.37,-314.06"/>
</g>
<!-- node39 -->
<g id="node27" class="node">
<title>node39</title>
<ellipse fill="none" stroke="black" cx="1014.34" cy="-234" rx="92.08" ry="18"/>
<text text-anchor="middle" x="1014.34" y="-230.3" font-family="Times,serif" font-size="14.00">&quot;BeamForm_107&quot;</text>
</g>
<!-- node37&#45;&gt;node39 -->
<g id="edge37" class="edge">
<title>node37&#45;&gt;node39</title>
<path fill="none" stroke="black" d="M1265.59,-289.12C1211.05,-277.37 1137.27,-261.48 1083.78,-249.96"/>
<polygon fill="black" stroke="black" points="1084.21,-246.47 1073.7,-247.78 1082.74,-253.31 1084.21,-246.47"/>
</g>
<!-- node43 -->
<g id="node28" class="node">
<title>node43</title>
<ellipse fill="none" stroke="black" cx="1231.34" cy="-234" rx="92.08" ry="18"/>
<text text-anchor="middle" x="1231.34" y="-230.3" font-family="Times,serif" font-size="14.00">&quot;BeamForm_112&quot;</text>
</g>
<!-- node37&#45;&gt;node43 -->
<g id="edge38" class="edge">
<title>node37&#45;&gt;node43</title>
<path fill="none" stroke="black" d="M1313.2,-288.05C1298.9,-278.79 1281.01,-267.19 1265.61,-257.21"/>
<polygon fill="black" stroke="black" points="1267.17,-254.05 1256.87,-251.55 1263.36,-259.92 1267.17,-254.05"/>
</g>
<!-- node47 -->
<g id="node29" class="node">
<title>node47</title>
<ellipse fill="none" stroke="black" cx="1448.34" cy="-234" rx="92.08" ry="18"/>
<text text-anchor="middle" x="1448.34" y="-230.3" font-family="Times,serif" font-size="14.00">&quot;BeamForm_117&quot;</text>
</g>
<!-- node37&#45;&gt;node47 -->
<g id="edge39" class="edge">
<title>node37&#45;&gt;node47</title>
<path fill="none" stroke="black" d="M1365.73,-288.05C1380.4,-278.63 1398.82,-266.81 1414.53,-256.71"/>
<polygon fill="black" stroke="black" points="1416.43,-259.66 1422.95,-251.31 1412.64,-253.77 1416.43,-259.66"/>
</g>
<!-- node51 -->
<g id="node30" class="node">
<title>node51</title>
<ellipse fill="none" stroke="black" cx="1673.34" cy="-234" rx="92.08" ry="18"/>
<text text-anchor="middle" x="1673.34" y="-230.3" font-family="Times,serif" font-size="14.00">&quot;BeamForm_122&quot;</text>
</g>
<!-- node37&#45;&gt;node51 -->
<g id="edge40" class="edge">
<title>node37&#45;&gt;node51</title>
<path fill="none" stroke="black" d="M1414.71,-289.2C1471.13,-277.38 1547.77,-261.32 1602.95,-249.75"/>
<polygon fill="black" stroke="black" points="1603.92,-253.12 1612.99,-247.65 1602.49,-246.27 1603.92,-253.12"/>
</g>
<!-- node6&#45;&gt;node37 -->
<g id="edge16" class="edge">
<title>node6&#45;&gt;node37</title>
<path fill="none" stroke="black" d="M402.61,-365.33C416.75,-363.33 431.49,-361.43 445.34,-360 683.84,-335.35 959.4,-321.17 1140.83,-313.78"/>
<polygon fill="black" stroke="black" points="1141.17,-317.27 1151.02,-313.37 1140.89,-310.28 1141.17,-317.27"/>
</g>
<!-- node9&#45;&gt;node37 -->
<g id="edge18" class="edge">
<title>node9&#45;&gt;node37</title>
<path fill="none" stroke="black" d="M628.25,-365.46C642.2,-363.47 656.7,-361.55 670.34,-360 837.92,-341 1029.88,-326.54 1165.07,-317.56"/>
<polygon fill="black" stroke="black" points="1165.37,-321.05 1175.11,-316.9 1164.9,-314.07 1165.37,-321.05"/>
</g>
<!-- node12&#45;&gt;node37 -->
<g id="edge20" class="edge">
<title>node12&#45;&gt;node37</title>
<path fill="none" stroke="black" d="M854.53,-365.72C868.1,-363.75 882.14,-361.76 895.34,-360 1000.18,-346 1119.19,-331.89 1207.59,-321.75"/>
<polygon fill="black" stroke="black" points="1208.14,-325.21 1217.68,-320.6 1207.34,-318.26 1208.14,-325.21"/>
</g>
<!-- node15&#45;&gt;node37 -->
<g id="edge22" class="edge">
<title>node15&#45;&gt;node37</title>
<path fill="none" stroke="black" d="M1068.16,-363.83C1120.68,-352.83 1196.09,-337.02 1254.06,-324.87"/>
<polygon fill="black" stroke="black" points="1254.87,-328.28 1263.94,-322.8 1253.43,-321.43 1254.87,-328.28"/>
</g>
<!-- node18&#45;&gt;node37 -->
<g id="edge24" class="edge">
<title>node18&#45;&gt;node37</title>
<path fill="none" stroke="black" d="M1254.37,-360.59C1269.07,-351.31 1287.67,-339.59 1303.71,-329.47"/>
<polygon fill="black" stroke="black" points="1305.73,-332.33 1312.32,-324.04 1301.99,-326.41 1305.73,-332.33"/>
</g>
<!-- node21&#45;&gt;node37 -->
<g id="edge26" class="edge">
<title>node21&#45;&gt;node37</title>
<path fill="none" stroke="black" d="M1425.08,-360.59C1410.24,-351.31 1391.48,-339.59 1375.29,-329.47"/>
<polygon fill="black" stroke="black" points="1376.94,-326.37 1366.6,-324.04 1373.23,-332.31 1376.94,-326.37"/>
</g>
<!-- node24&#45;&gt;node37 -->
<g id="edge28" class="edge">
<title>node24&#45;&gt;node37</title>
<path fill="none" stroke="black" d="M1612.14,-363.83C1559.31,-352.83 1483.45,-337.02 1425.13,-324.87"/>
<polygon fill="black" stroke="black" points="1425.7,-321.42 1415.2,-322.8 1424.27,-328.27 1425.7,-321.42"/>
</g>
<!-- node27&#45;&gt;node37 -->
<g id="edge30" class="edge">
<title>node27&#45;&gt;node37</title>
<path fill="none" stroke="black" d="M1825.49,-365.66C1812.14,-363.7 1798.33,-361.74 1785.34,-360 1680.04,-345.9 1560.49,-331.79 1471.69,-321.68"/>
<polygon fill="black" stroke="black" points="1471.89,-318.18 1461.56,-320.53 1471.1,-325.14 1471.89,-318.18"/>
</g>
<!-- node30&#45;&gt;node37 -->
<g id="edge32" class="edge">
<title>node30&#45;&gt;node37</title>
<path fill="none" stroke="black" d="M2050.1,-365.36C2036.58,-363.4 2022.55,-361.51 2009.34,-360 1841.82,-340.8 1649.93,-326.39 1514.57,-317.48"/>
<polygon fill="black" stroke="black" points="1514.72,-313.98 1504.51,-316.82 1514.26,-320.96 1514.72,-313.98"/>
</g>
<!-- node33&#45;&gt;node37 -->
<g id="edge34" class="edge">
<title>node33&#45;&gt;node37</title>
<path fill="none" stroke="black" d="M2274.92,-365.17C2260.79,-363.23 2246.14,-361.4 2232.34,-360 1993.69,-335.77 1717.94,-321.48 1536.74,-313.96"/>
<polygon fill="black" stroke="black" points="1536.7,-310.46 1526.56,-313.55 1536.41,-317.45 1536.7,-310.46"/>
</g>
<!-- node36&#45;&gt;node37 -->
<g id="edge36" class="edge">
<title>node36&#45;&gt;node37</title>
<path fill="none" stroke="black" d="M2508.57,-365.03C2494.57,-363.1 2480.03,-361.31 2466.34,-360 2147.29,-329.39 1775.67,-316.26 1549.02,-310.77"/>
<polygon fill="black" stroke="black" points="1549.09,-307.27 1539.01,-310.53 1548.93,-314.27 1549.09,-307.27"/>
</g>
<!-- node40 -->
<g id="node31" class="node">
<title>node40</title>
<ellipse fill="none" stroke="black" cx="992.34" cy="-162" rx="107.48" ry="18"/>
<text text-anchor="middle" x="992.34" y="-158.3" font-family="Times,serif" font-size="14.00">&quot;BeamFirFilter_108&quot;</text>
</g>
<!-- node39&#45;&gt;node40 -->
<g id="edge41" class="edge">
<title>node39&#45;&gt;node40</title>
<path fill="none" stroke="black" d="M1008.9,-215.7C1006.45,-207.9 1003.5,-198.51 1000.77,-189.83"/>
<polygon fill="black" stroke="black" points="1004.05,-188.59 997.72,-180.1 997.38,-190.69 1004.05,-188.59"/>
</g>
<!-- node44 -->
<g id="node34" class="node">
<title>node44</title>
<ellipse fill="none" stroke="black" cx="1224.34" cy="-162" rx="107.48" ry="18"/>
<text text-anchor="middle" x="1224.34" y="-158.3" font-family="Times,serif" font-size="14.00">&quot;BeamFirFilter_113&quot;</text>
</g>
<!-- node43&#45;&gt;node44 -->
<g id="edge44" class="edge">
<title>node43&#45;&gt;node44</title>
<path fill="none" stroke="black" d="M1229.61,-215.7C1228.84,-207.98 1227.91,-198.71 1227.05,-190.11"/>
<polygon fill="black" stroke="black" points="1230.53,-189.71 1226.05,-180.1 1223.56,-190.4 1230.53,-189.71"/>
</g>
<!-- node48 -->
<g id="node36" class="node">
<title>node48</title>
<ellipse fill="none" stroke="black" cx="1456.34" cy="-162" rx="107.48" ry="18"/>
<text text-anchor="middle" x="1456.34" y="-158.3" font-family="Times,serif" font-size="14.00">&quot;BeamFirFilter_118&quot;</text>
</g>
<!-- node47&#45;&gt;node48 -->
<g id="edge47" class="edge">
<title>node47&#45;&gt;node48</title>
<path fill="none" stroke="black" d="M1450.32,-215.7C1451.2,-207.98 1452.26,-198.71 1453.24,-190.11"/>
<polygon fill="black" stroke="black" points="1456.73,-190.44 1454.39,-180.1 1449.77,-189.64 1456.73,-190.44"/>
</g>
<!-- node52 -->
<g id="node38" class="node">
<title>node52</title>
<ellipse fill="none" stroke="black" cx="1688.34" cy="-162" rx="107.48" ry="18"/>
<text text-anchor="middle" x="1688.34" y="-158.3" font-family="Times,serif" font-size="14.00">&quot;BeamFirFilter_123&quot;</text>
</g>
<!-- node51&#45;&gt;node52 -->
<g id="edge50" class="edge">
<title>node51&#45;&gt;node52</title>
<path fill="none" stroke="black" d="M1677.05,-215.7C1678.7,-207.98 1680.69,-198.71 1682.53,-190.11"/>
<polygon fill="black" stroke="black" points="1686,-190.62 1684.68,-180.1 1679.16,-189.15 1686,-190.62"/>
</g>
<!-- node41 -->
<g id="node32" class="node">
<title>node41</title>
<ellipse fill="none" stroke="black" cx="1016.34" cy="-90" rx="91.78" ry="18"/>
<text text-anchor="middle" x="1016.34" y="-86.3" font-family="Times,serif" font-size="14.00">&quot;Magnitude_109&quot;</text>
</g>
<!-- node40&#45;&gt;node41 -->
<g id="edge42" class="edge">
<title>node40&#45;&gt;node41</title>
<path fill="none" stroke="black" d="M998.27,-143.7C1000.95,-135.9 1004.17,-126.51 1007.14,-117.83"/>
<polygon fill="black" stroke="black" points="1010.54,-118.7 1010.48,-108.1 1003.92,-116.43 1010.54,-118.7"/>
</g>
<!-- node55 -->
<g id="node33" class="node">
<title>node55</title>
<ellipse fill="none" stroke="black" cx="1332.34" cy="-18" rx="206.06" ry="18"/>
<text text-anchor="middle" x="1332.34" y="-14.3" font-family="Times,serif" font-size="14.00">&quot;WEIGHTED_ROUND_ROBIN_Joiner_129&quot;</text>
</g>
<!-- node41&#45;&gt;node55 -->
<g id="edge43" class="edge">
<title>node41&#45;&gt;node55</title>
<path fill="none" stroke="black" d="M1074.67,-76.08C1124.03,-65.15 1195.32,-49.35 1250.41,-37.15"/>
<polygon fill="black" stroke="black" points="1251.49,-40.5 1260.5,-34.92 1249.97,-33.66 1251.49,-40.5"/>
</g>
<!-- node45 -->
<g id="node35" class="node">
<title>node45</title>
<ellipse fill="none" stroke="black" cx="1232.34" cy="-90" rx="91.78" ry="18"/>
<text text-anchor="middle" x="1232.34" y="-86.3" font-family="Times,serif" font-size="14.00">&quot;Magnitude_114&quot;</text>
</g>
<!-- node44&#45;&gt;node45 -->
<g id="edge45" class="edge">
<title>node44&#45;&gt;node45</title>
<path fill="none" stroke="black" d="M1226.32,-143.7C1227.2,-135.98 1228.26,-126.71 1229.24,-118.11"/>
<polygon fill="black" stroke="black" points="1232.73,-118.44 1230.39,-108.1 1225.77,-117.64 1232.73,-118.44"/>
</g>
<!-- node45&#45;&gt;node55 -->
<g id="edge46" class="edge">
<title>node45&#45;&gt;node55</title>
<path fill="none" stroke="black" d="M1255.79,-72.59C1268.79,-63.49 1285.17,-52.02 1299.44,-42.03"/>
<polygon fill="black" stroke="black" points="1301.81,-44.64 1308,-36.04 1297.8,-38.91 1301.81,-44.64"/>
</g>
<!-- node49 -->
<g id="node37" class="node">
<title>node49</title>
<ellipse fill="none" stroke="black" cx="1448.34" cy="-90" rx="91.78" ry="18"/>
<text text-anchor="middle" x="1448.34" y="-86.3" font-family="Times,serif" font-size="14.00">&quot;Magnitude_119&quot;</text>
</g>
<!-- node48&#45;&gt;node49 -->
<g id="edge48" class="edge">
<title>node48&#45;&gt;node49</title>
<path fill="none" stroke="black" d="M1454.36,-143.7C1453.48,-135.98 1452.42,-126.71 1451.44,-118.11"/>
<polygon fill="black" stroke="black" points="1454.91,-117.64 1450.3,-108.1 1447.95,-118.44 1454.91,-117.64"/>
</g>
<!-- node49&#45;&gt;node55 -->
<g id="edge49" class="edge">
<title>node49&#45;&gt;node55</title>
<path fill="none" stroke="black" d="M1421.44,-72.76C1405.82,-63.34 1385.93,-51.34 1368.91,-41.07"/>
<polygon fill="black" stroke="black" points="1370.68,-38.05 1360.31,-35.88 1367.06,-44.04 1370.68,-38.05"/>
</g>
<!-- node53 -->
<g id="node39" class="node">
<title>node53</title>
<ellipse fill="none" stroke="black" cx="1672.34" cy="-90" rx="91.78" ry="18"/>
<text text-anchor="middle" x="1672.34" y="-86.3" font-family="Times,serif" font-size="14.00">&quot;Magnitude_124&quot;</text>
</g>
<!-- node52&#45;&gt;node53 -->
<g id="edge51" class="edge">
<title>node52&#45;&gt;node53</title>
<path fill="none" stroke="black" d="M1684.39,-143.7C1682.62,-135.98 1680.5,-126.71 1678.54,-118.11"/>
<polygon fill="black" stroke="black" points="1681.89,-117.07 1676.25,-108.1 1675.07,-118.63 1681.89,-117.07"/>
</g>
<!-- node53&#45;&gt;node55 -->
<g id="edge52" class="edge">
<title>node53&#45;&gt;node55</title>
<path fill="none" stroke="black" d="M1611.56,-76.49C1557.91,-65.44 1479.1,-49.21 1418.87,-36.82"/>
<polygon fill="black" stroke="black" points="1419.5,-33.37 1409,-34.78 1418.08,-40.23 1419.5,-33.37"/>
</g>
</g>
</svg>
