<?xml version="1.0" encoding="UTF-8" standalone="no"?>
<!DOCTYPE svg PUBLIC "-//W3C//DTD SVG 1.1//EN"
 "http://www.w3.org/Graphics/SVG/1.1/DTD/svg11.dtd">
<!-- Generated by graphviz version 2.43.0 (0)
 -->
<!-- Title: BeamFormer_166 Pages: 1 -->
<svg width="2498pt" height="764pt"
 viewBox="0.00 0.00 2497.63 764.00" xmlns="http://www.w3.org/2000/svg" xmlns:xlink="http://www.w3.org/1999/xlink">
<g id="graph0" class="graph" transform="scale(1 1) rotate(0) translate(4 760)">
<title>BeamFormer_166</title>
<polygon fill="white" stroke="transparent" points="-4,4 -4,-760 2493.63,-760 2493.63,4 -4,4"/>
<!-- node0 -->
<g id="node1" class="node">
<title>node0</title>
<ellipse fill="none" stroke="black" cx="1238.89" cy="-738" rx="205.26" ry="18"/>
<text text-anchor="middle" x="1238.89" y="-734.3" font-family="Times,serif" font-size="14.00">WEIGHTED_ROUND_ROBIN_Splitter_126</text>
</g>
<!-- node1 -->
<g id="node2" class="node">
<title>node1</title>
<ellipse fill="none" stroke="black" cx="94.89" cy="-666" rx="94.78" ry="18"/>
<text text-anchor="middle" x="94.89" y="-662.3" font-family="Times,serif" font-size="14.00">InputGenerate_59</text>
</g>
<!-- node0&#45;&gt;node1 -->
<g id="edge1" class="edge">
<title>node0&#45;&gt;node1</title>
<path fill="none" stroke="black" d="M1039.97,-733.42C830.27,-728.12 490.56,-715.17 198.89,-684 189.87,-683.04 180.45,-681.81 171.11,-680.45"/>
<polygon fill="black" stroke="black" points="171.45,-676.97 161.04,-678.94 170.41,-683.89 171.45,-676.97"/>
</g>
<!-- node4 -->
<g id="node5" class="node">
<title>node4</title>
<ellipse fill="none" stroke="black" cx="302.89" cy="-666" rx="94.78" ry="18"/>
<text text-anchor="middle" x="302.89" y="-662.3" font-family="Times,serif" font-size="14.00">InputGenerate_63</text>
</g>
<!-- node0&#45;&gt;node4 -->
<g id="edge4" class="edge">
<title>node0&#45;&gt;node4</title>
<path fill="none" stroke="black" d="M1052.56,-730.38C883.63,-723.13 628.01,-709.05 406.89,-684 397.95,-682.99 388.6,-681.73 379.33,-680.37"/>
<polygon fill="black" stroke="black" points="379.74,-676.9 369.33,-678.86 378.7,-683.82 379.74,-676.9"/>
</g>
<!-- node7 -->
<g id="node8" class="node">
<title>node7</title>
<ellipse fill="none" stroke="black" cx="510.89" cy="-666" rx="94.78" ry="18"/>
<text text-anchor="middle" x="510.89" y="-662.3" font-family="Times,serif" font-size="14.00">InputGenerate_67</text>
</g>
<!-- node0&#45;&gt;node7 -->
<g id="edge7" class="edge">
<title>node0&#45;&gt;node7</title>
<path fill="none" stroke="black" d="M1078.23,-726.78C951.99,-717.93 771.88,-703.47 614.89,-684 606.25,-682.93 597.23,-681.67 588.27,-680.33"/>
<polygon fill="black" stroke="black" points="588.61,-676.84 578.19,-678.78 587.55,-683.76 588.61,-676.84"/>
</g>
<!-- node10 -->
<g id="node11" class="node">
<title>node10</title>
<ellipse fill="none" stroke="black" cx="718.89" cy="-666" rx="94.78" ry="18"/>
<text text-anchor="middle" x="718.89" y="-662.3" font-family="Times,serif" font-size="14.00">InputGenerate_71</text>
</g>
<!-- node0&#45;&gt;node10 -->
<g id="edge10" class="edge">
<title>node0&#45;&gt;node10</title>
<path fill="none" stroke="black" d="M1121.74,-723.19C1038.31,-713.09 923.58,-698.64 822.89,-684 814.63,-682.8 806.01,-681.49 797.42,-680.14"/>
<polygon fill="black" stroke="black" points="797.79,-676.65 787.37,-678.55 796.7,-683.57 797.79,-676.65"/>
</g>
<!-- node13 -->
<g id="node14" class="node">
<title>node13</title>
<ellipse fill="none" stroke="black" cx="926.89" cy="-666" rx="94.78" ry="18"/>
<text text-anchor="middle" x="926.89" y="-662.3" font-family="Times,serif" font-size="14.00">InputGenerate_75</text>
</g>
<!-- node0&#45;&gt;node13 -->
<g id="edge13" class="edge">
<title>node0&#45;&gt;node13</title>
<path fill="none" stroke="black" d="M1167.7,-721.03C1116.11,-709.45 1046.73,-693.89 995.7,-682.44"/>
<polygon fill="black" stroke="black" points="996.27,-678.98 985.74,-680.2 994.74,-685.81 996.27,-678.98"/>
</g>
<!-- node16 -->
<g id="node17" class="node">
<title>node16</title>
<ellipse fill="none" stroke="black" cx="1134.89" cy="-666" rx="94.78" ry="18"/>
<text text-anchor="middle" x="1134.89" y="-662.3" font-family="Times,serif" font-size="14.00">InputGenerate_79</text>
</g>
<!-- node0&#45;&gt;node16 -->
<g id="edge16" class="edge">
<title>node0&#45;&gt;node16</title>
<path fill="none" stroke="black" d="M1213.72,-720.05C1199.95,-710.79 1182.72,-699.19 1167.89,-689.21"/>
<polygon fill="black" stroke="black" points="1169.73,-686.23 1159.48,-683.55 1165.82,-692.03 1169.73,-686.23"/>
</g>
<!-- node19 -->
<g id="node20" class="node">
<title>node19</title>
<ellipse fill="none" stroke="black" cx="1342.89" cy="-666" rx="94.78" ry="18"/>
<text text-anchor="middle" x="1342.89" y="-662.3" font-family="Times,serif" font-size="14.00">InputGenerate_83</text>
</g>
<!-- node0&#45;&gt;node19 -->
<g id="edge19" class="edge">
<title>node0&#45;&gt;node19</title>
<path fill="none" stroke="black" d="M1264.07,-720.05C1277.84,-710.79 1295.06,-699.19 1309.89,-689.21"/>
<polygon fill="black" stroke="black" points="1311.97,-692.03 1318.31,-683.55 1308.06,-686.23 1311.97,-692.03"/>
</g>
<!-- node22 -->
<g id="node23" class="node">
<title>node22</title>
<ellipse fill="none" stroke="black" cx="1550.89" cy="-666" rx="94.78" ry="18"/>
<text text-anchor="middle" x="1550.89" y="-662.3" font-family="Times,serif" font-size="14.00">InputGenerate_87</text>
</g>
<!-- node0&#45;&gt;node22 -->
<g id="edge22" class="edge">
<title>node0&#45;&gt;node22</title>
<path fill="none" stroke="black" d="M1310.08,-721.03C1361.67,-709.45 1431.05,-693.89 1482.09,-682.44"/>
<polygon fill="black" stroke="black" points="1483.05,-685.81 1492.04,-680.2 1481.52,-678.98 1483.05,-685.81"/>
</g>
<!-- node25 -->
<g id="node26" class="node">
<title>node25</title>
<ellipse fill="none" stroke="black" cx="1758.89" cy="-666" rx="94.78" ry="18"/>
<text text-anchor="middle" x="1758.89" y="-662.3" font-family="Times,serif" font-size="14.00">InputGenerate_91</text>
</g>
<!-- node0&#45;&gt;node25 -->
<g id="edge25" class="edge">
<title>node0&#45;&gt;node25</title>
<path fill="none" stroke="black" d="M1356.04,-723.19C1439.48,-713.09 1554.2,-698.64 1654.89,-684 1663.15,-682.8 1671.78,-681.49 1680.37,-680.14"/>
<polygon fill="black" stroke="black" points="1681.09,-683.57 1690.42,-678.55 1679.99,-676.65 1681.09,-683.57"/>
</g>
<!-- node28 -->
<g id="node29" class="node">
<title>node28</title>
<ellipse fill="none" stroke="black" cx="1966.89" cy="-666" rx="94.78" ry="18"/>
<text text-anchor="middle" x="1966.89" y="-662.3" font-family="Times,serif" font-size="14.00">InputGenerate_95</text>
</g>
<!-- node0&#45;&gt;node28 -->
<g id="edge28" class="edge">
<title>node0&#45;&gt;node28</title>
<path fill="none" stroke="black" d="M1399.56,-726.78C1525.79,-717.93 1705.9,-703.47 1862.89,-684 1871.53,-682.93 1880.55,-681.67 1889.52,-680.33"/>
<polygon fill="black" stroke="black" points="1890.23,-683.76 1899.59,-678.78 1889.17,-676.84 1890.23,-683.76"/>
</g>
<!-- node31 -->
<g id="node32" class="node">
<title>node31</title>
<ellipse fill="none" stroke="black" cx="2174.89" cy="-666" rx="94.78" ry="18"/>
<text text-anchor="middle" x="2174.89" y="-662.3" font-family="Times,serif" font-size="14.00">InputGenerate_99</text>
</g>
<!-- node0&#45;&gt;node31 -->
<g id="edge31" class="edge">
<title>node0&#45;&gt;node31</title>
<path fill="none" stroke="black" d="M1425.23,-730.38C1594.15,-723.13 1849.77,-709.05 2070.89,-684 2079.84,-682.99 2089.18,-681.73 2098.45,-680.37"/>
<polygon fill="black" stroke="black" points="2099.09,-683.82 2108.45,-678.86 2098.04,-676.9 2099.09,-683.82"/>
</g>
<!-- node34 -->
<g id="node35" class="node">
<title>node34</title>
<ellipse fill="none" stroke="black" cx="2388.89" cy="-666" rx="100.98" ry="18"/>
<text text-anchor="middle" x="2388.89" y="-662.3" font-family="Times,serif" font-size="14.00">InputGenerate_103</text>
</g>
<!-- node0&#45;&gt;node34 -->
<g id="edge34" class="edge">
<title>node0&#45;&gt;node34</title>
<path fill="none" stroke="black" d="M1436.31,-732.95C1645.84,-727.25 1986.41,-713.97 2278.89,-684 2288.55,-683.01 2298.66,-681.75 2308.66,-680.37"/>
<polygon fill="black" stroke="black" points="2309.2,-683.83 2318.61,-678.96 2308.22,-676.9 2309.2,-683.83"/>
</g>
<!-- node2 -->
<g id="node3" class="node">
<title>node2</title>
<ellipse fill="none" stroke="black" cx="96.89" cy="-594" rx="92.88" ry="18"/>
<text text-anchor="middle" x="96.89" y="-590.3" font-family="Times,serif" font-size="14.00">BeamFirFilter_60</text>
</g>
<!-- node1&#45;&gt;node2 -->
<g id="edge2" class="edge">
<title>node1&#45;&gt;node2</title>
<path fill="none" stroke="black" d="M95.39,-647.7C95.61,-639.98 95.87,-630.71 96.12,-622.11"/>
<polygon fill="black" stroke="black" points="99.62,-622.2 96.4,-612.1 92.62,-622 99.62,-622.2"/>
</g>
<!-- node3 -->
<g id="node4" class="node">
<title>node3</title>
<ellipse fill="none" stroke="black" cx="97.89" cy="-522" rx="92.88" ry="18"/>
<text text-anchor="middle" x="97.89" y="-518.3" font-family="Times,serif" font-size="14.00">BeamFirFilter_61</text>
</g>
<!-- node2&#45;&gt;node3 -->
<g id="edge3" class="edge">
<title>node2&#45;&gt;node3</title>
<path fill="none" stroke="black" d="M97.14,-575.7C97.25,-567.98 97.38,-558.71 97.5,-550.11"/>
<polygon fill="black" stroke="black" points="101,-550.15 97.65,-540.1 94,-550.05 101,-550.15"/>
</g>
<!-- node37 -->
<g id="node38" class="node">
<title>node37</title>
<ellipse fill="none" stroke="black" cx="1238.89" cy="-450" rx="196.87" ry="18"/>
<text text-anchor="middle" x="1238.89" y="-446.3" font-family="Times,serif" font-size="14.00">WEIGHTED_ROUND_ROBIN_Joiner_127</text>
</g>
<!-- node3&#45;&gt;node37 -->
<g id="edge37" class="edge">
<title>node3&#45;&gt;node37</title>
<path fill="none" stroke="black" d="M165.57,-509.62C180.15,-507.48 195.51,-505.46 209.89,-504 497.5,-474.84 832.04,-461.37 1039.66,-455.41"/>
<polygon fill="black" stroke="black" points="1039.86,-458.91 1049.75,-455.12 1039.66,-451.91 1039.86,-458.91"/>
</g>
<!-- node5 -->
<g id="node6" class="node">
<title>node5</title>
<ellipse fill="none" stroke="black" cx="304.89" cy="-594" rx="92.88" ry="18"/>
<text text-anchor="middle" x="304.89" y="-590.3" font-family="Times,serif" font-size="14.00">BeamFirFilter_64</text>
</g>
<!-- node4&#45;&gt;node5 -->
<g id="edge5" class="edge">
<title>node4&#45;&gt;node5</title>
<path fill="none" stroke="black" d="M303.39,-647.7C303.61,-639.98 303.87,-630.71 304.12,-622.11"/>
<polygon fill="black" stroke="black" points="307.62,-622.2 304.4,-612.1 300.62,-622 307.62,-622.2"/>
</g>
<!-- node6 -->
<g id="node7" class="node">
<title>node6</title>
<ellipse fill="none" stroke="black" cx="311.89" cy="-522" rx="92.88" ry="18"/>
<text text-anchor="middle" x="311.89" y="-518.3" font-family="Times,serif" font-size="14.00">BeamFirFilter_65</text>
</g>
<!-- node5&#45;&gt;node6 -->
<g id="edge6" class="edge">
<title>node5&#45;&gt;node6</title>
<path fill="none" stroke="black" d="M306.62,-575.7C307.39,-567.98 308.32,-558.71 309.18,-550.11"/>
<polygon fill="black" stroke="black" points="312.67,-550.4 310.18,-540.1 305.7,-549.71 312.67,-550.4"/>
</g>
<!-- node6&#45;&gt;node37 -->
<g id="edge38" class="edge">
<title>node6&#45;&gt;node37</title>
<path fill="none" stroke="black" d="M378.54,-509.43C391.88,-507.39 405.81,-505.46 418.89,-504 634.84,-479.92 884.09,-465.73 1050.57,-458.19"/>
<polygon fill="black" stroke="black" points="1051.09,-461.67 1060.92,-457.72 1050.77,-454.68 1051.09,-461.67"/>
</g>
<!-- node8 -->
<g id="node9" class="node">
<title>node8</title>
<ellipse fill="none" stroke="black" cx="512.89" cy="-594" rx="92.88" ry="18"/>
<text text-anchor="middle" x="512.89" y="-590.3" font-family="Times,serif" font-size="14.00">BeamFirFilter_68</text>
</g>
<!-- node7&#45;&gt;node8 -->
<g id="edge8" class="edge">
<title>node7&#45;&gt;node8</title>
<path fill="none" stroke="black" d="M511.39,-647.7C511.61,-639.98 511.87,-630.71 512.12,-622.11"/>
<polygon fill="black" stroke="black" points="515.62,-622.2 512.4,-612.1 508.62,-622 515.62,-622.2"/>
</g>
<!-- node9 -->
<g id="node10" class="node">
<title>node9</title>
<ellipse fill="none" stroke="black" cx="520.89" cy="-522" rx="92.88" ry="18"/>
<text text-anchor="middle" x="520.89" y="-518.3" font-family="Times,serif" font-size="14.00">BeamFirFilter_69</text>
</g>
<!-- node8&#45;&gt;node9 -->
<g id="edge9" class="edge">
<title>node8&#45;&gt;node9</title>
<path fill="none" stroke="black" d="M514.87,-575.7C515.75,-567.98 516.81,-558.71 517.79,-550.11"/>
<polygon fill="black" stroke="black" points="521.28,-550.44 518.94,-540.1 514.32,-549.64 521.28,-550.44"/>
</g>
<!-- node9&#45;&gt;node37 -->
<g id="edge39" class="edge">
<title>node9&#45;&gt;node37</title>
<path fill="none" stroke="black" d="M587.36,-509.36C599.81,-507.4 612.73,-505.52 624.89,-504 776.31,-485.12 949.58,-470.82 1073.35,-461.87"/>
<polygon fill="black" stroke="black" points="1073.95,-465.33 1083.67,-461.13 1073.45,-458.35 1073.95,-465.33"/>
</g>
<!-- node11 -->
<g id="node12" class="node">
<title>node11</title>
<ellipse fill="none" stroke="black" cx="720.89" cy="-594" rx="92.88" ry="18"/>
<text text-anchor="middle" x="720.89" y="-590.3" font-family="Times,serif" font-size="14.00">BeamFirFilter_72</text>
</g>
<!-- node10&#45;&gt;node11 -->
<g id="edge11" class="edge">
<title>node10&#45;&gt;node11</title>
<path fill="none" stroke="black" d="M719.39,-647.7C719.61,-639.98 719.87,-630.71 720.12,-622.11"/>
<polygon fill="black" stroke="black" points="723.62,-622.2 720.4,-612.1 716.62,-622 723.62,-622.2"/>
</g>
<!-- node12 -->
<g id="node13" class="node">
<title>node12</title>
<ellipse fill="none" stroke="black" cx="726.89" cy="-522" rx="92.88" ry="18"/>
<text text-anchor="middle" x="726.89" y="-518.3" font-family="Times,serif" font-size="14.00">BeamFirFilter_73</text>
</g>
<!-- node11&#45;&gt;node12 -->
<g id="edge12" class="edge">
<title>node11&#45;&gt;node12</title>
<path fill="none" stroke="black" d="M722.37,-575.7C723.04,-567.98 723.83,-558.71 724.57,-550.11"/>
<polygon fill="black" stroke="black" points="728.06,-550.37 725.43,-540.1 721.08,-549.77 728.06,-550.37"/>
</g>
<!-- node12&#45;&gt;node37 -->
<g id="edge40" class="edge">
<title>node12&#45;&gt;node37</title>
<path fill="none" stroke="black" d="M794.16,-509.55C806.05,-507.63 818.33,-505.7 829.89,-504 925.17,-489.97 1033.22,-476.05 1114.33,-466"/>
<polygon fill="black" stroke="black" points="1115.1,-469.43 1124.59,-464.73 1114.24,-462.49 1115.1,-469.43"/>
</g>
<!-- node14 -->
<g id="node15" class="node">
<title>node14</title>
<ellipse fill="none" stroke="black" cx="928.89" cy="-594" rx="92.88" ry="18"/>
<text text-anchor="middle" x="928.89" y="-590.3" font-family="Times,serif" font-size="14.00">BeamFirFilter_76</text>
</g>
<!-- node13&#45;&gt;node14 -->
<g id="edge14" class="edge">
<title>node13&#45;&gt;node14</title>
<path fill="none" stroke="black" d="M927.39,-647.7C927.61,-639.98 927.87,-630.71 928.12,-622.11"/>
<polygon fill="black" stroke="black" points="931.62,-622.2 928.4,-612.1 924.62,-622 931.62,-622.2"/>
</g>
<!-- node15 -->
<g id="node16" class="node">
<title>node15</title>
<ellipse fill="none" stroke="black" cx="931.89" cy="-522" rx="92.88" ry="18"/>
<text text-anchor="middle" x="931.89" y="-518.3" font-family="Times,serif" font-size="14.00">BeamFirFilter_77</text>
</g>
<!-- node14&#45;&gt;node15 -->
<g id="edge15" class="edge">
<title>node14&#45;&gt;node15</title>
<path fill="none" stroke="black" d="M929.63,-575.7C929.96,-567.98 930.36,-558.71 930.73,-550.11"/>
<polygon fill="black" stroke="black" points="934.23,-550.25 931.16,-540.1 927.23,-549.95 934.23,-550.25"/>
</g>
<!-- node15&#45;&gt;node37 -->
<g id="edge41" class="edge">
<title>node15&#45;&gt;node37</title>
<path fill="none" stroke="black" d="M989.64,-507.83C1037.53,-496.91 1106.13,-481.27 1159.24,-469.16"/>
<polygon fill="black" stroke="black" points="1160.33,-472.5 1169.3,-466.87 1158.78,-465.68 1160.33,-472.5"/>
</g>
<!-- node17 -->
<g id="node18" class="node">
<title>node17</title>
<ellipse fill="none" stroke="black" cx="1134.89" cy="-594" rx="92.88" ry="18"/>
<text text-anchor="middle" x="1134.89" y="-590.3" font-family="Times,serif" font-size="14.00">BeamFirFilter_80</text>
</g>
<!-- node16&#45;&gt;node17 -->
<g id="edge17" class="edge">
<title>node16&#45;&gt;node17</title>
<path fill="none" stroke="black" d="M1134.89,-647.7C1134.89,-639.98 1134.89,-630.71 1134.89,-622.11"/>
<polygon fill="black" stroke="black" points="1138.39,-622.1 1134.89,-612.1 1131.39,-622.1 1138.39,-622.1"/>
</g>
<!-- node18 -->
<g id="node19" class="node">
<title>node18</title>
<ellipse fill="none" stroke="black" cx="1136.89" cy="-522" rx="92.88" ry="18"/>
<text text-anchor="middle" x="1136.89" y="-518.3" font-family="Times,serif" font-size="14.00">BeamFirFilter_81</text>
</g>
<!-- node17&#45;&gt;node18 -->
<g id="edge18" class="edge">
<title>node17&#45;&gt;node18</title>
<path fill="none" stroke="black" d="M1135.39,-575.7C1135.61,-567.98 1135.87,-558.71 1136.12,-550.11"/>
<polygon fill="black" stroke="black" points="1139.62,-550.2 1136.4,-540.1 1132.62,-550 1139.62,-550.2"/>
</g>
<!-- node18&#45;&gt;node37 -->
<g id="edge42" class="edge">
<title>node18&#45;&gt;node37</title>
<path fill="none" stroke="black" d="M1160.81,-504.59C1174.19,-495.4 1191.09,-483.8 1205.74,-473.75"/>
<polygon fill="black" stroke="black" points="1207.8,-476.58 1214.06,-468.04 1203.84,-470.81 1207.8,-476.58"/>
</g>
<!-- node20 -->
<g id="node21" class="node">
<title>node20</title>
<ellipse fill="none" stroke="black" cx="1341.89" cy="-594" rx="92.88" ry="18"/>
<text text-anchor="middle" x="1341.89" y="-590.3" font-family="Times,serif" font-size="14.00">BeamFirFilter_84</text>
</g>
<!-- node19&#45;&gt;node20 -->
<g id="edge20" class="edge">
<title>node19&#45;&gt;node20</title>
<path fill="none" stroke="black" d="M1342.64,-647.7C1342.53,-639.98 1342.4,-630.71 1342.28,-622.11"/>
<polygon fill="black" stroke="black" points="1345.78,-622.05 1342.14,-612.1 1338.78,-622.15 1345.78,-622.05"/>
</g>
<!-- node21 -->
<g id="node22" class="node">
<title>node21</title>
<ellipse fill="none" stroke="black" cx="1341.89" cy="-522" rx="92.88" ry="18"/>
<text text-anchor="middle" x="1341.89" y="-518.3" font-family="Times,serif" font-size="14.00">BeamFirFilter_85</text>
</g>
<!-- node20&#45;&gt;node21 -->
<g id="edge21" class="edge">
<title>node20&#45;&gt;node21</title>
<path fill="none" stroke="black" d="M1341.89,-575.7C1341.89,-567.98 1341.89,-558.71 1341.89,-550.11"/>
<polygon fill="black" stroke="black" points="1345.39,-550.1 1341.89,-540.1 1338.39,-550.1 1345.39,-550.1"/>
</g>
<!-- node21&#45;&gt;node37 -->
<g id="edge43" class="edge">
<title>node21&#45;&gt;node37</title>
<path fill="none" stroke="black" d="M1317.74,-504.59C1304.22,-495.4 1287.16,-483.8 1272.37,-473.75"/>
<polygon fill="black" stroke="black" points="1274.2,-470.77 1263.96,-468.04 1270.27,-476.56 1274.2,-470.77"/>
</g>
<!-- node23 -->
<g id="node24" class="node">
<title>node23</title>
<ellipse fill="none" stroke="black" cx="1547.89" cy="-594" rx="92.88" ry="18"/>
<text text-anchor="middle" x="1547.89" y="-590.3" font-family="Times,serif" font-size="14.00">BeamFirFilter_88</text>
</g>
<!-- node22&#45;&gt;node23 -->
<g id="edge23" class="edge">
<title>node22&#45;&gt;node23</title>
<path fill="none" stroke="black" d="M1550.15,-647.7C1549.82,-639.98 1549.42,-630.71 1549.05,-622.11"/>
<polygon fill="black" stroke="black" points="1552.55,-621.95 1548.62,-612.1 1545.56,-622.25 1552.55,-621.95"/>
</g>
<!-- node24 -->
<g id="node25" class="node">
<title>node24</title>
<ellipse fill="none" stroke="black" cx="1547.89" cy="-522" rx="92.88" ry="18"/>
<text text-anchor="middle" x="1547.89" y="-518.3" font-family="Times,serif" font-size="14.00">BeamFirFilter_89</text>
</g>
<!-- node23&#45;&gt;node24 -->
<g id="edge24" class="edge">
<title>node23&#45;&gt;node24</title>
<path fill="none" stroke="black" d="M1547.89,-575.7C1547.89,-567.98 1547.89,-558.71 1547.89,-550.11"/>
<polygon fill="black" stroke="black" points="1551.39,-550.1 1547.89,-540.1 1544.39,-550.1 1551.39,-550.1"/>
</g>
<!-- node24&#45;&gt;node37 -->
<g id="edge44" class="edge">
<title>node24&#45;&gt;node37</title>
<path fill="none" stroke="black" d="M1489.77,-507.83C1441.47,-496.89 1372.23,-481.21 1318.73,-469.09"/>
<polygon fill="black" stroke="black" points="1319.46,-465.66 1308.93,-466.87 1317.91,-472.49 1319.46,-465.66"/>
</g>
<!-- node26 -->
<g id="node27" class="node">
<title>node26</title>
<ellipse fill="none" stroke="black" cx="1752.89" cy="-594" rx="92.88" ry="18"/>
<text text-anchor="middle" x="1752.89" y="-590.3" font-family="Times,serif" font-size="14.00">BeamFirFilter_92</text>
</g>
<!-- node25&#45;&gt;node26 -->
<g id="edge26" class="edge">
<title>node25&#45;&gt;node26</title>
<path fill="none" stroke="black" d="M1757.41,-647.7C1756.75,-639.98 1755.95,-630.71 1755.22,-622.11"/>
<polygon fill="black" stroke="black" points="1758.7,-621.77 1754.36,-612.1 1751.72,-622.37 1758.7,-621.77"/>
</g>
<!-- node27 -->
<g id="node28" class="node">
<title>node27</title>
<ellipse fill="none" stroke="black" cx="1752.89" cy="-522" rx="92.88" ry="18"/>
<text text-anchor="middle" x="1752.89" y="-518.3" font-family="Times,serif" font-size="14.00">BeamFirFilter_93</text>
</g>
<!-- node26&#45;&gt;node27 -->
<g id="edge27" class="edge">
<title>node26&#45;&gt;node27</title>
<path fill="none" stroke="black" d="M1752.89,-575.7C1752.89,-567.98 1752.89,-558.71 1752.89,-550.11"/>
<polygon fill="black" stroke="black" points="1756.39,-550.1 1752.89,-540.1 1749.39,-550.1 1756.39,-550.1"/>
</g>
<!-- node27&#45;&gt;node37 -->
<g id="edge45" class="edge">
<title>node27&#45;&gt;node37</title>
<path fill="none" stroke="black" d="M1685.63,-509.55C1673.73,-507.62 1661.46,-505.7 1649.89,-504 1553.98,-489.91 1445.18,-475.97 1363.62,-465.92"/>
<polygon fill="black" stroke="black" points="1363.66,-462.4 1353.31,-464.66 1362.81,-469.35 1363.66,-462.4"/>
</g>
<!-- node29 -->
<g id="node30" class="node">
<title>node29</title>
<ellipse fill="none" stroke="black" cx="1956.89" cy="-594" rx="92.88" ry="18"/>
<text text-anchor="middle" x="1956.89" y="-590.3" font-family="Times,serif" font-size="14.00">BeamFirFilter_96</text>
</g>
<!-- node28&#45;&gt;node29 -->
<g id="edge29" class="edge">
<title>node28&#45;&gt;node29</title>
<path fill="none" stroke="black" d="M1964.42,-647.7C1963.32,-639.98 1961.99,-630.71 1960.76,-622.11"/>
<polygon fill="black" stroke="black" points="1964.21,-621.51 1959.34,-612.1 1957.28,-622.5 1964.21,-621.51"/>
</g>
<!-- node30 -->
<g id="node31" class="node">
<title>node30</title>
<ellipse fill="none" stroke="black" cx="1956.89" cy="-522" rx="92.88" ry="18"/>
<text text-anchor="middle" x="1956.89" y="-518.3" font-family="Times,serif" font-size="14.00">BeamFirFilter_97</text>
</g>
<!-- node29&#45;&gt;node30 -->
<g id="edge30" class="edge">
<title>node29&#45;&gt;node30</title>
<path fill="none" stroke="black" d="M1956.89,-575.7C1956.89,-567.98 1956.89,-558.71 1956.89,-550.11"/>
<polygon fill="black" stroke="black" points="1960.39,-550.1 1956.89,-540.1 1953.39,-550.1 1960.39,-550.1"/>
</g>
<!-- node30&#45;&gt;node37 -->
<g id="edge46" class="edge">
<title>node30&#45;&gt;node37</title>
<path fill="none" stroke="black" d="M1891.16,-509.26C1879.12,-507.33 1866.65,-505.48 1854.89,-504 1702.99,-484.84 1529.13,-470.58 1404.93,-461.7"/>
<polygon fill="black" stroke="black" points="1405.17,-458.21 1394.95,-460.99 1404.68,-465.19 1405.17,-458.21"/>
</g>
<!-- node32 -->
<g id="node33" class="node">
<title>node32</title>
<ellipse fill="none" stroke="black" cx="2166.89" cy="-594" rx="98.58" ry="18"/>
<text text-anchor="middle" x="2166.89" y="-590.3" font-family="Times,serif" font-size="14.00">BeamFirFilter_100</text>
</g>
<!-- node31&#45;&gt;node32 -->
<g id="edge32" class="edge">
<title>node31&#45;&gt;node32</title>
<path fill="none" stroke="black" d="M2172.91,-647.7C2172.03,-639.98 2170.97,-630.71 2169.99,-622.11"/>
<polygon fill="black" stroke="black" points="2173.46,-621.64 2168.85,-612.1 2166.5,-622.44 2173.46,-621.64"/>
</g>
<!-- node33 -->
<g id="node34" class="node">
<title>node33</title>
<ellipse fill="none" stroke="black" cx="2166.89" cy="-522" rx="98.58" ry="18"/>
<text text-anchor="middle" x="2166.89" y="-518.3" font-family="Times,serif" font-size="14.00">BeamFirFilter_101</text>
</g>
<!-- node32&#45;&gt;node33 -->
<g id="edge33" class="edge">
<title>node32&#45;&gt;node33</title>
<path fill="none" stroke="black" d="M2166.89,-575.7C2166.89,-567.98 2166.89,-558.71 2166.89,-550.11"/>
<polygon fill="black" stroke="black" points="2170.39,-550.1 2166.89,-540.1 2163.39,-550.1 2170.39,-550.1"/>
</g>
<!-- node33&#45;&gt;node37 -->
<g id="edge47" class="edge">
<title>node33&#45;&gt;node37</title>
<path fill="none" stroke="black" d="M2097.59,-509.13C2084.75,-507.2 2071.44,-505.39 2058.89,-504 1842.93,-480.07 1593.68,-465.86 1427.2,-458.27"/>
<polygon fill="black" stroke="black" points="1427,-454.75 1416.85,-457.8 1426.69,-461.75 1427,-454.75"/>
</g>
<!-- node35 -->
<g id="node36" class="node">
<title>node35</title>
<ellipse fill="none" stroke="black" cx="2387.89" cy="-594" rx="98.58" ry="18"/>
<text text-anchor="middle" x="2387.89" y="-590.3" font-family="Times,serif" font-size="14.00">BeamFirFilter_104</text>
</g>
<!-- node34&#45;&gt;node35 -->
<g id="edge35" class="edge">
<title>node34&#45;&gt;node35</title>
<path fill="none" stroke="black" d="M2388.64,-647.7C2388.53,-639.98 2388.4,-630.71 2388.28,-622.11"/>
<polygon fill="black" stroke="black" points="2391.78,-622.05 2388.14,-612.1 2384.78,-622.15 2391.78,-622.05"/>
</g>
<!-- node36 -->
<g id="node37" class="node">
<title>node36</title>
<ellipse fill="none" stroke="black" cx="2384.89" cy="-522" rx="98.58" ry="18"/>
<text text-anchor="middle" x="2384.89" y="-518.3" font-family="Times,serif" font-size="14.00">BeamFirFilter_105</text>
</g>
<!-- node35&#45;&gt;node36 -->
<g id="edge36" class="edge">
<title>node35&#45;&gt;node36</title>
<path fill="none" stroke="black" d="M2387.15,-575.7C2386.82,-567.98 2386.42,-558.71 2386.05,-550.11"/>
<polygon fill="black" stroke="black" points="2389.55,-549.95 2385.62,-540.1 2382.56,-550.25 2389.55,-549.95"/>
</g>
<!-- node36&#45;&gt;node37 -->
<g id="edge48" class="edge">
<title>node36&#45;&gt;node37</title>
<path fill="none" stroke="black" d="M2315.5,-509.17C2302.06,-507.2 2288.06,-505.35 2274.89,-504 1985.15,-474.28 1648.02,-460.96 1439.02,-455.18"/>
<polygon fill="black" stroke="black" points="1438.95,-451.67 1428.86,-454.9 1438.76,-458.67 1438.95,-451.67"/>
</g>
<!-- node38 -->
<g id="node39" class="node">
<title>node38</title>
<ellipse fill="none" stroke="black" cx="1238.89" cy="-378" rx="129.18" ry="18"/>
<text text-anchor="middle" x="1238.89" y="-374.3" font-family="Times,serif" font-size="14.00">DUPLICATE_Splitter_128</text>
</g>
<!-- node37&#45;&gt;node38 -->
<g id="edge49" class="edge">
<title>node37&#45;&gt;node38</title>
<path fill="none" stroke="black" d="M1238.89,-431.7C1238.89,-423.98 1238.89,-414.71 1238.89,-406.11"/>
<polygon fill="black" stroke="black" points="1242.39,-406.1 1238.89,-396.1 1235.39,-406.1 1242.39,-406.1"/>
</g>
<!-- node39 -->
<g id="node40" class="node">
<title>node39</title>
<ellipse fill="none" stroke="black" cx="938.89" cy="-306" rx="83.39" ry="18"/>
<text text-anchor="middle" x="938.89" y="-302.3" font-family="Times,serif" font-size="14.00">BeamForm_107</text>
</g>
<!-- node38&#45;&gt;node39 -->
<g id="edge50" class="edge">
<title>node38&#45;&gt;node39</title>
<path fill="none" stroke="black" d="M1175.64,-362.24C1125.03,-350.43 1054.36,-333.94 1003.42,-322.06"/>
<polygon fill="black" stroke="black" points="1004.04,-318.61 993.51,-319.74 1002.45,-325.42 1004.04,-318.61"/>
</g>
<!-- node43 -->
<g id="node44" class="node">
<title>node43</title>
<ellipse fill="none" stroke="black" cx="1138.89" cy="-306" rx="83.39" ry="18"/>
<text text-anchor="middle" x="1138.89" y="-302.3" font-family="Times,serif" font-size="14.00">BeamForm_112</text>
</g>
<!-- node38&#45;&gt;node43 -->
<g id="edge54" class="edge">
<title>node38&#45;&gt;node43</title>
<path fill="none" stroke="black" d="M1214.94,-360.23C1201.73,-350.99 1185.16,-339.39 1170.86,-329.38"/>
<polygon fill="black" stroke="black" points="1172.5,-326.26 1162.3,-323.39 1168.49,-331.99 1172.5,-326.26"/>
</g>
<!-- node47 -->
<g id="node48" class="node">
<title>node47</title>
<ellipse fill="none" stroke="black" cx="1338.89" cy="-306" rx="83.39" ry="18"/>
<text text-anchor="middle" x="1338.89" y="-302.3" font-family="Times,serif" font-size="14.00">BeamForm_117</text>
</g>
<!-- node38&#45;&gt;node47 -->
<g id="edge58" class="edge">
<title>node38&#45;&gt;node47</title>
<path fill="none" stroke="black" d="M1262.84,-360.23C1276.05,-350.99 1292.62,-339.39 1306.92,-329.38"/>
<polygon fill="black" stroke="black" points="1309.29,-331.99 1315.48,-323.39 1305.28,-326.26 1309.29,-331.99"/>
</g>
<!-- node51 -->
<g id="node52" class="node">
<title>node51</title>
<ellipse fill="none" stroke="black" cx="1546.89" cy="-306" rx="83.39" ry="18"/>
<text text-anchor="middle" x="1546.89" y="-302.3" font-family="Times,serif" font-size="14.00">BeamForm_122</text>
</g>
<!-- node38&#45;&gt;node51 -->
<g id="edge62" class="edge">
<title>node38&#45;&gt;node51</title>
<path fill="none" stroke="black" d="M1303.46,-362.33C1355.83,-350.42 1429.31,-333.72 1481.81,-321.79"/>
<polygon fill="black" stroke="black" points="1482.71,-325.18 1491.69,-319.55 1481.16,-318.35 1482.71,-325.18"/>
</g>
<!-- node40 -->
<g id="node41" class="node">
<title>node40</title>
<ellipse fill="none" stroke="black" cx="914.89" cy="-234" rx="98.58" ry="18"/>
<text text-anchor="middle" x="914.89" y="-230.3" font-family="Times,serif" font-size="14.00">BeamFirFilter_108</text>
</g>
<!-- node39&#45;&gt;node40 -->
<g id="edge51" class="edge">
<title>node39&#45;&gt;node40</title>
<path fill="none" stroke="black" d="M932.96,-287.7C930.29,-279.9 927.07,-270.51 924.09,-261.83"/>
<polygon fill="black" stroke="black" points="927.31,-260.43 920.76,-252.1 920.69,-262.7 927.31,-260.43"/>
</g>
<!-- node41 -->
<g id="node42" class="node">
<title>node41</title>
<ellipse fill="none" stroke="black" cx="926.89" cy="-162" rx="83.39" ry="18"/>
<text text-anchor="middle" x="926.89" y="-158.3" font-family="Times,serif" font-size="14.00">Magnitude_109</text>
</g>
<!-- node40&#45;&gt;node41 -->
<g id="edge52" class="edge">
<title>node40&#45;&gt;node41</title>
<path fill="none" stroke="black" d="M917.86,-215.7C919.18,-207.98 920.77,-198.71 922.24,-190.11"/>
<polygon fill="black" stroke="black" points="925.72,-190.55 923.96,-180.1 918.82,-189.37 925.72,-190.55"/>
</g>
<!-- node42 -->
<g id="node43" class="node">
<title>node42</title>
<ellipse fill="none" stroke="black" cx="935.89" cy="-90" rx="89.88" ry="18"/>
<text text-anchor="middle" x="935.89" y="-86.3" font-family="Times,serif" font-size="14.00">FloatPrinter_110</text>
</g>
<!-- node41&#45;&gt;node42 -->
<g id="edge53" class="edge">
<title>node41&#45;&gt;node42</title>
<path fill="none" stroke="black" d="M929.12,-143.7C930.11,-135.98 931.3,-126.71 932.41,-118.11"/>
<polygon fill="black" stroke="black" points="935.89,-118.47 933.69,-108.1 928.95,-117.58 935.89,-118.47"/>
</g>
<!-- node55 -->
<g id="node56" class="node">
<title>node55</title>
<ellipse fill="none" stroke="black" cx="1235.89" cy="-18" rx="196.87" ry="18"/>
<text text-anchor="middle" x="1235.89" y="-14.3" font-family="Times,serif" font-size="14.00">WEIGHTED_ROUND_ROBIN_Joiner_129</text>
</g>
<!-- node42&#45;&gt;node55 -->
<g id="edge66" class="edge">
<title>node42&#45;&gt;node55</title>
<path fill="none" stroke="black" d="M991.97,-75.92C1038.73,-65 1105.87,-49.34 1157.87,-37.2"/>
<polygon fill="black" stroke="black" points="1158.79,-40.58 1167.73,-34.9 1157.2,-33.77 1158.79,-40.58"/>
</g>
<!-- node44 -->
<g id="node45" class="node">
<title>node44</title>
<ellipse fill="none" stroke="black" cx="1130.89" cy="-234" rx="98.58" ry="18"/>
<text text-anchor="middle" x="1130.89" y="-230.3" font-family="Times,serif" font-size="14.00">BeamFirFilter_113</text>
</g>
<!-- node43&#45;&gt;node44 -->
<g id="edge55" class="edge">
<title>node43&#45;&gt;node44</title>
<path fill="none" stroke="black" d="M1136.91,-287.7C1136.03,-279.98 1134.97,-270.71 1133.99,-262.11"/>
<polygon fill="black" stroke="black" points="1137.46,-261.64 1132.85,-252.1 1130.5,-262.44 1137.46,-261.64"/>
</g>
<!-- node45 -->
<g id="node46" class="node">
<title>node45</title>
<ellipse fill="none" stroke="black" cx="1132.89" cy="-162" rx="83.39" ry="18"/>
<text text-anchor="middle" x="1132.89" y="-158.3" font-family="Times,serif" font-size="14.00">Magnitude_114</text>
</g>
<!-- node44&#45;&gt;node45 -->
<g id="edge56" class="edge">
<title>node44&#45;&gt;node45</title>
<path fill="none" stroke="black" d="M1131.39,-215.7C1131.61,-207.98 1131.87,-198.71 1132.12,-190.11"/>
<polygon fill="black" stroke="black" points="1135.62,-190.2 1132.4,-180.1 1128.62,-190 1135.62,-190.2"/>
</g>
<!-- node46 -->
<g id="node47" class="node">
<title>node46</title>
<ellipse fill="none" stroke="black" cx="1137.89" cy="-90" rx="89.88" ry="18"/>
<text text-anchor="middle" x="1137.89" y="-86.3" font-family="Times,serif" font-size="14.00">FloatPrinter_115</text>
</g>
<!-- node45&#45;&gt;node46 -->
<g id="edge57" class="edge">
<title>node45&#45;&gt;node46</title>
<path fill="none" stroke="black" d="M1134.13,-143.7C1134.68,-135.98 1135.34,-126.71 1135.95,-118.11"/>
<polygon fill="black" stroke="black" points="1139.45,-118.33 1136.67,-108.1 1132.47,-117.83 1139.45,-118.33"/>
</g>
<!-- node46&#45;&gt;node55 -->
<g id="edge67" class="edge">
<title>node46&#45;&gt;node55</title>
<path fill="none" stroke="black" d="M1161.12,-72.41C1173.87,-63.3 1189.87,-51.87 1203.8,-41.92"/>
<polygon fill="black" stroke="black" points="1206.05,-44.62 1212.15,-35.96 1201.98,-38.92 1206.05,-44.62"/>
</g>
<!-- node48 -->
<g id="node49" class="node">
<title>node48</title>
<ellipse fill="none" stroke="black" cx="1346.89" cy="-234" rx="98.58" ry="18"/>
<text text-anchor="middle" x="1346.89" y="-230.3" font-family="Times,serif" font-size="14.00">BeamFirFilter_118</text>
</g>
<!-- node47&#45;&gt;node48 -->
<g id="edge59" class="edge">
<title>node47&#45;&gt;node48</title>
<path fill="none" stroke="black" d="M1340.87,-287.7C1341.75,-279.98 1342.81,-270.71 1343.79,-262.11"/>
<polygon fill="black" stroke="black" points="1347.28,-262.44 1344.94,-252.1 1340.32,-261.64 1347.28,-262.44"/>
</g>
<!-- node49 -->
<g id="node50" class="node">
<title>node49</title>
<ellipse fill="none" stroke="black" cx="1344.89" cy="-162" rx="83.39" ry="18"/>
<text text-anchor="middle" x="1344.89" y="-158.3" font-family="Times,serif" font-size="14.00">Magnitude_119</text>
</g>
<!-- node48&#45;&gt;node49 -->
<g id="edge60" class="edge">
<title>node48&#45;&gt;node49</title>
<path fill="none" stroke="black" d="M1346.4,-215.7C1346.18,-207.98 1345.91,-198.71 1345.67,-190.11"/>
<polygon fill="black" stroke="black" points="1349.16,-190 1345.38,-180.1 1342.17,-190.2 1349.16,-190"/>
</g>
<!-- node50 -->
<g id="node51" class="node">
<title>node50</title>
<ellipse fill="none" stroke="black" cx="1343.89" cy="-90" rx="89.88" ry="18"/>
<text text-anchor="middle" x="1343.89" y="-86.3" font-family="Times,serif" font-size="14.00">FloatPrinter_120</text>
</g>
<!-- node49&#45;&gt;node50 -->
<g id="edge61" class="edge">
<title>node49&#45;&gt;node50</title>
<path fill="none" stroke="black" d="M1344.64,-143.7C1344.53,-135.98 1344.4,-126.71 1344.28,-118.11"/>
<polygon fill="black" stroke="black" points="1347.78,-118.05 1344.14,-108.1 1340.78,-118.15 1347.78,-118.05"/>
</g>
<!-- node50&#45;&gt;node55 -->
<g id="edge68" class="edge">
<title>node50&#45;&gt;node55</title>
<path fill="none" stroke="black" d="M1318.57,-72.59C1304.39,-63.4 1286.5,-51.8 1270.99,-41.75"/>
<polygon fill="black" stroke="black" points="1272.48,-38.54 1262.18,-36.04 1268.67,-44.42 1272.48,-38.54"/>
</g>
<!-- node52 -->
<g id="node53" class="node">
<title>node52</title>
<ellipse fill="none" stroke="black" cx="1562.89" cy="-234" rx="98.58" ry="18"/>
<text text-anchor="middle" x="1562.89" y="-230.3" font-family="Times,serif" font-size="14.00">BeamFirFilter_123</text>
</g>
<!-- node51&#45;&gt;node52 -->
<g id="edge63" class="edge">
<title>node51&#45;&gt;node52</title>
<path fill="none" stroke="black" d="M1550.85,-287.7C1552.61,-279.98 1554.73,-270.71 1556.69,-262.11"/>
<polygon fill="black" stroke="black" points="1560.17,-262.63 1558.98,-252.1 1553.34,-261.07 1560.17,-262.63"/>
</g>
<!-- node53 -->
<g id="node54" class="node">
<title>node53</title>
<ellipse fill="none" stroke="black" cx="1558.89" cy="-162" rx="83.39" ry="18"/>
<text text-anchor="middle" x="1558.89" y="-158.3" font-family="Times,serif" font-size="14.00">Magnitude_124</text>
</g>
<!-- node52&#45;&gt;node53 -->
<g id="edge64" class="edge">
<title>node52&#45;&gt;node53</title>
<path fill="none" stroke="black" d="M1561.9,-215.7C1561.46,-207.98 1560.93,-198.71 1560.44,-190.11"/>
<polygon fill="black" stroke="black" points="1563.93,-189.89 1559.87,-180.1 1556.95,-190.29 1563.93,-189.89"/>
</g>
<!-- node54 -->
<g id="node55" class="node">
<title>node54</title>
<ellipse fill="none" stroke="black" cx="1554.89" cy="-90" rx="89.88" ry="18"/>
<text text-anchor="middle" x="1554.89" y="-86.3" font-family="Times,serif" font-size="14.00">FloatPrinter_125</text>
</g>
<!-- node53&#45;&gt;node54 -->
<g id="edge65" class="edge">
<title>node53&#45;&gt;node54</title>
<path fill="none" stroke="black" d="M1557.9,-143.7C1557.46,-135.98 1556.93,-126.71 1556.44,-118.11"/>
<polygon fill="black" stroke="black" points="1559.93,-117.89 1555.87,-108.1 1552.95,-118.29 1559.93,-117.89"/>
</g>
<!-- node54&#45;&gt;node55 -->
<g id="edge69" class="edge">
<title>node54&#45;&gt;node55</title>
<path fill="none" stroke="black" d="M1496.75,-76.24C1446.66,-65.25 1373.78,-49.26 1317.78,-36.97"/>
<polygon fill="black" stroke="black" points="1318.41,-33.52 1307.89,-34.8 1316.91,-40.36 1318.41,-33.52"/>
</g>
</g>
</svg>
