<?xml version="1.0" encoding="UTF-8" standalone="no"?>
<!DOCTYPE svg PUBLIC "-//W3C//DTD SVG 1.1//EN"
 "http://www.w3.org/Graphics/SVG/1.1/DTD/svg11.dtd">
<!-- Generated by graphviz version 2.43.0 (0)
 -->
<!-- Title: Audiobeam_HSDF Pages: 1 -->
<svg width="2135pt" height="404pt"
 viewBox="0.00 0.00 2134.79 404.00" xmlns="http://www.w3.org/2000/svg" xmlns:xlink="http://www.w3.org/1999/xlink">
<g id="graph0" class="graph" transform="scale(1 1) rotate(0) translate(4 400)">
<title>Audiobeam_HSDF</title>
<polygon fill="white" stroke="transparent" points="-4,4 -4,-400 2130.79,-400 2130.79,4 -4,4"/>
<!-- node2 -->
<g id="node1" class="node">
<title>node2</title>
<ellipse fill="none" stroke="black" cx="1063.39" cy="-378" rx="61.99" ry="18"/>
<text text-anchor="middle" x="1063.39" y="-374.3" font-family="Times,serif" font-size="14.00">FileReader</text>
</g>
<!-- node4 -->
<g id="node2" class="node">
<title>node4</title>
<ellipse fill="none" stroke="black" cx="1063.39" cy="-306" rx="102.88" ry="18"/>
<text text-anchor="middle" x="1063.39" y="-302.3" font-family="Times,serif" font-size="14.00">RoundRobinSplitter</text>
</g>
<!-- node2&#45;&gt;node4 -->
<g id="edge31" class="edge">
<title>node2&#45;&gt;node4</title>
<path fill="none" stroke="black" d="M1063.39,-359.7C1063.39,-351.98 1063.39,-342.71 1063.39,-334.11"/>
<polygon fill="black" stroke="black" points="1066.89,-334.1 1063.39,-324.1 1059.89,-334.1 1066.89,-334.1"/>
</g>
<!-- node7 -->
<g id="node4" class="node">
<title>node7</title>
<ellipse fill="none" stroke="black" cx="62.39" cy="-234" rx="62.29" ry="18"/>
<text text-anchor="middle" x="62.39" y="-230.3" font-family="Times,serif" font-size="14.00">Interpolate</text>
</g>
<!-- node4&#45;&gt;node7 -->
<g id="edge1" class="edge">
<title>node4&#45;&gt;node7</title>
<path fill="none" stroke="black" d="M960.74,-304.99C788.85,-303.66 432.34,-295.33 134.39,-252 128.61,-251.16 122.61,-250.08 116.66,-248.88"/>
<polygon fill="black" stroke="black" points="117.23,-245.42 106.71,-246.75 115.76,-252.26 117.23,-245.42"/>
</g>
<!-- node9 -->
<g id="node5" class="node">
<title>node9</title>
<ellipse fill="none" stroke="black" cx="205.39" cy="-234" rx="62.29" ry="18"/>
<text text-anchor="middle" x="205.39" y="-230.3" font-family="Times,serif" font-size="14.00">Interpolate</text>
</g>
<!-- node4&#45;&gt;node9 -->
<g id="edge3" class="edge">
<title>node4&#45;&gt;node9</title>
<path fill="none" stroke="black" d="M961.7,-303.48C811.32,-300.02 521.17,-288.74 277.39,-252 271.62,-251.13 265.62,-250.03 259.66,-248.81"/>
<polygon fill="black" stroke="black" points="260.24,-245.36 249.72,-246.67 258.76,-252.2 260.24,-245.36"/>
</g>
<!-- node11 -->
<g id="node6" class="node">
<title>node11</title>
<ellipse fill="none" stroke="black" cx="348.39" cy="-234" rx="62.29" ry="18"/>
<text text-anchor="middle" x="348.39" y="-230.3" font-family="Times,serif" font-size="14.00">Interpolate</text>
</g>
<!-- node4&#45;&gt;node11 -->
<g id="edge5" class="edge">
<title>node4&#45;&gt;node11</title>
<path fill="none" stroke="black" d="M963.98,-301.42C837.17,-295.8 611.37,-282.24 420.39,-252 414.71,-251.1 408.8,-249.99 402.93,-248.78"/>
<polygon fill="black" stroke="black" points="403.64,-245.35 393.13,-246.65 402.16,-252.19 403.64,-245.35"/>
</g>
<!-- node13 -->
<g id="node7" class="node">
<title>node13</title>
<ellipse fill="none" stroke="black" cx="491.39" cy="-234" rx="62.29" ry="18"/>
<text text-anchor="middle" x="491.39" y="-230.3" font-family="Times,serif" font-size="14.00">Interpolate</text>
</g>
<!-- node4&#45;&gt;node13 -->
<g id="edge7" class="edge">
<title>node4&#45;&gt;node13</title>
<path fill="none" stroke="black" d="M969.38,-298.59C868.52,-290.89 703.87,-275.93 563.39,-252 557.93,-251.07 552.27,-249.97 546.63,-248.79"/>
<polygon fill="black" stroke="black" points="547.05,-245.3 536.54,-246.58 545.56,-252.13 547.05,-245.3"/>
</g>
<!-- node15 -->
<g id="node8" class="node">
<title>node15</title>
<ellipse fill="none" stroke="black" cx="634.39" cy="-234" rx="62.29" ry="18"/>
<text text-anchor="middle" x="634.39" y="-230.3" font-family="Times,serif" font-size="14.00">Interpolate</text>
</g>
<!-- node4&#45;&gt;node15 -->
<g id="edge9" class="edge">
<title>node4&#45;&gt;node15</title>
<path fill="none" stroke="black" d="M982.25,-294.94C909.67,-285.47 800.54,-270.07 706.39,-252 701.03,-250.97 695.47,-249.82 689.91,-248.6"/>
<polygon fill="black" stroke="black" points="690.5,-245.15 679.98,-246.38 688.97,-251.98 690.5,-245.15"/>
</g>
<!-- node17 -->
<g id="node9" class="node">
<title>node17</title>
<ellipse fill="none" stroke="black" cx="777.39" cy="-234" rx="62.29" ry="18"/>
<text text-anchor="middle" x="777.39" y="-230.3" font-family="Times,serif" font-size="14.00">Interpolate</text>
</g>
<!-- node4&#45;&gt;node17 -->
<g id="edge11" class="edge">
<title>node4&#45;&gt;node17</title>
<path fill="none" stroke="black" d="M1006.21,-291C956.03,-278.72 883.49,-260.97 833.61,-248.76"/>
<polygon fill="black" stroke="black" points="834.18,-245.3 823.64,-246.32 832.52,-252.1 834.18,-245.3"/>
</g>
<!-- node19 -->
<g id="node10" class="node">
<title>node19</title>
<ellipse fill="none" stroke="black" cx="920.39" cy="-234" rx="62.29" ry="18"/>
<text text-anchor="middle" x="920.39" y="-230.3" font-family="Times,serif" font-size="14.00">Interpolate</text>
</g>
<!-- node4&#45;&gt;node19 -->
<g id="edge13" class="edge">
<title>node4&#45;&gt;node19</title>
<path fill="none" stroke="black" d="M1030.59,-288.94C1009.52,-278.63 982.04,-265.17 959.79,-254.28"/>
<polygon fill="black" stroke="black" points="961.13,-251.04 950.61,-249.79 958.05,-257.33 961.13,-251.04"/>
</g>
<!-- node21 -->
<g id="node11" class="node">
<title>node21</title>
<ellipse fill="none" stroke="black" cx="1063.39" cy="-234" rx="62.29" ry="18"/>
<text text-anchor="middle" x="1063.39" y="-230.3" font-family="Times,serif" font-size="14.00">Interpolate</text>
</g>
<!-- node4&#45;&gt;node21 -->
<g id="edge15" class="edge">
<title>node4&#45;&gt;node21</title>
<path fill="none" stroke="black" d="M1063.39,-287.7C1063.39,-279.98 1063.39,-270.71 1063.39,-262.11"/>
<polygon fill="black" stroke="black" points="1066.89,-262.1 1063.39,-252.1 1059.89,-262.1 1066.89,-262.1"/>
</g>
<!-- node23 -->
<g id="node12" class="node">
<title>node23</title>
<ellipse fill="none" stroke="black" cx="1206.39" cy="-234" rx="62.29" ry="18"/>
<text text-anchor="middle" x="1206.39" y="-230.3" font-family="Times,serif" font-size="14.00">Interpolate</text>
</g>
<!-- node4&#45;&gt;node23 -->
<g id="edge17" class="edge">
<title>node4&#45;&gt;node23</title>
<path fill="none" stroke="black" d="M1096.2,-288.94C1117.27,-278.63 1144.75,-265.17 1167,-254.28"/>
<polygon fill="black" stroke="black" points="1168.74,-257.33 1176.18,-249.79 1165.66,-251.04 1168.74,-257.33"/>
</g>
<!-- node25 -->
<g id="node13" class="node">
<title>node25</title>
<ellipse fill="none" stroke="black" cx="1349.39" cy="-234" rx="62.29" ry="18"/>
<text text-anchor="middle" x="1349.39" y="-230.3" font-family="Times,serif" font-size="14.00">Interpolate</text>
</g>
<!-- node4&#45;&gt;node25 -->
<g id="edge19" class="edge">
<title>node4&#45;&gt;node25</title>
<path fill="none" stroke="black" d="M1120.58,-291C1170.76,-278.72 1243.3,-260.97 1293.18,-248.76"/>
<polygon fill="black" stroke="black" points="1294.27,-252.1 1303.15,-246.32 1292.61,-245.3 1294.27,-252.1"/>
</g>
<!-- node27 -->
<g id="node14" class="node">
<title>node27</title>
<ellipse fill="none" stroke="black" cx="1492.39" cy="-234" rx="62.29" ry="18"/>
<text text-anchor="middle" x="1492.39" y="-230.3" font-family="Times,serif" font-size="14.00">Interpolate</text>
</g>
<!-- node4&#45;&gt;node27 -->
<g id="edge21" class="edge">
<title>node4&#45;&gt;node27</title>
<path fill="none" stroke="black" d="M1144.54,-294.94C1217.12,-285.47 1326.25,-270.07 1420.39,-252 1425.76,-250.97 1431.32,-249.82 1436.87,-248.6"/>
<polygon fill="black" stroke="black" points="1437.82,-251.98 1446.81,-246.38 1436.29,-245.15 1437.82,-251.98"/>
</g>
<!-- node29 -->
<g id="node15" class="node">
<title>node29</title>
<ellipse fill="none" stroke="black" cx="1635.39" cy="-234" rx="62.29" ry="18"/>
<text text-anchor="middle" x="1635.39" y="-230.3" font-family="Times,serif" font-size="14.00">Interpolate</text>
</g>
<!-- node4&#45;&gt;node29 -->
<g id="edge23" class="edge">
<title>node4&#45;&gt;node29</title>
<path fill="none" stroke="black" d="M1157.41,-298.59C1258.27,-290.89 1422.91,-275.93 1563.39,-252 1568.85,-251.07 1574.52,-249.97 1580.16,-248.79"/>
<polygon fill="black" stroke="black" points="1581.23,-252.13 1590.25,-246.58 1579.73,-245.3 1581.23,-252.13"/>
</g>
<!-- node31 -->
<g id="node16" class="node">
<title>node31</title>
<ellipse fill="none" stroke="black" cx="1778.39" cy="-234" rx="62.29" ry="18"/>
<text text-anchor="middle" x="1778.39" y="-230.3" font-family="Times,serif" font-size="14.00">Interpolate</text>
</g>
<!-- node4&#45;&gt;node31 -->
<g id="edge25" class="edge">
<title>node4&#45;&gt;node31</title>
<path fill="none" stroke="black" d="M1162.81,-301.42C1289.62,-295.8 1515.42,-282.24 1706.39,-252 1712.08,-251.1 1717.99,-249.99 1723.86,-248.78"/>
<polygon fill="black" stroke="black" points="1724.63,-252.19 1733.66,-246.65 1723.15,-245.35 1724.63,-252.19"/>
</g>
<!-- node33 -->
<g id="node17" class="node">
<title>node33</title>
<ellipse fill="none" stroke="black" cx="1921.39" cy="-234" rx="62.29" ry="18"/>
<text text-anchor="middle" x="1921.39" y="-230.3" font-family="Times,serif" font-size="14.00">Interpolate</text>
</g>
<!-- node4&#45;&gt;node33 -->
<g id="edge27" class="edge">
<title>node4&#45;&gt;node33</title>
<path fill="none" stroke="black" d="M1165.09,-303.48C1315.46,-300.02 1605.62,-288.74 1849.39,-252 1855.17,-251.13 1861.17,-250.03 1867.12,-248.81"/>
<polygon fill="black" stroke="black" points="1868.03,-252.2 1877.06,-246.67 1866.55,-245.36 1868.03,-252.2"/>
</g>
<!-- node35 -->
<g id="node18" class="node">
<title>node35</title>
<ellipse fill="none" stroke="black" cx="2064.39" cy="-234" rx="62.29" ry="18"/>
<text text-anchor="middle" x="2064.39" y="-230.3" font-family="Times,serif" font-size="14.00">Interpolate</text>
</g>
<!-- node4&#45;&gt;node35 -->
<g id="edge29" class="edge">
<title>node4&#45;&gt;node35</title>
<path fill="none" stroke="black" d="M1166.05,-304.99C1337.93,-303.66 1694.45,-295.33 1992.39,-252 1998.18,-251.16 2004.18,-250.08 2010.13,-248.88"/>
<polygon fill="black" stroke="black" points="2011.03,-252.26 2020.08,-246.75 2009.56,-245.42 2011.03,-252.26"/>
</g>
<!-- node5 -->
<g id="node3" class="node">
<title>node5</title>
<ellipse fill="none" stroke="black" cx="1063.39" cy="-162" rx="94.78" ry="18"/>
<text text-anchor="middle" x="1063.39" y="-158.3" font-family="Times,serif" font-size="14.00">RoundRobinJoiner</text>
</g>
<!-- node36 -->
<g id="node19" class="node">
<title>node36</title>
<ellipse fill="none" stroke="black" cx="1063.39" cy="-90" rx="48.19" ry="18"/>
<text text-anchor="middle" x="1063.39" y="-86.3" font-family="Times,serif" font-size="14.00">Average</text>
</g>
<!-- node5&#45;&gt;node36 -->
<g id="edge32" class="edge">
<title>node5&#45;&gt;node36</title>
<path fill="none" stroke="black" d="M1063.39,-143.7C1063.39,-135.98 1063.39,-126.71 1063.39,-118.11"/>
<polygon fill="black" stroke="black" points="1066.89,-118.1 1063.39,-108.1 1059.89,-118.1 1066.89,-118.1"/>
</g>
<!-- node7&#45;&gt;node5 -->
<g id="edge2" class="edge">
<title>node7&#45;&gt;node5</title>
<path fill="none" stroke="black" d="M106.71,-221.25C115.81,-219.2 125.37,-217.31 134.39,-216 431.03,-172.86 785.71,-164.41 958.45,-163.03"/>
<polygon fill="black" stroke="black" points="958.59,-166.53 968.56,-162.96 958.53,-159.53 958.59,-166.53"/>
</g>
<!-- node9&#45;&gt;node5 -->
<g id="edge4" class="edge">
<title>node9&#45;&gt;node5</title>
<path fill="none" stroke="black" d="M249.72,-221.33C258.82,-219.27 268.38,-217.36 277.39,-216 519.66,-179.49 807.73,-168.12 958.89,-164.59"/>
<polygon fill="black" stroke="black" points="959.17,-168.08 969.09,-164.36 959.01,-161.09 959.17,-168.08"/>
</g>
<!-- node11&#45;&gt;node5 -->
<g id="edge6" class="edge">
<title>node11&#45;&gt;node5</title>
<path fill="none" stroke="black" d="M393.13,-221.35C402.11,-219.31 411.51,-217.41 420.39,-216 609.84,-186 833.54,-172.42 960.91,-166.72"/>
<polygon fill="black" stroke="black" points="961.2,-170.21 971.04,-166.27 960.89,-163.21 961.2,-170.21"/>
</g>
<!-- node13&#45;&gt;node5 -->
<g id="edge8" class="edge">
<title>node13&#45;&gt;node5</title>
<path fill="none" stroke="black" d="M536.54,-221.42C545.4,-219.41 554.66,-217.49 563.39,-216 702.12,-192.37 864.41,-177.48 965.57,-169.7"/>
<polygon fill="black" stroke="black" points="966.07,-173.17 975.77,-168.92 965.54,-166.19 966.07,-173.17"/>
</g>
<!-- node15&#45;&gt;node5 -->
<g id="edge10" class="edge">
<title>node15&#45;&gt;node5</title>
<path fill="none" stroke="black" d="M679.98,-221.62C688.72,-219.62 697.82,-217.65 706.39,-216 797.93,-198.43 903.63,-183.39 976.12,-173.86"/>
<polygon fill="black" stroke="black" points="976.66,-177.32 986.12,-172.55 975.76,-170.38 976.66,-177.32"/>
</g>
<!-- node17&#45;&gt;node5 -->
<g id="edge12" class="edge">
<title>node17&#45;&gt;node5</title>
<path fill="none" stroke="black" d="M823.35,-221.75C870.52,-210.21 944.37,-192.13 997.7,-179.08"/>
<polygon fill="black" stroke="black" points="998.87,-182.4 1007.75,-176.62 997.2,-175.6 998.87,-182.4"/>
</g>
<!-- node19&#45;&gt;node5 -->
<g id="edge14" class="edge">
<title>node19&#45;&gt;node5</title>
<path fill="none" stroke="black" d="M950.72,-218.15C971.4,-208.03 999.05,-194.5 1021.79,-183.37"/>
<polygon fill="black" stroke="black" points="1023.43,-186.46 1030.87,-178.92 1020.35,-180.17 1023.43,-186.46"/>
</g>
<!-- node21&#45;&gt;node5 -->
<g id="edge16" class="edge">
<title>node21&#45;&gt;node5</title>
<path fill="none" stroke="black" d="M1063.39,-215.7C1063.39,-207.98 1063.39,-198.71 1063.39,-190.11"/>
<polygon fill="black" stroke="black" points="1066.89,-190.1 1063.39,-180.1 1059.89,-190.1 1066.89,-190.1"/>
</g>
<!-- node23&#45;&gt;node5 -->
<g id="edge18" class="edge">
<title>node23&#45;&gt;node5</title>
<path fill="none" stroke="black" d="M1176.07,-218.15C1155.39,-208.03 1127.74,-194.5 1105,-183.37"/>
<polygon fill="black" stroke="black" points="1106.44,-180.17 1095.92,-178.92 1103.36,-186.46 1106.44,-180.17"/>
</g>
<!-- node25&#45;&gt;node5 -->
<g id="edge20" class="edge">
<title>node25&#45;&gt;node5</title>
<path fill="none" stroke="black" d="M1303.44,-221.75C1256.27,-210.21 1182.42,-192.13 1129.09,-179.08"/>
<polygon fill="black" stroke="black" points="1129.59,-175.6 1119.04,-176.62 1127.92,-182.4 1129.59,-175.6"/>
</g>
<!-- node27&#45;&gt;node5 -->
<g id="edge22" class="edge">
<title>node27&#45;&gt;node5</title>
<path fill="none" stroke="black" d="M1446.81,-221.62C1438.07,-219.62 1428.97,-217.65 1420.39,-216 1328.86,-198.43 1223.16,-183.39 1150.67,-173.86"/>
<polygon fill="black" stroke="black" points="1151.03,-170.38 1140.66,-172.55 1150.13,-177.32 1151.03,-170.38"/>
</g>
<!-- node29&#45;&gt;node5 -->
<g id="edge24" class="edge">
<title>node29&#45;&gt;node5</title>
<path fill="none" stroke="black" d="M1590.25,-221.42C1581.39,-219.41 1572.13,-217.49 1563.39,-216 1424.67,-192.37 1262.38,-177.48 1161.22,-169.7"/>
<polygon fill="black" stroke="black" points="1161.25,-166.19 1151.02,-168.92 1160.72,-173.17 1161.25,-166.19"/>
</g>
<!-- node31&#45;&gt;node5 -->
<g id="edge26" class="edge">
<title>node31&#45;&gt;node5</title>
<path fill="none" stroke="black" d="M1733.66,-221.35C1724.68,-219.31 1715.27,-217.41 1706.39,-216 1516.95,-186 1293.25,-172.42 1165.88,-166.72"/>
<polygon fill="black" stroke="black" points="1165.89,-163.21 1155.75,-166.27 1165.59,-170.21 1165.89,-163.21"/>
</g>
<!-- node33&#45;&gt;node5 -->
<g id="edge28" class="edge">
<title>node33&#45;&gt;node5</title>
<path fill="none" stroke="black" d="M1877.06,-221.33C1867.97,-219.27 1858.41,-217.36 1849.39,-216 1607.13,-179.49 1319.06,-168.12 1167.9,-164.59"/>
<polygon fill="black" stroke="black" points="1167.78,-161.09 1157.7,-164.36 1167.62,-168.08 1167.78,-161.09"/>
</g>
<!-- node35&#45;&gt;node5 -->
<g id="edge30" class="edge">
<title>node35&#45;&gt;node5</title>
<path fill="none" stroke="black" d="M2020.08,-221.25C2010.98,-219.2 2001.42,-217.31 1992.39,-216 1695.76,-172.86 1341.08,-164.41 1168.33,-163.03"/>
<polygon fill="black" stroke="black" points="1168.25,-159.53 1158.23,-162.96 1168.2,-166.53 1168.25,-159.53"/>
</g>
<!-- node37 -->
<g id="node20" class="node">
<title>node37</title>
<ellipse fill="none" stroke="black" cx="1063.39" cy="-18" rx="44.39" ry="18"/>
<text text-anchor="middle" x="1063.39" y="-14.3" font-family="Times,serif" font-size="14.00">Printer</text>
</g>
<!-- node36&#45;&gt;node37 -->
<g id="edge33" class="edge">
<title>node36&#45;&gt;node37</title>
<path fill="none" stroke="black" d="M1063.39,-71.7C1063.39,-63.98 1063.39,-54.71 1063.39,-46.11"/>
<polygon fill="black" stroke="black" points="1066.89,-46.1 1063.39,-36.1 1059.89,-46.1 1066.89,-46.1"/>
</g>
</g>
</svg>
