<?xml version="1.0" encoding="UTF-8" standalone="no"?>
<!DOCTYPE svg PUBLIC "-//W3C//DTD SVG 1.1//EN"
 "http://www.w3.org/Graphics/SVG/1.1/DTD/svg11.dtd">
<!-- Generated by graphviz version 2.43.0 (0)
 -->
<!-- Title: Audiobeam_121 Pages: 1 -->
<svg width="2615pt" height="404pt"
 viewBox="0.00 0.00 2615.29 404.00" xmlns="http://www.w3.org/2000/svg" xmlns:xlink="http://www.w3.org/1999/xlink">
<g id="graph0" class="graph" transform="scale(1 1) rotate(0) translate(4 400)">
<title>Audiobeam_121</title>
<polygon fill="white" stroke="transparent" points="-4,4 -4,-400 2611.29,-400 2611.29,4 -4,4"/>
<!-- node0 -->
<g id="node1" class="node">
<title>node0</title>
<ellipse fill="none" stroke="black" cx="1303.64" cy="-378" rx="77.19" ry="18"/>
<text text-anchor="middle" x="1303.64" y="-374.3" font-family="Times,serif" font-size="14.00">FileReader_81</text>
</g>
<!-- node1 -->
<g id="node2" class="node">
<title>node1</title>
<ellipse fill="none" stroke="black" cx="1303.64" cy="-306" rx="205.26" ry="18"/>
<text text-anchor="middle" x="1303.64" y="-302.3" font-family="Times,serif" font-size="14.00">WEIGHTED_ROUND_ROBIN_Splitter_102</text>
</g>
<!-- node0&#45;&gt;node1 -->
<g id="edge1" class="edge">
<title>node0&#45;&gt;node1</title>
<path fill="none" stroke="black" d="M1303.64,-359.7C1303.64,-351.98 1303.64,-342.71 1303.64,-334.11"/>
<polygon fill="black" stroke="black" points="1307.14,-334.1 1303.64,-324.1 1300.14,-334.1 1307.14,-334.1"/>
</g>
<!-- node2 -->
<g id="node3" class="node">
<title>node2</title>
<ellipse fill="none" stroke="black" cx="78.64" cy="-234" rx="78.79" ry="18"/>
<text text-anchor="middle" x="78.64" y="-230.3" font-family="Times,serif" font-size="14.00">Interpolate_85</text>
</g>
<!-- node1&#45;&gt;node2 -->
<g id="edge2" class="edge">
<title>node1&#45;&gt;node2</title>
<path fill="none" stroke="black" d="M1098.86,-304.47C870.46,-301.78 490.39,-291.08 165.64,-252 158.5,-251.14 151.06,-250.03 143.68,-248.78"/>
<polygon fill="black" stroke="black" points="144.13,-245.31 133.68,-247.02 142.92,-252.2 144.13,-245.31"/>
</g>
<!-- node3 -->
<g id="node4" class="node">
<title>node3</title>
<ellipse fill="none" stroke="black" cx="253.64" cy="-234" rx="78.79" ry="18"/>
<text text-anchor="middle" x="253.64" y="-230.3" font-family="Times,serif" font-size="14.00">Interpolate_86</text>
</g>
<!-- node1&#45;&gt;node3 -->
<g id="edge3" class="edge">
<title>node1&#45;&gt;node3</title>
<path fill="none" stroke="black" d="M1103.27,-302.02C907.98,-297.22 602.96,-284.69 340.64,-252 333.5,-251.11 326.07,-249.98 318.69,-248.72"/>
<polygon fill="black" stroke="black" points="319.15,-245.25 308.69,-246.95 317.92,-252.14 319.15,-245.25"/>
</g>
<!-- node4 -->
<g id="node5" class="node">
<title>node4</title>
<ellipse fill="none" stroke="black" cx="428.64" cy="-234" rx="78.79" ry="18"/>
<text text-anchor="middle" x="428.64" y="-230.3" font-family="Times,serif" font-size="14.00">Interpolate_87</text>
</g>
<!-- node1&#45;&gt;node4 -->
<g id="edge4" class="edge">
<title>node1&#45;&gt;node4</title>
<path fill="none" stroke="black" d="M1114.31,-298.95C954.28,-292.24 719.24,-278.63 515.64,-252 508.61,-251.08 501.3,-249.94 494.03,-248.69"/>
<polygon fill="black" stroke="black" points="494.63,-245.24 484.17,-246.93 493.39,-252.13 494.63,-245.24"/>
</g>
<!-- node5 -->
<g id="node6" class="node">
<title>node5</title>
<ellipse fill="none" stroke="black" cx="603.64" cy="-234" rx="78.79" ry="18"/>
<text text-anchor="middle" x="603.64" y="-230.3" font-family="Times,serif" font-size="14.00">Interpolate_88</text>
</g>
<!-- node1&#45;&gt;node5 -->
<g id="edge5" class="edge">
<title>node1&#45;&gt;node5</title>
<path fill="none" stroke="black" d="M1137.24,-295.43C1013.64,-287.16 841.12,-273.14 690.64,-252 683.62,-251.01 676.31,-249.83 669.04,-248.56"/>
<polygon fill="black" stroke="black" points="669.65,-245.11 659.19,-246.77 668.4,-252 669.65,-245.11"/>
</g>
<!-- node6 -->
<g id="node7" class="node">
<title>node6</title>
<ellipse fill="none" stroke="black" cx="778.64" cy="-234" rx="78.79" ry="18"/>
<text text-anchor="middle" x="778.64" y="-230.3" font-family="Times,serif" font-size="14.00">Interpolate_89</text>
</g>
<!-- node1&#45;&gt;node6 -->
<g id="edge6" class="edge">
<title>node1&#45;&gt;node6</title>
<path fill="none" stroke="black" d="M1174.89,-291.91C1087.45,-282.4 969.29,-268.38 865.64,-252 859,-250.95 852.1,-249.77 845.21,-248.52"/>
<polygon fill="black" stroke="black" points="845.63,-245.04 835.16,-246.66 844.36,-251.92 845.63,-245.04"/>
</g>
<!-- node7 -->
<g id="node8" class="node">
<title>node7</title>
<ellipse fill="none" stroke="black" cx="953.64" cy="-234" rx="78.79" ry="18"/>
<text text-anchor="middle" x="953.64" y="-230.3" font-family="Times,serif" font-size="14.00">Interpolate_90</text>
</g>
<!-- node1&#45;&gt;node7 -->
<g id="edge7" class="edge">
<title>node1&#45;&gt;node7</title>
<path fill="none" stroke="black" d="M1225.1,-289.29C1163.56,-276.98 1078.88,-260.05 1020.54,-248.38"/>
<polygon fill="black" stroke="black" points="1021.18,-244.94 1010.69,-246.41 1019.81,-251.8 1021.18,-244.94"/>
</g>
<!-- node8 -->
<g id="node9" class="node">
<title>node8</title>
<ellipse fill="none" stroke="black" cx="1128.64" cy="-234" rx="78.79" ry="18"/>
<text text-anchor="middle" x="1128.64" y="-230.3" font-family="Times,serif" font-size="14.00">Interpolate_91</text>
</g>
<!-- node1&#45;&gt;node8 -->
<g id="edge8" class="edge">
<title>node1&#45;&gt;node8</title>
<path fill="none" stroke="black" d="M1261.73,-288.23C1235.79,-277.86 1202.44,-264.52 1175.61,-253.79"/>
<polygon fill="black" stroke="black" points="1176.64,-250.43 1166.05,-249.96 1174.04,-256.93 1176.64,-250.43"/>
</g>
<!-- node9 -->
<g id="node10" class="node">
<title>node9</title>
<ellipse fill="none" stroke="black" cx="1303.64" cy="-234" rx="78.79" ry="18"/>
<text text-anchor="middle" x="1303.64" y="-230.3" font-family="Times,serif" font-size="14.00">Interpolate_92</text>
</g>
<!-- node1&#45;&gt;node9 -->
<g id="edge9" class="edge">
<title>node1&#45;&gt;node9</title>
<path fill="none" stroke="black" d="M1303.64,-287.7C1303.64,-279.98 1303.64,-270.71 1303.64,-262.11"/>
<polygon fill="black" stroke="black" points="1307.14,-262.1 1303.64,-252.1 1300.14,-262.1 1307.14,-262.1"/>
</g>
<!-- node10 -->
<g id="node11" class="node">
<title>node10</title>
<ellipse fill="none" stroke="black" cx="1478.64" cy="-234" rx="78.79" ry="18"/>
<text text-anchor="middle" x="1478.64" y="-230.3" font-family="Times,serif" font-size="14.00">Interpolate_93</text>
</g>
<!-- node1&#45;&gt;node10 -->
<g id="edge10" class="edge">
<title>node1&#45;&gt;node10</title>
<path fill="none" stroke="black" d="M1345.56,-288.23C1371.5,-277.86 1404.85,-264.52 1431.67,-253.79"/>
<polygon fill="black" stroke="black" points="1433.25,-256.93 1441.24,-249.96 1430.65,-250.43 1433.25,-256.93"/>
</g>
<!-- node11 -->
<g id="node12" class="node">
<title>node11</title>
<ellipse fill="none" stroke="black" cx="1653.64" cy="-234" rx="78.79" ry="18"/>
<text text-anchor="middle" x="1653.64" y="-230.3" font-family="Times,serif" font-size="14.00">Interpolate_94</text>
</g>
<!-- node1&#45;&gt;node11 -->
<g id="edge11" class="edge">
<title>node1&#45;&gt;node11</title>
<path fill="none" stroke="black" d="M1382.19,-289.29C1443.73,-276.98 1528.41,-260.05 1586.75,-248.38"/>
<polygon fill="black" stroke="black" points="1587.48,-251.8 1596.6,-246.41 1586.1,-244.94 1587.48,-251.8"/>
</g>
<!-- node12 -->
<g id="node13" class="node">
<title>node12</title>
<ellipse fill="none" stroke="black" cx="1828.64" cy="-234" rx="78.79" ry="18"/>
<text text-anchor="middle" x="1828.64" y="-230.3" font-family="Times,serif" font-size="14.00">Interpolate_95</text>
</g>
<!-- node1&#45;&gt;node12 -->
<g id="edge12" class="edge">
<title>node1&#45;&gt;node12</title>
<path fill="none" stroke="black" d="M1432.39,-291.91C1519.84,-282.4 1637.99,-268.38 1741.64,-252 1748.28,-250.95 1755.19,-249.77 1762.08,-248.52"/>
<polygon fill="black" stroke="black" points="1762.93,-251.92 1772.12,-246.66 1761.65,-245.04 1762.93,-251.92"/>
</g>
<!-- node13 -->
<g id="node14" class="node">
<title>node13</title>
<ellipse fill="none" stroke="black" cx="2003.64" cy="-234" rx="78.79" ry="18"/>
<text text-anchor="middle" x="2003.64" y="-230.3" font-family="Times,serif" font-size="14.00">Interpolate_96</text>
</g>
<!-- node1&#45;&gt;node13 -->
<g id="edge13" class="edge">
<title>node1&#45;&gt;node13</title>
<path fill="none" stroke="black" d="M1470.05,-295.43C1593.65,-287.16 1766.17,-273.14 1916.64,-252 1923.66,-251.01 1930.97,-249.83 1938.24,-248.56"/>
<polygon fill="black" stroke="black" points="1938.88,-252 1948.1,-246.77 1937.63,-245.11 1938.88,-252"/>
</g>
<!-- node14 -->
<g id="node15" class="node">
<title>node14</title>
<ellipse fill="none" stroke="black" cx="2178.64" cy="-234" rx="78.79" ry="18"/>
<text text-anchor="middle" x="2178.64" y="-230.3" font-family="Times,serif" font-size="14.00">Interpolate_97</text>
</g>
<!-- node1&#45;&gt;node14 -->
<g id="edge14" class="edge">
<title>node1&#45;&gt;node14</title>
<path fill="none" stroke="black" d="M1492.97,-298.95C1653.01,-292.24 1888.05,-278.63 2091.64,-252 2098.67,-251.08 2105.99,-249.94 2113.26,-248.69"/>
<polygon fill="black" stroke="black" points="2113.89,-252.13 2123.12,-246.93 2112.66,-245.24 2113.89,-252.13"/>
</g>
<!-- node15 -->
<g id="node16" class="node">
<title>node15</title>
<ellipse fill="none" stroke="black" cx="2353.64" cy="-234" rx="78.79" ry="18"/>
<text text-anchor="middle" x="2353.64" y="-230.3" font-family="Times,serif" font-size="14.00">Interpolate_98</text>
</g>
<!-- node1&#45;&gt;node15 -->
<g id="edge15" class="edge">
<title>node1&#45;&gt;node15</title>
<path fill="none" stroke="black" d="M1504.01,-302.02C1699.3,-297.22 2004.33,-284.69 2266.64,-252 2273.78,-251.11 2281.22,-249.98 2288.6,-248.72"/>
<polygon fill="black" stroke="black" points="2289.37,-252.14 2298.6,-246.95 2288.14,-245.25 2289.37,-252.14"/>
</g>
<!-- node16 -->
<g id="node17" class="node">
<title>node16</title>
<ellipse fill="none" stroke="black" cx="2528.64" cy="-234" rx="78.79" ry="18"/>
<text text-anchor="middle" x="2528.64" y="-230.3" font-family="Times,serif" font-size="14.00">Interpolate_99</text>
</g>
<!-- node1&#45;&gt;node16 -->
<g id="edge16" class="edge">
<title>node1&#45;&gt;node16</title>
<path fill="none" stroke="black" d="M1508.42,-304.47C1736.82,-301.78 2116.9,-291.08 2441.64,-252 2448.79,-251.14 2456.22,-250.03 2463.6,-248.78"/>
<polygon fill="black" stroke="black" points="2464.37,-252.2 2473.61,-247.02 2463.15,-245.31 2464.37,-252.2"/>
</g>
<!-- node17 -->
<g id="node18" class="node">
<title>node17</title>
<ellipse fill="none" stroke="black" cx="1303.64" cy="-162" rx="196.87" ry="18"/>
<text text-anchor="middle" x="1303.64" y="-158.3" font-family="Times,serif" font-size="14.00">WEIGHTED_ROUND_ROBIN_Joiner_103</text>
</g>
<!-- node2&#45;&gt;node17 -->
<g id="edge17" class="edge">
<title>node2&#45;&gt;node17</title>
<path fill="none" stroke="black" d="M133.68,-220.98C144.24,-219.04 155.25,-217.25 165.64,-216 489.5,-177.03 868.39,-166.27 1096.99,-163.55"/>
<polygon fill="black" stroke="black" points="1097.13,-167.05 1107.08,-163.44 1097.04,-160.05 1097.13,-167.05"/>
</g>
<!-- node3&#45;&gt;node17 -->
<g id="edge18" class="edge">
<title>node3&#45;&gt;node17</title>
<path fill="none" stroke="black" d="M308.69,-221.05C319.25,-219.1 330.26,-217.29 340.64,-216 601.95,-183.44 905.63,-170.88 1101.01,-166.04"/>
<polygon fill="black" stroke="black" points="1101.19,-169.54 1111.1,-165.79 1101.02,-162.54 1101.19,-169.54"/>
</g>
<!-- node4&#45;&gt;node17 -->
<g id="edge19" class="edge">
<title>node4&#45;&gt;node17</title>
<path fill="none" stroke="black" d="M484.17,-221.07C494.59,-219.14 505.42,-217.34 515.64,-216 717.69,-189.57 950.71,-175.97 1110.65,-169.2"/>
<polygon fill="black" stroke="black" points="1111.23,-172.68 1121.08,-168.77 1110.94,-165.69 1111.23,-172.68"/>
</g>
<!-- node5&#45;&gt;node17 -->
<g id="edge20" class="edge">
<title>node5&#45;&gt;node17</title>
<path fill="none" stroke="black" d="M659.19,-221.23C669.61,-219.28 680.43,-217.43 690.64,-216 838.8,-195.18 1008.34,-181.28 1131.5,-172.95"/>
<polygon fill="black" stroke="black" points="1132.04,-176.43 1141.78,-172.27 1131.57,-169.44 1132.04,-176.43"/>
</g>
<!-- node6&#45;&gt;node17 -->
<g id="edge21" class="edge">
<title>node6&#45;&gt;node17</title>
<path fill="none" stroke="black" d="M835.16,-221.34C845.29,-219.43 855.76,-217.56 865.64,-216 966.26,-200.1 1080.53,-186.42 1167.13,-176.94"/>
<polygon fill="black" stroke="black" points="1167.72,-180.4 1177.28,-175.84 1166.96,-173.44 1167.72,-180.4"/>
</g>
<!-- node7&#45;&gt;node17 -->
<g id="edge22" class="edge">
<title>node7&#45;&gt;node17</title>
<path fill="none" stroke="black" d="M1010.66,-221.6C1066.18,-210.49 1151.38,-193.45 1215.61,-180.61"/>
<polygon fill="black" stroke="black" points="1216.61,-183.98 1225.73,-178.58 1215.24,-177.11 1216.61,-183.98"/>
</g>
<!-- node8&#45;&gt;node17 -->
<g id="edge23" class="edge">
<title>node8&#45;&gt;node17</title>
<path fill="none" stroke="black" d="M1166.18,-217.98C1191.34,-207.92 1224.78,-194.55 1252.38,-183.51"/>
<polygon fill="black" stroke="black" points="1253.89,-186.67 1261.87,-179.71 1251.29,-180.17 1253.89,-186.67"/>
</g>
<!-- node9&#45;&gt;node17 -->
<g id="edge24" class="edge">
<title>node9&#45;&gt;node17</title>
<path fill="none" stroke="black" d="M1303.64,-215.7C1303.64,-207.98 1303.64,-198.71 1303.64,-190.11"/>
<polygon fill="black" stroke="black" points="1307.14,-190.1 1303.64,-180.1 1300.14,-190.1 1307.14,-190.1"/>
</g>
<!-- node10&#45;&gt;node17 -->
<g id="edge25" class="edge">
<title>node10&#45;&gt;node17</title>
<path fill="none" stroke="black" d="M1441.1,-217.98C1415.95,-207.92 1382.51,-194.55 1354.91,-183.51"/>
<polygon fill="black" stroke="black" points="1356,-180.17 1345.41,-179.71 1353.4,-186.67 1356,-180.17"/>
</g>
<!-- node11&#45;&gt;node17 -->
<g id="edge26" class="edge">
<title>node11&#45;&gt;node17</title>
<path fill="none" stroke="black" d="M1596.63,-221.6C1541.1,-210.49 1455.91,-193.45 1391.68,-180.61"/>
<polygon fill="black" stroke="black" points="1392.05,-177.11 1381.55,-178.58 1390.67,-183.98 1392.05,-177.11"/>
</g>
<!-- node12&#45;&gt;node17 -->
<g id="edge27" class="edge">
<title>node12&#45;&gt;node17</title>
<path fill="none" stroke="black" d="M1772.12,-221.34C1762,-219.43 1751.52,-217.56 1741.64,-216 1641.03,-200.1 1526.75,-186.42 1440.16,-176.94"/>
<polygon fill="black" stroke="black" points="1440.33,-173.44 1430.01,-175.84 1439.57,-180.4 1440.33,-173.44"/>
</g>
<!-- node13&#45;&gt;node17 -->
<g id="edge28" class="edge">
<title>node13&#45;&gt;node17</title>
<path fill="none" stroke="black" d="M1948.1,-221.23C1937.68,-219.28 1926.85,-217.43 1916.64,-216 1768.48,-195.18 1598.95,-181.28 1475.78,-172.95"/>
<polygon fill="black" stroke="black" points="1475.72,-169.44 1465.51,-172.27 1475.25,-176.43 1475.72,-169.44"/>
</g>
<!-- node14&#45;&gt;node17 -->
<g id="edge29" class="edge">
<title>node14&#45;&gt;node17</title>
<path fill="none" stroke="black" d="M2123.12,-221.07C2112.7,-219.14 2101.87,-217.34 2091.64,-216 1889.6,-189.57 1656.58,-175.97 1496.63,-169.2"/>
<polygon fill="black" stroke="black" points="1496.34,-165.69 1486.21,-168.77 1496.05,-172.68 1496.34,-165.69"/>
</g>
<!-- node15&#45;&gt;node17 -->
<g id="edge30" class="edge">
<title>node15&#45;&gt;node17</title>
<path fill="none" stroke="black" d="M2298.6,-221.05C2288.03,-219.1 2277.03,-217.29 2266.64,-216 2005.34,-183.44 1701.66,-170.88 1506.28,-166.04"/>
<polygon fill="black" stroke="black" points="1506.27,-162.54 1496.19,-165.79 1506.1,-169.54 1506.27,-162.54"/>
</g>
<!-- node16&#45;&gt;node17 -->
<g id="edge31" class="edge">
<title>node16&#45;&gt;node17</title>
<path fill="none" stroke="black" d="M2473.61,-220.98C2463.04,-219.04 2452.03,-217.25 2441.64,-216 2117.79,-177.03 1738.9,-166.27 1510.3,-163.55"/>
<polygon fill="black" stroke="black" points="1510.24,-160.05 1500.2,-163.44 1510.16,-167.05 1510.24,-160.05"/>
</g>
<!-- node18 -->
<g id="node19" class="node">
<title>node18</title>
<ellipse fill="none" stroke="black" cx="1303.64" cy="-90" rx="70.39" ry="18"/>
<text text-anchor="middle" x="1303.64" y="-86.3" font-family="Times,serif" font-size="14.00">Average_100</text>
</g>
<!-- node17&#45;&gt;node18 -->
<g id="edge32" class="edge">
<title>node17&#45;&gt;node18</title>
<path fill="none" stroke="black" d="M1303.64,-143.7C1303.64,-135.98 1303.64,-126.71 1303.64,-118.11"/>
<polygon fill="black" stroke="black" points="1307.14,-118.1 1303.64,-108.1 1300.14,-118.1 1307.14,-118.1"/>
</g>
<!-- node19 -->
<g id="node20" class="node">
<title>node19</title>
<ellipse fill="none" stroke="black" cx="1303.64" cy="-18" rx="65.79" ry="18"/>
<text text-anchor="middle" x="1303.64" y="-14.3" font-family="Times,serif" font-size="14.00">Printer_101</text>
</g>
<!-- node18&#45;&gt;node19 -->
<g id="edge33" class="edge">
<title>node18&#45;&gt;node19</title>
<path fill="none" stroke="black" d="M1303.64,-71.7C1303.64,-63.98 1303.64,-54.71 1303.64,-46.11"/>
<polygon fill="black" stroke="black" points="1307.14,-46.1 1303.64,-36.1 1300.14,-46.1 1307.14,-46.1"/>
</g>
</g>
</svg>
