<?xml version="1.0" encoding="UTF-8" standalone="no"?>
<!DOCTYPE svg PUBLIC "-//W3C//DTD SVG 1.1//EN"
 "http://www.w3.org/Graphics/SVG/1.1/DTD/svg11.dtd">
<!-- Generated by graphviz version 2.43.0 (0)
 -->
<!-- Title: streamit Pages: 1 -->
<svg width="4742pt" height="692pt"
 viewBox="0.00 0.00 4742.48 692.00" xmlns="http://www.w3.org/2000/svg" xmlns:xlink="http://www.w3.org/1999/xlink">
<g id="graph0" class="graph" transform="scale(1 1) rotate(0) translate(4 688)">
<title>streamit</title>
<polygon fill="white" stroke="transparent" points="-4,4 -4,-688 4738.48,-688 4738.48,4 -4,4"/>
<!-- node2 -->
<g id="node1" class="node">
<title>node2</title>
<ellipse fill="none" stroke="black" cx="2366.74" cy="-666" rx="61.99" ry="18"/>
<text text-anchor="middle" x="2366.74" y="-662.3" font-family="Times,serif" font-size="14.00">FileReader</text>
</g>
<!-- node5 -->
<g id="node2" class="node">
<title>node5</title>
<ellipse fill="none" stroke="black" cx="2366.74" cy="-594" rx="68.49" ry="18"/>
<text text-anchor="middle" x="2366.74" y="-590.3" font-family="Times,serif" font-size="14.00">dct2_printer</text>
</g>
<!-- node2&#45;&gt;node5 -->
<g id="edge68" class="edge">
<title>node2&#45;&gt;node5</title>
<path fill="none" stroke="black" d="M2366.74,-647.7C2366.74,-639.98 2366.74,-630.71 2366.74,-622.11"/>
<polygon fill="black" stroke="black" points="2370.24,-622.1 2366.74,-612.1 2363.24,-622.1 2370.24,-622.1"/>
</g>
<!-- node7 -->
<g id="node3" class="node">
<title>node7</title>
<ellipse fill="none" stroke="black" cx="2366.74" cy="-522" rx="126.18" ry="18"/>
<text text-anchor="middle" x="2366.74" y="-518.3" font-family="Times,serif" font-size="14.00">dct2_split_round_robin_y</text>
</g>
<!-- node5&#45;&gt;node7 -->
<g id="edge33" class="edge">
<title>node5&#45;&gt;node7</title>
<path fill="none" stroke="black" d="M2366.74,-575.7C2366.74,-567.98 2366.74,-558.71 2366.74,-550.11"/>
<polygon fill="black" stroke="black" points="2370.24,-550.1 2366.74,-540.1 2363.24,-550.1 2370.24,-550.1"/>
</g>
<!-- node9 -->
<g id="node5" class="node">
<title>node9</title>
<ellipse fill="none" stroke="black" cx="139.74" cy="-450" rx="139.98" ry="18"/>
<text text-anchor="middle" x="139.74" y="-446.3" font-family="Times,serif" font-size="14.00">dct2_idct_1d_reference_fine</text>
</g>
<!-- node7&#45;&gt;node9 -->
<g id="edge1" class="edge">
<title>node7&#45;&gt;node9</title>
<path fill="none" stroke="black" d="M2240.58,-521.68C1916.17,-522.59 1026.54,-519.75 287.74,-468 274.04,-467.04 259.65,-465.75 245.45,-464.3"/>
<polygon fill="black" stroke="black" points="245.47,-460.78 235.16,-463.22 244.74,-467.74 245.47,-460.78"/>
</g>
<!-- node10 -->
<g id="node6" class="node">
<title>node10</title>
<ellipse fill="none" stroke="black" cx="436.74" cy="-450" rx="139.98" ry="18"/>
<text text-anchor="middle" x="436.74" y="-446.3" font-family="Times,serif" font-size="14.00">dct2_idct_1d_reference_fine</text>
</g>
<!-- node7&#45;&gt;node10 -->
<g id="edge3" class="edge">
<title>node7&#45;&gt;node10</title>
<path fill="none" stroke="black" d="M2240.7,-520.91C1948.98,-519.91 1204.86,-512.76 584.74,-468 571.04,-467.01 556.65,-465.7 542.45,-464.25"/>
<polygon fill="black" stroke="black" points="542.47,-460.73 532.16,-463.16 541.74,-467.69 542.47,-460.73"/>
</g>
<!-- node11 -->
<g id="node7" class="node">
<title>node11</title>
<ellipse fill="none" stroke="black" cx="733.74" cy="-450" rx="139.98" ry="18"/>
<text text-anchor="middle" x="733.74" y="-446.3" font-family="Times,serif" font-size="14.00">dct2_idct_1d_reference_fine</text>
</g>
<!-- node7&#45;&gt;node11 -->
<g id="edge5" class="edge">
<title>node7&#45;&gt;node11</title>
<path fill="none" stroke="black" d="M2241.39,-519.85C1985.49,-516.78 1384.66,-505.8 881.74,-468 868.14,-466.98 853.87,-465.66 839.78,-464.2"/>
<polygon fill="black" stroke="black" points="839.88,-460.69 829.57,-463.12 839.14,-467.65 839.88,-460.69"/>
</g>
<!-- node12 -->
<g id="node8" class="node">
<title>node12</title>
<ellipse fill="none" stroke="black" cx="1030.74" cy="-450" rx="139.98" ry="18"/>
<text text-anchor="middle" x="1030.74" y="-446.3" font-family="Times,serif" font-size="14.00">dct2_idct_1d_reference_fine</text>
</g>
<!-- node7&#45;&gt;node12 -->
<g id="edge7" class="edge">
<title>node7&#45;&gt;node12</title>
<path fill="none" stroke="black" d="M2243,-518.32C2026.81,-513.01 1566.42,-498.88 1178.74,-468 1165.36,-466.93 1151.32,-465.6 1137.44,-464.15"/>
<polygon fill="black" stroke="black" points="1137.69,-460.66 1127.37,-463.08 1136.94,-467.62 1137.69,-460.66"/>
</g>
<!-- node13 -->
<g id="node9" class="node">
<title>node13</title>
<ellipse fill="none" stroke="black" cx="1327.74" cy="-450" rx="139.98" ry="18"/>
<text text-anchor="middle" x="1327.74" y="-446.3" font-family="Times,serif" font-size="14.00">dct2_idct_1d_reference_fine</text>
</g>
<!-- node7&#45;&gt;node13 -->
<g id="edge9" class="edge">
<title>node7&#45;&gt;node13</title>
<path fill="none" stroke="black" d="M2247.69,-516C2076.68,-508.35 1751.69,-492.04 1475.74,-468 1462.7,-466.86 1449.03,-465.51 1435.5,-464.08"/>
<polygon fill="black" stroke="black" points="1435.5,-460.56 1425.18,-462.96 1434.75,-467.52 1435.5,-460.56"/>
</g>
<!-- node14 -->
<g id="node10" class="node">
<title>node14</title>
<ellipse fill="none" stroke="black" cx="1624.74" cy="-450" rx="139.98" ry="18"/>
<text text-anchor="middle" x="1624.74" y="-446.3" font-family="Times,serif" font-size="14.00">dct2_idct_1d_reference_fine</text>
</g>
<!-- node7&#45;&gt;node14 -->
<g id="edge11" class="edge">
<title>node7&#45;&gt;node14</title>
<path fill="none" stroke="black" d="M2260.16,-512.31C2141.22,-502.42 1943.07,-485.38 1772.74,-468 1760.13,-466.71 1746.92,-465.3 1733.81,-463.85"/>
<polygon fill="black" stroke="black" points="1734.14,-460.36 1723.81,-462.73 1733.37,-467.32 1734.14,-460.36"/>
</g>
<!-- node15 -->
<g id="node11" class="node">
<title>node15</title>
<ellipse fill="none" stroke="black" cx="1921.74" cy="-450" rx="139.98" ry="18"/>
<text text-anchor="middle" x="1921.74" y="-446.3" font-family="Times,serif" font-size="14.00">dct2_idct_1d_reference_fine</text>
</g>
<!-- node7&#45;&gt;node15 -->
<g id="edge13" class="edge">
<title>node7&#45;&gt;node15</title>
<path fill="none" stroke="black" d="M2285.38,-508.2C2209.61,-496.28 2096.67,-478.52 2016.79,-465.95"/>
<polygon fill="black" stroke="black" points="2017.15,-462.47 2006.73,-464.37 2016.06,-469.38 2017.15,-462.47"/>
</g>
<!-- node16 -->
<g id="node12" class="node">
<title>node16</title>
<ellipse fill="none" stroke="black" cx="2218.74" cy="-450" rx="139.98" ry="18"/>
<text text-anchor="middle" x="2218.74" y="-446.3" font-family="Times,serif" font-size="14.00">dct2_idct_1d_reference_fine</text>
</g>
<!-- node7&#45;&gt;node16 -->
<g id="edge15" class="edge">
<title>node7&#45;&gt;node16</title>
<path fill="none" stroke="black" d="M2332.04,-504.59C2311.4,-494.83 2285.03,-482.35 2262.92,-471.9"/>
<polygon fill="black" stroke="black" points="2264.27,-468.66 2253.73,-467.55 2261.28,-474.99 2264.27,-468.66"/>
</g>
<!-- node17 -->
<g id="node13" class="node">
<title>node17</title>
<ellipse fill="none" stroke="black" cx="2515.74" cy="-450" rx="139.98" ry="18"/>
<text text-anchor="middle" x="2515.74" y="-446.3" font-family="Times,serif" font-size="14.00">dct2_idct_1d_reference_fine</text>
</g>
<!-- node7&#45;&gt;node17 -->
<g id="edge17" class="edge">
<title>node7&#45;&gt;node17</title>
<path fill="none" stroke="black" d="M2401.67,-504.59C2422.52,-494.79 2449.19,-482.26 2471.5,-471.78"/>
<polygon fill="black" stroke="black" points="2473.2,-474.85 2480.76,-467.43 2470.23,-468.51 2473.2,-474.85"/>
</g>
<!-- node18 -->
<g id="node14" class="node">
<title>node18</title>
<ellipse fill="none" stroke="black" cx="2812.74" cy="-450" rx="139.98" ry="18"/>
<text text-anchor="middle" x="2812.74" y="-446.3" font-family="Times,serif" font-size="14.00">dct2_idct_1d_reference_fine</text>
</g>
<!-- node7&#45;&gt;node18 -->
<g id="edge19" class="edge">
<title>node7&#45;&gt;node18</title>
<path fill="none" stroke="black" d="M2448.28,-508.2C2524.33,-496.27 2637.77,-478.46 2717.85,-465.89"/>
<polygon fill="black" stroke="black" points="2718.6,-469.32 2727.94,-464.31 2717.52,-462.4 2718.6,-469.32"/>
</g>
<!-- node19 -->
<g id="node15" class="node">
<title>node19</title>
<ellipse fill="none" stroke="black" cx="3109.74" cy="-450" rx="139.98" ry="18"/>
<text text-anchor="middle" x="3109.74" y="-446.3" font-family="Times,serif" font-size="14.00">dct2_idct_1d_reference_fine</text>
</g>
<!-- node7&#45;&gt;node19 -->
<g id="edge21" class="edge">
<title>node7&#45;&gt;node19</title>
<path fill="none" stroke="black" d="M2473.22,-512.34C2592.34,-502.46 2790.99,-485.41 2961.74,-468 2974.35,-466.71 2987.55,-465.3 3000.66,-463.85"/>
<polygon fill="black" stroke="black" points="3001.11,-467.32 3010.66,-462.73 3000.33,-460.36 3001.11,-467.32"/>
</g>
<!-- node20 -->
<g id="node16" class="node">
<title>node20</title>
<ellipse fill="none" stroke="black" cx="3406.74" cy="-450" rx="139.98" ry="18"/>
<text text-anchor="middle" x="3406.74" y="-446.3" font-family="Times,serif" font-size="14.00">dct2_idct_1d_reference_fine</text>
</g>
<!-- node7&#45;&gt;node20 -->
<g id="edge23" class="edge">
<title>node7&#45;&gt;node20</title>
<path fill="none" stroke="black" d="M2485.92,-516.01C2657.12,-508.36 2982.48,-492.05 3258.74,-468 3271.78,-466.86 3285.44,-465.51 3298.98,-464.08"/>
<polygon fill="black" stroke="black" points="3299.73,-467.52 3309.29,-462.96 3298.97,-460.56 3299.73,-467.52"/>
</g>
<!-- node21 -->
<g id="node17" class="node">
<title>node21</title>
<ellipse fill="none" stroke="black" cx="3703.74" cy="-450" rx="139.98" ry="18"/>
<text text-anchor="middle" x="3703.74" y="-446.3" font-family="Times,serif" font-size="14.00">dct2_idct_1d_reference_fine</text>
</g>
<!-- node7&#45;&gt;node21 -->
<g id="edge25" class="edge">
<title>node7&#45;&gt;node21</title>
<path fill="none" stroke="black" d="M2490.58,-518.33C2706.95,-513.02 3167.73,-498.89 3555.74,-468 3569.12,-466.93 3583.16,-465.6 3597.04,-464.16"/>
<polygon fill="black" stroke="black" points="3597.53,-467.62 3607.1,-463.08 3596.79,-460.66 3597.53,-467.62"/>
</g>
<!-- node22 -->
<g id="node18" class="node">
<title>node22</title>
<ellipse fill="none" stroke="black" cx="4000.74" cy="-450" rx="139.98" ry="18"/>
<text text-anchor="middle" x="4000.74" y="-446.3" font-family="Times,serif" font-size="14.00">dct2_idct_1d_reference_fine</text>
</g>
<!-- node7&#45;&gt;node22 -->
<g id="edge27" class="edge">
<title>node7&#45;&gt;node22</title>
<path fill="none" stroke="black" d="M2492.17,-519.86C2748.24,-516.78 3349.47,-505.82 3852.74,-468 3866.33,-466.98 3880.6,-465.66 3894.69,-464.2"/>
<polygon fill="black" stroke="black" points="3895.33,-467.65 3904.91,-463.12 3894.6,-460.69 3895.33,-467.65"/>
</g>
<!-- node23 -->
<g id="node19" class="node">
<title>node23</title>
<ellipse fill="none" stroke="black" cx="4297.74" cy="-450" rx="139.98" ry="18"/>
<text text-anchor="middle" x="4297.74" y="-446.3" font-family="Times,serif" font-size="14.00">dct2_idct_1d_reference_fine</text>
</g>
<!-- node7&#45;&gt;node23 -->
<g id="edge29" class="edge">
<title>node7&#45;&gt;node23</title>
<path fill="none" stroke="black" d="M2492.85,-520.91C2784.72,-519.92 3529.27,-512.78 4149.74,-468 4163.44,-467.01 4177.82,-465.7 4192.02,-464.25"/>
<polygon fill="black" stroke="black" points="4192.73,-467.69 4202.31,-463.16 4192,-460.73 4192.73,-467.69"/>
</g>
<!-- node24 -->
<g id="node20" class="node">
<title>node24</title>
<ellipse fill="none" stroke="black" cx="4594.74" cy="-450" rx="139.98" ry="18"/>
<text text-anchor="middle" x="4594.74" y="-446.3" font-family="Times,serif" font-size="14.00">dct2_idct_1d_reference_fine</text>
</g>
<!-- node7&#45;&gt;node24 -->
<g id="edge31" class="edge">
<title>node7&#45;&gt;node24</title>
<path fill="none" stroke="black" d="M2492.95,-521.69C2817.52,-522.6 3707.58,-519.77 4446.74,-468 4460.44,-467.04 4474.83,-465.75 4489.02,-464.3"/>
<polygon fill="black" stroke="black" points="4489.74,-467.75 4499.32,-463.22 4489.01,-460.78 4489.74,-467.75"/>
</g>
<!-- node8 -->
<g id="node4" class="node">
<title>node8</title>
<ellipse fill="none" stroke="black" cx="2366.74" cy="-378" rx="122.68" ry="18"/>
<text text-anchor="middle" x="2366.74" y="-374.3" font-family="Times,serif" font-size="14.00">dct2_join_round_robin_y</text>
</g>
<!-- node26 -->
<g id="node21" class="node">
<title>node26</title>
<ellipse fill="none" stroke="black" cx="2366.74" cy="-306" rx="126.18" ry="18"/>
<text text-anchor="middle" x="2366.74" y="-302.3" font-family="Times,serif" font-size="14.00">dct2_split_round_robin_x</text>
</g>
<!-- node8&#45;&gt;node26 -->
<g id="edge66" class="edge">
<title>node8&#45;&gt;node26</title>
<path fill="none" stroke="black" d="M2366.74,-359.7C2366.74,-351.98 2366.74,-342.71 2366.74,-334.11"/>
<polygon fill="black" stroke="black" points="2370.24,-334.1 2366.74,-324.1 2363.24,-334.1 2370.24,-334.1"/>
</g>
<!-- node9&#45;&gt;node8 -->
<g id="edge2" class="edge">
<title>node9&#45;&gt;node8</title>
<path fill="none" stroke="black" d="M235.16,-436.78C252.62,-434.9 270.71,-433.19 287.74,-432 1021.42,-380.61 1903.83,-377.45 2233.75,-378.3"/>
<polygon fill="black" stroke="black" points="2233.82,-381.8 2243.83,-378.33 2233.84,-374.8 2233.82,-381.8"/>
</g>
<!-- node10&#45;&gt;node8 -->
<g id="edge4" class="edge">
<title>node10&#45;&gt;node8</title>
<path fill="none" stroke="black" d="M532.16,-436.84C549.63,-434.95 567.71,-433.23 584.74,-432 1199.88,-387.6 1937.04,-380.21 2233.59,-379.11"/>
<polygon fill="black" stroke="black" points="2233.96,-382.61 2243.95,-379.08 2233.94,-375.61 2233.96,-382.61"/>
</g>
<!-- node11&#45;&gt;node8 -->
<g id="edge6" class="edge">
<title>node11&#45;&gt;node8</title>
<path fill="none" stroke="black" d="M829.57,-436.88C846.91,-435 864.84,-433.27 881.74,-432 1379.94,-394.56 1974.21,-383.43 2234.08,-380.24"/>
<polygon fill="black" stroke="black" points="2234.36,-383.73 2244.32,-380.11 2234.28,-376.73 2234.36,-383.73"/>
</g>
<!-- node12&#45;&gt;node8 -->
<g id="edge8" class="edge">
<title>node12&#45;&gt;node8</title>
<path fill="none" stroke="black" d="M1127.37,-436.92C1144.46,-435.06 1162.11,-433.32 1178.74,-432 1562.14,-401.47 2016.64,-387.3 2235.74,-381.86"/>
<polygon fill="black" stroke="black" points="2236.08,-385.35 2245.99,-381.6 2235.91,-378.35 2236.08,-385.35"/>
</g>
<!-- node13&#45;&gt;node8 -->
<g id="edge10" class="edge">
<title>node13&#45;&gt;node8</title>
<path fill="none" stroke="black" d="M1425.18,-437.04C1442.03,-435.19 1459.38,-433.43 1475.74,-432 1747.81,-408.3 2067.56,-392.11 2240.39,-384.33"/>
<polygon fill="black" stroke="black" points="2240.71,-387.82 2250.54,-383.87 2240.4,-380.82 2240.71,-387.82"/>
</g>
<!-- node14&#45;&gt;node8 -->
<g id="edge12" class="edge">
<title>node14&#45;&gt;node8</title>
<path fill="none" stroke="black" d="M1723.81,-437.27C1740.15,-435.43 1756.91,-433.61 1772.74,-432 1939.25,-415.01 2132.34,-398.34 2252.03,-388.37"/>
<polygon fill="black" stroke="black" points="2252.64,-391.83 2262.31,-387.51 2252.06,-384.85 2252.64,-391.83"/>
</g>
<!-- node15&#45;&gt;node8 -->
<g id="edge14" class="edge">
<title>node15&#45;&gt;node8</title>
<path fill="none" stroke="black" d="M2006.49,-435.67C2083.75,-423.51 2197.55,-405.61 2276.49,-393.2"/>
<polygon fill="black" stroke="black" points="2277.09,-396.65 2286.42,-391.63 2276,-389.73 2277.09,-396.65"/>
</g>
<!-- node16&#45;&gt;node8 -->
<g id="edge16" class="edge">
<title>node16&#45;&gt;node8</title>
<path fill="none" stroke="black" d="M2253.81,-432.41C2274.53,-422.61 2300.94,-410.12 2323.01,-399.68"/>
<polygon fill="black" stroke="black" points="2324.63,-402.79 2332.17,-395.35 2321.63,-396.46 2324.63,-402.79"/>
</g>
<!-- node17&#45;&gt;node8 -->
<g id="edge18" class="edge">
<title>node17&#45;&gt;node8</title>
<path fill="none" stroke="black" d="M2480.43,-432.41C2459.57,-422.61 2432.98,-410.12 2410.76,-399.68"/>
<polygon fill="black" stroke="black" points="2412.08,-396.43 2401.54,-395.35 2409.1,-402.77 2412.08,-396.43"/>
</g>
<!-- node18&#45;&gt;node8 -->
<g id="edge20" class="edge">
<title>node18&#45;&gt;node8</title>
<path fill="none" stroke="black" d="M2727.8,-435.67C2650.36,-423.51 2536.3,-405.61 2457.19,-393.2"/>
<polygon fill="black" stroke="black" points="2457.65,-389.73 2447.23,-391.63 2456.57,-396.64 2457.65,-389.73"/>
</g>
<!-- node19&#45;&gt;node8 -->
<g id="edge22" class="edge">
<title>node19&#45;&gt;node8</title>
<path fill="none" stroke="black" d="M3010.66,-437.27C2994.32,-435.43 2977.56,-433.61 2961.74,-432 2794.95,-414.99 2601.53,-398.33 2481.63,-388.36"/>
<polygon fill="black" stroke="black" points="2481.6,-384.84 2471.34,-387.5 2481.02,-391.82 2481.6,-384.84"/>
</g>
<!-- node20&#45;&gt;node8 -->
<g id="edge24" class="edge">
<title>node20&#45;&gt;node8</title>
<path fill="none" stroke="black" d="M3309.29,-437.04C3292.45,-435.19 3275.1,-433.42 3258.74,-432 2986.36,-408.28 2666.25,-392.1 2493.23,-384.32"/>
<polygon fill="black" stroke="black" points="2493.21,-380.82 2483.06,-383.87 2492.9,-387.81 2493.21,-380.82"/>
</g>
<!-- node21&#45;&gt;node8 -->
<g id="edge26" class="edge">
<title>node21&#45;&gt;node8</title>
<path fill="none" stroke="black" d="M3607.1,-436.92C3590.01,-435.06 3572.37,-433.32 3555.74,-432 3171.76,-401.43 2716.52,-387.28 2497.41,-381.84"/>
<polygon fill="black" stroke="black" points="2497.24,-378.34 2487.16,-381.59 2497.07,-385.33 2497.24,-378.34"/>
</g>
<!-- node22&#45;&gt;node8 -->
<g id="edge28" class="edge">
<title>node22&#45;&gt;node8</title>
<path fill="none" stroke="black" d="M3904.91,-436.88C3887.57,-435 3869.63,-433.27 3852.74,-432 3353.89,-394.51 2758.77,-383.41 2498.98,-380.23"/>
<polygon fill="black" stroke="black" points="2498.79,-376.72 2488.75,-380.1 2498.71,-383.72 2498.79,-376.72"/>
</g>
<!-- node23&#45;&gt;node8 -->
<g id="edge30" class="edge">
<title>node23&#45;&gt;node8</title>
<path fill="none" stroke="black" d="M4202.31,-436.84C4184.85,-434.95 4166.76,-433.23 4149.74,-432 3534.25,-387.58 2796.67,-380.2 2499.96,-379.11"/>
<polygon fill="black" stroke="black" points="2499.61,-375.61 2489.6,-379.07 2499.58,-382.61 2499.61,-375.61"/>
</g>
<!-- node24&#45;&gt;node8 -->
<g id="edge32" class="edge">
<title>node24&#45;&gt;node8</title>
<path fill="none" stroke="black" d="M4499.32,-436.78C4481.85,-434.9 4463.77,-433.19 4446.74,-432 3712.71,-380.59 2829.86,-377.44 2499.79,-378.3"/>
<polygon fill="black" stroke="black" points="2499.7,-374.8 2489.71,-378.32 2499.72,-381.8 2499.7,-374.8"/>
</g>
<!-- node28 -->
<g id="node23" class="node">
<title>node28</title>
<ellipse fill="none" stroke="black" cx="139.74" cy="-234" rx="139.98" ry="18"/>
<text text-anchor="middle" x="139.74" y="-230.3" font-family="Times,serif" font-size="14.00">dct2_idct_1d_reference_fine</text>
</g>
<!-- node26&#45;&gt;node28 -->
<g id="edge34" class="edge">
<title>node26&#45;&gt;node28</title>
<path fill="none" stroke="black" d="M2240.58,-305.68C1916.17,-306.59 1026.54,-303.75 287.74,-252 274.04,-251.04 259.65,-249.75 245.45,-248.3"/>
<polygon fill="black" stroke="black" points="245.47,-244.78 235.16,-247.22 244.74,-251.74 245.47,-244.78"/>
</g>
<!-- node29 -->
<g id="node24" class="node">
<title>node29</title>
<ellipse fill="none" stroke="black" cx="436.74" cy="-234" rx="139.98" ry="18"/>
<text text-anchor="middle" x="436.74" y="-230.3" font-family="Times,serif" font-size="14.00">dct2_idct_1d_reference_fine</text>
</g>
<!-- node26&#45;&gt;node29 -->
<g id="edge36" class="edge">
<title>node26&#45;&gt;node29</title>
<path fill="none" stroke="black" d="M2240.7,-304.91C1948.98,-303.91 1204.86,-296.76 584.74,-252 571.04,-251.01 556.65,-249.7 542.45,-248.25"/>
<polygon fill="black" stroke="black" points="542.47,-244.73 532.16,-247.16 541.74,-251.69 542.47,-244.73"/>
</g>
<!-- node30 -->
<g id="node25" class="node">
<title>node30</title>
<ellipse fill="none" stroke="black" cx="733.74" cy="-234" rx="139.98" ry="18"/>
<text text-anchor="middle" x="733.74" y="-230.3" font-family="Times,serif" font-size="14.00">dct2_idct_1d_reference_fine</text>
</g>
<!-- node26&#45;&gt;node30 -->
<g id="edge38" class="edge">
<title>node26&#45;&gt;node30</title>
<path fill="none" stroke="black" d="M2241.39,-303.85C1985.49,-300.78 1384.66,-289.8 881.74,-252 868.14,-250.98 853.87,-249.66 839.78,-248.2"/>
<polygon fill="black" stroke="black" points="839.88,-244.69 829.57,-247.12 839.14,-251.65 839.88,-244.69"/>
</g>
<!-- node31 -->
<g id="node26" class="node">
<title>node31</title>
<ellipse fill="none" stroke="black" cx="1030.74" cy="-234" rx="139.98" ry="18"/>
<text text-anchor="middle" x="1030.74" y="-230.3" font-family="Times,serif" font-size="14.00">dct2_idct_1d_reference_fine</text>
</g>
<!-- node26&#45;&gt;node31 -->
<g id="edge40" class="edge">
<title>node26&#45;&gt;node31</title>
<path fill="none" stroke="black" d="M2243,-302.32C2026.81,-297.01 1566.42,-282.88 1178.74,-252 1165.36,-250.93 1151.32,-249.6 1137.44,-248.15"/>
<polygon fill="black" stroke="black" points="1137.69,-244.66 1127.37,-247.08 1136.94,-251.62 1137.69,-244.66"/>
</g>
<!-- node32 -->
<g id="node27" class="node">
<title>node32</title>
<ellipse fill="none" stroke="black" cx="1327.74" cy="-234" rx="139.98" ry="18"/>
<text text-anchor="middle" x="1327.74" y="-230.3" font-family="Times,serif" font-size="14.00">dct2_idct_1d_reference_fine</text>
</g>
<!-- node26&#45;&gt;node32 -->
<g id="edge42" class="edge">
<title>node26&#45;&gt;node32</title>
<path fill="none" stroke="black" d="M2247.69,-300C2076.68,-292.35 1751.69,-276.04 1475.74,-252 1462.7,-250.86 1449.03,-249.51 1435.5,-248.08"/>
<polygon fill="black" stroke="black" points="1435.5,-244.56 1425.18,-246.96 1434.75,-251.52 1435.5,-244.56"/>
</g>
<!-- node33 -->
<g id="node28" class="node">
<title>node33</title>
<ellipse fill="none" stroke="black" cx="1624.74" cy="-234" rx="139.98" ry="18"/>
<text text-anchor="middle" x="1624.74" y="-230.3" font-family="Times,serif" font-size="14.00">dct2_idct_1d_reference_fine</text>
</g>
<!-- node26&#45;&gt;node33 -->
<g id="edge44" class="edge">
<title>node26&#45;&gt;node33</title>
<path fill="none" stroke="black" d="M2260.16,-296.31C2141.22,-286.42 1943.07,-269.38 1772.74,-252 1760.13,-250.71 1746.92,-249.3 1733.81,-247.85"/>
<polygon fill="black" stroke="black" points="1734.14,-244.36 1723.81,-246.73 1733.37,-251.32 1734.14,-244.36"/>
</g>
<!-- node34 -->
<g id="node29" class="node">
<title>node34</title>
<ellipse fill="none" stroke="black" cx="1921.74" cy="-234" rx="139.98" ry="18"/>
<text text-anchor="middle" x="1921.74" y="-230.3" font-family="Times,serif" font-size="14.00">dct2_idct_1d_reference_fine</text>
</g>
<!-- node26&#45;&gt;node34 -->
<g id="edge46" class="edge">
<title>node26&#45;&gt;node34</title>
<path fill="none" stroke="black" d="M2285.38,-292.2C2209.61,-280.28 2096.67,-262.52 2016.79,-249.95"/>
<polygon fill="black" stroke="black" points="2017.15,-246.47 2006.73,-248.37 2016.06,-253.38 2017.15,-246.47"/>
</g>
<!-- node35 -->
<g id="node30" class="node">
<title>node35</title>
<ellipse fill="none" stroke="black" cx="2218.74" cy="-234" rx="139.98" ry="18"/>
<text text-anchor="middle" x="2218.74" y="-230.3" font-family="Times,serif" font-size="14.00">dct2_idct_1d_reference_fine</text>
</g>
<!-- node26&#45;&gt;node35 -->
<g id="edge48" class="edge">
<title>node26&#45;&gt;node35</title>
<path fill="none" stroke="black" d="M2332.04,-288.59C2311.4,-278.83 2285.03,-266.35 2262.92,-255.9"/>
<polygon fill="black" stroke="black" points="2264.27,-252.66 2253.73,-251.55 2261.28,-258.99 2264.27,-252.66"/>
</g>
<!-- node36 -->
<g id="node31" class="node">
<title>node36</title>
<ellipse fill="none" stroke="black" cx="2515.74" cy="-234" rx="139.98" ry="18"/>
<text text-anchor="middle" x="2515.74" y="-230.3" font-family="Times,serif" font-size="14.00">dct2_idct_1d_reference_fine</text>
</g>
<!-- node26&#45;&gt;node36 -->
<g id="edge50" class="edge">
<title>node26&#45;&gt;node36</title>
<path fill="none" stroke="black" d="M2401.67,-288.59C2422.52,-278.79 2449.19,-266.26 2471.5,-255.78"/>
<polygon fill="black" stroke="black" points="2473.2,-258.85 2480.76,-251.43 2470.23,-252.51 2473.2,-258.85"/>
</g>
<!-- node37 -->
<g id="node32" class="node">
<title>node37</title>
<ellipse fill="none" stroke="black" cx="2812.74" cy="-234" rx="139.98" ry="18"/>
<text text-anchor="middle" x="2812.74" y="-230.3" font-family="Times,serif" font-size="14.00">dct2_idct_1d_reference_fine</text>
</g>
<!-- node26&#45;&gt;node37 -->
<g id="edge52" class="edge">
<title>node26&#45;&gt;node37</title>
<path fill="none" stroke="black" d="M2448.28,-292.2C2524.33,-280.27 2637.77,-262.46 2717.85,-249.89"/>
<polygon fill="black" stroke="black" points="2718.6,-253.32 2727.94,-248.31 2717.52,-246.4 2718.6,-253.32"/>
</g>
<!-- node38 -->
<g id="node33" class="node">
<title>node38</title>
<ellipse fill="none" stroke="black" cx="3109.74" cy="-234" rx="139.98" ry="18"/>
<text text-anchor="middle" x="3109.74" y="-230.3" font-family="Times,serif" font-size="14.00">dct2_idct_1d_reference_fine</text>
</g>
<!-- node26&#45;&gt;node38 -->
<g id="edge54" class="edge">
<title>node26&#45;&gt;node38</title>
<path fill="none" stroke="black" d="M2473.22,-296.34C2592.34,-286.46 2790.99,-269.41 2961.74,-252 2974.35,-250.71 2987.55,-249.3 3000.66,-247.85"/>
<polygon fill="black" stroke="black" points="3001.11,-251.32 3010.66,-246.73 3000.33,-244.36 3001.11,-251.32"/>
</g>
<!-- node39 -->
<g id="node34" class="node">
<title>node39</title>
<ellipse fill="none" stroke="black" cx="3406.74" cy="-234" rx="139.98" ry="18"/>
<text text-anchor="middle" x="3406.74" y="-230.3" font-family="Times,serif" font-size="14.00">dct2_idct_1d_reference_fine</text>
</g>
<!-- node26&#45;&gt;node39 -->
<g id="edge56" class="edge">
<title>node26&#45;&gt;node39</title>
<path fill="none" stroke="black" d="M2485.92,-300.01C2657.12,-292.36 2982.48,-276.05 3258.74,-252 3271.78,-250.86 3285.44,-249.51 3298.98,-248.08"/>
<polygon fill="black" stroke="black" points="3299.73,-251.52 3309.29,-246.96 3298.97,-244.56 3299.73,-251.52"/>
</g>
<!-- node40 -->
<g id="node35" class="node">
<title>node40</title>
<ellipse fill="none" stroke="black" cx="3703.74" cy="-234" rx="139.98" ry="18"/>
<text text-anchor="middle" x="3703.74" y="-230.3" font-family="Times,serif" font-size="14.00">dct2_idct_1d_reference_fine</text>
</g>
<!-- node26&#45;&gt;node40 -->
<g id="edge58" class="edge">
<title>node26&#45;&gt;node40</title>
<path fill="none" stroke="black" d="M2490.58,-302.33C2706.95,-297.02 3167.73,-282.89 3555.74,-252 3569.12,-250.93 3583.16,-249.6 3597.04,-248.16"/>
<polygon fill="black" stroke="black" points="3597.53,-251.62 3607.1,-247.08 3596.79,-244.66 3597.53,-251.62"/>
</g>
<!-- node41 -->
<g id="node36" class="node">
<title>node41</title>
<ellipse fill="none" stroke="black" cx="4000.74" cy="-234" rx="139.98" ry="18"/>
<text text-anchor="middle" x="4000.74" y="-230.3" font-family="Times,serif" font-size="14.00">dct2_idct_1d_reference_fine</text>
</g>
<!-- node26&#45;&gt;node41 -->
<g id="edge60" class="edge">
<title>node26&#45;&gt;node41</title>
<path fill="none" stroke="black" d="M2492.17,-303.86C2748.24,-300.78 3349.47,-289.82 3852.74,-252 3866.33,-250.98 3880.6,-249.66 3894.69,-248.2"/>
<polygon fill="black" stroke="black" points="3895.33,-251.65 3904.91,-247.12 3894.6,-244.69 3895.33,-251.65"/>
</g>
<!-- node42 -->
<g id="node37" class="node">
<title>node42</title>
<ellipse fill="none" stroke="black" cx="4297.74" cy="-234" rx="139.98" ry="18"/>
<text text-anchor="middle" x="4297.74" y="-230.3" font-family="Times,serif" font-size="14.00">dct2_idct_1d_reference_fine</text>
</g>
<!-- node26&#45;&gt;node42 -->
<g id="edge62" class="edge">
<title>node26&#45;&gt;node42</title>
<path fill="none" stroke="black" d="M2492.85,-304.91C2784.72,-303.92 3529.27,-296.78 4149.74,-252 4163.44,-251.01 4177.82,-249.7 4192.02,-248.25"/>
<polygon fill="black" stroke="black" points="4192.73,-251.69 4202.31,-247.16 4192,-244.73 4192.73,-251.69"/>
</g>
<!-- node43 -->
<g id="node38" class="node">
<title>node43</title>
<ellipse fill="none" stroke="black" cx="4594.74" cy="-234" rx="139.98" ry="18"/>
<text text-anchor="middle" x="4594.74" y="-230.3" font-family="Times,serif" font-size="14.00">dct2_idct_1d_reference_fine</text>
</g>
<!-- node26&#45;&gt;node43 -->
<g id="edge64" class="edge">
<title>node26&#45;&gt;node43</title>
<path fill="none" stroke="black" d="M2492.95,-305.69C2817.52,-306.6 3707.58,-303.77 4446.74,-252 4460.44,-251.04 4474.83,-249.75 4489.02,-248.3"/>
<polygon fill="black" stroke="black" points="4489.74,-251.75 4499.32,-247.22 4489.01,-244.78 4489.74,-251.75"/>
</g>
<!-- node27 -->
<g id="node22" class="node">
<title>node27</title>
<ellipse fill="none" stroke="black" cx="2366.74" cy="-162" rx="122.68" ry="18"/>
<text text-anchor="middle" x="2366.74" y="-158.3" font-family="Times,serif" font-size="14.00">dct2_join_round_robin_x</text>
</g>
<!-- node44 -->
<g id="node39" class="node">
<title>node44</title>
<ellipse fill="none" stroke="black" cx="2366.74" cy="-90" rx="64.19" ry="18"/>
<text text-anchor="middle" x="2366.74" y="-86.3" font-family="Times,serif" font-size="14.00">dct2_writer</text>
</g>
<!-- node27&#45;&gt;node44 -->
<g id="edge67" class="edge">
<title>node27&#45;&gt;node44</title>
<path fill="none" stroke="black" d="M2366.74,-143.7C2366.74,-135.98 2366.74,-126.71 2366.74,-118.11"/>
<polygon fill="black" stroke="black" points="2370.24,-118.1 2366.74,-108.1 2363.24,-118.1 2370.24,-118.1"/>
</g>
<!-- node28&#45;&gt;node27 -->
<g id="edge35" class="edge">
<title>node28&#45;&gt;node27</title>
<path fill="none" stroke="black" d="M235.16,-220.78C252.62,-218.9 270.71,-217.19 287.74,-216 1021.42,-164.61 1903.83,-161.45 2233.75,-162.3"/>
<polygon fill="black" stroke="black" points="2233.82,-165.8 2243.83,-162.33 2233.84,-158.8 2233.82,-165.8"/>
</g>
<!-- node29&#45;&gt;node27 -->
<g id="edge37" class="edge">
<title>node29&#45;&gt;node27</title>
<path fill="none" stroke="black" d="M532.16,-220.84C549.63,-218.95 567.71,-217.23 584.74,-216 1199.88,-171.6 1937.04,-164.21 2233.59,-163.11"/>
<polygon fill="black" stroke="black" points="2233.96,-166.61 2243.95,-163.08 2233.94,-159.61 2233.96,-166.61"/>
</g>
<!-- node30&#45;&gt;node27 -->
<g id="edge39" class="edge">
<title>node30&#45;&gt;node27</title>
<path fill="none" stroke="black" d="M829.57,-220.88C846.91,-219 864.84,-217.27 881.74,-216 1379.94,-178.56 1974.21,-167.43 2234.08,-164.24"/>
<polygon fill="black" stroke="black" points="2234.36,-167.73 2244.32,-164.11 2234.28,-160.73 2234.36,-167.73"/>
</g>
<!-- node31&#45;&gt;node27 -->
<g id="edge41" class="edge">
<title>node31&#45;&gt;node27</title>
<path fill="none" stroke="black" d="M1127.37,-220.92C1144.46,-219.06 1162.11,-217.32 1178.74,-216 1562.14,-185.47 2016.64,-171.3 2235.74,-165.86"/>
<polygon fill="black" stroke="black" points="2236.08,-169.35 2245.99,-165.6 2235.91,-162.35 2236.08,-169.35"/>
</g>
<!-- node32&#45;&gt;node27 -->
<g id="edge43" class="edge">
<title>node32&#45;&gt;node27</title>
<path fill="none" stroke="black" d="M1425.18,-221.04C1442.03,-219.19 1459.38,-217.43 1475.74,-216 1747.81,-192.3 2067.56,-176.11 2240.39,-168.33"/>
<polygon fill="black" stroke="black" points="2240.71,-171.82 2250.54,-167.87 2240.4,-164.82 2240.71,-171.82"/>
</g>
<!-- node33&#45;&gt;node27 -->
<g id="edge45" class="edge">
<title>node33&#45;&gt;node27</title>
<path fill="none" stroke="black" d="M1723.81,-221.27C1740.15,-219.43 1756.91,-217.61 1772.74,-216 1939.25,-199.01 2132.34,-182.34 2252.03,-172.37"/>
<polygon fill="black" stroke="black" points="2252.64,-175.83 2262.31,-171.51 2252.06,-168.85 2252.64,-175.83"/>
</g>
<!-- node34&#45;&gt;node27 -->
<g id="edge47" class="edge">
<title>node34&#45;&gt;node27</title>
<path fill="none" stroke="black" d="M2006.49,-219.67C2083.75,-207.51 2197.55,-189.61 2276.49,-177.2"/>
<polygon fill="black" stroke="black" points="2277.09,-180.65 2286.42,-175.63 2276,-173.73 2277.09,-180.65"/>
</g>
<!-- node35&#45;&gt;node27 -->
<g id="edge49" class="edge">
<title>node35&#45;&gt;node27</title>
<path fill="none" stroke="black" d="M2253.81,-216.41C2274.53,-206.61 2300.94,-194.12 2323.01,-183.68"/>
<polygon fill="black" stroke="black" points="2324.63,-186.79 2332.17,-179.35 2321.63,-180.46 2324.63,-186.79"/>
</g>
<!-- node36&#45;&gt;node27 -->
<g id="edge51" class="edge">
<title>node36&#45;&gt;node27</title>
<path fill="none" stroke="black" d="M2480.43,-216.41C2459.57,-206.61 2432.98,-194.12 2410.76,-183.68"/>
<polygon fill="black" stroke="black" points="2412.08,-180.43 2401.54,-179.35 2409.1,-186.77 2412.08,-180.43"/>
</g>
<!-- node37&#45;&gt;node27 -->
<g id="edge53" class="edge">
<title>node37&#45;&gt;node27</title>
<path fill="none" stroke="black" d="M2727.8,-219.67C2650.36,-207.51 2536.3,-189.61 2457.19,-177.2"/>
<polygon fill="black" stroke="black" points="2457.65,-173.73 2447.23,-175.63 2456.57,-180.64 2457.65,-173.73"/>
</g>
<!-- node38&#45;&gt;node27 -->
<g id="edge55" class="edge">
<title>node38&#45;&gt;node27</title>
<path fill="none" stroke="black" d="M3010.66,-221.27C2994.32,-219.43 2977.56,-217.61 2961.74,-216 2794.95,-198.99 2601.53,-182.33 2481.63,-172.36"/>
<polygon fill="black" stroke="black" points="2481.6,-168.84 2471.34,-171.5 2481.02,-175.82 2481.6,-168.84"/>
</g>
<!-- node39&#45;&gt;node27 -->
<g id="edge57" class="edge">
<title>node39&#45;&gt;node27</title>
<path fill="none" stroke="black" d="M3309.29,-221.04C3292.45,-219.19 3275.1,-217.42 3258.74,-216 2986.36,-192.28 2666.25,-176.1 2493.23,-168.32"/>
<polygon fill="black" stroke="black" points="2493.21,-164.82 2483.06,-167.87 2492.9,-171.81 2493.21,-164.82"/>
</g>
<!-- node40&#45;&gt;node27 -->
<g id="edge59" class="edge">
<title>node40&#45;&gt;node27</title>
<path fill="none" stroke="black" d="M3607.1,-220.92C3590.01,-219.06 3572.37,-217.32 3555.74,-216 3171.76,-185.43 2716.52,-171.28 2497.41,-165.84"/>
<polygon fill="black" stroke="black" points="2497.24,-162.34 2487.16,-165.59 2497.07,-169.33 2497.24,-162.34"/>
</g>
<!-- node41&#45;&gt;node27 -->
<g id="edge61" class="edge">
<title>node41&#45;&gt;node27</title>
<path fill="none" stroke="black" d="M3904.91,-220.88C3887.57,-219 3869.63,-217.27 3852.74,-216 3353.89,-178.51 2758.77,-167.41 2498.98,-164.23"/>
<polygon fill="black" stroke="black" points="2498.79,-160.72 2488.75,-164.1 2498.71,-167.72 2498.79,-160.72"/>
</g>
<!-- node42&#45;&gt;node27 -->
<g id="edge63" class="edge">
<title>node42&#45;&gt;node27</title>
<path fill="none" stroke="black" d="M4202.31,-220.84C4184.85,-218.95 4166.76,-217.23 4149.74,-216 3534.25,-171.58 2796.67,-164.2 2499.96,-163.11"/>
<polygon fill="black" stroke="black" points="2499.61,-159.61 2489.6,-163.07 2499.58,-166.61 2499.61,-159.61"/>
</g>
<!-- node43&#45;&gt;node27 -->
<g id="edge65" class="edge">
<title>node43&#45;&gt;node27</title>
<path fill="none" stroke="black" d="M4499.32,-220.78C4481.85,-218.9 4463.77,-217.19 4446.74,-216 3712.71,-164.59 2829.86,-161.44 2499.79,-162.3"/>
<polygon fill="black" stroke="black" points="2499.7,-158.8 2489.71,-162.32 2499.72,-165.8 2499.7,-158.8"/>
</g>
<!-- node45 -->
<g id="node40" class="node">
<title>node45</title>
<ellipse fill="none" stroke="black" cx="2366.74" cy="-18" rx="58.49" ry="18"/>
<text text-anchor="middle" x="2366.74" y="-14.3" font-family="Times,serif" font-size="14.00">FileWriter</text>
</g>
<!-- node44&#45;&gt;node45 -->
<g id="edge69" class="edge">
<title>node44&#45;&gt;node45</title>
<path fill="none" stroke="black" d="M2366.74,-71.7C2366.74,-63.98 2366.74,-54.71 2366.74,-46.11"/>
<polygon fill="black" stroke="black" points="2370.24,-46.1 2366.74,-36.1 2363.24,-46.1 2370.24,-46.1"/>
</g>
</g>
</svg>
