<?xml version="1.0" encoding="UTF-8" standalone="no"?>
<!DOCTYPE svg PUBLIC "-//W3C//DTD SVG 1.1//EN"
 "http://www.w3.org/Graphics/SVG/1.1/DTD/svg11.dtd">
<!-- Generated by graphviz version 2.43.0 (0)
 -->
<!-- Title: DCTverify_255 Pages: 1 -->
<svg width="484pt" height="404pt"
 viewBox="0.00 0.00 483.57 404.00" xmlns="http://www.w3.org/2000/svg" xmlns:xlink="http://www.w3.org/1999/xlink">
<g id="graph0" class="graph" transform="scale(1 1) rotate(0) translate(4 400)">
<title>DCTverify_255</title>
<polygon fill="white" stroke="transparent" points="-4,4 -4,-400 479.57,-400 479.57,4 -4,4"/>
<!-- node0 -->
<g id="node1" class="node">
<title>node0</title>
<ellipse fill="none" stroke="black" cx="278.64" cy="-378" rx="97.48" ry="18"/>
<text text-anchor="middle" x="278.64" y="-374.3" font-family="Times,serif" font-size="14.00">AnonFilter_a0_239</text>
</g>
<!-- node1 -->
<g id="node2" class="node">
<title>node1</title>
<ellipse fill="none" stroke="black" cx="278.64" cy="-306" rx="129.18" ry="18"/>
<text text-anchor="middle" x="278.64" y="-302.3" font-family="Times,serif" font-size="14.00">DUPLICATE_Splitter_248</text>
</g>
<!-- node0&#45;&gt;node1 -->
<g id="edge1" class="edge">
<title>node0&#45;&gt;node1</title>
<path fill="none" stroke="black" d="M278.64,-359.7C278.64,-351.98 278.64,-342.71 278.64,-334.11"/>
<polygon fill="black" stroke="black" points="282.14,-334.1 278.64,-324.1 275.14,-334.1 282.14,-334.1"/>
</g>
<!-- node2 -->
<g id="node3" class="node">
<title>node2</title>
<ellipse fill="none" stroke="black" cx="172.64" cy="-234" rx="153.27" ry="18"/>
<text text-anchor="middle" x="172.64" y="-230.3" font-family="Times,serif" font-size="14.00">DCT_2D_reference_coarse_243</text>
</g>
<!-- node1&#45;&gt;node2 -->
<g id="edge2" class="edge">
<title>node1&#45;&gt;node2</title>
<path fill="none" stroke="black" d="M253.25,-288.23C239.32,-279.04 221.87,-267.51 206.76,-257.54"/>
<polygon fill="black" stroke="black" points="208.46,-254.46 198.19,-251.87 204.6,-260.3 208.46,-254.46"/>
</g>
<!-- node4 -->
<g id="node5" class="node">
<title>node4</title>
<ellipse fill="none" stroke="black" cx="400.64" cy="-162" rx="69.59" ry="18"/>
<text text-anchor="middle" x="400.64" y="-158.3" font-family="Times,serif" font-size="14.00">Identity_246</text>
</g>
<!-- node1&#45;&gt;node4 -->
<g id="edge4" class="edge">
<title>node1&#45;&gt;node4</title>
<path fill="none" stroke="black" d="M298.11,-288.11C309.27,-278.07 323.27,-264.82 334.64,-252 352.62,-231.72 370.81,-206.79 383.52,-188.48"/>
<polygon fill="black" stroke="black" points="386.52,-190.3 389.3,-180.08 380.75,-186.34 386.52,-190.3"/>
</g>
<!-- node3 -->
<g id="node4" class="node">
<title>node3</title>
<ellipse fill="none" stroke="black" cx="156.64" cy="-162" rx="156.77" ry="18"/>
<text text-anchor="middle" x="156.64" y="-158.3" font-family="Times,serif" font-size="14.00">iDCT_2D_reference_coarse_245</text>
</g>
<!-- node2&#45;&gt;node3 -->
<g id="edge3" class="edge">
<title>node2&#45;&gt;node3</title>
<path fill="none" stroke="black" d="M168.68,-215.7C166.92,-207.98 164.8,-198.71 162.83,-190.11"/>
<polygon fill="black" stroke="black" points="166.19,-189.07 160.55,-180.1 159.36,-190.63 166.19,-189.07"/>
</g>
<!-- node5 -->
<g id="node6" class="node">
<title>node5</title>
<ellipse fill="none" stroke="black" cx="278.64" cy="-90" rx="196.87" ry="18"/>
<text text-anchor="middle" x="278.64" y="-86.3" font-family="Times,serif" font-size="14.00">WEIGHTED_ROUND_ROBIN_Joiner_249</text>
</g>
<!-- node3&#45;&gt;node5 -->
<g id="edge5" class="edge">
<title>node3&#45;&gt;node5</title>
<path fill="none" stroke="black" d="M185.86,-144.23C202.19,-134.86 222.73,-123.08 240.33,-112.98"/>
<polygon fill="black" stroke="black" points="242.3,-115.89 249.23,-107.87 238.81,-109.81 242.3,-115.89"/>
</g>
<!-- node4&#45;&gt;node5 -->
<g id="edge6" class="edge">
<title>node4&#45;&gt;node5</title>
<path fill="none" stroke="black" d="M373.26,-145.29C356.59,-135.73 335.06,-123.38 316.75,-112.87"/>
<polygon fill="black" stroke="black" points="318.47,-109.82 308.05,-107.88 314.99,-115.89 318.47,-109.82"/>
</g>
<!-- node6 -->
<g id="node7" class="node">
<title>node6</title>
<ellipse fill="none" stroke="black" cx="278.64" cy="-18" rx="97.48" ry="18"/>
<text text-anchor="middle" x="278.64" y="-14.3" font-family="Times,serif" font-size="14.00">AnonFilter_a3_247</text>
</g>
<!-- node5&#45;&gt;node6 -->
<g id="edge7" class="edge">
<title>node5&#45;&gt;node6</title>
<path fill="none" stroke="black" d="M278.64,-71.7C278.64,-63.98 278.64,-54.71 278.64,-46.11"/>
<polygon fill="black" stroke="black" points="282.14,-46.1 278.64,-36.1 275.14,-46.1 282.14,-46.1"/>
</g>
</g>
</svg>
