<?xml version="1.0" encoding="UTF-8" standalone="no"?>
<!DOCTYPE svg PUBLIC "-//W3C//DTD SVG 1.1//EN"
 "http://www.w3.org/Graphics/SVG/1.1/DTD/svg11.dtd">
<!-- Generated by graphviz version 2.43.0 (0)
 -->
<!-- Title: iDCTcompare_321 Pages: 1 -->
<svg width="846pt" height="692pt"
 viewBox="0.00 0.00 845.52 692.00" xmlns="http://www.w3.org/2000/svg" xmlns:xlink="http://www.w3.org/1999/xlink">
<g id="graph0" class="graph" transform="scale(1 1) rotate(0) translate(4 688)">
<title>iDCTcompare_321</title>
<polygon fill="white" stroke="transparent" points="-4,4 -4,-688 841.52,-688 841.52,4 -4,4"/>
<!-- node0 -->
<g id="node1" class="node">
<title>node0</title>
<ellipse fill="none" stroke="black" cx="454.64" cy="-666" rx="97.48" ry="18"/>
<text text-anchor="middle" x="454.64" y="-662.3" font-family="Times,serif" font-size="14.00">AnonFilter_a0_237</text>
</g>
<!-- node1 -->
<g id="node2" class="node">
<title>node1</title>
<ellipse fill="none" stroke="black" cx="454.64" cy="-594" rx="129.18" ry="18"/>
<text text-anchor="middle" x="454.64" y="-590.3" font-family="Times,serif" font-size="14.00">DUPLICATE_Splitter_312</text>
</g>
<!-- node0&#45;&gt;node1 -->
<g id="edge1" class="edge">
<title>node0&#45;&gt;node1</title>
<path fill="none" stroke="black" d="M454.64,-647.7C454.64,-639.98 454.64,-630.71 454.64,-622.11"/>
<polygon fill="black" stroke="black" points="458.14,-622.1 454.64,-612.1 451.14,-622.1 458.14,-622.1"/>
</g>
<!-- node2 -->
<g id="node3" class="node">
<title>node2</title>
<ellipse fill="none" stroke="black" cx="156.64" cy="-378" rx="156.77" ry="18"/>
<text text-anchor="middle" x="156.64" y="-374.3" font-family="Times,serif" font-size="14.00">iDCT_2D_reference_coarse_240</text>
</g>
<!-- node1&#45;&gt;node2 -->
<g id="edge2" class="edge">
<title>node1&#45;&gt;node2</title>
<path fill="none" stroke="black" d="M416.66,-576.65C395.91,-567.08 370.14,-554.11 348.64,-540 284.05,-497.62 216.69,-436.57 181.47,-403.14"/>
<polygon fill="black" stroke="black" points="183.7,-400.43 174.05,-396.05 178.86,-405.49 183.7,-400.43"/>
</g>
<!-- node3 -->
<g id="node4" class="node">
<title>node3</title>
<ellipse fill="none" stroke="black" cx="454.64" cy="-522" rx="97.48" ry="18"/>
<text text-anchor="middle" x="454.64" y="-518.3" font-family="Times,serif" font-size="14.00">AnonFilter_a3_243</text>
</g>
<!-- node1&#45;&gt;node3 -->
<g id="edge3" class="edge">
<title>node1&#45;&gt;node3</title>
<path fill="none" stroke="black" d="M454.64,-575.7C454.64,-567.98 454.64,-558.71 454.64,-550.11"/>
<polygon fill="black" stroke="black" points="458.14,-550.1 454.64,-540.1 451.14,-550.1 458.14,-550.1"/>
</g>
<!-- node9 -->
<g id="node10" class="node">
<title>node9</title>
<ellipse fill="none" stroke="black" cx="703.64" cy="-522" rx="133.78" ry="18"/>
<text text-anchor="middle" x="703.64" y="-518.3" font-family="Times,serif" font-size="14.00">iDCT8x8_1D_row_fast_263</text>
</g>
<!-- node1&#45;&gt;node9 -->
<g id="edge9" class="edge">
<title>node1&#45;&gt;node9</title>
<path fill="none" stroke="black" d="M509.28,-577.64C547.5,-566.89 598.71,-552.5 638.97,-541.18"/>
<polygon fill="black" stroke="black" points="640.01,-544.52 648.69,-538.45 638.12,-537.78 640.01,-544.52"/>
</g>
<!-- node11 -->
<g id="node12" class="node">
<title>node11</title>
<ellipse fill="none" stroke="black" cx="385.64" cy="-90" rx="196.87" ry="18"/>
<text text-anchor="middle" x="385.64" y="-86.3" font-family="Times,serif" font-size="14.00">WEIGHTED_ROUND_ROBIN_Joiner_313</text>
</g>
<!-- node2&#45;&gt;node11 -->
<g id="edge11" class="edge">
<title>node2&#45;&gt;node11</title>
<path fill="none" stroke="black" d="M161.18,-359.75C173.23,-317.18 209.98,-206.09 279.64,-144 294.34,-130.89 312.88,-120.17 330.33,-111.89"/>
<polygon fill="black" stroke="black" points="332.22,-114.87 339.87,-107.54 329.32,-108.5 332.22,-114.87"/>
</g>
<!-- node4 -->
<g id="node5" class="node">
<title>node4</title>
<ellipse fill="none" stroke="black" cx="461.64" cy="-450" rx="165.97" ry="18"/>
<text text-anchor="middle" x="461.64" y="-446.3" font-family="Times,serif" font-size="14.00">Pre_CollapsedDataParallel_1_310</text>
</g>
<!-- node3&#45;&gt;node4 -->
<g id="edge4" class="edge">
<title>node3&#45;&gt;node4</title>
<path fill="none" stroke="black" d="M456.37,-503.7C457.14,-495.98 458.06,-486.71 458.92,-478.11"/>
<polygon fill="black" stroke="black" points="462.41,-478.4 459.93,-468.1 455.45,-477.71 462.41,-478.4"/>
</g>
<!-- node5 -->
<g id="node6" class="node">
<title>node5</title>
<ellipse fill="none" stroke="black" cx="474.64" cy="-378" rx="143.77" ry="18"/>
<text text-anchor="middle" x="474.64" y="-374.3" font-family="Times,serif" font-size="14.00">iDCT_1D_reference_fine_244</text>
</g>
<!-- node4&#45;&gt;node5 -->
<g id="edge5" class="edge">
<title>node4&#45;&gt;node5</title>
<path fill="none" stroke="black" d="M464.85,-431.7C466.28,-423.98 468,-414.71 469.6,-406.11"/>
<polygon fill="black" stroke="black" points="473.07,-406.58 471.46,-396.1 466.19,-405.3 473.07,-406.58"/>
</g>
<!-- node6 -->
<g id="node7" class="node">
<title>node6</title>
<ellipse fill="none" stroke="black" cx="385.64" cy="-306" rx="169.77" ry="18"/>
<text text-anchor="middle" x="385.64" y="-302.3" font-family="Times,serif" font-size="14.00">Post_CollapsedDataParallel_2_311</text>
</g>
<!-- node5&#45;&gt;node6 -->
<g id="edge6" class="edge">
<title>node5&#45;&gt;node6</title>
<path fill="none" stroke="black" d="M453.09,-360.05C441.81,-351.18 427.81,-340.17 415.49,-330.48"/>
<polygon fill="black" stroke="black" points="417.31,-327.46 407.29,-324.03 412.99,-332.96 417.31,-327.46"/>
</g>
<!-- node7 -->
<g id="node8" class="node">
<title>node7</title>
<ellipse fill="none" stroke="black" cx="385.64" cy="-234" rx="143.77" ry="18"/>
<text text-anchor="middle" x="385.64" y="-230.3" font-family="Times,serif" font-size="14.00">iDCT_1D_reference_fine_252</text>
</g>
<!-- node6&#45;&gt;node7 -->
<g id="edge7" class="edge">
<title>node6&#45;&gt;node7</title>
<path fill="none" stroke="black" d="M385.64,-287.7C385.64,-279.98 385.64,-270.71 385.64,-262.11"/>
<polygon fill="black" stroke="black" points="389.14,-262.1 385.64,-252.1 382.14,-262.1 389.14,-262.1"/>
</g>
<!-- node8 -->
<g id="node9" class="node">
<title>node8</title>
<ellipse fill="none" stroke="black" cx="385.64" cy="-162" rx="97.48" ry="18"/>
<text text-anchor="middle" x="385.64" y="-158.3" font-family="Times,serif" font-size="14.00">AnonFilter_a4_260</text>
</g>
<!-- node7&#45;&gt;node8 -->
<g id="edge8" class="edge">
<title>node7&#45;&gt;node8</title>
<path fill="none" stroke="black" d="M385.64,-215.7C385.64,-207.98 385.64,-198.71 385.64,-190.11"/>
<polygon fill="black" stroke="black" points="389.14,-190.1 385.64,-180.1 382.14,-190.1 389.14,-190.1"/>
</g>
<!-- node8&#45;&gt;node11 -->
<g id="edge12" class="edge">
<title>node8&#45;&gt;node11</title>
<path fill="none" stroke="black" d="M385.64,-143.7C385.64,-135.98 385.64,-126.71 385.64,-118.11"/>
<polygon fill="black" stroke="black" points="389.14,-118.1 385.64,-108.1 382.14,-118.1 389.14,-118.1"/>
</g>
<!-- node10 -->
<g id="node11" class="node">
<title>node10</title>
<ellipse fill="none" stroke="black" cx="703.64" cy="-306" rx="129.98" ry="18"/>
<text text-anchor="middle" x="703.64" y="-302.3" font-family="Times,serif" font-size="14.00">iDCT8x8_1D_col_fast_264</text>
</g>
<!-- node9&#45;&gt;node10 -->
<g id="edge10" class="edge">
<title>node9&#45;&gt;node10</title>
<path fill="none" stroke="black" d="M703.64,-503.85C703.64,-466.83 703.64,-379.18 703.64,-334.39"/>
<polygon fill="black" stroke="black" points="707.14,-334.23 703.64,-324.23 700.14,-334.23 707.14,-334.23"/>
</g>
<!-- node10&#45;&gt;node11 -->
<g id="edge13" class="edge">
<title>node10&#45;&gt;node11</title>
<path fill="none" stroke="black" d="M684.07,-288.15C647.71,-257.3 566.59,-190.63 491.64,-144 472.96,-132.38 451.39,-121.22 432.6,-112.16"/>
<polygon fill="black" stroke="black" points="433.88,-108.89 423.34,-107.76 430.87,-115.21 433.88,-108.89"/>
</g>
<!-- node12 -->
<g id="node13" class="node">
<title>node12</title>
<ellipse fill="none" stroke="black" cx="385.64" cy="-18" rx="97.48" ry="18"/>
<text text-anchor="middle" x="385.64" y="-14.3" font-family="Times,serif" font-size="14.00">AnonFilter_a2_265</text>
</g>
<!-- node11&#45;&gt;node12 -->
<g id="edge14" class="edge">
<title>node11&#45;&gt;node12</title>
<path fill="none" stroke="black" d="M385.64,-71.7C385.64,-63.98 385.64,-54.71 385.64,-46.11"/>
<polygon fill="black" stroke="black" points="389.14,-46.1 385.64,-36.1 382.14,-46.1 389.14,-46.1"/>
</g>
</g>
</svg>
