<?xml version="1.0" encoding="UTF-8" standalone="no"?>
<!DOCTYPE svg PUBLIC "-//W3C//DTD SVG 1.1//EN"
 "http://www.w3.org/Graphics/SVG/1.1/DTD/svg11.dtd">
<!-- Generated by graphviz version 2.43.0 (0)
 -->
<!-- Title: iDCTcompare_321 Pages: 1 -->
<svg width="874pt" height="260pt"
 viewBox="0.00 0.00 874.07 260.00" xmlns="http://www.w3.org/2000/svg" xmlns:xlink="http://www.w3.org/1999/xlink">
<g id="graph0" class="graph" transform="scale(1 1) rotate(0) translate(4 256)">
<title>iDCTcompare_321</title>
<polygon fill="white" stroke="transparent" points="-4,4 -4,-256 870.07,-256 870.07,4 -4,4"/>
<!-- node0 -->
<g id="node1" class="node">
<title>node0</title>
<ellipse fill="none" stroke="black" cx="455.09" cy="-234" rx="106.68" ry="18"/>
<text text-anchor="middle" x="455.09" y="-230.3" font-family="Times,serif" font-size="14.00">&quot;AnonFilter_a0_237&quot;</text>
</g>
<!-- node1 -->
<g id="node2" class="node">
<title>node1</title>
<ellipse fill="none" stroke="black" cx="455.09" cy="-162" rx="137.58" ry="18"/>
<text text-anchor="middle" x="455.09" y="-158.3" font-family="Times,serif" font-size="14.00">&quot;DUPLICATE_Splitter_312&quot;</text>
</g>
<!-- node0&#45;&gt;node1 -->
<g id="edge1" class="edge">
<title>node0&#45;&gt;node1</title>
<path fill="none" stroke="black" d="M455.09,-215.7C455.09,-207.98 455.09,-198.71 455.09,-190.11"/>
<polygon fill="black" stroke="black" points="458.59,-190.1 455.09,-180.1 451.59,-190.1 458.59,-190.1"/>
</g>
<!-- node2 -->
<g id="node3" class="node">
<title>node2</title>
<ellipse fill="none" stroke="black" cx="165.09" cy="-90" rx="165.17" ry="18"/>
<text text-anchor="middle" x="165.09" y="-86.3" font-family="Times,serif" font-size="14.00">&quot;iDCT_2D_reference_coarse_240&quot;</text>
</g>
<!-- node1&#45;&gt;node2 -->
<g id="edge2" class="edge">
<title>node1&#45;&gt;node2</title>
<path fill="none" stroke="black" d="M392.52,-145.9C347.67,-135.07 287.07,-120.44 239.7,-109.01"/>
<polygon fill="black" stroke="black" points="240.34,-105.57 229.8,-106.62 238.7,-112.37 240.34,-105.57"/>
</g>
<!-- node3 -->
<g id="node4" class="node">
<title>node3</title>
<ellipse fill="none" stroke="black" cx="455.09" cy="-90" rx="106.68" ry="18"/>
<text text-anchor="middle" x="455.09" y="-86.3" font-family="Times,serif" font-size="14.00">&quot;AnonFilter_a3_243&quot;</text>
</g>
<!-- node1&#45;&gt;node3 -->
<g id="edge3" class="edge">
<title>node1&#45;&gt;node3</title>
<path fill="none" stroke="black" d="M455.09,-143.7C455.09,-135.98 455.09,-126.71 455.09,-118.11"/>
<polygon fill="black" stroke="black" points="458.59,-118.1 455.09,-108.1 451.59,-118.1 458.59,-118.1"/>
</g>
<!-- node9 -->
<g id="node5" class="node">
<title>node9</title>
<ellipse fill="none" stroke="black" cx="723.09" cy="-90" rx="142.97" ry="18"/>
<text text-anchor="middle" x="723.09" y="-86.3" font-family="Times,serif" font-size="14.00">&quot;iDCT8x8_1D_row_fast_263&quot;</text>
</g>
<!-- node1&#45;&gt;node9 -->
<g id="edge4" class="edge">
<title>node1&#45;&gt;node9</title>
<path fill="none" stroke="black" d="M513.9,-145.64C555.21,-134.85 610.62,-120.38 654.03,-109.04"/>
<polygon fill="black" stroke="black" points="655.16,-112.36 663.95,-106.45 653.39,-105.59 655.16,-112.36"/>
</g>
<!-- node11 -->
<g id="node6" class="node">
<title>node11</title>
<ellipse fill="none" stroke="black" cx="455.09" cy="-18" rx="206.06" ry="18"/>
<text text-anchor="middle" x="455.09" y="-14.3" font-family="Times,serif" font-size="14.00">&quot;WEIGHTED_ROUND_ROBIN_Joiner_313&quot;</text>
</g>
<!-- node2&#45;&gt;node11 -->
<g id="edge5" class="edge">
<title>node2&#45;&gt;node11</title>
<path fill="none" stroke="black" d="M229.81,-73.38C273.82,-62.75 332.24,-48.65 378.56,-37.47"/>
<polygon fill="black" stroke="black" points="379.65,-40.81 388.55,-35.06 378.01,-34 379.65,-40.81"/>
</g>
<!-- node3&#45;&gt;node11 -->
<g id="edge6" class="edge">
<title>node3&#45;&gt;node11</title>
<path fill="none" stroke="black" d="M455.09,-71.7C455.09,-63.98 455.09,-54.71 455.09,-46.11"/>
<polygon fill="black" stroke="black" points="458.59,-46.1 455.09,-36.1 451.59,-46.1 458.59,-46.1"/>
</g>
<!-- node9&#45;&gt;node11 -->
<g id="edge7" class="edge">
<title>node9&#45;&gt;node11</title>
<path fill="none" stroke="black" d="M663.94,-73.55C623.61,-63.02 569.97,-49.01 527.14,-37.82"/>
<polygon fill="black" stroke="black" points="527.9,-34.4 517.34,-35.26 526.13,-41.17 527.9,-34.4"/>
</g>
</g>
</svg>
