<?xml version="1.0" encoding="UTF-8" standalone="no"?>
<!DOCTYPE svg PUBLIC "-//W3C//DTD SVG 1.1//EN"
 "http://www.w3.org/Graphics/SVG/1.1/DTD/svg11.dtd">
<!-- Generated by graphviz version 2.43.0 (0)
 -->
<!-- Title: ComplexFIR_11 Pages: 1 -->
<svg width="128pt" height="188pt"
 viewBox="0.00 0.00 127.59 188.00" xmlns="http://www.w3.org/2000/svg" xmlns:xlink="http://www.w3.org/1999/xlink">
<g id="graph0" class="graph" transform="scale(1 1) rotate(0) translate(4 184)">
<title>ComplexFIR_11</title>
<polygon fill="white" stroke="transparent" points="-4,4 -4,-184 123.59,-184 123.59,4 -4,4"/>
<!-- node0 -->
<g id="node1" class="node">
<title>node0</title>
<ellipse fill="none" stroke="black" cx="59.79" cy="-162" rx="46.29" ry="18"/>
<text text-anchor="middle" x="59.79" y="-158.3" font-family="Times,serif" font-size="14.00">Input_8</text>
</g>
<!-- node1 -->
<g id="node2" class="node">
<title>node1</title>
<ellipse fill="none" stroke="black" cx="59.79" cy="-90" rx="37.89" ry="18"/>
<text text-anchor="middle" x="59.79" y="-86.3" font-family="Times,serif" font-size="14.00">FIR_9</text>
</g>
<!-- node0&#45;&gt;node1 -->
<g id="edge1" class="edge">
<title>node0&#45;&gt;node1</title>
<path fill="none" stroke="black" d="M59.79,-143.7C59.79,-135.98 59.79,-126.71 59.79,-118.11"/>
<polygon fill="black" stroke="black" points="63.29,-118.1 59.79,-108.1 56.29,-118.1 63.29,-118.1"/>
</g>
<!-- node2 -->
<g id="node3" class="node">
<title>node2</title>
<ellipse fill="none" stroke="black" cx="59.79" cy="-18" rx="59.59" ry="18"/>
<text text-anchor="middle" x="59.79" y="-14.3" font-family="Times,serif" font-size="14.00">Printer_10</text>
</g>
<!-- node1&#45;&gt;node2 -->
<g id="edge2" class="edge">
<title>node1&#45;&gt;node2</title>
<path fill="none" stroke="black" d="M59.79,-71.7C59.79,-63.98 59.79,-54.71 59.79,-46.11"/>
<polygon fill="black" stroke="black" points="63.29,-46.1 59.79,-36.1 56.29,-46.1 63.29,-46.1"/>
</g>
</g>
</svg>
