<?xml version="1.0" encoding="UTF-8" standalone="no"?>
<!DOCTYPE svg PUBLIC "-//W3C//DTD SVG 1.1//EN"
 "http://www.w3.org/Graphics/SVG/1.1/DTD/svg11.dtd">
<!-- Generated by graphviz version 2.43.0 (0)
 -->
<!-- Title: CFAR_SDF Pages: 1 -->
<svg width="237pt" height="260pt"
 viewBox="0.00 0.00 236.78 260.00" xmlns="http://www.w3.org/2000/svg" xmlns:xlink="http://www.w3.org/1999/xlink">
<g id="graph0" class="graph" transform="scale(1 1) rotate(0) translate(4 256)">
<title>CFAR_SDF</title>
<polygon fill="white" stroke="transparent" points="-4,4 -4,-256 232.78,-256 232.78,4 -4,4"/>
<!-- node2 -->
<g id="node1" class="node">
<title>node2</title>
<ellipse fill="none" stroke="black" cx="114.39" cy="-234" rx="106.68" ry="18"/>
<text text-anchor="middle" x="114.39" y="-230.3" font-family="Times,serif" font-size="14.00">cfar_complex_source</text>
</g>
<!-- node3 -->
<g id="node2" class="node">
<title>node3</title>
<ellipse fill="none" stroke="black" cx="114.39" cy="-162" rx="114.28" ry="18"/>
<text text-anchor="middle" x="114.39" y="-158.3" font-family="Times,serif" font-size="14.00">cfar_square_and_scale</text>
</g>
<!-- node2&#45;&gt;node3 -->
<g id="edge1" class="edge">
<title>node2&#45;&gt;node3</title>
<path fill="none" stroke="black" d="M114.39,-215.7C114.39,-207.98 114.39,-198.71 114.39,-190.11"/>
<polygon fill="black" stroke="black" points="117.89,-190.1 114.39,-180.1 110.89,-190.1 117.89,-190.1"/>
</g>
<!-- node4 -->
<g id="node3" class="node">
<title>node4</title>
<ellipse fill="none" stroke="black" cx="114.39" cy="-90" rx="63.89" ry="18"/>
<text text-anchor="middle" x="114.39" y="-86.3" font-family="Times,serif" font-size="14.00">cfar_gather</text>
</g>
<!-- node3&#45;&gt;node4 -->
<g id="edge2" class="edge">
<title>node3&#45;&gt;node4</title>
<path fill="none" stroke="black" d="M114.39,-143.7C114.39,-135.98 114.39,-126.71 114.39,-118.11"/>
<polygon fill="black" stroke="black" points="117.89,-118.1 114.39,-108.1 110.89,-118.1 117.89,-118.1"/>
</g>
<!-- node5 -->
<g id="node4" class="node">
<title>node5</title>
<ellipse fill="none" stroke="black" cx="114.39" cy="-18" rx="65.79" ry="18"/>
<text text-anchor="middle" x="114.39" y="-14.3" font-family="Times,serif" font-size="14.00">cfar_printer</text>
</g>
<!-- node4&#45;&gt;node5 -->
<g id="edge3" class="edge">
<title>node4&#45;&gt;node5</title>
<path fill="none" stroke="black" d="M114.39,-71.7C114.39,-63.98 114.39,-54.71 114.39,-46.11"/>
<polygon fill="black" stroke="black" points="117.89,-46.1 114.39,-36.1 110.89,-46.1 117.89,-46.1"/>
</g>
</g>
</svg>
