<?xml version="1.0" encoding="UTF-8" standalone="no"?>
<!DOCTYPE svg PUBLIC "-//W3C//DTD SVG 1.1//EN"
 "http://www.w3.org/Graphics/SVG/1.1/DTD/svg11.dtd">
<!-- Generated by graphviz version 2.43.0 (0)
 -->
<!-- Title: CFARtest_19 Pages: 1 -->
<svg width="213pt" height="260pt"
 viewBox="0.00 0.00 213.38 260.00" xmlns="http://www.w3.org/2000/svg" xmlns:xlink="http://www.w3.org/1999/xlink">
<g id="graph0" class="graph" transform="scale(1 1) rotate(0) translate(4 256)">
<title>CFARtest_19</title>
<polygon fill="white" stroke="transparent" points="-4,4 -4,-256 209.38,-256 209.38,4 -4,4"/>
<!-- node0 -->
<g id="node1" class="node">
<title>node0</title>
<ellipse fill="none" stroke="black" cx="102.69" cy="-234" rx="99.38" ry="18"/>
<text text-anchor="middle" x="102.69" y="-230.3" font-family="Times,serif" font-size="14.00">ComplexSource_14</text>
</g>
<!-- node1 -->
<g id="node2" class="node">
<title>node1</title>
<ellipse fill="none" stroke="black" cx="102.69" cy="-162" rx="102.88" ry="18"/>
<text text-anchor="middle" x="102.69" y="-158.3" font-family="Times,serif" font-size="14.00">SquareAndScale_16</text>
</g>
<!-- node0&#45;&gt;node1 -->
<g id="edge1" class="edge">
<title>node0&#45;&gt;node1</title>
<path fill="none" stroke="black" d="M102.69,-215.7C102.69,-207.98 102.69,-198.71 102.69,-190.11"/>
<polygon fill="black" stroke="black" points="106.19,-190.1 102.69,-180.1 99.19,-190.1 106.19,-190.1"/>
</g>
<!-- node2 -->
<g id="node3" class="node">
<title>node2</title>
<ellipse fill="none" stroke="black" cx="102.69" cy="-90" rx="87.99" ry="18"/>
<text text-anchor="middle" x="102.69" y="-86.3" font-family="Times,serif" font-size="14.00">CFAR_gather_17</text>
</g>
<!-- node1&#45;&gt;node2 -->
<g id="edge2" class="edge">
<title>node1&#45;&gt;node2</title>
<path fill="none" stroke="black" d="M102.69,-143.7C102.69,-135.98 102.69,-126.71 102.69,-118.11"/>
<polygon fill="black" stroke="black" points="106.19,-118.1 102.69,-108.1 99.19,-118.1 106.19,-118.1"/>
</g>
<!-- node3 -->
<g id="node4" class="node">
<title>node3</title>
<ellipse fill="none" stroke="black" cx="102.69" cy="-18" rx="91.78" ry="18"/>
<text text-anchor="middle" x="102.69" y="-14.3" font-family="Times,serif" font-size="14.00">AnonFilter_a0_18</text>
</g>
<!-- node2&#45;&gt;node3 -->
<g id="edge3" class="edge">
<title>node2&#45;&gt;node3</title>
<path fill="none" stroke="black" d="M102.69,-71.7C102.69,-63.98 102.69,-54.71 102.69,-46.11"/>
<polygon fill="black" stroke="black" points="106.19,-46.1 102.69,-36.1 99.19,-46.1 106.19,-46.1"/>
</g>
</g>
</svg>
