<?xml version="1.0" encoding="UTF-8" standalone="no"?>
<!DOCTYPE svg PUBLIC "-//W3C//DTD SVG 1.1//EN"
 "http://www.w3.org/Graphics/SVG/1.1/DTD/svg11.dtd">
<!-- Generated by graphviz version 2.43.0 (0)
 -->
<!-- Title: streamit Pages: 1 -->
<svg width="434pt" height="1052pt"
 viewBox="0.00 0.00 434.08 1052.00" xmlns="http://www.w3.org/2000/svg" xmlns:xlink="http://www.w3.org/1999/xlink">
<g id="graph0" class="graph" transform="scale(1 1) rotate(0) translate(4 1048)">
<title>streamit</title>
<polygon fill="white" stroke="transparent" points="-4,4 -4,-1048 430.08,-1048 430.08,4 -4,4"/>
<!-- fft2_test_source_pop_0_push_128_1 -->
<g id="node1" class="node">
<title>fft2_test_source_pop_0_push_128_1</title>
<ellipse fill="none" stroke="black" cx="213.04" cy="-1026" rx="85.29" ry="18"/>
<text text-anchor="middle" x="213.04" y="-1022.3" font-family="Times,serif" font-size="14.00">fft2_test_source</text>
</g>
<!-- FFTKernel2_2_split -->
<g id="node2" class="node">
<title>FFTKernel2_2_split</title>
<ellipse fill="none" stroke="black" cx="213.04" cy="-954" rx="118.08" ry="18"/>
<text text-anchor="middle" x="213.04" y="-950.3" font-family="Times,serif" font-size="14.00">fft2_split1_round_robin</text>
</g>
<!-- fft2_test_source_pop_0_push_128_1&#45;&gt;FFTKernel2_2_split -->
<g id="edge1" class="edge">
<title>fft2_test_source_pop_0_push_128_1&#45;&gt;FFTKernel2_2_split</title>
<path fill="none" stroke="black" d="M213.04,-1007.7C213.04,-999.98 213.04,-990.71 213.04,-982.11"/>
<polygon fill="black" stroke="black" points="216.54,-982.1 213.04,-972.1 209.54,-982.1 216.54,-982.1"/>
</g>
<!-- fft2_reorder_simple_pop_128_push_128_13 -->
<g id="node12" class="node">
<title>fft2_reorder_simple_pop_128_push_128_13</title>
<ellipse fill="none" stroke="black" cx="102.04" cy="-882" rx="102.08" ry="18"/>
<text text-anchor="middle" x="102.04" y="-878.3" font-family="Times,serif" font-size="14.00">fft2_reorder_simple</text>
</g>
<!-- FFTKernel2_2_split&#45;&gt;fft2_reorder_simple_pop_128_push_128_13 -->
<g id="edge13" class="edge">
<title>FFTKernel2_2_split&#45;&gt;fft2_reorder_simple_pop_128_push_128_13</title>
<path fill="none" stroke="black" d="M186.74,-936.41C171.81,-927 152.94,-915.1 136.8,-904.92"/>
<polygon fill="black" stroke="black" points="138.48,-901.84 128.16,-899.47 134.75,-907.76 138.48,-901.84"/>
</g>
<!-- fft2_reorder_simple_pop_128_push_128_35 -->
<g id="node23" class="node">
<title>fft2_reorder_simple_pop_128_push_128_35</title>
<ellipse fill="none" stroke="black" cx="324.04" cy="-882" rx="102.08" ry="18"/>
<text text-anchor="middle" x="324.04" y="-878.3" font-family="Times,serif" font-size="14.00">fft2_reorder_simple</text>
</g>
<!-- FFTKernel2_2_split&#45;&gt;fft2_reorder_simple_pop_128_push_128_35 -->
<g id="edge25" class="edge">
<title>FFTKernel2_2_split&#45;&gt;fft2_reorder_simple_pop_128_push_128_35</title>
<path fill="none" stroke="black" d="M239.35,-936.41C254.28,-927 273.15,-915.1 289.28,-904.92"/>
<polygon fill="black" stroke="black" points="291.33,-907.76 297.92,-899.47 287.6,-901.84 291.33,-907.76"/>
</g>
<!-- FFTKernel2_2_join -->
<g id="node3" class="node">
<title>FFTKernel2_2_join</title>
<ellipse fill="none" stroke="black" cx="212.04" cy="-90" rx="115.08" ry="18"/>
<text text-anchor="middle" x="212.04" y="-86.3" font-family="Times,serif" font-size="14.00">fft2_join1_round_robin</text>
</g>
<!-- FloatPrinter_pop_1_push_0_3 -->
<g id="node4" class="node">
<title>FloatPrinter_pop_1_push_0_3</title>
<ellipse fill="none" stroke="black" cx="212.04" cy="-18" rx="89.88" ry="18"/>
<text text-anchor="middle" x="212.04" y="-14.3" font-family="Times,serif" font-size="14.00">fft2_float_printer</text>
</g>
<!-- FFTKernel2_2_join&#45;&gt;FloatPrinter_pop_1_push_0_3 -->
<g id="edge2" class="edge">
<title>FFTKernel2_2_join&#45;&gt;FloatPrinter_pop_1_push_0_3</title>
<path fill="none" stroke="black" d="M212.04,-71.7C212.04,-63.98 212.04,-54.71 212.04,-46.11"/>
<polygon fill="black" stroke="black" points="215.54,-46.1 212.04,-36.1 208.54,-46.1 215.54,-46.1"/>
</g>
<!-- fft2_reorder_simple_pop_8_push_8_17 -->
<g id="node5" class="node">
<title>fft2_reorder_simple_pop_8_push_8_17</title>
<ellipse fill="none" stroke="black" cx="102.04" cy="-594" rx="102.08" ry="18"/>
<text text-anchor="middle" x="102.04" y="-590.3" font-family="Times,serif" font-size="14.00">fft2_reorder_simple</text>
</g>
<!-- fft2_combine_dft_pop_4_push_4_7 -->
<g id="node6" class="node">
<title>fft2_combine_dft_pop_4_push_4_7</title>
<ellipse fill="none" stroke="black" cx="115.04" cy="-522" rx="88.28" ry="18"/>
<text text-anchor="middle" x="115.04" y="-518.3" font-family="Times,serif" font-size="14.00">fft2_combine_dft</text>
</g>
<!-- fft2_reorder_simple_pop_8_push_8_17&#45;&gt;fft2_combine_dft_pop_4_push_4_7 -->
<g id="edge3" class="edge">
<title>fft2_reorder_simple_pop_8_push_8_17&#45;&gt;fft2_combine_dft_pop_4_push_4_7</title>
<path fill="none" stroke="black" d="M105.25,-575.7C106.69,-567.98 108.41,-558.71 110.01,-550.11"/>
<polygon fill="black" stroke="black" points="113.48,-550.58 111.86,-540.1 106.6,-549.3 113.48,-550.58"/>
</g>
<!-- fft2_combine_dft_pop_8_push_8_8 -->
<g id="node7" class="node">
<title>fft2_combine_dft_pop_8_push_8_8</title>
<ellipse fill="none" stroke="black" cx="115.04" cy="-450" rx="88.28" ry="18"/>
<text text-anchor="middle" x="115.04" y="-446.3" font-family="Times,serif" font-size="14.00">fft2_combine_dft</text>
</g>
<!-- fft2_combine_dft_pop_4_push_4_7&#45;&gt;fft2_combine_dft_pop_8_push_8_8 -->
<g id="edge4" class="edge">
<title>fft2_combine_dft_pop_4_push_4_7&#45;&gt;fft2_combine_dft_pop_8_push_8_8</title>
<path fill="none" stroke="black" d="M115.04,-503.7C115.04,-495.98 115.04,-486.71 115.04,-478.11"/>
<polygon fill="black" stroke="black" points="118.54,-478.1 115.04,-468.1 111.54,-478.1 118.54,-478.1"/>
</g>
<!-- fft2_combine_dft_pop_16_push_16_9 -->
<g id="node8" class="node">
<title>fft2_combine_dft_pop_16_push_16_9</title>
<ellipse fill="none" stroke="black" cx="115.04" cy="-378" rx="88.28" ry="18"/>
<text text-anchor="middle" x="115.04" y="-374.3" font-family="Times,serif" font-size="14.00">fft2_combine_dft</text>
</g>
<!-- fft2_combine_dft_pop_8_push_8_8&#45;&gt;fft2_combine_dft_pop_16_push_16_9 -->
<g id="edge5" class="edge">
<title>fft2_combine_dft_pop_8_push_8_8&#45;&gt;fft2_combine_dft_pop_16_push_16_9</title>
<path fill="none" stroke="black" d="M115.04,-431.7C115.04,-423.98 115.04,-414.71 115.04,-406.11"/>
<polygon fill="black" stroke="black" points="118.54,-406.1 115.04,-396.1 111.54,-406.1 118.54,-406.1"/>
</g>
<!-- fft2_combine_dft_pop_32_push_32_10 -->
<g id="node9" class="node">
<title>fft2_combine_dft_pop_32_push_32_10</title>
<ellipse fill="none" stroke="black" cx="115.04" cy="-306" rx="88.28" ry="18"/>
<text text-anchor="middle" x="115.04" y="-302.3" font-family="Times,serif" font-size="14.00">fft2_combine_dft</text>
</g>
<!-- fft2_combine_dft_pop_16_push_16_9&#45;&gt;fft2_combine_dft_pop_32_push_32_10 -->
<g id="edge6" class="edge">
<title>fft2_combine_dft_pop_16_push_16_9&#45;&gt;fft2_combine_dft_pop_32_push_32_10</title>
<path fill="none" stroke="black" d="M115.04,-359.7C115.04,-351.98 115.04,-342.71 115.04,-334.11"/>
<polygon fill="black" stroke="black" points="118.54,-334.1 115.04,-324.1 111.54,-334.1 118.54,-334.1"/>
</g>
<!-- fft2_combine_dft_pop_64_push_64_11 -->
<g id="node10" class="node">
<title>fft2_combine_dft_pop_64_push_64_11</title>
<ellipse fill="none" stroke="black" cx="115.04" cy="-234" rx="88.28" ry="18"/>
<text text-anchor="middle" x="115.04" y="-230.3" font-family="Times,serif" font-size="14.00">fft2_combine_dft</text>
</g>
<!-- fft2_combine_dft_pop_32_push_32_10&#45;&gt;fft2_combine_dft_pop_64_push_64_11 -->
<g id="edge7" class="edge">
<title>fft2_combine_dft_pop_32_push_32_10&#45;&gt;fft2_combine_dft_pop_64_push_64_11</title>
<path fill="none" stroke="black" d="M115.04,-287.7C115.04,-279.98 115.04,-270.71 115.04,-262.11"/>
<polygon fill="black" stroke="black" points="118.54,-262.1 115.04,-252.1 111.54,-262.1 118.54,-262.1"/>
</g>
<!-- fft2_combine_dft_pop_128_push_128_12 -->
<g id="node11" class="node">
<title>fft2_combine_dft_pop_128_push_128_12</title>
<ellipse fill="none" stroke="black" cx="115.04" cy="-162" rx="88.28" ry="18"/>
<text text-anchor="middle" x="115.04" y="-158.3" font-family="Times,serif" font-size="14.00">fft2_combine_dft</text>
</g>
<!-- fft2_combine_dft_pop_64_push_64_11&#45;&gt;fft2_combine_dft_pop_128_push_128_12 -->
<g id="edge8" class="edge">
<title>fft2_combine_dft_pop_64_push_64_11&#45;&gt;fft2_combine_dft_pop_128_push_128_12</title>
<path fill="none" stroke="black" d="M115.04,-215.7C115.04,-207.98 115.04,-198.71 115.04,-190.11"/>
<polygon fill="black" stroke="black" points="118.54,-190.1 115.04,-180.1 111.54,-190.1 118.54,-190.1"/>
</g>
<!-- fft2_combine_dft_pop_128_push_128_12&#45;&gt;FFTKernel2_2_join -->
<g id="edge14" class="edge">
<title>fft2_combine_dft_pop_128_push_128_12&#45;&gt;FFTKernel2_2_join</title>
<path fill="none" stroke="black" d="M138.03,-144.41C150.74,-135.24 166.72,-123.7 180.58,-113.71"/>
<polygon fill="black" stroke="black" points="182.82,-116.4 188.88,-107.71 178.72,-110.73 182.82,-116.4"/>
</g>
<!-- fft2_reorder_simple_pop_64_push_64_14 -->
<g id="node13" class="node">
<title>fft2_reorder_simple_pop_64_push_64_14</title>
<ellipse fill="none" stroke="black" cx="102.04" cy="-810" rx="102.08" ry="18"/>
<text text-anchor="middle" x="102.04" y="-806.3" font-family="Times,serif" font-size="14.00">fft2_reorder_simple</text>
</g>
<!-- fft2_reorder_simple_pop_128_push_128_13&#45;&gt;fft2_reorder_simple_pop_64_push_64_14 -->
<g id="edge9" class="edge">
<title>fft2_reorder_simple_pop_128_push_128_13&#45;&gt;fft2_reorder_simple_pop_64_push_64_14</title>
<path fill="none" stroke="black" d="M102.04,-863.7C102.04,-855.98 102.04,-846.71 102.04,-838.11"/>
<polygon fill="black" stroke="black" points="105.54,-838.1 102.04,-828.1 98.54,-838.1 105.54,-838.1"/>
</g>
<!-- fft2_reorder_simple_pop_32_push_32_15 -->
<g id="node14" class="node">
<title>fft2_reorder_simple_pop_32_push_32_15</title>
<ellipse fill="none" stroke="black" cx="102.04" cy="-738" rx="102.08" ry="18"/>
<text text-anchor="middle" x="102.04" y="-734.3" font-family="Times,serif" font-size="14.00">fft2_reorder_simple</text>
</g>
<!-- fft2_reorder_simple_pop_64_push_64_14&#45;&gt;fft2_reorder_simple_pop_32_push_32_15 -->
<g id="edge10" class="edge">
<title>fft2_reorder_simple_pop_64_push_64_14&#45;&gt;fft2_reorder_simple_pop_32_push_32_15</title>
<path fill="none" stroke="black" d="M102.04,-791.7C102.04,-783.98 102.04,-774.71 102.04,-766.11"/>
<polygon fill="black" stroke="black" points="105.54,-766.1 102.04,-756.1 98.54,-766.1 105.54,-766.1"/>
</g>
<!-- fft2_reorder_simple_pop_16_push_16_16 -->
<g id="node15" class="node">
<title>fft2_reorder_simple_pop_16_push_16_16</title>
<ellipse fill="none" stroke="black" cx="102.04" cy="-666" rx="102.08" ry="18"/>
<text text-anchor="middle" x="102.04" y="-662.3" font-family="Times,serif" font-size="14.00">fft2_reorder_simple</text>
</g>
<!-- fft2_reorder_simple_pop_32_push_32_15&#45;&gt;fft2_reorder_simple_pop_16_push_16_16 -->
<g id="edge11" class="edge">
<title>fft2_reorder_simple_pop_32_push_32_15&#45;&gt;fft2_reorder_simple_pop_16_push_16_16</title>
<path fill="none" stroke="black" d="M102.04,-719.7C102.04,-711.98 102.04,-702.71 102.04,-694.11"/>
<polygon fill="black" stroke="black" points="105.54,-694.1 102.04,-684.1 98.54,-694.1 105.54,-694.1"/>
</g>
<!-- fft2_reorder_simple_pop_16_push_16_16&#45;&gt;fft2_reorder_simple_pop_8_push_8_17 -->
<g id="edge12" class="edge">
<title>fft2_reorder_simple_pop_16_push_16_16&#45;&gt;fft2_reorder_simple_pop_8_push_8_17</title>
<path fill="none" stroke="black" d="M102.04,-647.7C102.04,-639.98 102.04,-630.71 102.04,-622.11"/>
<polygon fill="black" stroke="black" points="105.54,-622.1 102.04,-612.1 98.54,-622.1 105.54,-622.1"/>
</g>
<!-- fft2_reorder_simple_pop_8_push_8_39 -->
<g id="node16" class="node">
<title>fft2_reorder_simple_pop_8_push_8_39</title>
<ellipse fill="none" stroke="black" cx="324.04" cy="-594" rx="102.08" ry="18"/>
<text text-anchor="middle" x="324.04" y="-590.3" font-family="Times,serif" font-size="14.00">fft2_reorder_simple</text>
</g>
<!-- fft2_combine_dft_pop_4_push_4_29 -->
<g id="node17" class="node">
<title>fft2_combine_dft_pop_4_push_4_29</title>
<ellipse fill="none" stroke="black" cx="317.04" cy="-522" rx="88.28" ry="18"/>
<text text-anchor="middle" x="317.04" y="-518.3" font-family="Times,serif" font-size="14.00">fft2_combine_dft</text>
</g>
<!-- fft2_reorder_simple_pop_8_push_8_39&#45;&gt;fft2_combine_dft_pop_4_push_4_29 -->
<g id="edge15" class="edge">
<title>fft2_reorder_simple_pop_8_push_8_39&#45;&gt;fft2_combine_dft_pop_4_push_4_29</title>
<path fill="none" stroke="black" d="M322.31,-575.7C321.54,-567.98 320.61,-558.71 319.75,-550.11"/>
<polygon fill="black" stroke="black" points="323.23,-549.71 318.75,-540.1 316.26,-550.4 323.23,-549.71"/>
</g>
<!-- fft2_combine_dft_pop_8_push_8_30 -->
<g id="node18" class="node">
<title>fft2_combine_dft_pop_8_push_8_30</title>
<ellipse fill="none" stroke="black" cx="313.04" cy="-450" rx="88.28" ry="18"/>
<text text-anchor="middle" x="313.04" y="-446.3" font-family="Times,serif" font-size="14.00">fft2_combine_dft</text>
</g>
<!-- fft2_combine_dft_pop_4_push_4_29&#45;&gt;fft2_combine_dft_pop_8_push_8_30 -->
<g id="edge16" class="edge">
<title>fft2_combine_dft_pop_4_push_4_29&#45;&gt;fft2_combine_dft_pop_8_push_8_30</title>
<path fill="none" stroke="black" d="M316.05,-503.7C315.61,-495.98 315.08,-486.71 314.59,-478.11"/>
<polygon fill="black" stroke="black" points="318.08,-477.89 314.02,-468.1 311.09,-478.29 318.08,-477.89"/>
</g>
<!-- fft2_combine_dft_pop_16_push_16_31 -->
<g id="node19" class="node">
<title>fft2_combine_dft_pop_16_push_16_31</title>
<ellipse fill="none" stroke="black" cx="311.04" cy="-378" rx="88.28" ry="18"/>
<text text-anchor="middle" x="311.04" y="-374.3" font-family="Times,serif" font-size="14.00">fft2_combine_dft</text>
</g>
<!-- fft2_combine_dft_pop_8_push_8_30&#45;&gt;fft2_combine_dft_pop_16_push_16_31 -->
<g id="edge17" class="edge">
<title>fft2_combine_dft_pop_8_push_8_30&#45;&gt;fft2_combine_dft_pop_16_push_16_31</title>
<path fill="none" stroke="black" d="M312.55,-431.7C312.33,-423.98 312.06,-414.71 311.82,-406.11"/>
<polygon fill="black" stroke="black" points="315.31,-406 311.53,-396.1 308.32,-406.2 315.31,-406"/>
</g>
<!-- fft2_combine_dft_pop_32_push_32_32 -->
<g id="node20" class="node">
<title>fft2_combine_dft_pop_32_push_32_32</title>
<ellipse fill="none" stroke="black" cx="310.04" cy="-306" rx="88.28" ry="18"/>
<text text-anchor="middle" x="310.04" y="-302.3" font-family="Times,serif" font-size="14.00">fft2_combine_dft</text>
</g>
<!-- fft2_combine_dft_pop_16_push_16_31&#45;&gt;fft2_combine_dft_pop_32_push_32_32 -->
<g id="edge18" class="edge">
<title>fft2_combine_dft_pop_16_push_16_31&#45;&gt;fft2_combine_dft_pop_32_push_32_32</title>
<path fill="none" stroke="black" d="M310.79,-359.7C310.68,-351.98 310.55,-342.71 310.43,-334.11"/>
<polygon fill="black" stroke="black" points="313.93,-334.05 310.29,-324.1 306.93,-334.15 313.93,-334.05"/>
</g>
<!-- fft2_combine_dft_pop_64_push_64_33 -->
<g id="node21" class="node">
<title>fft2_combine_dft_pop_64_push_64_33</title>
<ellipse fill="none" stroke="black" cx="310.04" cy="-234" rx="88.28" ry="18"/>
<text text-anchor="middle" x="310.04" y="-230.3" font-family="Times,serif" font-size="14.00">fft2_combine_dft</text>
</g>
<!-- fft2_combine_dft_pop_32_push_32_32&#45;&gt;fft2_combine_dft_pop_64_push_64_33 -->
<g id="edge19" class="edge">
<title>fft2_combine_dft_pop_32_push_32_32&#45;&gt;fft2_combine_dft_pop_64_push_64_33</title>
<path fill="none" stroke="black" d="M310.04,-287.7C310.04,-279.98 310.04,-270.71 310.04,-262.11"/>
<polygon fill="black" stroke="black" points="313.54,-262.1 310.04,-252.1 306.54,-262.1 313.54,-262.1"/>
</g>
<!-- fft2_combine_dft_pop_128_push_128_34 -->
<g id="node22" class="node">
<title>fft2_combine_dft_pop_128_push_128_34</title>
<ellipse fill="none" stroke="black" cx="310.04" cy="-162" rx="88.28" ry="18"/>
<text text-anchor="middle" x="310.04" y="-158.3" font-family="Times,serif" font-size="14.00">fft2_combine_dft</text>
</g>
<!-- fft2_combine_dft_pop_64_push_64_33&#45;&gt;fft2_combine_dft_pop_128_push_128_34 -->
<g id="edge20" class="edge">
<title>fft2_combine_dft_pop_64_push_64_33&#45;&gt;fft2_combine_dft_pop_128_push_128_34</title>
<path fill="none" stroke="black" d="M310.04,-215.7C310.04,-207.98 310.04,-198.71 310.04,-190.11"/>
<polygon fill="black" stroke="black" points="313.54,-190.1 310.04,-180.1 306.54,-190.1 313.54,-190.1"/>
</g>
<!-- fft2_combine_dft_pop_128_push_128_34&#45;&gt;FFTKernel2_2_join -->
<g id="edge26" class="edge">
<title>fft2_combine_dft_pop_128_push_128_34&#45;&gt;FFTKernel2_2_join</title>
<path fill="none" stroke="black" d="M286.82,-144.41C273.97,-135.24 257.83,-123.7 243.83,-113.71"/>
<polygon fill="black" stroke="black" points="245.61,-110.68 235.44,-107.71 241.54,-116.37 245.61,-110.68"/>
</g>
<!-- fft2_reorder_simple_pop_64_push_64_36 -->
<g id="node24" class="node">
<title>fft2_reorder_simple_pop_64_push_64_36</title>
<ellipse fill="none" stroke="black" cx="324.04" cy="-810" rx="102.08" ry="18"/>
<text text-anchor="middle" x="324.04" y="-806.3" font-family="Times,serif" font-size="14.00">fft2_reorder_simple</text>
</g>
<!-- fft2_reorder_simple_pop_128_push_128_35&#45;&gt;fft2_reorder_simple_pop_64_push_64_36 -->
<g id="edge21" class="edge">
<title>fft2_reorder_simple_pop_128_push_128_35&#45;&gt;fft2_reorder_simple_pop_64_push_64_36</title>
<path fill="none" stroke="black" d="M324.04,-863.7C324.04,-855.98 324.04,-846.71 324.04,-838.11"/>
<polygon fill="black" stroke="black" points="327.54,-838.1 324.04,-828.1 320.54,-838.1 327.54,-838.1"/>
</g>
<!-- fft2_reorder_simple_pop_32_push_32_37 -->
<g id="node25" class="node">
<title>fft2_reorder_simple_pop_32_push_32_37</title>
<ellipse fill="none" stroke="black" cx="324.04" cy="-738" rx="102.08" ry="18"/>
<text text-anchor="middle" x="324.04" y="-734.3" font-family="Times,serif" font-size="14.00">fft2_reorder_simple</text>
</g>
<!-- fft2_reorder_simple_pop_64_push_64_36&#45;&gt;fft2_reorder_simple_pop_32_push_32_37 -->
<g id="edge22" class="edge">
<title>fft2_reorder_simple_pop_64_push_64_36&#45;&gt;fft2_reorder_simple_pop_32_push_32_37</title>
<path fill="none" stroke="black" d="M324.04,-791.7C324.04,-783.98 324.04,-774.71 324.04,-766.11"/>
<polygon fill="black" stroke="black" points="327.54,-766.1 324.04,-756.1 320.54,-766.1 327.54,-766.1"/>
</g>
<!-- fft2_reorder_simple_pop_16_push_16_38 -->
<g id="node26" class="node">
<title>fft2_reorder_simple_pop_16_push_16_38</title>
<ellipse fill="none" stroke="black" cx="324.04" cy="-666" rx="102.08" ry="18"/>
<text text-anchor="middle" x="324.04" y="-662.3" font-family="Times,serif" font-size="14.00">fft2_reorder_simple</text>
</g>
<!-- fft2_reorder_simple_pop_32_push_32_37&#45;&gt;fft2_reorder_simple_pop_16_push_16_38 -->
<g id="edge23" class="edge">
<title>fft2_reorder_simple_pop_32_push_32_37&#45;&gt;fft2_reorder_simple_pop_16_push_16_38</title>
<path fill="none" stroke="black" d="M324.04,-719.7C324.04,-711.98 324.04,-702.71 324.04,-694.11"/>
<polygon fill="black" stroke="black" points="327.54,-694.1 324.04,-684.1 320.54,-694.1 327.54,-694.1"/>
</g>
<!-- fft2_reorder_simple_pop_16_push_16_38&#45;&gt;fft2_reorder_simple_pop_8_push_8_39 -->
<g id="edge24" class="edge">
<title>fft2_reorder_simple_pop_16_push_16_38&#45;&gt;fft2_reorder_simple_pop_8_push_8_39</title>
<path fill="none" stroke="black" d="M324.04,-647.7C324.04,-639.98 324.04,-630.71 324.04,-622.11"/>
<polygon fill="black" stroke="black" points="327.54,-622.1 324.04,-612.1 320.54,-622.1 327.54,-622.1"/>
</g>
</g>
</svg>
