<?xml version="1.0" encoding="UTF-8" standalone="no"?>
<!DOCTYPE svg PUBLIC "-//W3C//DTD SVG 1.1//EN"
 "http://www.w3.org/Graphics/SVG/1.1/DTD/svg11.dtd">
<!-- Generated by graphviz version 2.43.0 (0)
 -->
<!-- Title: streamit Pages: 1 -->
<svg width="360pt" height="2276pt"
 viewBox="0.00 0.00 360.27 2276.00" xmlns="http://www.w3.org/2000/svg" xmlns:xlink="http://www.w3.org/1999/xlink">
<g id="graph0" class="graph" transform="scale(1 1) rotate(0) translate(4 2272)">
<title>streamit</title>
<polygon fill="white" stroke="transparent" points="-4,4 -4,-2272 356.27,-2272 356.27,4 -4,4"/>
<!-- fft4_source_1 -->
<g id="node1" class="node">
<title>fft4_source_1</title>
<ellipse fill="none" stroke="black" cx="176.13" cy="-2250" rx="62.29" ry="18"/>
<text text-anchor="middle" x="176.13" y="-2246.3" font-family="Times,serif" font-size="14.00">fft4_source</text>
</g>
<!-- AnonFilter_a0_9_split -->
<g id="node2" class="node">
<title>AnonFilter_a0_9_split</title>
<ellipse fill="none" stroke="black" cx="176.13" cy="-2178" rx="170.07" ry="18"/>
<text text-anchor="middle" x="176.13" y="-2174.3" font-family="Times,serif" font-size="14.00">fft4_split_weighted_round_robin_1</text>
</g>
<!-- fft4_source_1&#45;&gt;AnonFilter_a0_9_split -->
<g id="edge1" class="edge">
<title>fft4_source_1&#45;&gt;AnonFilter_a0_9_split</title>
<path fill="none" stroke="black" d="M176.13,-2231.7C176.13,-2223.98 176.13,-2214.71 176.13,-2206.11"/>
<polygon fill="black" stroke="black" points="179.63,-2206.1 176.13,-2196.1 172.63,-2206.1 179.63,-2206.1"/>
</g>
<!-- streamit_library_fft4_identity_11 -->
<g id="node15" class="node">
<title>streamit_library_fft4_identity_11</title>
<ellipse fill="none" stroke="black" cx="98.13" cy="-2106" rx="67.69" ry="18"/>
<text text-anchor="middle" x="98.13" y="-2102.3" font-family="Times,serif" font-size="14.00">fft4_identity</text>
</g>
<!-- AnonFilter_a0_9_split&#45;&gt;streamit_library_fft4_identity_11 -->
<g id="edge8" class="edge">
<title>AnonFilter_a0_9_split&#45;&gt;streamit_library_fft4_identity_11</title>
<path fill="none" stroke="black" d="M157.25,-2160.05C147.31,-2151.13 134.97,-2140.06 124.14,-2130.34"/>
<polygon fill="black" stroke="black" points="126.35,-2127.62 116.57,-2123.55 121.68,-2132.83 126.35,-2127.62"/>
</g>
<!-- fft4_multiply_12 -->
<g id="node16" class="node">
<title>fft4_multiply_12</title>
<ellipse fill="none" stroke="black" cx="254.13" cy="-2106" rx="70.39" ry="18"/>
<text text-anchor="middle" x="254.13" y="-2102.3" font-family="Times,serif" font-size="14.00">fft4_multiply</text>
</g>
<!-- AnonFilter_a0_9_split&#45;&gt;fft4_multiply_12 -->
<g id="edge10" class="edge">
<title>AnonFilter_a0_9_split&#45;&gt;fft4_multiply_12</title>
<path fill="none" stroke="black" d="M195.02,-2160.05C204.96,-2151.13 217.3,-2140.06 228.13,-2130.34"/>
<polygon fill="black" stroke="black" points="230.59,-2132.83 235.7,-2123.55 225.92,-2127.62 230.59,-2132.83"/>
</g>
<!-- AnonFilter_a1_41_join -->
<g id="node3" class="node">
<title>AnonFilter_a1_41_join</title>
<ellipse fill="none" stroke="black" cx="176.13" cy="-90" rx="172.77" ry="18"/>
<text text-anchor="middle" x="176.13" y="-86.3" font-family="Times,serif" font-size="14.00">fft4_join_weighted_round_robin_16</text>
</g>
<!-- FloatPrinter_3 -->
<g id="node4" class="node">
<title>FloatPrinter_3</title>
<ellipse fill="none" stroke="black" cx="176.13" cy="-18" rx="89.88" ry="18"/>
<text text-anchor="middle" x="176.13" y="-14.3" font-family="Times,serif" font-size="14.00">fft4_float_printer</text>
</g>
<!-- AnonFilter_a1_41_join&#45;&gt;FloatPrinter_3 -->
<g id="edge2" class="edge">
<title>AnonFilter_a1_41_join&#45;&gt;FloatPrinter_3</title>
<path fill="none" stroke="black" d="M176.13,-71.7C176.13,-63.98 176.13,-54.71 176.13,-46.11"/>
<polygon fill="black" stroke="black" points="179.63,-46.1 176.13,-36.1 172.63,-46.1 179.63,-46.1"/>
</g>
<!-- AnonFilter_a1_10_join -->
<g id="node5" class="node">
<title>AnonFilter_a1_10_join</title>
<ellipse fill="none" stroke="black" cx="176.13" cy="-1818" rx="167.07" ry="18"/>
<text text-anchor="middle" x="176.13" y="-1814.3" font-family="Times,serif" font-size="14.00">fft4_join_weighted_round_robin_1</text>
</g>
<!-- AnonFilter_a0_16_split -->
<g id="node6" class="node">
<title>AnonFilter_a0_16_split</title>
<ellipse fill="none" stroke="black" cx="176.13" cy="-1746" rx="170.07" ry="18"/>
<text text-anchor="middle" x="176.13" y="-1742.3" font-family="Times,serif" font-size="14.00">fft4_split_weighted_round_robin_2</text>
</g>
<!-- AnonFilter_a1_10_join&#45;&gt;AnonFilter_a0_16_split -->
<g id="edge3" class="edge">
<title>AnonFilter_a1_10_join&#45;&gt;AnonFilter_a0_16_split</title>
<path fill="none" stroke="black" d="M176.13,-1799.7C176.13,-1791.98 176.13,-1782.71 176.13,-1774.11"/>
<polygon fill="black" stroke="black" points="179.63,-1774.1 176.13,-1764.1 172.63,-1774.1 179.63,-1774.1"/>
</g>
<!-- streamit_library_fft4_identity_18 -->
<g id="node21" class="node">
<title>streamit_library_fft4_identity_18</title>
<ellipse fill="none" stroke="black" cx="98.13" cy="-1674" rx="67.69" ry="18"/>
<text text-anchor="middle" x="98.13" y="-1670.3" font-family="Times,serif" font-size="14.00">fft4_identity</text>
</g>
<!-- AnonFilter_a0_16_split&#45;&gt;streamit_library_fft4_identity_18 -->
<g id="edge17" class="edge">
<title>AnonFilter_a0_16_split&#45;&gt;streamit_library_fft4_identity_18</title>
<path fill="none" stroke="black" d="M157.25,-1728.05C147.31,-1719.13 134.97,-1708.06 124.14,-1698.34"/>
<polygon fill="black" stroke="black" points="126.35,-1695.62 116.57,-1691.55 121.68,-1700.83 126.35,-1695.62"/>
</g>
<!-- fft4_multiply_19 -->
<g id="node22" class="node">
<title>fft4_multiply_19</title>
<ellipse fill="none" stroke="black" cx="254.13" cy="-1674" rx="70.39" ry="18"/>
<text text-anchor="middle" x="254.13" y="-1670.3" font-family="Times,serif" font-size="14.00">fft4_multiply</text>
</g>
<!-- AnonFilter_a0_16_split&#45;&gt;fft4_multiply_19 -->
<g id="edge19" class="edge">
<title>AnonFilter_a0_16_split&#45;&gt;fft4_multiply_19</title>
<path fill="none" stroke="black" d="M195.02,-1728.05C204.96,-1719.13 217.3,-1708.06 228.13,-1698.34"/>
<polygon fill="black" stroke="black" points="230.59,-1700.83 235.7,-1691.55 225.92,-1695.62 230.59,-1700.83"/>
</g>
<!-- AnonFilter_a1_17_join -->
<g id="node7" class="node">
<title>AnonFilter_a1_17_join</title>
<ellipse fill="none" stroke="black" cx="176.13" cy="-1386" rx="167.07" ry="18"/>
<text text-anchor="middle" x="176.13" y="-1382.3" font-family="Times,serif" font-size="14.00">fft4_join_weighted_round_robin_2</text>
</g>
<!-- AnonFilter_a0_24_split -->
<g id="node8" class="node">
<title>AnonFilter_a0_24_split</title>
<ellipse fill="none" stroke="black" cx="176.13" cy="-1314" rx="170.07" ry="18"/>
<text text-anchor="middle" x="176.13" y="-1310.3" font-family="Times,serif" font-size="14.00">fft4_split_weighted_round_robin_4</text>
</g>
<!-- AnonFilter_a1_17_join&#45;&gt;AnonFilter_a0_24_split -->
<g id="edge4" class="edge">
<title>AnonFilter_a1_17_join&#45;&gt;AnonFilter_a0_24_split</title>
<path fill="none" stroke="black" d="M176.13,-1367.7C176.13,-1359.98 176.13,-1350.71 176.13,-1342.11"/>
<polygon fill="black" stroke="black" points="179.63,-1342.1 176.13,-1332.1 172.63,-1342.1 179.63,-1342.1"/>
</g>
<!-- streamit_library_fft4_identity_26 -->
<g id="node27" class="node">
<title>streamit_library_fft4_identity_26</title>
<ellipse fill="none" stroke="black" cx="98.13" cy="-1242" rx="67.69" ry="18"/>
<text text-anchor="middle" x="98.13" y="-1238.3" font-family="Times,serif" font-size="14.00">fft4_identity</text>
</g>
<!-- AnonFilter_a0_24_split&#45;&gt;streamit_library_fft4_identity_26 -->
<g id="edge26" class="edge">
<title>AnonFilter_a0_24_split&#45;&gt;streamit_library_fft4_identity_26</title>
<path fill="none" stroke="black" d="M157.25,-1296.05C147.31,-1287.13 134.97,-1276.06 124.14,-1266.34"/>
<polygon fill="black" stroke="black" points="126.35,-1263.62 116.57,-1259.55 121.68,-1268.83 126.35,-1263.62"/>
</g>
<!-- fft4_multiply_27 -->
<g id="node28" class="node">
<title>fft4_multiply_27</title>
<ellipse fill="none" stroke="black" cx="254.13" cy="-1242" rx="70.39" ry="18"/>
<text text-anchor="middle" x="254.13" y="-1238.3" font-family="Times,serif" font-size="14.00">fft4_multiply</text>
</g>
<!-- AnonFilter_a0_24_split&#45;&gt;fft4_multiply_27 -->
<g id="edge28" class="edge">
<title>AnonFilter_a0_24_split&#45;&gt;fft4_multiply_27</title>
<path fill="none" stroke="black" d="M195.02,-1296.05C204.96,-1287.13 217.3,-1276.06 228.13,-1266.34"/>
<polygon fill="black" stroke="black" points="230.59,-1268.83 235.7,-1259.55 225.92,-1263.62 230.59,-1268.83"/>
</g>
<!-- AnonFilter_a1_25_join -->
<g id="node9" class="node">
<title>AnonFilter_a1_25_join</title>
<ellipse fill="none" stroke="black" cx="176.13" cy="-954" rx="167.07" ry="18"/>
<text text-anchor="middle" x="176.13" y="-950.3" font-family="Times,serif" font-size="14.00">fft4_join_weighted_round_robin_4</text>
</g>
<!-- AnonFilter_a0_32_split -->
<g id="node10" class="node">
<title>AnonFilter_a0_32_split</title>
<ellipse fill="none" stroke="black" cx="176.13" cy="-882" rx="170.07" ry="18"/>
<text text-anchor="middle" x="176.13" y="-878.3" font-family="Times,serif" font-size="14.00">fft4_split_weighted_round_robin_8</text>
</g>
<!-- AnonFilter_a1_25_join&#45;&gt;AnonFilter_a0_32_split -->
<g id="edge5" class="edge">
<title>AnonFilter_a1_25_join&#45;&gt;AnonFilter_a0_32_split</title>
<path fill="none" stroke="black" d="M176.13,-935.7C176.13,-927.98 176.13,-918.71 176.13,-910.11"/>
<polygon fill="black" stroke="black" points="179.63,-910.1 176.13,-900.1 172.63,-910.1 179.63,-910.1"/>
</g>
<!-- streamit_library_fft4_identity_34 -->
<g id="node33" class="node">
<title>streamit_library_fft4_identity_34</title>
<ellipse fill="none" stroke="black" cx="98.13" cy="-810" rx="67.69" ry="18"/>
<text text-anchor="middle" x="98.13" y="-806.3" font-family="Times,serif" font-size="14.00">fft4_identity</text>
</g>
<!-- AnonFilter_a0_32_split&#45;&gt;streamit_library_fft4_identity_34 -->
<g id="edge35" class="edge">
<title>AnonFilter_a0_32_split&#45;&gt;streamit_library_fft4_identity_34</title>
<path fill="none" stroke="black" d="M157.25,-864.05C147.31,-855.13 134.97,-844.06 124.14,-834.34"/>
<polygon fill="black" stroke="black" points="126.35,-831.62 116.57,-827.55 121.68,-836.83 126.35,-831.62"/>
</g>
<!-- fft4_multiply_35 -->
<g id="node34" class="node">
<title>fft4_multiply_35</title>
<ellipse fill="none" stroke="black" cx="254.13" cy="-810" rx="70.39" ry="18"/>
<text text-anchor="middle" x="254.13" y="-806.3" font-family="Times,serif" font-size="14.00">fft4_multiply</text>
</g>
<!-- AnonFilter_a0_32_split&#45;&gt;fft4_multiply_35 -->
<g id="edge37" class="edge">
<title>AnonFilter_a0_32_split&#45;&gt;fft4_multiply_35</title>
<path fill="none" stroke="black" d="M195.02,-864.05C204.96,-855.13 217.3,-844.06 228.13,-834.34"/>
<polygon fill="black" stroke="black" points="230.59,-836.83 235.7,-827.55 225.92,-831.62 230.59,-836.83"/>
</g>
<!-- AnonFilter_a1_33_join -->
<g id="node11" class="node">
<title>AnonFilter_a1_33_join</title>
<ellipse fill="none" stroke="black" cx="176.13" cy="-522" rx="167.07" ry="18"/>
<text text-anchor="middle" x="176.13" y="-518.3" font-family="Times,serif" font-size="14.00">fft4_join_weighted_round_robin_8</text>
</g>
<!-- AnonFilter_a0_40_split -->
<g id="node12" class="node">
<title>AnonFilter_a0_40_split</title>
<ellipse fill="none" stroke="black" cx="176.13" cy="-450" rx="176.27" ry="18"/>
<text text-anchor="middle" x="176.13" y="-446.3" font-family="Times,serif" font-size="14.00">fft4_split_weighted_round_robin_16</text>
</g>
<!-- AnonFilter_a1_33_join&#45;&gt;AnonFilter_a0_40_split -->
<g id="edge6" class="edge">
<title>AnonFilter_a1_33_join&#45;&gt;AnonFilter_a0_40_split</title>
<path fill="none" stroke="black" d="M176.13,-503.7C176.13,-495.98 176.13,-486.71 176.13,-478.11"/>
<polygon fill="black" stroke="black" points="179.63,-478.1 176.13,-468.1 172.63,-478.1 179.63,-478.1"/>
</g>
<!-- streamit_library_fft4_identity_42 -->
<g id="node39" class="node">
<title>streamit_library_fft4_identity_42</title>
<ellipse fill="none" stroke="black" cx="98.13" cy="-378" rx="67.69" ry="18"/>
<text text-anchor="middle" x="98.13" y="-374.3" font-family="Times,serif" font-size="14.00">fft4_identity</text>
</g>
<!-- AnonFilter_a0_40_split&#45;&gt;streamit_library_fft4_identity_42 -->
<g id="edge44" class="edge">
<title>AnonFilter_a0_40_split&#45;&gt;streamit_library_fft4_identity_42</title>
<path fill="none" stroke="black" d="M157.25,-432.05C147.31,-423.13 134.97,-412.06 124.14,-402.34"/>
<polygon fill="black" stroke="black" points="126.35,-399.62 116.57,-395.55 121.68,-404.83 126.35,-399.62"/>
</g>
<!-- fft4_multiply_43 -->
<g id="node40" class="node">
<title>fft4_multiply_43</title>
<ellipse fill="none" stroke="black" cx="254.13" cy="-378" rx="70.39" ry="18"/>
<text text-anchor="middle" x="254.13" y="-374.3" font-family="Times,serif" font-size="14.00">fft4_multiply</text>
</g>
<!-- AnonFilter_a0_40_split&#45;&gt;fft4_multiply_43 -->
<g id="edge46" class="edge">
<title>AnonFilter_a0_40_split&#45;&gt;fft4_multiply_43</title>
<path fill="none" stroke="black" d="M195.02,-432.05C204.96,-423.13 217.3,-412.06 228.13,-402.34"/>
<polygon fill="black" stroke="black" points="230.59,-404.83 235.7,-395.55 225.92,-399.62 230.59,-404.83"/>
</g>
<!-- AnonFilter_a0_9_join -->
<g id="node13" class="node">
<title>AnonFilter_a0_9_join</title>
<ellipse fill="none" stroke="black" cx="176.13" cy="-2034" rx="109.38" ry="18"/>
<text text-anchor="middle" x="176.13" y="-2030.3" font-family="Times,serif" font-size="14.00">fft4_join_round_robin</text>
</g>
<!-- AnonFilter_a1_10_split -->
<g id="node14" class="node">
<title>AnonFilter_a1_10_split</title>
<ellipse fill="none" stroke="black" cx="176.13" cy="-1962" rx="99.38" ry="18"/>
<text text-anchor="middle" x="176.13" y="-1958.3" font-family="Times,serif" font-size="14.00">fft4_split_duplicate</text>
</g>
<!-- AnonFilter_a0_9_join&#45;&gt;AnonFilter_a1_10_split -->
<g id="edge7" class="edge">
<title>AnonFilter_a0_9_join&#45;&gt;AnonFilter_a1_10_split</title>
<path fill="none" stroke="black" d="M176.13,-2015.7C176.13,-2007.98 176.13,-1998.71 176.13,-1990.11"/>
<polygon fill="black" stroke="black" points="179.63,-1990.1 176.13,-1980.1 172.63,-1990.1 179.63,-1990.1"/>
</g>
<!-- fft4_add_13 -->
<g id="node17" class="node">
<title>fft4_add_13</title>
<ellipse fill="none" stroke="black" cx="107.13" cy="-1890" rx="48.99" ry="18"/>
<text text-anchor="middle" x="107.13" y="-1886.3" font-family="Times,serif" font-size="14.00">fft4_add</text>
</g>
<!-- AnonFilter_a1_10_split&#45;&gt;fft4_add_13 -->
<g id="edge12" class="edge">
<title>AnonFilter_a1_10_split&#45;&gt;fft4_add_13</title>
<path fill="none" stroke="black" d="M159.43,-1944.05C150.75,-1935.24 139.99,-1924.33 130.49,-1914.69"/>
<polygon fill="black" stroke="black" points="132.72,-1911.97 123.21,-1907.31 127.74,-1916.89 132.72,-1911.97"/>
</g>
<!-- fft4_subtract_14 -->
<g id="node18" class="node">
<title>fft4_subtract_14</title>
<ellipse fill="none" stroke="black" cx="245.13" cy="-1890" rx="70.69" ry="18"/>
<text text-anchor="middle" x="245.13" y="-1886.3" font-family="Times,serif" font-size="14.00">fft4_subtract</text>
</g>
<!-- AnonFilter_a1_10_split&#45;&gt;fft4_subtract_14 -->
<g id="edge14" class="edge">
<title>AnonFilter_a1_10_split&#45;&gt;fft4_subtract_14</title>
<path fill="none" stroke="black" d="M192.84,-1944.05C201.4,-1935.37 211.97,-1924.64 221.36,-1915.11"/>
<polygon fill="black" stroke="black" points="224.06,-1917.37 228.59,-1907.79 219.07,-1912.45 224.06,-1917.37"/>
</g>
<!-- streamit_library_fft4_identity_11&#45;&gt;AnonFilter_a0_9_join -->
<g id="edge9" class="edge">
<title>streamit_library_fft4_identity_11&#45;&gt;AnonFilter_a0_9_join</title>
<path fill="none" stroke="black" d="M116.62,-2088.41C126.48,-2079.56 138.79,-2068.52 149.64,-2058.77"/>
<polygon fill="black" stroke="black" points="152.14,-2061.24 157.24,-2051.96 147.46,-2056.03 152.14,-2061.24"/>
</g>
<!-- fft4_multiply_12&#45;&gt;AnonFilter_a0_9_join -->
<g id="edge11" class="edge">
<title>fft4_multiply_12&#45;&gt;AnonFilter_a0_9_join</title>
<path fill="none" stroke="black" d="M235.65,-2088.41C225.79,-2079.56 213.48,-2068.52 202.62,-2058.77"/>
<polygon fill="black" stroke="black" points="204.81,-2056.03 195.03,-2051.96 200.13,-2061.24 204.81,-2056.03"/>
</g>
<!-- fft4_add_13&#45;&gt;AnonFilter_a1_10_join -->
<g id="edge13" class="edge">
<title>fft4_add_13&#45;&gt;AnonFilter_a1_10_join</title>
<path fill="none" stroke="black" d="M123.14,-1872.76C131.77,-1864.01 142.59,-1853.03 152.2,-1843.28"/>
<polygon fill="black" stroke="black" points="154.73,-1845.7 159.26,-1836.12 149.74,-1840.79 154.73,-1845.7"/>
</g>
<!-- fft4_subtract_14&#45;&gt;AnonFilter_a1_10_join -->
<g id="edge15" class="edge">
<title>fft4_subtract_14&#45;&gt;AnonFilter_a1_10_join</title>
<path fill="none" stroke="black" d="M228.78,-1872.41C220.23,-1863.73 209.6,-1852.95 200.13,-1843.34"/>
<polygon fill="black" stroke="black" points="202.36,-1840.62 192.85,-1835.96 197.38,-1845.54 202.36,-1840.62"/>
</g>
<!-- AnonFilter_a0_16_join -->
<g id="node19" class="node">
<title>AnonFilter_a0_16_join</title>
<ellipse fill="none" stroke="black" cx="176.13" cy="-1602" rx="109.38" ry="18"/>
<text text-anchor="middle" x="176.13" y="-1598.3" font-family="Times,serif" font-size="14.00">fft4_join_round_robin</text>
</g>
<!-- AnonFilter_a1_17_split -->
<g id="node20" class="node">
<title>AnonFilter_a1_17_split</title>
<ellipse fill="none" stroke="black" cx="176.13" cy="-1530" rx="99.38" ry="18"/>
<text text-anchor="middle" x="176.13" y="-1526.3" font-family="Times,serif" font-size="14.00">fft4_split_duplicate</text>
</g>
<!-- AnonFilter_a0_16_join&#45;&gt;AnonFilter_a1_17_split -->
<g id="edge16" class="edge">
<title>AnonFilter_a0_16_join&#45;&gt;AnonFilter_a1_17_split</title>
<path fill="none" stroke="black" d="M176.13,-1583.7C176.13,-1575.98 176.13,-1566.71 176.13,-1558.11"/>
<polygon fill="black" stroke="black" points="179.63,-1558.1 176.13,-1548.1 172.63,-1558.1 179.63,-1558.1"/>
</g>
<!-- fft4_add_20 -->
<g id="node23" class="node">
<title>fft4_add_20</title>
<ellipse fill="none" stroke="black" cx="107.13" cy="-1458" rx="48.99" ry="18"/>
<text text-anchor="middle" x="107.13" y="-1454.3" font-family="Times,serif" font-size="14.00">fft4_add</text>
</g>
<!-- AnonFilter_a1_17_split&#45;&gt;fft4_add_20 -->
<g id="edge21" class="edge">
<title>AnonFilter_a1_17_split&#45;&gt;fft4_add_20</title>
<path fill="none" stroke="black" d="M159.43,-1512.05C150.75,-1503.24 139.99,-1492.33 130.49,-1482.69"/>
<polygon fill="black" stroke="black" points="132.72,-1479.97 123.21,-1475.31 127.74,-1484.89 132.72,-1479.97"/>
</g>
<!-- fft4_subtract_21 -->
<g id="node24" class="node">
<title>fft4_subtract_21</title>
<ellipse fill="none" stroke="black" cx="245.13" cy="-1458" rx="70.69" ry="18"/>
<text text-anchor="middle" x="245.13" y="-1454.3" font-family="Times,serif" font-size="14.00">fft4_subtract</text>
</g>
<!-- AnonFilter_a1_17_split&#45;&gt;fft4_subtract_21 -->
<g id="edge23" class="edge">
<title>AnonFilter_a1_17_split&#45;&gt;fft4_subtract_21</title>
<path fill="none" stroke="black" d="M192.84,-1512.05C201.4,-1503.37 211.97,-1492.64 221.36,-1483.11"/>
<polygon fill="black" stroke="black" points="224.06,-1485.37 228.59,-1475.79 219.07,-1480.45 224.06,-1485.37"/>
</g>
<!-- streamit_library_fft4_identity_18&#45;&gt;AnonFilter_a0_16_join -->
<g id="edge18" class="edge">
<title>streamit_library_fft4_identity_18&#45;&gt;AnonFilter_a0_16_join</title>
<path fill="none" stroke="black" d="M116.62,-1656.41C126.48,-1647.56 138.79,-1636.52 149.64,-1626.77"/>
<polygon fill="black" stroke="black" points="152.14,-1629.24 157.24,-1619.96 147.46,-1624.03 152.14,-1629.24"/>
</g>
<!-- fft4_multiply_19&#45;&gt;AnonFilter_a0_16_join -->
<g id="edge20" class="edge">
<title>fft4_multiply_19&#45;&gt;AnonFilter_a0_16_join</title>
<path fill="none" stroke="black" d="M235.65,-1656.41C225.79,-1647.56 213.48,-1636.52 202.62,-1626.77"/>
<polygon fill="black" stroke="black" points="204.81,-1624.03 195.03,-1619.96 200.13,-1629.24 204.81,-1624.03"/>
</g>
<!-- fft4_add_20&#45;&gt;AnonFilter_a1_17_join -->
<g id="edge22" class="edge">
<title>fft4_add_20&#45;&gt;AnonFilter_a1_17_join</title>
<path fill="none" stroke="black" d="M123.14,-1440.76C131.77,-1432.01 142.59,-1421.03 152.2,-1411.28"/>
<polygon fill="black" stroke="black" points="154.73,-1413.7 159.26,-1404.12 149.74,-1408.79 154.73,-1413.7"/>
</g>
<!-- fft4_subtract_21&#45;&gt;AnonFilter_a1_17_join -->
<g id="edge24" class="edge">
<title>fft4_subtract_21&#45;&gt;AnonFilter_a1_17_join</title>
<path fill="none" stroke="black" d="M228.78,-1440.41C220.23,-1431.73 209.6,-1420.95 200.13,-1411.34"/>
<polygon fill="black" stroke="black" points="202.36,-1408.62 192.85,-1403.96 197.38,-1413.54 202.36,-1408.62"/>
</g>
<!-- AnonFilter_a0_24_join -->
<g id="node25" class="node">
<title>AnonFilter_a0_24_join</title>
<ellipse fill="none" stroke="black" cx="176.13" cy="-1170" rx="109.38" ry="18"/>
<text text-anchor="middle" x="176.13" y="-1166.3" font-family="Times,serif" font-size="14.00">fft4_join_round_robin</text>
</g>
<!-- AnonFilter_a1_25_split -->
<g id="node26" class="node">
<title>AnonFilter_a1_25_split</title>
<ellipse fill="none" stroke="black" cx="176.13" cy="-1098" rx="99.38" ry="18"/>
<text text-anchor="middle" x="176.13" y="-1094.3" font-family="Times,serif" font-size="14.00">fft4_split_duplicate</text>
</g>
<!-- AnonFilter_a0_24_join&#45;&gt;AnonFilter_a1_25_split -->
<g id="edge25" class="edge">
<title>AnonFilter_a0_24_join&#45;&gt;AnonFilter_a1_25_split</title>
<path fill="none" stroke="black" d="M176.13,-1151.7C176.13,-1143.98 176.13,-1134.71 176.13,-1126.11"/>
<polygon fill="black" stroke="black" points="179.63,-1126.1 176.13,-1116.1 172.63,-1126.1 179.63,-1126.1"/>
</g>
<!-- fft4_add_28 -->
<g id="node29" class="node">
<title>fft4_add_28</title>
<ellipse fill="none" stroke="black" cx="107.13" cy="-1026" rx="48.99" ry="18"/>
<text text-anchor="middle" x="107.13" y="-1022.3" font-family="Times,serif" font-size="14.00">fft4_add</text>
</g>
<!-- AnonFilter_a1_25_split&#45;&gt;fft4_add_28 -->
<g id="edge30" class="edge">
<title>AnonFilter_a1_25_split&#45;&gt;fft4_add_28</title>
<path fill="none" stroke="black" d="M159.43,-1080.05C150.75,-1071.24 139.99,-1060.33 130.49,-1050.69"/>
<polygon fill="black" stroke="black" points="132.72,-1047.97 123.21,-1043.31 127.74,-1052.89 132.72,-1047.97"/>
</g>
<!-- fft4_subtract_29 -->
<g id="node30" class="node">
<title>fft4_subtract_29</title>
<ellipse fill="none" stroke="black" cx="245.13" cy="-1026" rx="70.69" ry="18"/>
<text text-anchor="middle" x="245.13" y="-1022.3" font-family="Times,serif" font-size="14.00">fft4_subtract</text>
</g>
<!-- AnonFilter_a1_25_split&#45;&gt;fft4_subtract_29 -->
<g id="edge32" class="edge">
<title>AnonFilter_a1_25_split&#45;&gt;fft4_subtract_29</title>
<path fill="none" stroke="black" d="M192.84,-1080.05C201.4,-1071.37 211.97,-1060.64 221.36,-1051.11"/>
<polygon fill="black" stroke="black" points="224.06,-1053.37 228.59,-1043.79 219.07,-1048.45 224.06,-1053.37"/>
</g>
<!-- streamit_library_fft4_identity_26&#45;&gt;AnonFilter_a0_24_join -->
<g id="edge27" class="edge">
<title>streamit_library_fft4_identity_26&#45;&gt;AnonFilter_a0_24_join</title>
<path fill="none" stroke="black" d="M116.62,-1224.41C126.48,-1215.56 138.79,-1204.52 149.64,-1194.77"/>
<polygon fill="black" stroke="black" points="152.14,-1197.24 157.24,-1187.96 147.46,-1192.03 152.14,-1197.24"/>
</g>
<!-- fft4_multiply_27&#45;&gt;AnonFilter_a0_24_join -->
<g id="edge29" class="edge">
<title>fft4_multiply_27&#45;&gt;AnonFilter_a0_24_join</title>
<path fill="none" stroke="black" d="M235.65,-1224.41C225.79,-1215.56 213.48,-1204.52 202.62,-1194.77"/>
<polygon fill="black" stroke="black" points="204.81,-1192.03 195.03,-1187.96 200.13,-1197.24 204.81,-1192.03"/>
</g>
<!-- fft4_add_28&#45;&gt;AnonFilter_a1_25_join -->
<g id="edge31" class="edge">
<title>fft4_add_28&#45;&gt;AnonFilter_a1_25_join</title>
<path fill="none" stroke="black" d="M123.14,-1008.76C131.77,-1000.01 142.59,-989.03 152.2,-979.28"/>
<polygon fill="black" stroke="black" points="154.73,-981.7 159.26,-972.12 149.74,-976.79 154.73,-981.7"/>
</g>
<!-- fft4_subtract_29&#45;&gt;AnonFilter_a1_25_join -->
<g id="edge33" class="edge">
<title>fft4_subtract_29&#45;&gt;AnonFilter_a1_25_join</title>
<path fill="none" stroke="black" d="M228.78,-1008.41C220.23,-999.73 209.6,-988.95 200.13,-979.34"/>
<polygon fill="black" stroke="black" points="202.36,-976.62 192.85,-971.96 197.38,-981.54 202.36,-976.62"/>
</g>
<!-- AnonFilter_a0_32_join -->
<g id="node31" class="node">
<title>AnonFilter_a0_32_join</title>
<ellipse fill="none" stroke="black" cx="176.13" cy="-738" rx="109.38" ry="18"/>
<text text-anchor="middle" x="176.13" y="-734.3" font-family="Times,serif" font-size="14.00">fft4_join_round_robin</text>
</g>
<!-- AnonFilter_a1_33_split -->
<g id="node32" class="node">
<title>AnonFilter_a1_33_split</title>
<ellipse fill="none" stroke="black" cx="176.13" cy="-666" rx="99.38" ry="18"/>
<text text-anchor="middle" x="176.13" y="-662.3" font-family="Times,serif" font-size="14.00">fft4_split_duplicate</text>
</g>
<!-- AnonFilter_a0_32_join&#45;&gt;AnonFilter_a1_33_split -->
<g id="edge34" class="edge">
<title>AnonFilter_a0_32_join&#45;&gt;AnonFilter_a1_33_split</title>
<path fill="none" stroke="black" d="M176.13,-719.7C176.13,-711.98 176.13,-702.71 176.13,-694.11"/>
<polygon fill="black" stroke="black" points="179.63,-694.1 176.13,-684.1 172.63,-694.1 179.63,-694.1"/>
</g>
<!-- fft4_add_36 -->
<g id="node35" class="node">
<title>fft4_add_36</title>
<ellipse fill="none" stroke="black" cx="107.13" cy="-594" rx="48.99" ry="18"/>
<text text-anchor="middle" x="107.13" y="-590.3" font-family="Times,serif" font-size="14.00">fft4_add</text>
</g>
<!-- AnonFilter_a1_33_split&#45;&gt;fft4_add_36 -->
<g id="edge39" class="edge">
<title>AnonFilter_a1_33_split&#45;&gt;fft4_add_36</title>
<path fill="none" stroke="black" d="M159.43,-648.05C150.75,-639.24 139.99,-628.33 130.49,-618.69"/>
<polygon fill="black" stroke="black" points="132.72,-615.97 123.21,-611.31 127.74,-620.89 132.72,-615.97"/>
</g>
<!-- fft4_subtract_37 -->
<g id="node36" class="node">
<title>fft4_subtract_37</title>
<ellipse fill="none" stroke="black" cx="245.13" cy="-594" rx="70.69" ry="18"/>
<text text-anchor="middle" x="245.13" y="-590.3" font-family="Times,serif" font-size="14.00">fft4_subtract</text>
</g>
<!-- AnonFilter_a1_33_split&#45;&gt;fft4_subtract_37 -->
<g id="edge41" class="edge">
<title>AnonFilter_a1_33_split&#45;&gt;fft4_subtract_37</title>
<path fill="none" stroke="black" d="M192.84,-648.05C201.4,-639.37 211.97,-628.64 221.36,-619.11"/>
<polygon fill="black" stroke="black" points="224.06,-621.37 228.59,-611.79 219.07,-616.45 224.06,-621.37"/>
</g>
<!-- streamit_library_fft4_identity_34&#45;&gt;AnonFilter_a0_32_join -->
<g id="edge36" class="edge">
<title>streamit_library_fft4_identity_34&#45;&gt;AnonFilter_a0_32_join</title>
<path fill="none" stroke="black" d="M116.62,-792.41C126.48,-783.56 138.79,-772.52 149.64,-762.77"/>
<polygon fill="black" stroke="black" points="152.14,-765.24 157.24,-755.96 147.46,-760.03 152.14,-765.24"/>
</g>
<!-- fft4_multiply_35&#45;&gt;AnonFilter_a0_32_join -->
<g id="edge38" class="edge">
<title>fft4_multiply_35&#45;&gt;AnonFilter_a0_32_join</title>
<path fill="none" stroke="black" d="M235.65,-792.41C225.79,-783.56 213.48,-772.52 202.62,-762.77"/>
<polygon fill="black" stroke="black" points="204.81,-760.03 195.03,-755.96 200.13,-765.24 204.81,-760.03"/>
</g>
<!-- fft4_add_36&#45;&gt;AnonFilter_a1_33_join -->
<g id="edge40" class="edge">
<title>fft4_add_36&#45;&gt;AnonFilter_a1_33_join</title>
<path fill="none" stroke="black" d="M123.14,-576.76C131.77,-568.01 142.59,-557.03 152.2,-547.28"/>
<polygon fill="black" stroke="black" points="154.73,-549.7 159.26,-540.12 149.74,-544.79 154.73,-549.7"/>
</g>
<!-- fft4_subtract_37&#45;&gt;AnonFilter_a1_33_join -->
<g id="edge42" class="edge">
<title>fft4_subtract_37&#45;&gt;AnonFilter_a1_33_join</title>
<path fill="none" stroke="black" d="M228.78,-576.41C220.23,-567.73 209.6,-556.95 200.13,-547.34"/>
<polygon fill="black" stroke="black" points="202.36,-544.62 192.85,-539.96 197.38,-549.54 202.36,-544.62"/>
</g>
<!-- AnonFilter_a0_40_join -->
<g id="node37" class="node">
<title>AnonFilter_a0_40_join</title>
<ellipse fill="none" stroke="black" cx="176.13" cy="-306" rx="109.38" ry="18"/>
<text text-anchor="middle" x="176.13" y="-302.3" font-family="Times,serif" font-size="14.00">fft4_join_round_robin</text>
</g>
<!-- AnonFilter_a1_41_split -->
<g id="node38" class="node">
<title>AnonFilter_a1_41_split</title>
<ellipse fill="none" stroke="black" cx="176.13" cy="-234" rx="99.38" ry="18"/>
<text text-anchor="middle" x="176.13" y="-230.3" font-family="Times,serif" font-size="14.00">fft4_split_duplicate</text>
</g>
<!-- AnonFilter_a0_40_join&#45;&gt;AnonFilter_a1_41_split -->
<g id="edge43" class="edge">
<title>AnonFilter_a0_40_join&#45;&gt;AnonFilter_a1_41_split</title>
<path fill="none" stroke="black" d="M176.13,-287.7C176.13,-279.98 176.13,-270.71 176.13,-262.11"/>
<polygon fill="black" stroke="black" points="179.63,-262.1 176.13,-252.1 172.63,-262.1 179.63,-262.1"/>
</g>
<!-- fft4_add_44 -->
<g id="node41" class="node">
<title>fft4_add_44</title>
<ellipse fill="none" stroke="black" cx="107.13" cy="-162" rx="48.99" ry="18"/>
<text text-anchor="middle" x="107.13" y="-158.3" font-family="Times,serif" font-size="14.00">fft4_add</text>
</g>
<!-- AnonFilter_a1_41_split&#45;&gt;fft4_add_44 -->
<g id="edge48" class="edge">
<title>AnonFilter_a1_41_split&#45;&gt;fft4_add_44</title>
<path fill="none" stroke="black" d="M159.43,-216.05C150.75,-207.24 139.99,-196.33 130.49,-186.69"/>
<polygon fill="black" stroke="black" points="132.72,-183.97 123.21,-179.31 127.74,-188.89 132.72,-183.97"/>
</g>
<!-- fft4_subtract_45 -->
<g id="node42" class="node">
<title>fft4_subtract_45</title>
<ellipse fill="none" stroke="black" cx="245.13" cy="-162" rx="70.69" ry="18"/>
<text text-anchor="middle" x="245.13" y="-158.3" font-family="Times,serif" font-size="14.00">fft4_subtract</text>
</g>
<!-- AnonFilter_a1_41_split&#45;&gt;fft4_subtract_45 -->
<g id="edge50" class="edge">
<title>AnonFilter_a1_41_split&#45;&gt;fft4_subtract_45</title>
<path fill="none" stroke="black" d="M192.84,-216.05C201.4,-207.37 211.97,-196.64 221.36,-187.11"/>
<polygon fill="black" stroke="black" points="224.06,-189.37 228.59,-179.79 219.07,-184.45 224.06,-189.37"/>
</g>
<!-- streamit_library_fft4_identity_42&#45;&gt;AnonFilter_a0_40_join -->
<g id="edge45" class="edge">
<title>streamit_library_fft4_identity_42&#45;&gt;AnonFilter_a0_40_join</title>
<path fill="none" stroke="black" d="M116.62,-360.41C126.48,-351.56 138.79,-340.52 149.64,-330.77"/>
<polygon fill="black" stroke="black" points="152.14,-333.24 157.24,-323.96 147.46,-328.03 152.14,-333.24"/>
</g>
<!-- fft4_multiply_43&#45;&gt;AnonFilter_a0_40_join -->
<g id="edge47" class="edge">
<title>fft4_multiply_43&#45;&gt;AnonFilter_a0_40_join</title>
<path fill="none" stroke="black" d="M235.65,-360.41C225.79,-351.56 213.48,-340.52 202.62,-330.77"/>
<polygon fill="black" stroke="black" points="204.81,-328.03 195.03,-323.96 200.13,-333.24 204.81,-328.03"/>
</g>
<!-- fft4_add_44&#45;&gt;AnonFilter_a1_41_join -->
<g id="edge49" class="edge">
<title>fft4_add_44&#45;&gt;AnonFilter_a1_41_join</title>
<path fill="none" stroke="black" d="M123.14,-144.76C131.77,-136.01 142.59,-125.03 152.2,-115.28"/>
<polygon fill="black" stroke="black" points="154.73,-117.7 159.26,-108.12 149.74,-112.79 154.73,-117.7"/>
</g>
<!-- fft4_subtract_45&#45;&gt;AnonFilter_a1_41_join -->
<g id="edge51" class="edge">
<title>fft4_subtract_45&#45;&gt;AnonFilter_a1_41_join</title>
<path fill="none" stroke="black" d="M228.78,-144.41C220.23,-135.73 209.6,-124.95 200.13,-115.34"/>
<polygon fill="black" stroke="black" points="202.36,-112.62 192.85,-107.96 197.38,-117.54 202.36,-112.62"/>
</g>
</g>
</svg>
