<?xml version="1.0" encoding="UTF-8" standalone="no"?>
<!DOCTYPE svg PUBLIC "-//W3C//DTD SVG 1.1//EN"
 "http://www.w3.org/Graphics/SVG/1.1/DTD/svg11.dtd">
<!-- Generated by graphviz version 2.43.0 (0)
 -->
<!-- Title: FFT4_169 Pages: 1 -->
<svg width="419pt" height="692pt"
 viewBox="0.00 0.00 418.76 692.00" xmlns="http://www.w3.org/2000/svg" xmlns:xlink="http://www.w3.org/1999/xlink">
<g id="graph0" class="graph" transform="scale(1 1) rotate(0) translate(4 688)">
<title>FFT4_169</title>
<polygon fill="white" stroke="transparent" points="-4,4 -4,-688 414.76,-688 414.76,4 -4,4"/>
<!-- node0 -->
<g id="node1" class="node">
<title>node0</title>
<ellipse fill="none" stroke="black" cx="205.38" cy="-666" rx="205.26" ry="18"/>
<text text-anchor="middle" x="205.38" y="-662.3" font-family="Times,serif" font-size="14.00">WEIGHTED_ROUND_ROBIN_Splitter_162</text>
</g>
<!-- node1 -->
<g id="node2" class="node">
<title>node1</title>
<ellipse fill="none" stroke="black" cx="113.38" cy="-594" rx="83.39" ry="18"/>
<text text-anchor="middle" x="113.38" y="-590.3" font-family="Times,serif" font-size="14.00">OneSource_164</text>
</g>
<!-- node0&#45;&gt;node1 -->
<g id="edge1" class="edge">
<title>node0&#45;&gt;node1</title>
<path fill="none" stroke="black" d="M183.11,-648.05C171.16,-638.96 156.26,-627.63 143.31,-617.77"/>
<polygon fill="black" stroke="black" points="145.21,-614.82 135.13,-611.55 140.97,-620.39 145.21,-614.82"/>
</g>
<!-- node2 -->
<g id="node3" class="node">
<title>node2</title>
<ellipse fill="none" stroke="black" cx="297.38" cy="-594" rx="83.39" ry="18"/>
<text text-anchor="middle" x="297.38" y="-590.3" font-family="Times,serif" font-size="14.00">OneSource_165</text>
</g>
<!-- node0&#45;&gt;node2 -->
<g id="edge2" class="edge">
<title>node0&#45;&gt;node2</title>
<path fill="none" stroke="black" d="M227.65,-648.05C239.61,-638.96 254.5,-627.63 267.45,-617.77"/>
<polygon fill="black" stroke="black" points="269.79,-620.39 275.63,-611.55 265.56,-614.82 269.79,-620.39"/>
</g>
<!-- node3 -->
<g id="node4" class="node">
<title>node3</title>
<ellipse fill="none" stroke="black" cx="205.38" cy="-522" rx="196.87" ry="18"/>
<text text-anchor="middle" x="205.38" y="-518.3" font-family="Times,serif" font-size="14.00">WEIGHTED_ROUND_ROBIN_Joiner_163</text>
</g>
<!-- node1&#45;&gt;node3 -->
<g id="edge3" class="edge">
<title>node1&#45;&gt;node3</title>
<path fill="none" stroke="black" d="M135.18,-576.41C147.04,-567.39 161.89,-556.09 174.88,-546.21"/>
<polygon fill="black" stroke="black" points="177.26,-548.8 183.1,-539.96 173.02,-543.23 177.26,-548.8"/>
</g>
<!-- node2&#45;&gt;node3 -->
<g id="edge4" class="edge">
<title>node2&#45;&gt;node3</title>
<path fill="none" stroke="black" d="M275.58,-576.41C263.72,-567.39 248.87,-556.09 235.88,-546.21"/>
<polygon fill="black" stroke="black" points="237.74,-543.23 227.67,-539.96 233.51,-548.8 237.74,-543.23"/>
</g>
<!-- node4 -->
<g id="node5" class="node">
<title>node4</title>
<ellipse fill="none" stroke="black" cx="205.38" cy="-450" rx="205.26" ry="18"/>
<text text-anchor="middle" x="205.38" y="-446.3" font-family="Times,serif" font-size="14.00">WEIGHTED_ROUND_ROBIN_Splitter_147</text>
</g>
<!-- node3&#45;&gt;node4 -->
<g id="edge5" class="edge">
<title>node3&#45;&gt;node4</title>
<path fill="none" stroke="black" d="M205.38,-503.7C205.38,-495.98 205.38,-486.71 205.38,-478.11"/>
<polygon fill="black" stroke="black" points="208.88,-478.1 205.38,-468.1 201.88,-478.1 208.88,-478.1"/>
</g>
<!-- node5 -->
<g id="node6" class="node">
<title>node5</title>
<ellipse fill="none" stroke="black" cx="126.38" cy="-378" rx="69.59" ry="18"/>
<text text-anchor="middle" x="126.38" y="-374.3" font-family="Times,serif" font-size="14.00">Identity_141</text>
</g>
<!-- node4&#45;&gt;node5 -->
<g id="edge6" class="edge">
<title>node4&#45;&gt;node5</title>
<path fill="none" stroke="black" d="M186.26,-432.05C176.19,-423.13 163.69,-412.06 152.72,-402.34"/>
<polygon fill="black" stroke="black" points="154.86,-399.56 145.06,-395.55 150.22,-404.8 154.86,-399.56"/>
</g>
<!-- node6 -->
<g id="node7" class="node">
<title>node6</title>
<ellipse fill="none" stroke="black" cx="285.38" cy="-378" rx="71.49" ry="18"/>
<text text-anchor="middle" x="285.38" y="-374.3" font-family="Times,serif" font-size="14.00">Multiply_142</text>
</g>
<!-- node4&#45;&gt;node6 -->
<g id="edge7" class="edge">
<title>node4&#45;&gt;node6</title>
<path fill="none" stroke="black" d="M224.75,-432.05C234.94,-423.13 247.6,-412.06 258.71,-402.34"/>
<polygon fill="black" stroke="black" points="261.25,-404.77 266.47,-395.55 256.64,-399.5 261.25,-404.77"/>
</g>
<!-- node7 -->
<g id="node8" class="node">
<title>node7</title>
<ellipse fill="none" stroke="black" cx="205.38" cy="-306" rx="196.87" ry="18"/>
<text text-anchor="middle" x="205.38" y="-302.3" font-family="Times,serif" font-size="14.00">WEIGHTED_ROUND_ROBIN_Joiner_148</text>
</g>
<!-- node5&#45;&gt;node7 -->
<g id="edge8" class="edge">
<title>node5&#45;&gt;node7</title>
<path fill="none" stroke="black" d="M145.1,-360.41C155.09,-351.56 167.55,-340.52 178.55,-330.77"/>
<polygon fill="black" stroke="black" points="181.08,-333.21 186.25,-323.96 176.44,-327.97 181.08,-333.21"/>
</g>
<!-- node6&#45;&gt;node7 -->
<g id="edge9" class="edge">
<title>node6&#45;&gt;node7</title>
<path fill="none" stroke="black" d="M266.42,-360.41C256.31,-351.56 243.69,-340.52 232.55,-330.77"/>
<polygon fill="black" stroke="black" points="234.59,-327.91 224.76,-323.96 229.98,-333.18 234.59,-327.91"/>
</g>
<!-- node8 -->
<g id="node9" class="node">
<title>node8</title>
<ellipse fill="none" stroke="black" cx="205.38" cy="-234" rx="129.18" ry="18"/>
<text text-anchor="middle" x="205.38" y="-230.3" font-family="Times,serif" font-size="14.00">DUPLICATE_Splitter_149</text>
</g>
<!-- node7&#45;&gt;node8 -->
<g id="edge10" class="edge">
<title>node7&#45;&gt;node8</title>
<path fill="none" stroke="black" d="M205.38,-287.7C205.38,-279.98 205.38,-270.71 205.38,-262.11"/>
<polygon fill="black" stroke="black" points="208.88,-262.1 205.38,-252.1 201.88,-262.1 208.88,-262.1"/>
</g>
<!-- node9 -->
<g id="node10" class="node">
<title>node9</title>
<ellipse fill="none" stroke="black" cx="134.38" cy="-162" rx="50.89" ry="18"/>
<text text-anchor="middle" x="134.38" y="-158.3" font-family="Times,serif" font-size="14.00">Add_144</text>
</g>
<!-- node8&#45;&gt;node9 -->
<g id="edge11" class="edge">
<title>node8&#45;&gt;node9</title>
<path fill="none" stroke="black" d="M188.19,-216.05C179.17,-207.16 167.97,-196.11 158.12,-186.41"/>
<polygon fill="black" stroke="black" points="160.5,-183.84 150.92,-179.31 155.59,-188.82 160.5,-183.84"/>
</g>
<!-- node10 -->
<g id="node11" class="node">
<title>node10</title>
<ellipse fill="none" stroke="black" cx="276.38" cy="-162" rx="73.39" ry="18"/>
<text text-anchor="middle" x="276.38" y="-158.3" font-family="Times,serif" font-size="14.00">Subtract_145</text>
</g>
<!-- node8&#45;&gt;node10 -->
<g id="edge12" class="edge">
<title>node8&#45;&gt;node10</title>
<path fill="none" stroke="black" d="M222.57,-216.05C231.46,-207.28 242.47,-196.43 252.21,-186.83"/>
<polygon fill="black" stroke="black" points="254.69,-189.3 259.35,-179.79 249.77,-184.32 254.69,-189.3"/>
</g>
<!-- node11 -->
<g id="node12" class="node">
<title>node11</title>
<ellipse fill="none" stroke="black" cx="205.38" cy="-90" rx="196.87" ry="18"/>
<text text-anchor="middle" x="205.38" y="-86.3" font-family="Times,serif" font-size="14.00">WEIGHTED_ROUND_ROBIN_Joiner_150</text>
</g>
<!-- node9&#45;&gt;node11 -->
<g id="edge13" class="edge">
<title>node9&#45;&gt;node11</title>
<path fill="none" stroke="black" d="M150.85,-144.76C159.73,-136.01 170.86,-125.03 180.75,-115.28"/>
<polygon fill="black" stroke="black" points="183.35,-117.64 188.01,-108.12 178.43,-112.65 183.35,-117.64"/>
</g>
<!-- node10&#45;&gt;node11 -->
<g id="edge14" class="edge">
<title>node10&#45;&gt;node11</title>
<path fill="none" stroke="black" d="M259.56,-144.41C250.67,-135.65 239.6,-124.73 229.78,-115.06"/>
<polygon fill="black" stroke="black" points="232.16,-112.48 222.58,-107.96 227.24,-117.47 232.16,-112.48"/>
</g>
<!-- node12 -->
<g id="node13" class="node">
<title>node12</title>
<ellipse fill="none" stroke="black" cx="205.38" cy="-18" rx="89.88" ry="18"/>
<text text-anchor="middle" x="205.38" y="-14.3" font-family="Times,serif" font-size="14.00">FloatPrinter_146</text>
</g>
<!-- node11&#45;&gt;node12 -->
<g id="edge15" class="edge">
<title>node11&#45;&gt;node12</title>
<path fill="none" stroke="black" d="M205.38,-71.7C205.38,-63.98 205.38,-54.71 205.38,-46.11"/>
<polygon fill="black" stroke="black" points="208.88,-46.1 205.38,-36.1 201.88,-46.1 208.88,-46.1"/>
</g>
</g>
</svg>
