<?xml version="1.0" encoding="UTF-8" standalone="no"?>
<!DOCTYPE svg PUBLIC "-//W3C//DTD SVG 1.1//EN"
 "http://www.w3.org/Graphics/SVG/1.1/DTD/svg11.dtd">
<!-- Generated by graphviz version 2.43.0 (0)
 -->
<!-- Title: FFT2_73 Pages: 1 -->
<svg width="486pt" height="1052pt"
 viewBox="0.00 0.00 486.08 1052.00" xmlns="http://www.w3.org/2000/svg" xmlns:xlink="http://www.w3.org/1999/xlink">
<g id="graph0" class="graph" transform="scale(1 1) rotate(0) translate(4 1048)">
<title>FFT2_73</title>
<polygon fill="white" stroke="transparent" points="-4,4 -4,-1048 482.08,-1048 482.08,4 -4,4"/>
<!-- node0 -->
<g id="node1" class="node">
<title>node0</title>
<ellipse fill="none" stroke="black" cx="239.04" cy="-1026" rx="97.48" ry="18"/>
<text text-anchor="middle" x="239.04" y="-1022.3" font-family="Times,serif" font-size="14.00">FFTTestSource_41</text>
</g>
<!-- node1 -->
<g id="node2" class="node">
<title>node1</title>
<ellipse fill="none" stroke="black" cx="239.04" cy="-954" rx="199.56" ry="18"/>
<text text-anchor="middle" x="239.04" y="-950.3" font-family="Times,serif" font-size="14.00">WEIGHTED_ROUND_ROBIN_Splitter_65</text>
</g>
<!-- node0&#45;&gt;node1 -->
<g id="edge1" class="edge">
<title>node0&#45;&gt;node1</title>
<path fill="none" stroke="black" d="M239.04,-1007.7C239.04,-999.98 239.04,-990.71 239.04,-982.11"/>
<polygon fill="black" stroke="black" points="242.54,-982.1 239.04,-972.1 235.54,-982.1 242.54,-982.1"/>
</g>
<!-- node2 -->
<g id="node3" class="node">
<title>node2</title>
<ellipse fill="none" stroke="black" cx="115.04" cy="-882" rx="115.08" ry="18"/>
<text text-anchor="middle" x="115.04" y="-878.3" font-family="Times,serif" font-size="14.00">FFTReorderSimple_42</text>
</g>
<!-- node1&#45;&gt;node2 -->
<g id="edge2" class="edge">
<title>node1&#45;&gt;node2</title>
<path fill="none" stroke="black" d="M209.02,-936.05C192.3,-926.61 171.3,-914.76 153.39,-904.65"/>
<polygon fill="black" stroke="black" points="154.78,-901.42 144.35,-899.55 151.34,-907.51 154.78,-901.42"/>
</g>
<!-- node13 -->
<g id="node14" class="node">
<title>node13</title>
<ellipse fill="none" stroke="black" cx="363.04" cy="-882" rx="115.08" ry="18"/>
<text text-anchor="middle" x="363.04" y="-878.3" font-family="Times,serif" font-size="14.00">FFTReorderSimple_53</text>
</g>
<!-- node1&#45;&gt;node13 -->
<g id="edge13" class="edge">
<title>node1&#45;&gt;node13</title>
<path fill="none" stroke="black" d="M269.06,-936.05C285.78,-926.61 306.78,-914.76 324.69,-904.65"/>
<polygon fill="black" stroke="black" points="326.74,-907.51 333.73,-899.55 323.3,-901.42 326.74,-907.51"/>
</g>
<!-- node3 -->
<g id="node4" class="node">
<title>node3</title>
<ellipse fill="none" stroke="black" cx="115.04" cy="-810" rx="115.08" ry="18"/>
<text text-anchor="middle" x="115.04" y="-806.3" font-family="Times,serif" font-size="14.00">FFTReorderSimple_43</text>
</g>
<!-- node2&#45;&gt;node3 -->
<g id="edge3" class="edge">
<title>node2&#45;&gt;node3</title>
<path fill="none" stroke="black" d="M115.04,-863.7C115.04,-855.98 115.04,-846.71 115.04,-838.11"/>
<polygon fill="black" stroke="black" points="118.54,-838.1 115.04,-828.1 111.54,-838.1 118.54,-838.1"/>
</g>
<!-- node4 -->
<g id="node5" class="node">
<title>node4</title>
<ellipse fill="none" stroke="black" cx="115.04" cy="-738" rx="115.08" ry="18"/>
<text text-anchor="middle" x="115.04" y="-734.3" font-family="Times,serif" font-size="14.00">FFTReorderSimple_44</text>
</g>
<!-- node3&#45;&gt;node4 -->
<g id="edge4" class="edge">
<title>node3&#45;&gt;node4</title>
<path fill="none" stroke="black" d="M115.04,-791.7C115.04,-783.98 115.04,-774.71 115.04,-766.11"/>
<polygon fill="black" stroke="black" points="118.54,-766.1 115.04,-756.1 111.54,-766.1 118.54,-766.1"/>
</g>
<!-- node5 -->
<g id="node6" class="node">
<title>node5</title>
<ellipse fill="none" stroke="black" cx="115.04" cy="-666" rx="115.08" ry="18"/>
<text text-anchor="middle" x="115.04" y="-662.3" font-family="Times,serif" font-size="14.00">FFTReorderSimple_45</text>
</g>
<!-- node4&#45;&gt;node5 -->
<g id="edge5" class="edge">
<title>node4&#45;&gt;node5</title>
<path fill="none" stroke="black" d="M115.04,-719.7C115.04,-711.98 115.04,-702.71 115.04,-694.11"/>
<polygon fill="black" stroke="black" points="118.54,-694.1 115.04,-684.1 111.54,-694.1 118.54,-694.1"/>
</g>
<!-- node6 -->
<g id="node7" class="node">
<title>node6</title>
<ellipse fill="none" stroke="black" cx="115.04" cy="-594" rx="115.08" ry="18"/>
<text text-anchor="middle" x="115.04" y="-590.3" font-family="Times,serif" font-size="14.00">FFTReorderSimple_46</text>
</g>
<!-- node5&#45;&gt;node6 -->
<g id="edge6" class="edge">
<title>node5&#45;&gt;node6</title>
<path fill="none" stroke="black" d="M115.04,-647.7C115.04,-639.98 115.04,-630.71 115.04,-622.11"/>
<polygon fill="black" stroke="black" points="118.54,-622.1 115.04,-612.1 111.54,-622.1 118.54,-622.1"/>
</g>
<!-- node7 -->
<g id="node8" class="node">
<title>node7</title>
<ellipse fill="none" stroke="black" cx="143.04" cy="-522" rx="87.18" ry="18"/>
<text text-anchor="middle" x="143.04" y="-518.3" font-family="Times,serif" font-size="14.00">CombineDFT_47</text>
</g>
<!-- node6&#45;&gt;node7 -->
<g id="edge7" class="edge">
<title>node6&#45;&gt;node7</title>
<path fill="none" stroke="black" d="M121.96,-575.7C125.11,-567.81 128.92,-558.3 132.42,-549.55"/>
<polygon fill="black" stroke="black" points="135.73,-550.69 136.2,-540.1 129.23,-548.09 135.73,-550.69"/>
</g>
<!-- node8 -->
<g id="node9" class="node">
<title>node8</title>
<ellipse fill="none" stroke="black" cx="157.04" cy="-450" rx="87.18" ry="18"/>
<text text-anchor="middle" x="157.04" y="-446.3" font-family="Times,serif" font-size="14.00">CombineDFT_48</text>
</g>
<!-- node7&#45;&gt;node8 -->
<g id="edge8" class="edge">
<title>node7&#45;&gt;node8</title>
<path fill="none" stroke="black" d="M146.5,-503.7C148.04,-495.98 149.9,-486.71 151.62,-478.11"/>
<polygon fill="black" stroke="black" points="155.09,-478.6 153.62,-468.1 148.23,-477.22 155.09,-478.6"/>
</g>
<!-- node9 -->
<g id="node10" class="node">
<title>node9</title>
<ellipse fill="none" stroke="black" cx="164.04" cy="-378" rx="87.18" ry="18"/>
<text text-anchor="middle" x="164.04" y="-374.3" font-family="Times,serif" font-size="14.00">CombineDFT_49</text>
</g>
<!-- node8&#45;&gt;node9 -->
<g id="edge9" class="edge">
<title>node8&#45;&gt;node9</title>
<path fill="none" stroke="black" d="M158.77,-431.7C159.54,-423.98 160.47,-414.71 161.33,-406.11"/>
<polygon fill="black" stroke="black" points="164.82,-406.4 162.33,-396.1 157.85,-405.71 164.82,-406.4"/>
</g>
<!-- node10 -->
<g id="node11" class="node">
<title>node10</title>
<ellipse fill="none" stroke="black" cx="167.04" cy="-306" rx="87.18" ry="18"/>
<text text-anchor="middle" x="167.04" y="-302.3" font-family="Times,serif" font-size="14.00">CombineDFT_50</text>
</g>
<!-- node9&#45;&gt;node10 -->
<g id="edge10" class="edge">
<title>node9&#45;&gt;node10</title>
<path fill="none" stroke="black" d="M164.78,-359.7C165.11,-351.98 165.51,-342.71 165.88,-334.11"/>
<polygon fill="black" stroke="black" points="169.38,-334.25 166.31,-324.1 162.38,-333.95 169.38,-334.25"/>
</g>
<!-- node11 -->
<g id="node12" class="node">
<title>node11</title>
<ellipse fill="none" stroke="black" cx="169.04" cy="-234" rx="87.18" ry="18"/>
<text text-anchor="middle" x="169.04" y="-230.3" font-family="Times,serif" font-size="14.00">CombineDFT_51</text>
</g>
<!-- node10&#45;&gt;node11 -->
<g id="edge11" class="edge">
<title>node10&#45;&gt;node11</title>
<path fill="none" stroke="black" d="M167.53,-287.7C167.75,-279.98 168.02,-270.71 168.27,-262.11"/>
<polygon fill="black" stroke="black" points="171.76,-262.2 168.55,-252.1 164.77,-262 171.76,-262.2"/>
</g>
<!-- node12 -->
<g id="node13" class="node">
<title>node12</title>
<ellipse fill="none" stroke="black" cx="170.04" cy="-162" rx="87.18" ry="18"/>
<text text-anchor="middle" x="170.04" y="-158.3" font-family="Times,serif" font-size="14.00">CombineDFT_52</text>
</g>
<!-- node11&#45;&gt;node12 -->
<g id="edge12" class="edge">
<title>node11&#45;&gt;node12</title>
<path fill="none" stroke="black" d="M169.29,-215.7C169.4,-207.98 169.53,-198.71 169.65,-190.11"/>
<polygon fill="black" stroke="black" points="173.15,-190.15 169.8,-180.1 166.15,-190.05 173.15,-190.15"/>
</g>
<!-- node24 -->
<g id="node25" class="node">
<title>node24</title>
<ellipse fill="none" stroke="black" cx="266.04" cy="-90" rx="191.17" ry="18"/>
<text text-anchor="middle" x="266.04" y="-86.3" font-family="Times,serif" font-size="14.00">WEIGHTED_ROUND_ROBIN_Joiner_66</text>
</g>
<!-- node12&#45;&gt;node24 -->
<g id="edge24" class="edge">
<title>node12&#45;&gt;node24</title>
<path fill="none" stroke="black" d="M192.79,-144.41C205.28,-135.3 220.96,-123.87 234.6,-113.92"/>
<polygon fill="black" stroke="black" points="236.77,-116.68 242.79,-107.96 232.64,-111.02 236.77,-116.68"/>
</g>
<!-- node14 -->
<g id="node15" class="node">
<title>node14</title>
<ellipse fill="none" stroke="black" cx="363.04" cy="-810" rx="115.08" ry="18"/>
<text text-anchor="middle" x="363.04" y="-806.3" font-family="Times,serif" font-size="14.00">FFTReorderSimple_54</text>
</g>
<!-- node13&#45;&gt;node14 -->
<g id="edge14" class="edge">
<title>node13&#45;&gt;node14</title>
<path fill="none" stroke="black" d="M363.04,-863.7C363.04,-855.98 363.04,-846.71 363.04,-838.11"/>
<polygon fill="black" stroke="black" points="366.54,-838.1 363.04,-828.1 359.54,-838.1 366.54,-838.1"/>
</g>
<!-- node15 -->
<g id="node16" class="node">
<title>node15</title>
<ellipse fill="none" stroke="black" cx="363.04" cy="-738" rx="115.08" ry="18"/>
<text text-anchor="middle" x="363.04" y="-734.3" font-family="Times,serif" font-size="14.00">FFTReorderSimple_55</text>
</g>
<!-- node14&#45;&gt;node15 -->
<g id="edge15" class="edge">
<title>node14&#45;&gt;node15</title>
<path fill="none" stroke="black" d="M363.04,-791.7C363.04,-783.98 363.04,-774.71 363.04,-766.11"/>
<polygon fill="black" stroke="black" points="366.54,-766.1 363.04,-756.1 359.54,-766.1 366.54,-766.1"/>
</g>
<!-- node16 -->
<g id="node17" class="node">
<title>node16</title>
<ellipse fill="none" stroke="black" cx="363.04" cy="-666" rx="115.08" ry="18"/>
<text text-anchor="middle" x="363.04" y="-662.3" font-family="Times,serif" font-size="14.00">FFTReorderSimple_56</text>
</g>
<!-- node15&#45;&gt;node16 -->
<g id="edge16" class="edge">
<title>node15&#45;&gt;node16</title>
<path fill="none" stroke="black" d="M363.04,-719.7C363.04,-711.98 363.04,-702.71 363.04,-694.11"/>
<polygon fill="black" stroke="black" points="366.54,-694.1 363.04,-684.1 359.54,-694.1 366.54,-694.1"/>
</g>
<!-- node17 -->
<g id="node18" class="node">
<title>node17</title>
<ellipse fill="none" stroke="black" cx="363.04" cy="-594" rx="115.08" ry="18"/>
<text text-anchor="middle" x="363.04" y="-590.3" font-family="Times,serif" font-size="14.00">FFTReorderSimple_57</text>
</g>
<!-- node16&#45;&gt;node17 -->
<g id="edge17" class="edge">
<title>node16&#45;&gt;node17</title>
<path fill="none" stroke="black" d="M363.04,-647.7C363.04,-639.98 363.04,-630.71 363.04,-622.11"/>
<polygon fill="black" stroke="black" points="366.54,-622.1 363.04,-612.1 359.54,-622.1 366.54,-622.1"/>
</g>
<!-- node18 -->
<g id="node19" class="node">
<title>node18</title>
<ellipse fill="none" stroke="black" cx="362.04" cy="-522" rx="87.18" ry="18"/>
<text text-anchor="middle" x="362.04" y="-518.3" font-family="Times,serif" font-size="14.00">CombineDFT_58</text>
</g>
<!-- node17&#45;&gt;node18 -->
<g id="edge18" class="edge">
<title>node17&#45;&gt;node18</title>
<path fill="none" stroke="black" d="M362.79,-575.7C362.68,-567.98 362.55,-558.71 362.43,-550.11"/>
<polygon fill="black" stroke="black" points="365.93,-550.05 362.28,-540.1 358.93,-550.15 365.93,-550.05"/>
</g>
<!-- node19 -->
<g id="node20" class="node">
<title>node19</title>
<ellipse fill="none" stroke="black" cx="362.04" cy="-450" rx="87.18" ry="18"/>
<text text-anchor="middle" x="362.04" y="-446.3" font-family="Times,serif" font-size="14.00">CombineDFT_59</text>
</g>
<!-- node18&#45;&gt;node19 -->
<g id="edge19" class="edge">
<title>node18&#45;&gt;node19</title>
<path fill="none" stroke="black" d="M362.04,-503.7C362.04,-495.98 362.04,-486.71 362.04,-478.11"/>
<polygon fill="black" stroke="black" points="365.54,-478.1 362.04,-468.1 358.54,-478.1 365.54,-478.1"/>
</g>
<!-- node20 -->
<g id="node21" class="node">
<title>node20</title>
<ellipse fill="none" stroke="black" cx="362.04" cy="-378" rx="87.18" ry="18"/>
<text text-anchor="middle" x="362.04" y="-374.3" font-family="Times,serif" font-size="14.00">CombineDFT_60</text>
</g>
<!-- node19&#45;&gt;node20 -->
<g id="edge20" class="edge">
<title>node19&#45;&gt;node20</title>
<path fill="none" stroke="black" d="M362.04,-431.7C362.04,-423.98 362.04,-414.71 362.04,-406.11"/>
<polygon fill="black" stroke="black" points="365.54,-406.1 362.04,-396.1 358.54,-406.1 365.54,-406.1"/>
</g>
<!-- node21 -->
<g id="node22" class="node">
<title>node21</title>
<ellipse fill="none" stroke="black" cx="362.04" cy="-306" rx="87.18" ry="18"/>
<text text-anchor="middle" x="362.04" y="-302.3" font-family="Times,serif" font-size="14.00">CombineDFT_61</text>
</g>
<!-- node20&#45;&gt;node21 -->
<g id="edge21" class="edge">
<title>node20&#45;&gt;node21</title>
<path fill="none" stroke="black" d="M362.04,-359.7C362.04,-351.98 362.04,-342.71 362.04,-334.11"/>
<polygon fill="black" stroke="black" points="365.54,-334.1 362.04,-324.1 358.54,-334.1 365.54,-334.1"/>
</g>
<!-- node22 -->
<g id="node23" class="node">
<title>node22</title>
<ellipse fill="none" stroke="black" cx="362.04" cy="-234" rx="87.18" ry="18"/>
<text text-anchor="middle" x="362.04" y="-230.3" font-family="Times,serif" font-size="14.00">CombineDFT_62</text>
</g>
<!-- node21&#45;&gt;node22 -->
<g id="edge22" class="edge">
<title>node21&#45;&gt;node22</title>
<path fill="none" stroke="black" d="M362.04,-287.7C362.04,-279.98 362.04,-270.71 362.04,-262.11"/>
<polygon fill="black" stroke="black" points="365.54,-262.1 362.04,-252.1 358.54,-262.1 365.54,-262.1"/>
</g>
<!-- node23 -->
<g id="node24" class="node">
<title>node23</title>
<ellipse fill="none" stroke="black" cx="362.04" cy="-162" rx="87.18" ry="18"/>
<text text-anchor="middle" x="362.04" y="-158.3" font-family="Times,serif" font-size="14.00">CombineDFT_63</text>
</g>
<!-- node22&#45;&gt;node23 -->
<g id="edge23" class="edge">
<title>node22&#45;&gt;node23</title>
<path fill="none" stroke="black" d="M362.04,-215.7C362.04,-207.98 362.04,-198.71 362.04,-190.11"/>
<polygon fill="black" stroke="black" points="365.54,-190.1 362.04,-180.1 358.54,-190.1 365.54,-190.1"/>
</g>
<!-- node23&#45;&gt;node24 -->
<g id="edge25" class="edge">
<title>node23&#45;&gt;node24</title>
<path fill="none" stroke="black" d="M339.29,-144.41C326.8,-135.3 311.12,-123.87 297.48,-113.92"/>
<polygon fill="black" stroke="black" points="299.44,-111.02 289.29,-107.96 295.31,-116.68 299.44,-111.02"/>
</g>
<!-- node25 -->
<g id="node26" class="node">
<title>node25</title>
<ellipse fill="none" stroke="black" cx="266.04" cy="-18" rx="83.69" ry="18"/>
<text text-anchor="middle" x="266.04" y="-14.3" font-family="Times,serif" font-size="14.00">FloatPrinter_64</text>
</g>
<!-- node24&#45;&gt;node25 -->
<g id="edge26" class="edge">
<title>node24&#45;&gt;node25</title>
<path fill="none" stroke="black" d="M266.04,-71.7C266.04,-63.98 266.04,-54.71 266.04,-46.11"/>
<polygon fill="black" stroke="black" points="269.54,-46.1 266.04,-36.1 262.54,-46.1 269.54,-46.1"/>
</g>
</g>
</svg>
