<?xml version="1.0" encoding="UTF-8" standalone="no"?>
<!DOCTYPE svg PUBLIC "-//W3C//DTD SVG 1.1//EN"
 "http://www.w3.org/Graphics/SVG/1.1/DTD/svg11.dtd">
<!-- Generated by graphviz version 2.43.0 (0)
 -->
<!-- Title: FFT4_92 Pages: 1 -->
<svg width="407pt" height="548pt"
 viewBox="0.00 0.00 407.06 548.00" xmlns="http://www.w3.org/2000/svg" xmlns:xlink="http://www.w3.org/1999/xlink">
<g id="graph0" class="graph" transform="scale(1 1) rotate(0) translate(4 544)">
<title>FFT4_92</title>
<polygon fill="white" stroke="transparent" points="-4,4 -4,-544 403.06,-544 403.06,4 -4,4"/>
<!-- node0 -->
<g id="node1" class="node">
<title>node0</title>
<ellipse fill="none" stroke="black" cx="199.53" cy="-522" rx="77.19" ry="18"/>
<text text-anchor="middle" x="199.53" y="-518.3" font-family="Times,serif" font-size="14.00">OneSource_67</text>
</g>
<!-- node1 -->
<g id="node2" class="node">
<title>node1</title>
<ellipse fill="none" stroke="black" cx="199.53" cy="-450" rx="199.56" ry="18"/>
<text text-anchor="middle" x="199.53" y="-446.3" font-family="Times,serif" font-size="14.00">WEIGHTED_ROUND_ROBIN_Splitter_76</text>
</g>
<!-- node0&#45;&gt;node1 -->
<g id="edge1" class="edge">
<title>node0&#45;&gt;node1</title>
<path fill="none" stroke="black" d="M199.53,-503.7C199.53,-495.98 199.53,-486.71 199.53,-478.11"/>
<polygon fill="black" stroke="black" points="203.03,-478.1 199.53,-468.1 196.03,-478.1 203.03,-478.1"/>
</g>
<!-- node2 -->
<g id="node3" class="node">
<title>node2</title>
<ellipse fill="none" stroke="black" cx="126.53" cy="-378" rx="63.89" ry="18"/>
<text text-anchor="middle" x="126.53" y="-374.3" font-family="Times,serif" font-size="14.00">Identity_70</text>
</g>
<!-- node1&#45;&gt;node2 -->
<g id="edge2" class="edge">
<title>node1&#45;&gt;node2</title>
<path fill="none" stroke="black" d="M181.86,-432.05C172.71,-423.28 161.4,-412.43 151.38,-402.83"/>
<polygon fill="black" stroke="black" points="153.68,-400.18 144.04,-395.79 148.84,-405.24 153.68,-400.18"/>
</g>
<!-- node3 -->
<g id="node4" class="node">
<title>node3</title>
<ellipse fill="none" stroke="black" cx="273.53" cy="-378" rx="65.79" ry="18"/>
<text text-anchor="middle" x="273.53" y="-374.3" font-family="Times,serif" font-size="14.00">Multiply_71</text>
</g>
<!-- node1&#45;&gt;node3 -->
<g id="edge3" class="edge">
<title>node1&#45;&gt;node3</title>
<path fill="none" stroke="black" d="M217.45,-432.05C226.79,-423.22 238.36,-412.27 248.56,-402.62"/>
<polygon fill="black" stroke="black" points="251.18,-404.96 256.04,-395.55 246.37,-399.88 251.18,-404.96"/>
</g>
<!-- node4 -->
<g id="node5" class="node">
<title>node4</title>
<ellipse fill="none" stroke="black" cx="199.53" cy="-306" rx="191.17" ry="18"/>
<text text-anchor="middle" x="199.53" y="-302.3" font-family="Times,serif" font-size="14.00">WEIGHTED_ROUND_ROBIN_Joiner_77</text>
</g>
<!-- node2&#45;&gt;node4 -->
<g id="edge4" class="edge">
<title>node2&#45;&gt;node4</title>
<path fill="none" stroke="black" d="M143.83,-360.41C152.97,-351.65 164.35,-340.73 174.44,-331.06"/>
<polygon fill="black" stroke="black" points="177.05,-333.4 181.85,-323.96 172.21,-328.35 177.05,-333.4"/>
</g>
<!-- node3&#45;&gt;node4 -->
<g id="edge5" class="edge">
<title>node3&#45;&gt;node4</title>
<path fill="none" stroke="black" d="M256,-360.41C246.73,-351.65 235.19,-340.73 224.96,-331.06"/>
<polygon fill="black" stroke="black" points="227.13,-328.29 217.46,-323.96 222.32,-333.37 227.13,-328.29"/>
</g>
<!-- node5 -->
<g id="node6" class="node">
<title>node5</title>
<ellipse fill="none" stroke="black" cx="199.53" cy="-234" rx="123.48" ry="18"/>
<text text-anchor="middle" x="199.53" y="-230.3" font-family="Times,serif" font-size="14.00">DUPLICATE_Splitter_78</text>
</g>
<!-- node4&#45;&gt;node5 -->
<g id="edge6" class="edge">
<title>node4&#45;&gt;node5</title>
<path fill="none" stroke="black" d="M199.53,-287.7C199.53,-279.98 199.53,-270.71 199.53,-262.11"/>
<polygon fill="black" stroke="black" points="203.03,-262.1 199.53,-252.1 196.03,-262.1 203.03,-262.1"/>
</g>
<!-- node6 -->
<g id="node7" class="node">
<title>node6</title>
<ellipse fill="none" stroke="black" cx="134.53" cy="-162" rx="44.69" ry="18"/>
<text text-anchor="middle" x="134.53" y="-158.3" font-family="Times,serif" font-size="14.00">Add_73</text>
</g>
<!-- node5&#45;&gt;node6 -->
<g id="edge7" class="edge">
<title>node5&#45;&gt;node6</title>
<path fill="none" stroke="black" d="M183.8,-216.05C175.62,-207.24 165.48,-196.33 156.53,-186.69"/>
<polygon fill="black" stroke="black" points="159.04,-184.25 149.67,-179.31 153.91,-189.02 159.04,-184.25"/>
</g>
<!-- node7 -->
<g id="node8" class="node">
<title>node7</title>
<ellipse fill="none" stroke="black" cx="264.53" cy="-162" rx="67.69" ry="18"/>
<text text-anchor="middle" x="264.53" y="-158.3" font-family="Times,serif" font-size="14.00">Subtract_74</text>
</g>
<!-- node5&#45;&gt;node7 -->
<g id="edge8" class="edge">
<title>node5&#45;&gt;node7</title>
<path fill="none" stroke="black" d="M215.27,-216.05C223.25,-207.46 233.09,-196.86 241.88,-187.4"/>
<polygon fill="black" stroke="black" points="244.7,-189.5 248.94,-179.79 239.57,-184.74 244.7,-189.5"/>
</g>
<!-- node8 -->
<g id="node9" class="node">
<title>node8</title>
<ellipse fill="none" stroke="black" cx="199.53" cy="-90" rx="191.17" ry="18"/>
<text text-anchor="middle" x="199.53" y="-86.3" font-family="Times,serif" font-size="14.00">WEIGHTED_ROUND_ROBIN_Joiner_79</text>
</g>
<!-- node6&#45;&gt;node8 -->
<g id="edge9" class="edge">
<title>node6&#45;&gt;node8</title>
<path fill="none" stroke="black" d="M149.61,-144.76C157.66,-136.1 167.73,-125.25 176.72,-115.57"/>
<polygon fill="black" stroke="black" points="179.39,-117.83 183.63,-108.12 174.26,-113.07 179.39,-117.83"/>
</g>
<!-- node7&#45;&gt;node8 -->
<g id="edge10" class="edge">
<title>node7&#45;&gt;node8</title>
<path fill="none" stroke="black" d="M249.13,-144.41C241.07,-135.73 231.05,-124.95 222.14,-115.34"/>
<polygon fill="black" stroke="black" points="224.65,-112.9 215.28,-107.96 219.52,-117.67 224.65,-112.9"/>
</g>
<!-- node9 -->
<g id="node10" class="node">
<title>node9</title>
<ellipse fill="none" stroke="black" cx="199.53" cy="-18" rx="83.69" ry="18"/>
<text text-anchor="middle" x="199.53" y="-14.3" font-family="Times,serif" font-size="14.00">FloatPrinter_75</text>
</g>
<!-- node8&#45;&gt;node9 -->
<g id="edge11" class="edge">
<title>node8&#45;&gt;node9</title>
<path fill="none" stroke="black" d="M199.53,-71.7C199.53,-63.98 199.53,-54.71 199.53,-46.11"/>
<polygon fill="black" stroke="black" points="203.03,-46.1 199.53,-36.1 196.03,-46.1 203.03,-46.1"/>
</g>
</g>
</svg>
