<?xml version="1.0" encoding="UTF-8" standalone="no"?>
<!DOCTYPE svg PUBLIC "-//W3C//DTD SVG 1.1//EN"
 "http://www.w3.org/Graphics/SVG/1.1/DTD/svg11.dtd">
<!-- Generated by graphviz version 2.43.0 (0)
 -->
<!-- Title: FFT6_35 Pages: 1 -->
<svg width="238pt" height="908pt"
 viewBox="0.00 0.00 238.08 908.00" xmlns="http://www.w3.org/2000/svg" xmlns:xlink="http://www.w3.org/1999/xlink">
<g id="graph0" class="graph" transform="scale(1 1) rotate(0) translate(4 904)">
<title>FFT6_35</title>
<polygon fill="white" stroke="transparent" points="-4,4 -4,-904 234.08,-904 234.08,4 -4,4"/>
<!-- node0 -->
<g id="node1" class="node">
<title>node0</title>
<ellipse fill="none" stroke="black" cx="115.04" cy="-882" rx="97.48" ry="18"/>
<text text-anchor="middle" x="115.04" y="-878.3" font-family="Times,serif" font-size="14.00">FFTTestSource_22</text>
</g>
<!-- node1 -->
<g id="node2" class="node">
<title>node1</title>
<ellipse fill="none" stroke="black" cx="115.04" cy="-810" rx="115.08" ry="18"/>
<text text-anchor="middle" x="115.04" y="-806.3" font-family="Times,serif" font-size="14.00">FFTReorderSimple_23</text>
</g>
<!-- node0&#45;&gt;node1 -->
<g id="edge1" class="edge">
<title>node0&#45;&gt;node1</title>
<path fill="none" stroke="black" d="M115.04,-863.7C115.04,-855.98 115.04,-846.71 115.04,-838.11"/>
<polygon fill="black" stroke="black" points="118.54,-838.1 115.04,-828.1 111.54,-838.1 118.54,-838.1"/>
</g>
<!-- node2 -->
<g id="node3" class="node">
<title>node2</title>
<ellipse fill="none" stroke="black" cx="115.04" cy="-738" rx="115.08" ry="18"/>
<text text-anchor="middle" x="115.04" y="-734.3" font-family="Times,serif" font-size="14.00">FFTReorderSimple_24</text>
</g>
<!-- node1&#45;&gt;node2 -->
<g id="edge2" class="edge">
<title>node1&#45;&gt;node2</title>
<path fill="none" stroke="black" d="M115.04,-791.7C115.04,-783.98 115.04,-774.71 115.04,-766.11"/>
<polygon fill="black" stroke="black" points="118.54,-766.1 115.04,-756.1 111.54,-766.1 118.54,-766.1"/>
</g>
<!-- node3 -->
<g id="node4" class="node">
<title>node3</title>
<ellipse fill="none" stroke="black" cx="115.04" cy="-666" rx="115.08" ry="18"/>
<text text-anchor="middle" x="115.04" y="-662.3" font-family="Times,serif" font-size="14.00">FFTReorderSimple_25</text>
</g>
<!-- node2&#45;&gt;node3 -->
<g id="edge3" class="edge">
<title>node2&#45;&gt;node3</title>
<path fill="none" stroke="black" d="M115.04,-719.7C115.04,-711.98 115.04,-702.71 115.04,-694.11"/>
<polygon fill="black" stroke="black" points="118.54,-694.1 115.04,-684.1 111.54,-694.1 118.54,-694.1"/>
</g>
<!-- node4 -->
<g id="node5" class="node">
<title>node4</title>
<ellipse fill="none" stroke="black" cx="115.04" cy="-594" rx="115.08" ry="18"/>
<text text-anchor="middle" x="115.04" y="-590.3" font-family="Times,serif" font-size="14.00">FFTReorderSimple_26</text>
</g>
<!-- node3&#45;&gt;node4 -->
<g id="edge4" class="edge">
<title>node3&#45;&gt;node4</title>
<path fill="none" stroke="black" d="M115.04,-647.7C115.04,-639.98 115.04,-630.71 115.04,-622.11"/>
<polygon fill="black" stroke="black" points="118.54,-622.1 115.04,-612.1 111.54,-622.1 118.54,-622.1"/>
</g>
<!-- node5 -->
<g id="node6" class="node">
<title>node5</title>
<ellipse fill="none" stroke="black" cx="115.04" cy="-522" rx="115.08" ry="18"/>
<text text-anchor="middle" x="115.04" y="-518.3" font-family="Times,serif" font-size="14.00">FFTReorderSimple_27</text>
</g>
<!-- node4&#45;&gt;node5 -->
<g id="edge5" class="edge">
<title>node4&#45;&gt;node5</title>
<path fill="none" stroke="black" d="M115.04,-575.7C115.04,-567.98 115.04,-558.71 115.04,-550.11"/>
<polygon fill="black" stroke="black" points="118.54,-550.1 115.04,-540.1 111.54,-550.1 118.54,-550.1"/>
</g>
<!-- node6 -->
<g id="node7" class="node">
<title>node6</title>
<ellipse fill="none" stroke="black" cx="115.04" cy="-450" rx="87.18" ry="18"/>
<text text-anchor="middle" x="115.04" y="-446.3" font-family="Times,serif" font-size="14.00">CombineDFT_28</text>
</g>
<!-- node5&#45;&gt;node6 -->
<g id="edge6" class="edge">
<title>node5&#45;&gt;node6</title>
<path fill="none" stroke="black" d="M115.04,-503.7C115.04,-495.98 115.04,-486.71 115.04,-478.11"/>
<polygon fill="black" stroke="black" points="118.54,-478.1 115.04,-468.1 111.54,-478.1 118.54,-478.1"/>
</g>
<!-- node7 -->
<g id="node8" class="node">
<title>node7</title>
<ellipse fill="none" stroke="black" cx="115.04" cy="-378" rx="87.18" ry="18"/>
<text text-anchor="middle" x="115.04" y="-374.3" font-family="Times,serif" font-size="14.00">CombineDFT_29</text>
</g>
<!-- node6&#45;&gt;node7 -->
<g id="edge7" class="edge">
<title>node6&#45;&gt;node7</title>
<path fill="none" stroke="black" d="M115.04,-431.7C115.04,-423.98 115.04,-414.71 115.04,-406.11"/>
<polygon fill="black" stroke="black" points="118.54,-406.1 115.04,-396.1 111.54,-406.1 118.54,-406.1"/>
</g>
<!-- node8 -->
<g id="node9" class="node">
<title>node8</title>
<ellipse fill="none" stroke="black" cx="115.04" cy="-306" rx="87.18" ry="18"/>
<text text-anchor="middle" x="115.04" y="-302.3" font-family="Times,serif" font-size="14.00">CombineDFT_30</text>
</g>
<!-- node7&#45;&gt;node8 -->
<g id="edge8" class="edge">
<title>node7&#45;&gt;node8</title>
<path fill="none" stroke="black" d="M115.04,-359.7C115.04,-351.98 115.04,-342.71 115.04,-334.11"/>
<polygon fill="black" stroke="black" points="118.54,-334.1 115.04,-324.1 111.54,-334.1 118.54,-334.1"/>
</g>
<!-- node9 -->
<g id="node10" class="node">
<title>node9</title>
<ellipse fill="none" stroke="black" cx="115.04" cy="-234" rx="87.18" ry="18"/>
<text text-anchor="middle" x="115.04" y="-230.3" font-family="Times,serif" font-size="14.00">CombineDFT_31</text>
</g>
<!-- node8&#45;&gt;node9 -->
<g id="edge9" class="edge">
<title>node8&#45;&gt;node9</title>
<path fill="none" stroke="black" d="M115.04,-287.7C115.04,-279.98 115.04,-270.71 115.04,-262.11"/>
<polygon fill="black" stroke="black" points="118.54,-262.1 115.04,-252.1 111.54,-262.1 118.54,-262.1"/>
</g>
<!-- node10 -->
<g id="node11" class="node">
<title>node10</title>
<ellipse fill="none" stroke="black" cx="115.04" cy="-162" rx="87.18" ry="18"/>
<text text-anchor="middle" x="115.04" y="-158.3" font-family="Times,serif" font-size="14.00">CombineDFT_32</text>
</g>
<!-- node9&#45;&gt;node10 -->
<g id="edge10" class="edge">
<title>node9&#45;&gt;node10</title>
<path fill="none" stroke="black" d="M115.04,-215.7C115.04,-207.98 115.04,-198.71 115.04,-190.11"/>
<polygon fill="black" stroke="black" points="118.54,-190.1 115.04,-180.1 111.54,-190.1 118.54,-190.1"/>
</g>
<!-- node11 -->
<g id="node12" class="node">
<title>node11</title>
<ellipse fill="none" stroke="black" cx="115.04" cy="-90" rx="87.18" ry="18"/>
<text text-anchor="middle" x="115.04" y="-86.3" font-family="Times,serif" font-size="14.00">CombineDFT_33</text>
</g>
<!-- node10&#45;&gt;node11 -->
<g id="edge11" class="edge">
<title>node10&#45;&gt;node11</title>
<path fill="none" stroke="black" d="M115.04,-143.7C115.04,-135.98 115.04,-126.71 115.04,-118.11"/>
<polygon fill="black" stroke="black" points="118.54,-118.1 115.04,-108.1 111.54,-118.1 118.54,-118.1"/>
</g>
<!-- node12 -->
<g id="node13" class="node">
<title>node12</title>
<ellipse fill="none" stroke="black" cx="115.04" cy="-18" rx="66.89" ry="18"/>
<text text-anchor="middle" x="115.04" y="-14.3" font-family="Times,serif" font-size="14.00">CPrinter_34</text>
</g>
<!-- node11&#45;&gt;node12 -->
<g id="edge12" class="edge">
<title>node11&#45;&gt;node12</title>
<path fill="none" stroke="black" d="M115.04,-71.7C115.04,-63.98 115.04,-54.71 115.04,-46.11"/>
<polygon fill="black" stroke="black" points="118.54,-46.1 115.04,-36.1 111.54,-46.1 118.54,-46.1"/>
</g>
</g>
</svg>
