<?xml version="1.0" encoding="UTF-8" standalone="no"?>
<!DOCTYPE svg PUBLIC "-//W3C//DTD SVG 1.1//EN"
 "http://www.w3.org/Graphics/SVG/1.1/DTD/svg11.dtd">
<!-- Generated by graphviz version 2.43.0 (0)
 -->
<!-- Title: transmit_1099 Pages: 1 -->
<svg width="764pt" height="1988pt"
 viewBox="0.00 0.00 764.00 1988.00" xmlns="http://www.w3.org/2000/svg" xmlns:xlink="http://www.w3.org/1999/xlink">
<g id="graph0" class="graph" transform="scale(1 1) rotate(0) translate(4 1984)">
<title>transmit_1099</title>
<polygon fill="white" stroke="transparent" points="-4,4 -4,-1984 760,-1984 760,4 -4,4"/>
<!-- node0 -->
<g id="node1" class="node">
<title>node0</title>
<ellipse fill="none" stroke="black" cx="296" cy="-1962" rx="27" ry="18"/>
</g>
<!-- node1 -->
<g id="node2" class="node">
<title>node1</title>
<ellipse fill="none" stroke="black" cx="260" cy="-1890" rx="27" ry="18"/>
</g>
<!-- node0&#45;&gt;node1 -->
<g id="edge1" class="edge">
<title>node0&#45;&gt;node1</title>
<path fill="none" stroke="black" d="M287.65,-1944.76C283.29,-1936.28 277.85,-1925.71 272.96,-1916.2"/>
<polygon fill="black" stroke="black" points="275.99,-1914.44 268.3,-1907.15 269.77,-1917.64 275.99,-1914.44"/>
</g>
<!-- node30 -->
<g id="node3" class="node">
<title>node30</title>
<ellipse fill="none" stroke="black" cx="404" cy="-1890" rx="27" ry="18"/>
</g>
<!-- node0&#45;&gt;node30 -->
<g id="edge2" class="edge">
<title>node0&#45;&gt;node30</title>
<path fill="none" stroke="black" d="M314.81,-1948.81C332,-1937.67 357.62,-1921.06 376.99,-1908.5"/>
<polygon fill="black" stroke="black" points="378.92,-1911.43 385.4,-1903.05 375.11,-1905.56 378.92,-1911.43"/>
</g>
<!-- node2 -->
<g id="node4" class="node">
<title>node2</title>
<ellipse fill="none" stroke="black" cx="188" cy="-1818" rx="27" ry="18"/>
</g>
<!-- node1&#45;&gt;node2 -->
<g id="edge3" class="edge">
<title>node1&#45;&gt;node2</title>
<path fill="none" stroke="black" d="M245.43,-1874.83C235.25,-1864.94 221.48,-1851.55 209.97,-1840.36"/>
<polygon fill="black" stroke="black" points="212.41,-1837.85 202.8,-1833.38 207.53,-1842.87 212.41,-1837.85"/>
</g>
<!-- node3 -->
<g id="node5" class="node">
<title>node3</title>
<ellipse fill="none" stroke="black" cx="260" cy="-1818" rx="27" ry="18"/>
</g>
<!-- node1&#45;&gt;node3 -->
<g id="edge4" class="edge">
<title>node1&#45;&gt;node3</title>
<path fill="none" stroke="black" d="M260,-1871.7C260,-1863.98 260,-1854.71 260,-1846.11"/>
<polygon fill="black" stroke="black" points="263.5,-1846.1 260,-1836.1 256.5,-1846.1 263.5,-1846.1"/>
</g>
<!-- node32 -->
<g id="node6" class="node">
<title>node32</title>
<ellipse fill="none" stroke="black" cx="404" cy="-1818" rx="27" ry="18"/>
</g>
<!-- node30&#45;&gt;node32 -->
<g id="edge5" class="edge">
<title>node30&#45;&gt;node32</title>
<path fill="none" stroke="black" d="M404,-1871.7C404,-1863.98 404,-1854.71 404,-1846.11"/>
<polygon fill="black" stroke="black" points="407.5,-1846.1 404,-1836.1 400.5,-1846.1 407.5,-1846.1"/>
</g>
<!-- node50 -->
<g id="node7" class="node">
<title>node50</title>
<ellipse fill="none" stroke="black" cx="557" cy="-1818" rx="27" ry="18"/>
</g>
<!-- node30&#45;&gt;node50 -->
<g id="edge6" class="edge">
<title>node30&#45;&gt;node50</title>
<path fill="none" stroke="black" d="M425.6,-1879.12C451.76,-1867.15 496.03,-1846.89 525.88,-1833.24"/>
<polygon fill="black" stroke="black" points="527.38,-1836.4 535.02,-1829.06 524.47,-1830.03 527.38,-1836.4"/>
</g>
<!-- node4 -->
<g id="node8" class="node">
<title>node4</title>
<ellipse fill="none" stroke="black" cx="188" cy="-1746" rx="27" ry="18"/>
</g>
<!-- node2&#45;&gt;node4 -->
<g id="edge7" class="edge">
<title>node2&#45;&gt;node4</title>
<path fill="none" stroke="black" d="M188,-1799.7C188,-1791.98 188,-1782.71 188,-1774.11"/>
<polygon fill="black" stroke="black" points="191.5,-1774.1 188,-1764.1 184.5,-1774.1 191.5,-1774.1"/>
</g>
<!-- node3&#45;&gt;node4 -->
<g id="edge8" class="edge">
<title>node3&#45;&gt;node4</title>
<path fill="none" stroke="black" d="M245.43,-1802.83C235.25,-1792.94 221.48,-1779.55 209.97,-1768.36"/>
<polygon fill="black" stroke="black" points="212.41,-1765.85 202.8,-1761.38 207.53,-1770.87 212.41,-1765.85"/>
</g>
<!-- node39 -->
<g id="node27" class="node">
<title>node39</title>
<ellipse fill="none" stroke="black" cx="368" cy="-1746" rx="27" ry="18"/>
</g>
<!-- node32&#45;&gt;node39 -->
<g id="edge34" class="edge">
<title>node32&#45;&gt;node39</title>
<path fill="none" stroke="black" d="M395.65,-1800.76C391.29,-1792.28 385.85,-1781.71 380.96,-1772.2"/>
<polygon fill="black" stroke="black" points="383.99,-1770.44 376.3,-1763.15 377.77,-1773.64 383.99,-1770.44"/>
</g>
<!-- node40 -->
<g id="node28" class="node">
<title>node40</title>
<ellipse fill="none" stroke="black" cx="440" cy="-1746" rx="27" ry="18"/>
</g>
<!-- node32&#45;&gt;node40 -->
<g id="edge35" class="edge">
<title>node32&#45;&gt;node40</title>
<path fill="none" stroke="black" d="M412.35,-1800.76C416.71,-1792.28 422.15,-1781.71 427.04,-1772.2"/>
<polygon fill="black" stroke="black" points="430.23,-1773.64 431.7,-1763.15 424.01,-1770.44 430.23,-1773.64"/>
</g>
<!-- node51 -->
<g id="node29" class="node">
<title>node51</title>
<ellipse fill="none" stroke="black" cx="521" cy="-1746" rx="27" ry="18"/>
</g>
<!-- node50&#45;&gt;node51 -->
<g id="edge36" class="edge">
<title>node50&#45;&gt;node51</title>
<path fill="none" stroke="black" d="M548.65,-1800.76C544.29,-1792.28 538.85,-1781.71 533.96,-1772.2"/>
<polygon fill="black" stroke="black" points="536.99,-1770.44 529.3,-1763.15 530.77,-1773.64 536.99,-1770.44"/>
</g>
<!-- node52 -->
<g id="node30" class="node">
<title>node52</title>
<ellipse fill="none" stroke="black" cx="593" cy="-1746" rx="27" ry="18"/>
</g>
<!-- node50&#45;&gt;node52 -->
<g id="edge37" class="edge">
<title>node50&#45;&gt;node52</title>
<path fill="none" stroke="black" d="M565.35,-1800.76C569.71,-1792.28 575.15,-1781.71 580.04,-1772.2"/>
<polygon fill="black" stroke="black" points="583.23,-1773.64 584.7,-1763.15 577.01,-1770.44 583.23,-1773.64"/>
</g>
<!-- node53 -->
<g id="node31" class="node">
<title>node53</title>
<ellipse fill="none" stroke="black" cx="665" cy="-1746" rx="27" ry="18"/>
</g>
<!-- node50&#45;&gt;node53 -->
<g id="edge38" class="edge">
<title>node50&#45;&gt;node53</title>
<path fill="none" stroke="black" d="M575.81,-1804.81C593,-1793.67 618.62,-1777.06 637.99,-1764.5"/>
<polygon fill="black" stroke="black" points="639.92,-1767.43 646.4,-1759.05 636.11,-1761.56 639.92,-1767.43"/>
</g>
<!-- node14 -->
<g id="node9" class="node">
<title>node14</title>
<ellipse fill="none" stroke="black" cx="179" cy="-1674" rx="27" ry="18"/>
</g>
<!-- node4&#45;&gt;node14 -->
<g id="edge9" class="edge">
<title>node4&#45;&gt;node14</title>
<path fill="none" stroke="black" d="M185.82,-1728.05C184.83,-1720.35 183.63,-1711.03 182.52,-1702.36"/>
<polygon fill="black" stroke="black" points="185.97,-1701.75 181.22,-1692.28 179.02,-1702.64 185.97,-1701.75"/>
</g>
<!-- node16 -->
<g id="node10" class="node">
<title>node16</title>
<ellipse fill="none" stroke="black" cx="170" cy="-1602" rx="27" ry="18"/>
</g>
<!-- node14&#45;&gt;node16 -->
<g id="edge10" class="edge">
<title>node14&#45;&gt;node16</title>
<path fill="none" stroke="black" d="M176.82,-1656.05C175.83,-1648.35 174.63,-1639.03 173.52,-1630.36"/>
<polygon fill="black" stroke="black" points="176.97,-1629.75 172.22,-1620.28 170.02,-1630.64 176.97,-1629.75"/>
</g>
<!-- node17 -->
<g id="node11" class="node">
<title>node17</title>
<ellipse fill="none" stroke="black" cx="170" cy="-1530" rx="27" ry="18"/>
</g>
<!-- node16&#45;&gt;node17 -->
<g id="edge11" class="edge">
<title>node16&#45;&gt;node17</title>
<path fill="none" stroke="black" d="M170,-1583.7C170,-1575.98 170,-1566.71 170,-1558.11"/>
<polygon fill="black" stroke="black" points="173.5,-1558.1 170,-1548.1 166.5,-1558.1 173.5,-1558.1"/>
</g>
<!-- node18 -->
<g id="node12" class="node">
<title>node18</title>
<ellipse fill="none" stroke="black" cx="91" cy="-1458" rx="27" ry="18"/>
</g>
<!-- node17&#45;&gt;node18 -->
<g id="edge12" class="edge">
<title>node17&#45;&gt;node18</title>
<path fill="none" stroke="black" d="M154.39,-1515.17C142.92,-1505.01 127.15,-1491.03 114.21,-1479.56"/>
<polygon fill="black" stroke="black" points="116.38,-1476.81 106.58,-1472.8 111.74,-1482.05 116.38,-1476.81"/>
</g>
<!-- node19 -->
<g id="node13" class="node">
<title>node19</title>
<ellipse fill="none" stroke="black" cx="163" cy="-1458" rx="27" ry="18"/>
</g>
<!-- node17&#45;&gt;node19 -->
<g id="edge13" class="edge">
<title>node17&#45;&gt;node19</title>
<path fill="none" stroke="black" d="M168.27,-1511.7C167.5,-1503.98 166.57,-1494.71 165.71,-1486.11"/>
<polygon fill="black" stroke="black" points="169.19,-1485.71 164.71,-1476.1 162.22,-1486.4 169.19,-1485.71"/>
</g>
<!-- node20 -->
<g id="node14" class="node">
<title>node20</title>
<ellipse fill="none" stroke="black" cx="235" cy="-1458" rx="27" ry="18"/>
</g>
<!-- node17&#45;&gt;node20 -->
<g id="edge14" class="edge">
<title>node17&#45;&gt;node20</title>
<path fill="none" stroke="black" d="M183.78,-1514.15C192.66,-1504.6 204.36,-1491.99 214.34,-1481.25"/>
<polygon fill="black" stroke="black" points="217,-1483.53 221.24,-1473.82 211.87,-1478.77 217,-1483.53"/>
</g>
<!-- node21 -->
<g id="node15" class="node">
<title>node21</title>
<ellipse fill="none" stroke="black" cx="307" cy="-1458" rx="27" ry="18"/>
</g>
<!-- node17&#45;&gt;node21 -->
<g id="edge15" class="edge">
<title>node17&#45;&gt;node21</title>
<path fill="none" stroke="black" d="M190.81,-1518.37C213.74,-1506.65 250.83,-1487.7 276.93,-1474.37"/>
<polygon fill="black" stroke="black" points="278.68,-1477.4 286,-1469.73 275.5,-1471.16 278.68,-1477.4"/>
</g>
<!-- node22 -->
<g id="node16" class="node">
<title>node22</title>
<ellipse fill="none" stroke="black" cx="171" cy="-1386" rx="27" ry="18"/>
</g>
<!-- node18&#45;&gt;node22 -->
<g id="edge16" class="edge">
<title>node18&#45;&gt;node22</title>
<path fill="none" stroke="black" d="M106.81,-1443.17C118.42,-1433.01 134.39,-1419.03 147.5,-1407.56"/>
<polygon fill="black" stroke="black" points="150.01,-1410.02 155.23,-1400.8 145.4,-1404.75 150.01,-1410.02"/>
</g>
<!-- node19&#45;&gt;node22 -->
<g id="edge17" class="edge">
<title>node19&#45;&gt;node22</title>
<path fill="none" stroke="black" d="M164.98,-1439.7C165.86,-1431.98 166.92,-1422.71 167.9,-1414.11"/>
<polygon fill="black" stroke="black" points="171.39,-1414.44 169.05,-1404.1 164.43,-1413.64 171.39,-1414.44"/>
</g>
<!-- node20&#45;&gt;node22 -->
<g id="edge18" class="edge">
<title>node20&#45;&gt;node22</title>
<path fill="none" stroke="black" d="M221.43,-1442.15C212.69,-1432.6 201.17,-1419.99 191.34,-1409.25"/>
<polygon fill="black" stroke="black" points="193.88,-1406.84 184.55,-1401.82 188.72,-1411.57 193.88,-1406.84"/>
</g>
<!-- node21&#45;&gt;node22 -->
<g id="edge19" class="edge">
<title>node21&#45;&gt;node22</title>
<path fill="none" stroke="black" d="M286.34,-1446.37C263.58,-1434.65 226.76,-1415.7 200.85,-1402.37"/>
<polygon fill="black" stroke="black" points="202.34,-1399.2 191.85,-1397.73 199.14,-1405.42 202.34,-1399.2"/>
</g>
<!-- node24 -->
<g id="node17" class="node">
<title>node24</title>
<ellipse fill="none" stroke="black" cx="27" cy="-1314" rx="27" ry="18"/>
</g>
<!-- node22&#45;&gt;node24 -->
<g id="edge20" class="edge">
<title>node22&#45;&gt;node24</title>
<path fill="none" stroke="black" d="M149.75,-1374.67C125.4,-1362.83 85.28,-1343.33 57.57,-1329.86"/>
<polygon fill="black" stroke="black" points="58.86,-1326.6 48.33,-1325.37 55.8,-1332.89 58.86,-1326.6"/>
</g>
<!-- node25 -->
<g id="node18" class="node">
<title>node25</title>
<ellipse fill="none" stroke="black" cx="99" cy="-1314" rx="27" ry="18"/>
</g>
<!-- node22&#45;&gt;node25 -->
<g id="edge21" class="edge">
<title>node22&#45;&gt;node25</title>
<path fill="none" stroke="black" d="M156.43,-1370.83C146.25,-1360.94 132.48,-1347.55 120.97,-1336.36"/>
<polygon fill="black" stroke="black" points="123.41,-1333.85 113.8,-1329.38 118.53,-1338.87 123.41,-1333.85"/>
</g>
<!-- node26 -->
<g id="node19" class="node">
<title>node26</title>
<ellipse fill="none" stroke="black" cx="171" cy="-1314" rx="27" ry="18"/>
</g>
<!-- node22&#45;&gt;node26 -->
<g id="edge22" class="edge">
<title>node22&#45;&gt;node26</title>
<path fill="none" stroke="black" d="M171,-1367.7C171,-1359.98 171,-1350.71 171,-1342.11"/>
<polygon fill="black" stroke="black" points="174.5,-1342.1 171,-1332.1 167.5,-1342.1 174.5,-1342.1"/>
</g>
<!-- node27 -->
<g id="node20" class="node">
<title>node27</title>
<ellipse fill="none" stroke="black" cx="243" cy="-1314" rx="27" ry="18"/>
</g>
<!-- node22&#45;&gt;node27 -->
<g id="edge23" class="edge">
<title>node22&#45;&gt;node27</title>
<path fill="none" stroke="black" d="M185.57,-1370.83C195.75,-1360.94 209.52,-1347.55 221.03,-1336.36"/>
<polygon fill="black" stroke="black" points="223.47,-1338.87 228.2,-1329.38 218.59,-1333.85 223.47,-1338.87"/>
</g>
<!-- node28 -->
<g id="node21" class="node">
<title>node28</title>
<ellipse fill="none" stroke="black" cx="315" cy="-1314" rx="27" ry="18"/>
</g>
<!-- node22&#45;&gt;node28 -->
<g id="edge24" class="edge">
<title>node22&#45;&gt;node28</title>
<path fill="none" stroke="black" d="M192.25,-1374.67C216.6,-1362.83 256.72,-1343.33 284.43,-1329.86"/>
<polygon fill="black" stroke="black" points="286.2,-1332.89 293.67,-1325.37 283.14,-1326.6 286.2,-1332.89"/>
</g>
<!-- node29 -->
<g id="node22" class="node">
<title>node29</title>
<ellipse fill="none" stroke="black" cx="171" cy="-1242" rx="27" ry="18"/>
</g>
<!-- node24&#45;&gt;node29 -->
<g id="edge25" class="edge">
<title>node24&#45;&gt;node29</title>
<path fill="none" stroke="black" d="M48.25,-1302.67C72.6,-1290.83 112.72,-1271.33 140.43,-1257.86"/>
<polygon fill="black" stroke="black" points="142.2,-1260.89 149.67,-1253.37 139.14,-1254.6 142.2,-1260.89"/>
</g>
<!-- node25&#45;&gt;node29 -->
<g id="edge26" class="edge">
<title>node25&#45;&gt;node29</title>
<path fill="none" stroke="black" d="M113.57,-1298.83C123.75,-1288.94 137.52,-1275.55 149.03,-1264.36"/>
<polygon fill="black" stroke="black" points="151.47,-1266.87 156.2,-1257.38 146.59,-1261.85 151.47,-1266.87"/>
</g>
<!-- node26&#45;&gt;node29 -->
<g id="edge27" class="edge">
<title>node26&#45;&gt;node29</title>
<path fill="none" stroke="black" d="M171,-1295.7C171,-1287.98 171,-1278.71 171,-1270.11"/>
<polygon fill="black" stroke="black" points="174.5,-1270.1 171,-1260.1 167.5,-1270.1 174.5,-1270.1"/>
</g>
<!-- node27&#45;&gt;node29 -->
<g id="edge28" class="edge">
<title>node27&#45;&gt;node29</title>
<path fill="none" stroke="black" d="M228.43,-1298.83C218.25,-1288.94 204.48,-1275.55 192.97,-1264.36"/>
<polygon fill="black" stroke="black" points="195.41,-1261.85 185.8,-1257.38 190.53,-1266.87 195.41,-1261.85"/>
</g>
<!-- node28&#45;&gt;node29 -->
<g id="edge29" class="edge">
<title>node28&#45;&gt;node29</title>
<path fill="none" stroke="black" d="M293.75,-1302.67C269.4,-1290.83 229.28,-1271.33 201.57,-1257.86"/>
<polygon fill="black" stroke="black" points="202.86,-1254.6 192.33,-1253.37 199.8,-1260.89 202.86,-1254.6"/>
</g>
<!-- node110 -->
<g id="node23" class="node">
<title>node110</title>
<ellipse fill="none" stroke="black" cx="253" cy="-162" rx="27" ry="18"/>
</g>
<!-- node29&#45;&gt;node110 -->
<g id="edge30" class="edge">
<title>node29&#45;&gt;node110</title>
<path fill="none" stroke="black" d="M171,-1223.95C171,-1197.29 171,-1144.11 171,-1099 171,-1099 171,-1099 171,-305 171,-257.01 206.55,-210.66 230.84,-184.59"/>
<polygon fill="black" stroke="black" points="233.56,-186.81 237.96,-177.17 228.51,-181.96 233.56,-186.81"/>
</g>
<!-- node112 -->
<g id="node24" class="node">
<title>node112</title>
<ellipse fill="none" stroke="black" cx="181" cy="-90" rx="27" ry="18"/>
</g>
<!-- node110&#45;&gt;node112 -->
<g id="edge31" class="edge">
<title>node110&#45;&gt;node112</title>
<path fill="none" stroke="black" d="M238.43,-146.83C228.25,-136.94 214.48,-123.55 202.97,-112.36"/>
<polygon fill="black" stroke="black" points="205.41,-109.85 195.8,-105.38 200.53,-114.87 205.41,-109.85"/>
</g>
<!-- node113 -->
<g id="node25" class="node">
<title>node113</title>
<ellipse fill="none" stroke="black" cx="253" cy="-90" rx="27" ry="18"/>
</g>
<!-- node110&#45;&gt;node113 -->
<g id="edge32" class="edge">
<title>node110&#45;&gt;node113</title>
<path fill="none" stroke="black" d="M253,-143.7C253,-135.98 253,-126.71 253,-118.11"/>
<polygon fill="black" stroke="black" points="256.5,-118.1 253,-108.1 249.5,-118.1 256.5,-118.1"/>
</g>
<!-- node114 -->
<g id="node26" class="node">
<title>node114</title>
<ellipse fill="none" stroke="black" cx="325" cy="-90" rx="27" ry="18"/>
</g>
<!-- node110&#45;&gt;node114 -->
<g id="edge33" class="edge">
<title>node110&#45;&gt;node114</title>
<path fill="none" stroke="black" d="M267.57,-146.83C277.75,-136.94 291.52,-123.55 303.03,-112.36"/>
<polygon fill="black" stroke="black" points="305.47,-114.87 310.2,-105.38 300.59,-109.85 305.47,-114.87"/>
</g>
<!-- node115 -->
<g id="node73" class="node">
<title>node115</title>
<ellipse fill="none" stroke="black" cx="253" cy="-18" rx="27" ry="18"/>
</g>
<!-- node112&#45;&gt;node115 -->
<g id="edge102" class="edge">
<title>node112&#45;&gt;node115</title>
<path fill="none" stroke="black" d="M195.57,-74.83C205.75,-64.94 219.52,-51.55 231.03,-40.36"/>
<polygon fill="black" stroke="black" points="233.47,-42.87 238.2,-33.38 228.59,-37.85 233.47,-42.87"/>
</g>
<!-- node113&#45;&gt;node115 -->
<g id="edge103" class="edge">
<title>node113&#45;&gt;node115</title>
<path fill="none" stroke="black" d="M253,-71.7C253,-63.98 253,-54.71 253,-46.11"/>
<polygon fill="black" stroke="black" points="256.5,-46.1 253,-36.1 249.5,-46.1 256.5,-46.1"/>
</g>
<!-- node114&#45;&gt;node115 -->
<g id="edge104" class="edge">
<title>node114&#45;&gt;node115</title>
<path fill="none" stroke="black" d="M310.43,-74.83C300.25,-64.94 286.48,-51.55 274.97,-40.36"/>
<polygon fill="black" stroke="black" points="277.41,-37.85 267.8,-33.38 272.53,-42.87 277.41,-37.85"/>
</g>
<!-- node41 -->
<g id="node32" class="node">
<title>node41</title>
<ellipse fill="none" stroke="black" cx="386" cy="-1674" rx="27" ry="18"/>
</g>
<!-- node39&#45;&gt;node41 -->
<g id="edge39" class="edge">
<title>node39&#45;&gt;node41</title>
<path fill="none" stroke="black" d="M372.36,-1728.05C374.39,-1720.14 376.86,-1710.54 379.14,-1701.69"/>
<polygon fill="black" stroke="black" points="382.58,-1702.35 381.68,-1691.79 375.8,-1700.6 382.58,-1702.35"/>
</g>
<!-- node40&#45;&gt;node41 -->
<g id="edge40" class="edge">
<title>node40&#45;&gt;node41</title>
<path fill="none" stroke="black" d="M428.02,-1729.46C421.02,-1720.4 412.06,-1708.79 404.21,-1698.61"/>
<polygon fill="black" stroke="black" points="406.83,-1696.27 397.95,-1690.49 401.29,-1700.55 406.83,-1696.27"/>
</g>
<!-- node54 -->
<g id="node41" class="node">
<title>node54</title>
<ellipse fill="none" stroke="black" cx="602" cy="-1674" rx="27" ry="18"/>
</g>
<!-- node51&#45;&gt;node54 -->
<g id="edge53" class="edge">
<title>node51&#45;&gt;node54</title>
<path fill="none" stroke="black" d="M537,-1731.17C548.76,-1721.01 564.94,-1707.03 578.21,-1695.56"/>
<polygon fill="black" stroke="black" points="580.75,-1697.99 586.03,-1688.8 576.18,-1692.69 580.75,-1697.99"/>
</g>
<!-- node52&#45;&gt;node54 -->
<g id="edge54" class="edge">
<title>node52&#45;&gt;node54</title>
<path fill="none" stroke="black" d="M595.18,-1728.05C596.17,-1720.35 597.37,-1711.03 598.48,-1702.36"/>
<polygon fill="black" stroke="black" points="601.98,-1702.64 599.78,-1692.28 595.03,-1701.75 601.98,-1702.64"/>
</g>
<!-- node53&#45;&gt;node54 -->
<g id="edge55" class="edge">
<title>node53&#45;&gt;node54</title>
<path fill="none" stroke="black" d="M651.64,-1730.15C643.12,-1720.69 631.91,-1708.24 622.31,-1697.56"/>
<polygon fill="black" stroke="black" points="624.63,-1694.92 615.34,-1689.82 619.43,-1699.6 624.63,-1694.92"/>
</g>
<!-- node44 -->
<g id="node33" class="node">
<title>node44</title>
<ellipse fill="none" stroke="black" cx="242" cy="-1602" rx="27" ry="18"/>
</g>
<!-- node41&#45;&gt;node44 -->
<g id="edge41" class="edge">
<title>node41&#45;&gt;node44</title>
<path fill="none" stroke="black" d="M364.75,-1662.67C340.4,-1650.83 300.28,-1631.33 272.57,-1617.86"/>
<polygon fill="black" stroke="black" points="273.86,-1614.6 263.33,-1613.37 270.8,-1620.89 273.86,-1614.6"/>
</g>
<!-- node45 -->
<g id="node34" class="node">
<title>node45</title>
<ellipse fill="none" stroke="black" cx="314" cy="-1602" rx="27" ry="18"/>
</g>
<!-- node41&#45;&gt;node45 -->
<g id="edge42" class="edge">
<title>node41&#45;&gt;node45</title>
<path fill="none" stroke="black" d="M371.43,-1658.83C361.25,-1648.94 347.48,-1635.55 335.97,-1624.36"/>
<polygon fill="black" stroke="black" points="338.41,-1621.85 328.8,-1617.38 333.53,-1626.87 338.41,-1621.85"/>
</g>
<!-- node46 -->
<g id="node35" class="node">
<title>node46</title>
<ellipse fill="none" stroke="black" cx="386" cy="-1602" rx="27" ry="18"/>
</g>
<!-- node41&#45;&gt;node46 -->
<g id="edge43" class="edge">
<title>node41&#45;&gt;node46</title>
<path fill="none" stroke="black" d="M386,-1655.7C386,-1647.98 386,-1638.71 386,-1630.11"/>
<polygon fill="black" stroke="black" points="389.5,-1630.1 386,-1620.1 382.5,-1630.1 389.5,-1630.1"/>
</g>
<!-- node47 -->
<g id="node36" class="node">
<title>node47</title>
<ellipse fill="none" stroke="black" cx="458" cy="-1602" rx="27" ry="18"/>
</g>
<!-- node41&#45;&gt;node47 -->
<g id="edge44" class="edge">
<title>node41&#45;&gt;node47</title>
<path fill="none" stroke="black" d="M400.57,-1658.83C410.75,-1648.94 424.52,-1635.55 436.03,-1624.36"/>
<polygon fill="black" stroke="black" points="438.47,-1626.87 443.2,-1617.38 433.59,-1621.85 438.47,-1626.87"/>
</g>
<!-- node48 -->
<g id="node37" class="node">
<title>node48</title>
<ellipse fill="none" stroke="black" cx="530" cy="-1602" rx="27" ry="18"/>
</g>
<!-- node41&#45;&gt;node48 -->
<g id="edge45" class="edge">
<title>node41&#45;&gt;node48</title>
<path fill="none" stroke="black" d="M407.25,-1662.67C431.6,-1650.83 471.72,-1631.33 499.43,-1617.86"/>
<polygon fill="black" stroke="black" points="501.2,-1620.89 508.67,-1613.37 498.14,-1614.6 501.2,-1620.89"/>
</g>
<!-- node49 -->
<g id="node38" class="node">
<title>node49</title>
<ellipse fill="none" stroke="black" cx="386" cy="-1530" rx="27" ry="18"/>
</g>
<!-- node44&#45;&gt;node49 -->
<g id="edge46" class="edge">
<title>node44&#45;&gt;node49</title>
<path fill="none" stroke="black" d="M263.25,-1590.67C287.6,-1578.83 327.72,-1559.33 355.43,-1545.86"/>
<polygon fill="black" stroke="black" points="357.2,-1548.89 364.67,-1541.37 354.14,-1542.6 357.2,-1548.89"/>
</g>
<!-- node45&#45;&gt;node49 -->
<g id="edge47" class="edge">
<title>node45&#45;&gt;node49</title>
<path fill="none" stroke="black" d="M328.57,-1586.83C338.75,-1576.94 352.52,-1563.55 364.03,-1552.36"/>
<polygon fill="black" stroke="black" points="366.47,-1554.87 371.2,-1545.38 361.59,-1549.85 366.47,-1554.87"/>
</g>
<!-- node46&#45;&gt;node49 -->
<g id="edge48" class="edge">
<title>node46&#45;&gt;node49</title>
<path fill="none" stroke="black" d="M386,-1583.7C386,-1575.98 386,-1566.71 386,-1558.11"/>
<polygon fill="black" stroke="black" points="389.5,-1558.1 386,-1548.1 382.5,-1558.1 389.5,-1558.1"/>
</g>
<!-- node47&#45;&gt;node49 -->
<g id="edge49" class="edge">
<title>node47&#45;&gt;node49</title>
<path fill="none" stroke="black" d="M443.43,-1586.83C433.25,-1576.94 419.48,-1563.55 407.97,-1552.36"/>
<polygon fill="black" stroke="black" points="410.41,-1549.85 400.8,-1545.38 405.53,-1554.87 410.41,-1549.85"/>
</g>
<!-- node48&#45;&gt;node49 -->
<g id="edge50" class="edge">
<title>node48&#45;&gt;node49</title>
<path fill="none" stroke="black" d="M508.75,-1590.67C484.4,-1578.83 444.28,-1559.33 416.57,-1545.86"/>
<polygon fill="black" stroke="black" points="417.86,-1542.6 407.33,-1541.37 414.8,-1548.89 417.86,-1542.6"/>
</g>
<!-- node83 -->
<g id="node39" class="node">
<title>node83</title>
<ellipse fill="none" stroke="black" cx="392" cy="-882" rx="27" ry="18"/>
</g>
<!-- node49&#45;&gt;node83 -->
<g id="edge51" class="edge">
<title>node49&#45;&gt;node83</title>
<path fill="none" stroke="black" d="M386,-1511.95C386,-1485.29 386,-1432.11 386,-1387 386,-1387 386,-1387 386,-1025 386,-984.96 388.41,-938.63 390.18,-910.07"/>
<polygon fill="black" stroke="black" points="393.67,-910.24 390.81,-900.04 386.69,-909.8 393.67,-910.24"/>
</g>
<!-- node93 -->
<g id="node40" class="node">
<title>node93</title>
<ellipse fill="none" stroke="black" cx="392" cy="-810" rx="27" ry="18"/>
</g>
<!-- node83&#45;&gt;node93 -->
<g id="edge52" class="edge">
<title>node83&#45;&gt;node93</title>
<path fill="none" stroke="black" d="M392,-863.7C392,-855.98 392,-846.71 392,-838.11"/>
<polygon fill="black" stroke="black" points="395.5,-838.1 392,-828.1 388.5,-838.1 395.5,-838.1"/>
</g>
<!-- node95 -->
<g id="node59" class="node">
<title>node95</title>
<ellipse fill="none" stroke="black" cx="392" cy="-738" rx="27" ry="18"/>
</g>
<!-- node93&#45;&gt;node95 -->
<g id="edge81" class="edge">
<title>node93&#45;&gt;node95</title>
<path fill="none" stroke="black" d="M392,-791.7C392,-783.98 392,-774.71 392,-766.11"/>
<polygon fill="black" stroke="black" points="395.5,-766.1 392,-756.1 388.5,-766.1 395.5,-766.1"/>
</g>
<!-- node56 -->
<g id="node42" class="node">
<title>node56</title>
<ellipse fill="none" stroke="black" cx="602" cy="-1602" rx="27" ry="18"/>
</g>
<!-- node54&#45;&gt;node56 -->
<g id="edge56" class="edge">
<title>node54&#45;&gt;node56</title>
<path fill="none" stroke="black" d="M602,-1655.7C602,-1647.98 602,-1638.71 602,-1630.11"/>
<polygon fill="black" stroke="black" points="605.5,-1630.1 602,-1620.1 598.5,-1630.1 605.5,-1630.1"/>
</g>
<!-- node57 -->
<g id="node43" class="node">
<title>node57</title>
<ellipse fill="none" stroke="black" cx="674" cy="-1602" rx="27" ry="18"/>
</g>
<!-- node54&#45;&gt;node57 -->
<g id="edge57" class="edge">
<title>node54&#45;&gt;node57</title>
<path fill="none" stroke="black" d="M616.57,-1658.83C626.75,-1648.94 640.52,-1635.55 652.03,-1624.36"/>
<polygon fill="black" stroke="black" points="654.47,-1626.87 659.2,-1617.38 649.59,-1621.85 654.47,-1626.87"/>
</g>
<!-- node58 -->
<g id="node44" class="node">
<title>node58</title>
<ellipse fill="none" stroke="black" cx="623" cy="-1530" rx="27" ry="18"/>
</g>
<!-- node56&#45;&gt;node58 -->
<g id="edge58" class="edge">
<title>node56&#45;&gt;node58</title>
<path fill="none" stroke="black" d="M607.08,-1584.05C609.48,-1576.06 612.4,-1566.33 615.08,-1557.4"/>
<polygon fill="black" stroke="black" points="618.44,-1558.37 617.96,-1547.79 611.74,-1556.36 618.44,-1558.37"/>
</g>
<!-- node57&#45;&gt;node58 -->
<g id="edge59" class="edge">
<title>node57&#45;&gt;node58</title>
<path fill="none" stroke="black" d="M662.68,-1585.46C656.08,-1576.4 647.62,-1564.79 640.2,-1554.61"/>
<polygon fill="black" stroke="black" points="643,-1552.51 634.29,-1546.49 637.35,-1556.64 643,-1552.51"/>
</g>
<!-- node60 -->
<g id="node45" class="node">
<title>node60</title>
<ellipse fill="none" stroke="black" cx="623" cy="-1458" rx="27" ry="18"/>
</g>
<!-- node58&#45;&gt;node60 -->
<g id="edge60" class="edge">
<title>node58&#45;&gt;node60</title>
<path fill="none" stroke="black" d="M623,-1511.7C623,-1503.98 623,-1494.71 623,-1486.11"/>
<polygon fill="black" stroke="black" points="626.5,-1486.1 623,-1476.1 619.5,-1486.1 626.5,-1486.1"/>
</g>
<!-- node61 -->
<g id="node46" class="node">
<title>node61</title>
<ellipse fill="none" stroke="black" cx="623" cy="-1386" rx="27" ry="18"/>
</g>
<!-- node60&#45;&gt;node61 -->
<g id="edge61" class="edge">
<title>node60&#45;&gt;node61</title>
<path fill="none" stroke="black" d="M623,-1439.7C623,-1431.98 623,-1422.71 623,-1414.11"/>
<polygon fill="black" stroke="black" points="626.5,-1414.1 623,-1404.1 619.5,-1414.1 626.5,-1414.1"/>
</g>
<!-- node67 -->
<g id="node47" class="node">
<title>node67</title>
<ellipse fill="none" stroke="black" cx="594" cy="-1314" rx="27" ry="18"/>
</g>
<!-- node61&#45;&gt;node67 -->
<g id="edge62" class="edge">
<title>node61&#45;&gt;node67</title>
<path fill="none" stroke="black" d="M616.13,-1368.41C612.73,-1360.22 608.56,-1350.14 604.75,-1340.95"/>
<polygon fill="black" stroke="black" points="607.88,-1339.37 600.82,-1331.47 601.42,-1342.05 607.88,-1339.37"/>
</g>
<!-- node68 -->
<g id="node48" class="node">
<title>node68</title>
<ellipse fill="none" stroke="black" cx="666" cy="-1314" rx="27" ry="18"/>
</g>
<!-- node61&#45;&gt;node68 -->
<g id="edge63" class="edge">
<title>node61&#45;&gt;node68</title>
<path fill="none" stroke="black" d="M632.76,-1369.12C638.15,-1360.34 644.95,-1349.26 651,-1339.42"/>
<polygon fill="black" stroke="black" points="654.03,-1341.17 656.28,-1330.82 648.06,-1337.51 654.03,-1341.17"/>
</g>
<!-- node69 -->
<g id="node49" class="node">
<title>node69</title>
<ellipse fill="none" stroke="black" cx="616" cy="-1242" rx="27" ry="18"/>
</g>
<!-- node67&#45;&gt;node69 -->
<g id="edge64" class="edge">
<title>node67&#45;&gt;node69</title>
<path fill="none" stroke="black" d="M599.33,-1296.05C601.84,-1288.06 604.9,-1278.33 607.7,-1269.4"/>
<polygon fill="black" stroke="black" points="611.06,-1270.38 610.72,-1259.79 604.39,-1268.28 611.06,-1270.38"/>
</g>
<!-- node68&#45;&gt;node69 -->
<g id="edge65" class="edge">
<title>node68&#45;&gt;node69</title>
<path fill="none" stroke="black" d="M654.9,-1297.46C648.49,-1288.49 640.3,-1277.02 633.08,-1266.92"/>
<polygon fill="black" stroke="black" points="635.73,-1264.59 627.07,-1258.49 630.03,-1268.66 635.73,-1264.59"/>
</g>
<!-- node72 -->
<g id="node50" class="node">
<title>node72</title>
<ellipse fill="none" stroke="black" cx="571" cy="-1170" rx="27" ry="18"/>
</g>
<!-- node69&#45;&gt;node72 -->
<g id="edge66" class="edge">
<title>node69&#45;&gt;node72</title>
<path fill="none" stroke="black" d="M605.79,-1225.12C600.15,-1216.34 593.03,-1205.26 586.7,-1195.42"/>
<polygon fill="black" stroke="black" points="589.52,-1193.34 581.17,-1186.82 583.63,-1197.13 589.52,-1193.34"/>
</g>
<!-- node73 -->
<g id="node51" class="node">
<title>node73</title>
<ellipse fill="none" stroke="black" cx="643" cy="-1170" rx="27" ry="18"/>
</g>
<!-- node69&#45;&gt;node73 -->
<g id="edge67" class="edge">
<title>node69&#45;&gt;node73</title>
<path fill="none" stroke="black" d="M622.4,-1224.41C625.51,-1216.34 629.33,-1206.43 632.83,-1197.35"/>
<polygon fill="black" stroke="black" points="636.13,-1198.55 636.46,-1187.96 629.6,-1196.03 636.13,-1198.55"/>
</g>
<!-- node74 -->
<g id="node52" class="node">
<title>node74</title>
<ellipse fill="none" stroke="black" cx="585" cy="-1098" rx="27" ry="18"/>
</g>
<!-- node72&#45;&gt;node74 -->
<g id="edge68" class="edge">
<title>node72&#45;&gt;node74</title>
<path fill="none" stroke="black" d="M574.39,-1152.05C575.93,-1144.35 577.79,-1135.03 579.53,-1126.36"/>
<polygon fill="black" stroke="black" points="583.02,-1126.77 581.54,-1116.28 576.15,-1125.39 583.02,-1126.77"/>
</g>
<!-- node73&#45;&gt;node74 -->
<g id="edge69" class="edge">
<title>node73&#45;&gt;node74</title>
<path fill="none" stroke="black" d="M630.41,-1153.81C622.74,-1144.55 612.77,-1132.52 604.14,-1122.09"/>
<polygon fill="black" stroke="black" points="606.64,-1119.63 597.56,-1114.16 601.25,-1124.09 606.64,-1119.63"/>
</g>
<!-- node77 -->
<g id="node53" class="node">
<title>node77</title>
<ellipse fill="none" stroke="black" cx="441" cy="-1026" rx="27" ry="18"/>
</g>
<!-- node74&#45;&gt;node77 -->
<g id="edge70" class="edge">
<title>node74&#45;&gt;node77</title>
<path fill="none" stroke="black" d="M563.75,-1086.67C539.4,-1074.83 499.28,-1055.33 471.57,-1041.86"/>
<polygon fill="black" stroke="black" points="472.86,-1038.6 462.33,-1037.37 469.8,-1044.89 472.86,-1038.6"/>
</g>
<!-- node78 -->
<g id="node54" class="node">
<title>node78</title>
<ellipse fill="none" stroke="black" cx="513" cy="-1026" rx="27" ry="18"/>
</g>
<!-- node74&#45;&gt;node78 -->
<g id="edge71" class="edge">
<title>node74&#45;&gt;node78</title>
<path fill="none" stroke="black" d="M570.43,-1082.83C560.25,-1072.94 546.48,-1059.55 534.97,-1048.36"/>
<polygon fill="black" stroke="black" points="537.41,-1045.85 527.8,-1041.38 532.53,-1050.87 537.41,-1045.85"/>
</g>
<!-- node79 -->
<g id="node55" class="node">
<title>node79</title>
<ellipse fill="none" stroke="black" cx="585" cy="-1026" rx="27" ry="18"/>
</g>
<!-- node74&#45;&gt;node79 -->
<g id="edge72" class="edge">
<title>node74&#45;&gt;node79</title>
<path fill="none" stroke="black" d="M585,-1079.7C585,-1071.98 585,-1062.71 585,-1054.11"/>
<polygon fill="black" stroke="black" points="588.5,-1054.1 585,-1044.1 581.5,-1054.1 588.5,-1054.1"/>
</g>
<!-- node80 -->
<g id="node56" class="node">
<title>node80</title>
<ellipse fill="none" stroke="black" cx="657" cy="-1026" rx="27" ry="18"/>
</g>
<!-- node74&#45;&gt;node80 -->
<g id="edge73" class="edge">
<title>node74&#45;&gt;node80</title>
<path fill="none" stroke="black" d="M599.57,-1082.83C609.75,-1072.94 623.52,-1059.55 635.03,-1048.36"/>
<polygon fill="black" stroke="black" points="637.47,-1050.87 642.2,-1041.38 632.59,-1045.85 637.47,-1050.87"/>
</g>
<!-- node81 -->
<g id="node57" class="node">
<title>node81</title>
<ellipse fill="none" stroke="black" cx="729" cy="-1026" rx="27" ry="18"/>
</g>
<!-- node74&#45;&gt;node81 -->
<g id="edge74" class="edge">
<title>node74&#45;&gt;node81</title>
<path fill="none" stroke="black" d="M606.25,-1086.67C630.6,-1074.83 670.72,-1055.33 698.43,-1041.86"/>
<polygon fill="black" stroke="black" points="700.2,-1044.89 707.67,-1037.37 697.14,-1038.6 700.2,-1044.89"/>
</g>
<!-- node82 -->
<g id="node58" class="node">
<title>node82</title>
<ellipse fill="none" stroke="black" cx="549" cy="-954" rx="27" ry="18"/>
</g>
<!-- node77&#45;&gt;node82 -->
<g id="edge75" class="edge">
<title>node77&#45;&gt;node82</title>
<path fill="none" stroke="black" d="M459.81,-1012.81C477,-1001.67 502.62,-985.06 521.99,-972.5"/>
<polygon fill="black" stroke="black" points="523.92,-975.43 530.4,-967.05 520.11,-969.56 523.92,-975.43"/>
</g>
<!-- node78&#45;&gt;node82 -->
<g id="edge76" class="edge">
<title>node78&#45;&gt;node82</title>
<path fill="none" stroke="black" d="M521.35,-1008.76C525.71,-1000.28 531.15,-989.71 536.04,-980.2"/>
<polygon fill="black" stroke="black" points="539.23,-981.64 540.7,-971.15 533.01,-978.44 539.23,-981.64"/>
</g>
<!-- node79&#45;&gt;node82 -->
<g id="edge77" class="edge">
<title>node79&#45;&gt;node82</title>
<path fill="none" stroke="black" d="M576.65,-1008.76C572.29,-1000.28 566.85,-989.71 561.96,-980.2"/>
<polygon fill="black" stroke="black" points="564.99,-978.44 557.3,-971.15 558.77,-981.64 564.99,-978.44"/>
</g>
<!-- node80&#45;&gt;node82 -->
<g id="edge78" class="edge">
<title>node80&#45;&gt;node82</title>
<path fill="none" stroke="black" d="M638.19,-1012.81C621,-1001.67 595.38,-985.06 576.01,-972.5"/>
<polygon fill="black" stroke="black" points="577.89,-969.56 567.6,-967.05 574.08,-975.43 577.89,-969.56"/>
</g>
<!-- node81&#45;&gt;node82 -->
<g id="edge79" class="edge">
<title>node81&#45;&gt;node82</title>
<path fill="none" stroke="black" d="M707.82,-1014.62C702.99,-1012.35 697.84,-1010.03 693,-1008 655.64,-992.34 611.85,-976.58 582.46,-966.37"/>
<polygon fill="black" stroke="black" points="583.29,-962.95 572.69,-963 581,-969.57 583.29,-962.95"/>
</g>
<!-- node82&#45;&gt;node83 -->
<g id="edge80" class="edge">
<title>node82&#45;&gt;node83</title>
<path fill="none" stroke="black" d="M527.17,-943.27C500.18,-931.23 454.05,-910.67 423.3,-896.95"/>
<polygon fill="black" stroke="black" points="424.46,-893.64 413.9,-892.76 421.61,-900.03 424.46,-893.64"/>
</g>
<!-- node96 -->
<g id="node60" class="node">
<title>node96</title>
<ellipse fill="none" stroke="black" cx="392" cy="-666" rx="27" ry="18"/>
</g>
<!-- node95&#45;&gt;node96 -->
<g id="edge82" class="edge">
<title>node95&#45;&gt;node96</title>
<path fill="none" stroke="black" d="M392,-719.7C392,-711.98 392,-702.71 392,-694.11"/>
<polygon fill="black" stroke="black" points="395.5,-694.1 392,-684.1 388.5,-694.1 395.5,-694.1"/>
</g>
<!-- node97 -->
<g id="node61" class="node">
<title>node97</title>
<ellipse fill="none" stroke="black" cx="320" cy="-594" rx="27" ry="18"/>
</g>
<!-- node96&#45;&gt;node97 -->
<g id="edge83" class="edge">
<title>node96&#45;&gt;node97</title>
<path fill="none" stroke="black" d="M377.43,-650.83C367.25,-640.94 353.48,-627.55 341.97,-616.36"/>
<polygon fill="black" stroke="black" points="344.41,-613.85 334.8,-609.38 339.53,-618.87 344.41,-613.85"/>
</g>
<!-- node98 -->
<g id="node62" class="node">
<title>node98</title>
<ellipse fill="none" stroke="black" cx="392" cy="-594" rx="27" ry="18"/>
</g>
<!-- node96&#45;&gt;node98 -->
<g id="edge84" class="edge">
<title>node96&#45;&gt;node98</title>
<path fill="none" stroke="black" d="M392,-647.7C392,-639.98 392,-630.71 392,-622.11"/>
<polygon fill="black" stroke="black" points="395.5,-622.1 392,-612.1 388.5,-622.1 395.5,-622.1"/>
</g>
<!-- node99 -->
<g id="node63" class="node">
<title>node99</title>
<ellipse fill="none" stroke="black" cx="464" cy="-594" rx="27" ry="18"/>
</g>
<!-- node96&#45;&gt;node99 -->
<g id="edge85" class="edge">
<title>node96&#45;&gt;node99</title>
<path fill="none" stroke="black" d="M406.57,-650.83C416.75,-640.94 430.52,-627.55 442.03,-616.36"/>
<polygon fill="black" stroke="black" points="444.47,-618.87 449.2,-609.38 439.59,-613.85 444.47,-618.87"/>
</g>
<!-- node100 -->
<g id="node64" class="node">
<title>node100</title>
<ellipse fill="none" stroke="black" cx="392" cy="-522" rx="27" ry="18"/>
</g>
<!-- node97&#45;&gt;node100 -->
<g id="edge86" class="edge">
<title>node97&#45;&gt;node100</title>
<path fill="none" stroke="black" d="M334.57,-578.83C344.75,-568.94 358.52,-555.55 370.03,-544.36"/>
<polygon fill="black" stroke="black" points="372.47,-546.87 377.2,-537.38 367.59,-541.85 372.47,-546.87"/>
</g>
<!-- node98&#45;&gt;node100 -->
<g id="edge87" class="edge">
<title>node98&#45;&gt;node100</title>
<path fill="none" stroke="black" d="M392,-575.7C392,-567.98 392,-558.71 392,-550.11"/>
<polygon fill="black" stroke="black" points="395.5,-550.1 392,-540.1 388.5,-550.1 395.5,-550.1"/>
</g>
<!-- node99&#45;&gt;node100 -->
<g id="edge88" class="edge">
<title>node99&#45;&gt;node100</title>
<path fill="none" stroke="black" d="M449.43,-578.83C439.25,-568.94 425.48,-555.55 413.97,-544.36"/>
<polygon fill="black" stroke="black" points="416.41,-541.85 406.8,-537.38 411.53,-546.87 416.41,-541.85"/>
</g>
<!-- node102 -->
<g id="node65" class="node">
<title>node102</title>
<ellipse fill="none" stroke="black" cx="236" cy="-306" rx="27" ry="18"/>
</g>
<!-- node100&#45;&gt;node102 -->
<g id="edge89" class="edge">
<title>node100&#45;&gt;node102</title>
<path fill="none" stroke="black" d="M368.89,-512.39C330.13,-496.45 253.76,-458.18 228,-396 219.77,-376.14 222.8,-351.7 227.3,-333.46"/>
<polygon fill="black" stroke="black" points="230.69,-334.35 229.97,-323.78 223.94,-332.49 230.69,-334.35"/>
</g>
<!-- node103 -->
<g id="node66" class="node">
<title>node103</title>
<ellipse fill="none" stroke="black" cx="336" cy="-450" rx="27" ry="18"/>
</g>
<!-- node100&#45;&gt;node103 -->
<g id="edge90" class="edge">
<title>node100&#45;&gt;node103</title>
<path fill="none" stroke="black" d="M379.85,-505.81C372.44,-496.55 362.82,-484.52 354.48,-474.09"/>
<polygon fill="black" stroke="black" points="357.11,-471.78 348.13,-466.16 351.64,-476.15 357.11,-471.78"/>
</g>
<!-- node107 -->
<g id="node67" class="node">
<title>node107</title>
<ellipse fill="none" stroke="black" cx="408" cy="-378" rx="27" ry="18"/>
</g>
<!-- node100&#45;&gt;node107 -->
<g id="edge91" class="edge">
<title>node100&#45;&gt;node107</title>
<path fill="none" stroke="black" d="M393.93,-503.87C396.66,-479.67 401.67,-435.21 404.91,-406.39"/>
<polygon fill="black" stroke="black" points="408.42,-406.52 406.06,-396.19 401.47,-405.73 408.42,-406.52"/>
</g>
<!-- node108 -->
<g id="node68" class="node">
<title>node108</title>
<ellipse fill="none" stroke="black" cx="458" cy="-450" rx="27" ry="18"/>
</g>
<!-- node100&#45;&gt;node108 -->
<g id="edge92" class="edge">
<title>node100&#45;&gt;node108</title>
<path fill="none" stroke="black" d="M406,-506.15C415.01,-496.6 426.89,-483.99 437.02,-473.25"/>
<polygon fill="black" stroke="black" points="439.71,-475.5 444.02,-465.82 434.62,-470.7 439.71,-475.5"/>
</g>
<!-- node109 -->
<g id="node69" class="node">
<title>node109</title>
<ellipse fill="none" stroke="black" cx="317" cy="-234" rx="27" ry="18"/>
</g>
<!-- node102&#45;&gt;node109 -->
<g id="edge93" class="edge">
<title>node102&#45;&gt;node109</title>
<path fill="none" stroke="black" d="M252,-291.17C263.76,-281.01 279.94,-267.03 293.21,-255.56"/>
<polygon fill="black" stroke="black" points="295.75,-257.99 301.03,-248.8 291.18,-252.69 295.75,-257.99"/>
</g>
<!-- node104 -->
<g id="node70" class="node">
<title>node104</title>
<ellipse fill="none" stroke="black" cx="264" cy="-378" rx="27" ry="18"/>
</g>
<!-- node103&#45;&gt;node104 -->
<g id="edge94" class="edge">
<title>node103&#45;&gt;node104</title>
<path fill="none" stroke="black" d="M321.43,-434.83C311.25,-424.94 297.48,-411.55 285.97,-400.36"/>
<polygon fill="black" stroke="black" points="288.41,-397.85 278.8,-393.38 283.53,-402.87 288.41,-397.85"/>
</g>
<!-- node105 -->
<g id="node71" class="node">
<title>node105</title>
<ellipse fill="none" stroke="black" cx="336" cy="-378" rx="27" ry="18"/>
</g>
<!-- node103&#45;&gt;node105 -->
<g id="edge95" class="edge">
<title>node103&#45;&gt;node105</title>
<path fill="none" stroke="black" d="M336,-431.7C336,-423.98 336,-414.71 336,-406.11"/>
<polygon fill="black" stroke="black" points="339.5,-406.1 336,-396.1 332.5,-406.1 339.5,-406.1"/>
</g>
<!-- node107&#45;&gt;node109 -->
<g id="edge96" class="edge">
<title>node107&#45;&gt;node109</title>
<path fill="none" stroke="black" d="M398.47,-361.12C387.66,-343.21 369.4,-313.3 353,-288 346.83,-278.48 339.86,-268.13 333.71,-259.13"/>
<polygon fill="black" stroke="black" points="336.44,-256.91 327.89,-250.65 330.66,-260.88 336.44,-256.91"/>
</g>
<!-- node108&#45;&gt;node109 -->
<g id="edge97" class="edge">
<title>node108&#45;&gt;node109</title>
<path fill="none" stroke="black" d="M458.22,-431.72C457.81,-413.11 455.22,-383.07 444,-360 421.46,-313.66 374.49,-274.71 344.42,-253.14"/>
<polygon fill="black" stroke="black" points="346.25,-250.15 336.05,-247.28 342.23,-255.88 346.25,-250.15"/>
</g>
<!-- node109&#45;&gt;node110 -->
<g id="edge98" class="edge">
<title>node109&#45;&gt;node110</title>
<path fill="none" stroke="black" d="M303.43,-218.15C294.69,-208.6 283.17,-195.99 273.34,-185.25"/>
<polygon fill="black" stroke="black" points="275.88,-182.84 266.55,-177.82 270.72,-187.57 275.88,-182.84"/>
</g>
<!-- node106 -->
<g id="node72" class="node">
<title>node106</title>
<ellipse fill="none" stroke="black" cx="317" cy="-306" rx="27" ry="18"/>
</g>
<!-- node104&#45;&gt;node106 -->
<g id="edge99" class="edge">
<title>node104&#45;&gt;node106</title>
<path fill="none" stroke="black" d="M275.76,-361.46C282.62,-352.4 291.42,-340.79 299.12,-330.61"/>
<polygon fill="black" stroke="black" points="302.02,-332.58 305.27,-322.49 296.44,-328.35 302.02,-332.58"/>
</g>
<!-- node105&#45;&gt;node106 -->
<g id="edge100" class="edge">
<title>node105&#45;&gt;node106</title>
<path fill="none" stroke="black" d="M331.4,-360.05C329.25,-352.14 326.65,-342.54 324.24,-333.69"/>
<polygon fill="black" stroke="black" points="327.55,-332.52 321.56,-323.79 320.8,-334.36 327.55,-332.52"/>
</g>
<!-- node106&#45;&gt;node109 -->
<g id="edge101" class="edge">
<title>node106&#45;&gt;node109</title>
<path fill="none" stroke="black" d="M317,-287.7C317,-279.98 317,-270.71 317,-262.11"/>
<polygon fill="black" stroke="black" points="320.5,-262.1 317,-252.1 313.5,-262.1 320.5,-262.1"/>
</g>
</g>
</svg>
