<?xml version="1.0" encoding="UTF-8" standalone="no"?>
<!DOCTYPE svg PUBLIC "-//W3C//DTD SVG 1.1//EN"
 "http://www.w3.org/Graphics/SVG/1.1/DTD/svg11.dtd">
<!-- Generated by graphviz version 2.43.0 (0)
 -->
<!-- Title: streamit Pages: 1 -->
<svg width="2690pt" height="836pt"
 viewBox="0.00 0.00 2689.68 836.00" xmlns="http://www.w3.org/2000/svg" xmlns:xlink="http://www.w3.org/1999/xlink">
<g id="graph0" class="graph" transform="scale(1 1) rotate(0) translate(4 832)">
<title>streamit</title>
<polygon fill="white" stroke="transparent" points="-4,4 -4,-832 2685.68,-832 2685.68,4 -4,4"/>
<!-- FloatOneSource_pop_0_push_1_1 -->
<g id="node1" class="node">
<title>FloatOneSource_pop_0_push_1_1</title>
<ellipse fill="none" stroke="black" cx="1340.34" cy="-810" rx="116.18" ry="18"/>
<text text-anchor="middle" x="1340.34" y="-806.3" font-family="Times,serif" font-size="14.00">fm7b_float_one_source</text>
</g>
<!-- fm7b_lowpass_filter_pop_5_peek_64_push_1_4 -->
<g id="node2" class="node">
<title>fm7b_lowpass_filter_pop_5_peek_64_push_1_4</title>
<ellipse fill="none" stroke="black" cx="1340.34" cy="-738" rx="142.97" ry="18"/>
<text text-anchor="middle" x="1340.34" y="-734.3" font-family="Times,serif" font-size="14.00">fm7b_low_pass_filter_4samp</text>
</g>
<!-- FloatOneSource_pop_0_push_1_1&#45;&gt;fm7b_lowpass_filter_pop_5_peek_64_push_1_4 -->
<g id="edge1" class="edge">
<title>FloatOneSource_pop_0_push_1_1&#45;&gt;fm7b_lowpass_filter_pop_5_peek_64_push_1_4</title>
<path fill="none" stroke="black" d="M1340.34,-791.7C1340.34,-783.98 1340.34,-774.71 1340.34,-766.11"/>
<polygon fill="black" stroke="black" points="1343.84,-766.1 1340.34,-756.1 1336.84,-766.1 1343.84,-766.1"/>
</g>
<!-- FMDemodulator_pop_1_peek_2_push_1_5 -->
<g id="node5" class="node">
<title>FMDemodulator_pop_1_peek_2_push_1_5</title>
<ellipse fill="none" stroke="black" cx="1340.34" cy="-666" rx="110.48" ry="18"/>
<text text-anchor="middle" x="1340.34" y="-662.3" font-family="Times,serif" font-size="14.00">fm7b_fmdemodulator</text>
</g>
<!-- fm7b_lowpass_filter_pop_5_peek_64_push_1_4&#45;&gt;FMDemodulator_pop_1_peek_2_push_1_5 -->
<g id="edge3" class="edge">
<title>fm7b_lowpass_filter_pop_5_peek_64_push_1_4&#45;&gt;FMDemodulator_pop_1_peek_2_push_1_5</title>
<path fill="none" stroke="black" d="M1340.34,-719.7C1340.34,-711.98 1340.34,-702.71 1340.34,-694.11"/>
<polygon fill="black" stroke="black" points="1343.84,-694.1 1340.34,-684.1 1336.84,-694.1 1343.84,-694.1"/>
</g>
<!-- AnonFilter_a0_pop_6_push_1_9 -->
<g id="node3" class="node">
<title>AnonFilter_a0_pop_6_push_1_9</title>
<ellipse fill="none" stroke="black" cx="1332.34" cy="-90" rx="81.79" ry="18"/>
<text text-anchor="middle" x="1332.34" y="-86.3" font-family="Times,serif" font-size="14.00">fm7b_equalizer</text>
</g>
<!-- FloatPrinter_pop_1_push_0_3 -->
<g id="node4" class="node">
<title>FloatPrinter_pop_1_push_0_3</title>
<ellipse fill="none" stroke="black" cx="1332.34" cy="-18" rx="96.68" ry="18"/>
<text text-anchor="middle" x="1332.34" y="-14.3" font-family="Times,serif" font-size="14.00">fm7b_float_printer</text>
</g>
<!-- AnonFilter_a0_pop_6_push_1_9&#45;&gt;FloatPrinter_pop_1_push_0_3 -->
<g id="edge2" class="edge">
<title>AnonFilter_a0_pop_6_push_1_9&#45;&gt;FloatPrinter_pop_1_push_0_3</title>
<path fill="none" stroke="black" d="M1332.34,-71.7C1332.34,-63.98 1332.34,-54.71 1332.34,-46.11"/>
<polygon fill="black" stroke="black" points="1335.84,-46.1 1332.34,-36.1 1328.84,-46.1 1335.84,-46.1"/>
</g>
<!-- EqSplit_8_split -->
<g id="node6" class="node">
<title>EqSplit_8_split</title>
<ellipse fill="none" stroke="black" cx="1340.34" cy="-594" rx="112.38" ry="18"/>
<text text-anchor="middle" x="1340.34" y="-590.3" font-family="Times,serif" font-size="14.00">fm7b_split1_duplicate</text>
</g>
<!-- FMDemodulator_pop_1_peek_2_push_1_5&#45;&gt;EqSplit_8_split -->
<g id="edge4" class="edge">
<title>FMDemodulator_pop_1_peek_2_push_1_5&#45;&gt;EqSplit_8_split</title>
<path fill="none" stroke="black" d="M1340.34,-647.7C1340.34,-639.98 1340.34,-630.71 1340.34,-622.11"/>
<polygon fill="black" stroke="black" points="1343.84,-622.1 1340.34,-612.1 1336.84,-622.1 1343.84,-622.1"/>
</g>
<!-- BPFCore_18_split -->
<g id="node11" class="node">
<title>BPFCore_18_split</title>
<ellipse fill="none" stroke="black" cx="328.34" cy="-522" rx="112.38" ry="18"/>
<text text-anchor="middle" x="328.34" y="-518.3" font-family="Times,serif" font-size="14.00">fm7b_split2_duplicate</text>
</g>
<!-- EqSplit_8_split&#45;&gt;BPFCore_18_split -->
<g id="edge12" class="edge">
<title>EqSplit_8_split&#45;&gt;BPFCore_18_split</title>
<path fill="none" stroke="black" d="M1239.14,-586C1048.48,-572.81 637.46,-544.38 439.44,-530.68"/>
<polygon fill="black" stroke="black" points="439.52,-527.18 429.3,-529.98 439.04,-534.17 439.52,-527.18"/>
</g>
<!-- BPFCore_26_split -->
<g id="node17" class="node">
<title>BPFCore_26_split</title>
<ellipse fill="none" stroke="black" cx="778.34" cy="-522" rx="112.38" ry="18"/>
<text text-anchor="middle" x="778.34" y="-518.3" font-family="Times,serif" font-size="14.00">fm7b_split2_duplicate</text>
</g>
<!-- EqSplit_8_split&#45;&gt;BPFCore_26_split -->
<g id="edge20" class="edge">
<title>EqSplit_8_split&#45;&gt;BPFCore_26_split</title>
<path fill="none" stroke="black" d="M1254.68,-582.33C1152.28,-569.58 981.38,-548.29 874.53,-534.98"/>
<polygon fill="black" stroke="black" points="874.76,-531.48 864.4,-533.72 873.89,-538.43 874.76,-531.48"/>
</g>
<!-- BPFCore_34_split -->
<g id="node23" class="node">
<title>BPFCore_34_split</title>
<ellipse fill="none" stroke="black" cx="1219.34" cy="-522" rx="112.38" ry="18"/>
<text text-anchor="middle" x="1219.34" y="-518.3" font-family="Times,serif" font-size="14.00">fm7b_split2_duplicate</text>
</g>
<!-- EqSplit_8_split&#45;&gt;BPFCore_34_split -->
<g id="edge28" class="edge">
<title>EqSplit_8_split&#45;&gt;BPFCore_34_split</title>
<path fill="none" stroke="black" d="M1311.67,-576.41C1295.24,-566.91 1274.44,-554.88 1256.74,-544.64"/>
<polygon fill="black" stroke="black" points="1258.22,-541.45 1247.81,-539.47 1254.71,-547.51 1258.22,-541.45"/>
</g>
<!-- BPFCore_42_split -->
<g id="node29" class="node">
<title>BPFCore_42_split</title>
<ellipse fill="none" stroke="black" cx="1462.34" cy="-522" rx="112.38" ry="18"/>
<text text-anchor="middle" x="1462.34" y="-518.3" font-family="Times,serif" font-size="14.00">fm7b_split2_duplicate</text>
</g>
<!-- EqSplit_8_split&#45;&gt;BPFCore_42_split -->
<g id="edge36" class="edge">
<title>EqSplit_8_split&#45;&gt;BPFCore_42_split</title>
<path fill="none" stroke="black" d="M1368.94,-576.59C1385.5,-567.09 1406.53,-555.02 1424.45,-544.74"/>
<polygon fill="black" stroke="black" points="1426.56,-547.56 1433.49,-539.55 1423.08,-541.49 1426.56,-547.56"/>
</g>
<!-- BPFCore_50_split -->
<g id="node35" class="node">
<title>BPFCore_50_split</title>
<ellipse fill="none" stroke="black" cx="1903.34" cy="-522" rx="112.38" ry="18"/>
<text text-anchor="middle" x="1903.34" y="-518.3" font-family="Times,serif" font-size="14.00">fm7b_split2_duplicate</text>
</g>
<!-- EqSplit_8_split&#45;&gt;BPFCore_50_split -->
<g id="edge44" class="edge">
<title>EqSplit_8_split&#45;&gt;BPFCore_50_split</title>
<path fill="none" stroke="black" d="M1426.15,-582.33C1528.89,-569.56 1700.44,-548.23 1807.44,-534.92"/>
<polygon fill="black" stroke="black" points="1808.1,-538.37 1817.59,-533.66 1807.24,-531.42 1808.1,-538.37"/>
</g>
<!-- BPFCore_58_split -->
<g id="node41" class="node">
<title>BPFCore_58_split</title>
<ellipse fill="none" stroke="black" cx="2353.34" cy="-522" rx="112.38" ry="18"/>
<text text-anchor="middle" x="2353.34" y="-518.3" font-family="Times,serif" font-size="14.00">fm7b_split2_duplicate</text>
</g>
<!-- EqSplit_8_split&#45;&gt;BPFCore_58_split -->
<g id="edge52" class="edge">
<title>EqSplit_8_split&#45;&gt;BPFCore_58_split</title>
<path fill="none" stroke="black" d="M1441.17,-586.03C1631.78,-572.86 2043.59,-544.4 2242.01,-530.69"/>
<polygon fill="black" stroke="black" points="2242.43,-534.17 2252.16,-529.99 2241.95,-527.19 2242.43,-534.17"/>
</g>
<!-- EqSplit_8_join -->
<g id="node7" class="node">
<title>EqSplit_8_join</title>
<ellipse fill="none" stroke="black" cx="1332.34" cy="-162" rx="122.38" ry="18"/>
<text text-anchor="middle" x="1332.34" y="-158.3" font-family="Times,serif" font-size="14.00">fm7b_join1_round_robin</text>
</g>
<!-- EqSplit_8_join&#45;&gt;AnonFilter_a0_pop_6_push_1_9 -->
<g id="edge5" class="edge">
<title>EqSplit_8_join&#45;&gt;AnonFilter_a0_pop_6_push_1_9</title>
<path fill="none" stroke="black" d="M1332.34,-143.7C1332.34,-135.98 1332.34,-126.71 1332.34,-118.11"/>
<polygon fill="black" stroke="black" points="1335.84,-118.1 1332.34,-108.1 1328.84,-118.1 1335.84,-118.1"/>
</g>
<!-- fm7b_subtracter_pop_2_push_1_19 -->
<g id="node8" class="node">
<title>fm7b_subtracter_pop_2_push_1_19</title>
<ellipse fill="none" stroke="black" cx="519.34" cy="-306" rx="87.99" ry="18"/>
<text text-anchor="middle" x="519.34" y="-302.3" font-family="Times,serif" font-size="14.00">fm7b_subtracter</text>
</g>
<!-- fm7b_amplify_pop_1_push_1_17 -->
<g id="node9" class="node">
<title>fm7b_amplify_pop_1_push_1_17</title>
<ellipse fill="none" stroke="black" cx="785.34" cy="-234" rx="73.39" ry="18"/>
<text text-anchor="middle" x="785.34" y="-230.3" font-family="Times,serif" font-size="14.00">fm7b_amplify</text>
</g>
<!-- fm7b_subtracter_pop_2_push_1_19&#45;&gt;fm7b_amplify_pop_1_push_1_17 -->
<g id="edge6" class="edge">
<title>fm7b_subtracter_pop_2_push_1_19&#45;&gt;fm7b_amplify_pop_1_push_1_17</title>
<path fill="none" stroke="black" d="M570.94,-291.42C615.7,-279.64 680.45,-262.6 727.06,-250.34"/>
<polygon fill="black" stroke="black" points="728.24,-253.65 737.02,-247.72 726.46,-246.88 728.24,-253.65"/>
</g>
<!-- fm7b_amplify_pop_1_push_1_17&#45;&gt;EqSplit_8_join -->
<g id="edge13" class="edge">
<title>fm7b_amplify_pop_1_push_1_17&#45;&gt;EqSplit_8_join</title>
<path fill="none" stroke="black" d="M842.19,-222.49C855.35,-220.2 869.32,-217.91 882.34,-216 999,-198.92 1133.31,-183.67 1224.61,-173.97"/>
<polygon fill="black" stroke="black" points="1225.12,-177.43 1234.7,-172.9 1224.38,-170.47 1225.12,-177.43"/>
</g>
<!-- BPFCore_18_join -->
<g id="node10" class="node">
<title>BPFCore_18_join</title>
<ellipse fill="none" stroke="black" cx="328.34" cy="-378" rx="122.38" ry="18"/>
<text text-anchor="middle" x="328.34" y="-374.3" font-family="Times,serif" font-size="14.00">fm7b_join2_round_robin</text>
</g>
<!-- BPFCore_18_join&#45;&gt;fm7b_subtracter_pop_2_push_1_19 -->
<g id="edge7" class="edge">
<title>BPFCore_18_join&#45;&gt;fm7b_subtracter_pop_2_push_1_19</title>
<path fill="none" stroke="black" d="M371.68,-361.12C400.58,-350.52 438.68,-336.56 468.93,-325.47"/>
<polygon fill="black" stroke="black" points="470.28,-328.71 478.46,-321.98 467.87,-322.14 470.28,-328.71"/>
</g>
<!-- fm7b_lowpass_filter_pop_1_peek_64_push_1_20 -->
<g id="node12" class="node">
<title>fm7b_lowpass_filter_pop_1_peek_64_push_1_20</title>
<ellipse fill="none" stroke="black" cx="103.34" cy="-450" rx="103.18" ry="18"/>
<text text-anchor="middle" x="103.34" y="-446.3" font-family="Times,serif" font-size="14.00">fm7b_lowpass_filter</text>
</g>
<!-- BPFCore_18_split&#45;&gt;fm7b_lowpass_filter_pop_1_peek_64_push_1_20 -->
<g id="edge8" class="edge">
<title>BPFCore_18_split&#45;&gt;fm7b_lowpass_filter_pop_1_peek_64_push_1_20</title>
<path fill="none" stroke="black" d="M279.24,-505.72C244.61,-494.95 198.08,-480.47 161.57,-469.12"/>
<polygon fill="black" stroke="black" points="162.15,-465.63 151.56,-466 160.07,-472.31 162.15,-465.63"/>
</g>
<!-- fm7b_lowpass_filter_pop_1_peek_64_push_1_21 -->
<g id="node13" class="node">
<title>fm7b_lowpass_filter_pop_1_peek_64_push_1_21</title>
<ellipse fill="none" stroke="black" cx="328.34" cy="-450" rx="103.18" ry="18"/>
<text text-anchor="middle" x="328.34" y="-446.3" font-family="Times,serif" font-size="14.00">fm7b_lowpass_filter</text>
</g>
<!-- BPFCore_18_split&#45;&gt;fm7b_lowpass_filter_pop_1_peek_64_push_1_21 -->
<g id="edge10" class="edge">
<title>BPFCore_18_split&#45;&gt;fm7b_lowpass_filter_pop_1_peek_64_push_1_21</title>
<path fill="none" stroke="black" d="M328.34,-503.7C328.34,-495.98 328.34,-486.71 328.34,-478.11"/>
<polygon fill="black" stroke="black" points="331.84,-478.1 328.34,-468.1 324.84,-478.1 331.84,-478.1"/>
</g>
<!-- fm7b_lowpass_filter_pop_1_peek_64_push_1_20&#45;&gt;BPFCore_18_join -->
<g id="edge9" class="edge">
<title>fm7b_lowpass_filter_pop_1_peek_64_push_1_20&#45;&gt;BPFCore_18_join</title>
<path fill="none" stroke="black" d="M151.61,-433.98C185.98,-423.29 232.39,-408.85 269.02,-397.45"/>
<polygon fill="black" stroke="black" points="270.09,-400.79 278.6,-394.48 268.01,-394.1 270.09,-400.79"/>
</g>
<!-- fm7b_lowpass_filter_pop_1_peek_64_push_1_21&#45;&gt;BPFCore_18_join -->
<g id="edge11" class="edge">
<title>fm7b_lowpass_filter_pop_1_peek_64_push_1_21&#45;&gt;BPFCore_18_join</title>
<path fill="none" stroke="black" d="M328.34,-431.7C328.34,-423.98 328.34,-414.71 328.34,-406.11"/>
<polygon fill="black" stroke="black" points="331.84,-406.1 328.34,-396.1 324.84,-406.1 331.84,-406.1"/>
</g>
<!-- fm7b_subtracter_pop_2_push_1_27 -->
<g id="node14" class="node">
<title>fm7b_subtracter_pop_2_push_1_27</title>
<ellipse fill="none" stroke="black" cx="840.34" cy="-306" rx="87.99" ry="18"/>
<text text-anchor="middle" x="840.34" y="-302.3" font-family="Times,serif" font-size="14.00">fm7b_subtracter</text>
</g>
<!-- fm7b_amplify_pop_1_push_1_25 -->
<g id="node15" class="node">
<title>fm7b_amplify_pop_1_push_1_25</title>
<ellipse fill="none" stroke="black" cx="964.34" cy="-234" rx="73.39" ry="18"/>
<text text-anchor="middle" x="964.34" y="-230.3" font-family="Times,serif" font-size="14.00">fm7b_amplify</text>
</g>
<!-- fm7b_subtracter_pop_2_push_1_27&#45;&gt;fm7b_amplify_pop_1_push_1_25 -->
<g id="edge14" class="edge">
<title>fm7b_subtracter_pop_2_push_1_27&#45;&gt;fm7b_amplify_pop_1_push_1_25</title>
<path fill="none" stroke="black" d="M868.79,-288.94C886.24,-279.09 908.77,-266.37 927.56,-255.76"/>
<polygon fill="black" stroke="black" points="929.46,-258.71 936.45,-250.74 926.02,-252.61 929.46,-258.71"/>
</g>
<!-- fm7b_amplify_pop_1_push_1_25&#45;&gt;EqSplit_8_join -->
<g id="edge21" class="edge">
<title>fm7b_amplify_pop_1_push_1_25&#45;&gt;EqSplit_8_join</title>
<path fill="none" stroke="black" d="M1020.63,-222.29C1081.95,-210.63 1180.59,-191.87 1250.47,-178.57"/>
<polygon fill="black" stroke="black" points="1251.4,-181.96 1260.57,-176.65 1250.09,-175.08 1251.4,-181.96"/>
</g>
<!-- BPFCore_26_join -->
<g id="node16" class="node">
<title>BPFCore_26_join</title>
<ellipse fill="none" stroke="black" cx="778.34" cy="-378" rx="122.38" ry="18"/>
<text text-anchor="middle" x="778.34" y="-374.3" font-family="Times,serif" font-size="14.00">fm7b_join2_round_robin</text>
</g>
<!-- BPFCore_26_join&#45;&gt;fm7b_subtracter_pop_2_push_1_27 -->
<g id="edge15" class="edge">
<title>BPFCore_26_join&#45;&gt;fm7b_subtracter_pop_2_push_1_27</title>
<path fill="none" stroke="black" d="M793.35,-360.05C800.96,-351.46 810.35,-340.86 818.73,-331.4"/>
<polygon fill="black" stroke="black" points="821.46,-333.6 825.47,-323.79 816.22,-328.95 821.46,-333.6"/>
</g>
<!-- fm7b_lowpass_filter_pop_1_peek_64_push_1_28 -->
<g id="node18" class="node">
<title>fm7b_lowpass_filter_pop_1_peek_64_push_1_28</title>
<ellipse fill="none" stroke="black" cx="553.34" cy="-450" rx="103.18" ry="18"/>
<text text-anchor="middle" x="553.34" y="-446.3" font-family="Times,serif" font-size="14.00">fm7b_lowpass_filter</text>
</g>
<!-- BPFCore_26_split&#45;&gt;fm7b_lowpass_filter_pop_1_peek_64_push_1_28 -->
<g id="edge16" class="edge">
<title>BPFCore_26_split&#45;&gt;fm7b_lowpass_filter_pop_1_peek_64_push_1_28</title>
<path fill="none" stroke="black" d="M729.24,-505.72C694.61,-494.95 648.08,-480.47 611.57,-469.12"/>
<polygon fill="black" stroke="black" points="612.15,-465.63 601.56,-466 610.07,-472.31 612.15,-465.63"/>
</g>
<!-- fm7b_lowpass_filter_pop_1_peek_64_push_1_29 -->
<g id="node19" class="node">
<title>fm7b_lowpass_filter_pop_1_peek_64_push_1_29</title>
<ellipse fill="none" stroke="black" cx="778.34" cy="-450" rx="103.18" ry="18"/>
<text text-anchor="middle" x="778.34" y="-446.3" font-family="Times,serif" font-size="14.00">fm7b_lowpass_filter</text>
</g>
<!-- BPFCore_26_split&#45;&gt;fm7b_lowpass_filter_pop_1_peek_64_push_1_29 -->
<g id="edge18" class="edge">
<title>BPFCore_26_split&#45;&gt;fm7b_lowpass_filter_pop_1_peek_64_push_1_29</title>
<path fill="none" stroke="black" d="M778.34,-503.7C778.34,-495.98 778.34,-486.71 778.34,-478.11"/>
<polygon fill="black" stroke="black" points="781.84,-478.1 778.34,-468.1 774.84,-478.1 781.84,-478.1"/>
</g>
<!-- fm7b_lowpass_filter_pop_1_peek_64_push_1_28&#45;&gt;BPFCore_26_join -->
<g id="edge17" class="edge">
<title>fm7b_lowpass_filter_pop_1_peek_64_push_1_28&#45;&gt;BPFCore_26_join</title>
<path fill="none" stroke="black" d="M601.61,-433.98C635.98,-423.29 682.39,-408.85 719.02,-397.45"/>
<polygon fill="black" stroke="black" points="720.09,-400.79 728.6,-394.48 718.01,-394.1 720.09,-400.79"/>
</g>
<!-- fm7b_lowpass_filter_pop_1_peek_64_push_1_29&#45;&gt;BPFCore_26_join -->
<g id="edge19" class="edge">
<title>fm7b_lowpass_filter_pop_1_peek_64_push_1_29&#45;&gt;BPFCore_26_join</title>
<path fill="none" stroke="black" d="M778.34,-431.7C778.34,-423.98 778.34,-414.71 778.34,-406.11"/>
<polygon fill="black" stroke="black" points="781.84,-406.1 778.34,-396.1 774.84,-406.1 781.84,-406.1"/>
</g>
<!-- fm7b_subtracter_pop_2_push_1_35 -->
<g id="node20" class="node">
<title>fm7b_subtracter_pop_2_push_1_35</title>
<ellipse fill="none" stroke="black" cx="1226.34" cy="-306" rx="87.99" ry="18"/>
<text text-anchor="middle" x="1226.34" y="-302.3" font-family="Times,serif" font-size="14.00">fm7b_subtracter</text>
</g>
<!-- fm7b_amplify_pop_1_push_1_33 -->
<g id="node21" class="node">
<title>fm7b_amplify_pop_1_push_1_33</title>
<ellipse fill="none" stroke="black" cx="1250.34" cy="-234" rx="73.39" ry="18"/>
<text text-anchor="middle" x="1250.34" y="-230.3" font-family="Times,serif" font-size="14.00">fm7b_amplify</text>
</g>
<!-- fm7b_subtracter_pop_2_push_1_35&#45;&gt;fm7b_amplify_pop_1_push_1_33 -->
<g id="edge22" class="edge">
<title>fm7b_subtracter_pop_2_push_1_35&#45;&gt;fm7b_amplify_pop_1_push_1_33</title>
<path fill="none" stroke="black" d="M1232.27,-287.7C1234.95,-279.9 1238.17,-270.51 1241.14,-261.83"/>
<polygon fill="black" stroke="black" points="1244.54,-262.7 1244.48,-252.1 1237.92,-260.43 1244.54,-262.7"/>
</g>
<!-- fm7b_amplify_pop_1_push_1_33&#45;&gt;EqSplit_8_join -->
<g id="edge29" class="edge">
<title>fm7b_amplify_pop_1_push_1_33&#45;&gt;EqSplit_8_join</title>
<path fill="none" stroke="black" d="M1269.77,-216.41C1280.24,-207.48 1293.33,-196.3 1304.82,-186.49"/>
<polygon fill="black" stroke="black" points="1307.14,-189.11 1312.48,-179.96 1302.6,-183.79 1307.14,-189.11"/>
</g>
<!-- BPFCore_34_join -->
<g id="node22" class="node">
<title>BPFCore_34_join</title>
<ellipse fill="none" stroke="black" cx="1209.34" cy="-378" rx="122.38" ry="18"/>
<text text-anchor="middle" x="1209.34" y="-374.3" font-family="Times,serif" font-size="14.00">fm7b_join2_round_robin</text>
</g>
<!-- BPFCore_34_join&#45;&gt;fm7b_subtracter_pop_2_push_1_35 -->
<g id="edge23" class="edge">
<title>BPFCore_34_join&#45;&gt;fm7b_subtracter_pop_2_push_1_35</title>
<path fill="none" stroke="black" d="M1213.54,-359.7C1215.44,-351.9 1217.72,-342.51 1219.83,-333.83"/>
<polygon fill="black" stroke="black" points="1223.23,-334.65 1222.19,-324.1 1216.43,-333 1223.23,-334.65"/>
</g>
<!-- fm7b_lowpass_filter_pop_1_peek_64_push_1_36 -->
<g id="node24" class="node">
<title>fm7b_lowpass_filter_pop_1_peek_64_push_1_36</title>
<ellipse fill="none" stroke="black" cx="1003.34" cy="-450" rx="103.18" ry="18"/>
<text text-anchor="middle" x="1003.34" y="-446.3" font-family="Times,serif" font-size="14.00">fm7b_lowpass_filter</text>
</g>
<!-- BPFCore_34_split&#45;&gt;fm7b_lowpass_filter_pop_1_peek_64_push_1_36 -->
<g id="edge24" class="edge">
<title>BPFCore_34_split&#45;&gt;fm7b_lowpass_filter_pop_1_peek_64_push_1_36</title>
<path fill="none" stroke="black" d="M1171.94,-505.64C1138.79,-494.9 1094.39,-480.51 1059.47,-469.19"/>
<polygon fill="black" stroke="black" points="1060.48,-465.84 1049.89,-466.09 1058.32,-472.5 1060.48,-465.84"/>
</g>
<!-- fm7b_lowpass_filter_pop_1_peek_64_push_1_37 -->
<g id="node25" class="node">
<title>fm7b_lowpass_filter_pop_1_peek_64_push_1_37</title>
<ellipse fill="none" stroke="black" cx="1228.34" cy="-450" rx="103.18" ry="18"/>
<text text-anchor="middle" x="1228.34" y="-446.3" font-family="Times,serif" font-size="14.00">fm7b_lowpass_filter</text>
</g>
<!-- BPFCore_34_split&#45;&gt;fm7b_lowpass_filter_pop_1_peek_64_push_1_37 -->
<g id="edge26" class="edge">
<title>BPFCore_34_split&#45;&gt;fm7b_lowpass_filter_pop_1_peek_64_push_1_37</title>
<path fill="none" stroke="black" d="M1221.57,-503.7C1222.56,-495.98 1223.75,-486.71 1224.85,-478.11"/>
<polygon fill="black" stroke="black" points="1228.34,-478.47 1226.14,-468.1 1221.39,-477.58 1228.34,-478.47"/>
</g>
<!-- fm7b_lowpass_filter_pop_1_peek_64_push_1_36&#45;&gt;BPFCore_34_join -->
<g id="edge25" class="edge">
<title>fm7b_lowpass_filter_pop_1_peek_64_push_1_36&#45;&gt;BPFCore_34_join</title>
<path fill="none" stroke="black" d="M1048.29,-433.72C1079.22,-423.22 1120.51,-409.19 1153.54,-397.96"/>
<polygon fill="black" stroke="black" points="1154.71,-401.26 1163.06,-394.73 1152.46,-394.63 1154.71,-401.26"/>
</g>
<!-- fm7b_lowpass_filter_pop_1_peek_64_push_1_37&#45;&gt;BPFCore_34_join -->
<g id="edge27" class="edge">
<title>fm7b_lowpass_filter_pop_1_peek_64_push_1_37&#45;&gt;BPFCore_34_join</title>
<path fill="none" stroke="black" d="M1223.64,-431.7C1221.53,-423.9 1218.98,-414.51 1216.62,-405.83"/>
<polygon fill="black" stroke="black" points="1219.98,-404.84 1213.98,-396.1 1213.23,-406.67 1219.98,-404.84"/>
</g>
<!-- fm7b_subtracter_pop_2_push_1_43 -->
<g id="node26" class="node">
<title>fm7b_subtracter_pop_2_push_1_43</title>
<ellipse fill="none" stroke="black" cx="1453.34" cy="-306" rx="87.99" ry="18"/>
<text text-anchor="middle" x="1453.34" y="-302.3" font-family="Times,serif" font-size="14.00">fm7b_subtracter</text>
</g>
<!-- fm7b_amplify_pop_1_push_1_41 -->
<g id="node27" class="node">
<title>fm7b_amplify_pop_1_push_1_41</title>
<ellipse fill="none" stroke="black" cx="1429.34" cy="-234" rx="73.39" ry="18"/>
<text text-anchor="middle" x="1429.34" y="-230.3" font-family="Times,serif" font-size="14.00">fm7b_amplify</text>
</g>
<!-- fm7b_subtracter_pop_2_push_1_43&#45;&gt;fm7b_amplify_pop_1_push_1_41 -->
<g id="edge30" class="edge">
<title>fm7b_subtracter_pop_2_push_1_43&#45;&gt;fm7b_amplify_pop_1_push_1_41</title>
<path fill="none" stroke="black" d="M1447.41,-287.7C1444.73,-279.9 1441.52,-270.51 1438.54,-261.83"/>
<polygon fill="black" stroke="black" points="1441.76,-260.43 1435.21,-252.1 1435.14,-262.7 1441.76,-260.43"/>
</g>
<!-- fm7b_amplify_pop_1_push_1_41&#45;&gt;EqSplit_8_join -->
<g id="edge37" class="edge">
<title>fm7b_amplify_pop_1_push_1_41&#45;&gt;EqSplit_8_join</title>
<path fill="none" stroke="black" d="M1406.84,-216.76C1394.14,-207.6 1378.07,-196 1364.1,-185.92"/>
<polygon fill="black" stroke="black" points="1365.89,-182.89 1355.73,-179.88 1361.79,-188.57 1365.89,-182.89"/>
</g>
<!-- BPFCore_42_join -->
<g id="node28" class="node">
<title>BPFCore_42_join</title>
<ellipse fill="none" stroke="black" cx="1471.34" cy="-378" rx="122.38" ry="18"/>
<text text-anchor="middle" x="1471.34" y="-374.3" font-family="Times,serif" font-size="14.00">fm7b_join2_round_robin</text>
</g>
<!-- BPFCore_42_join&#45;&gt;fm7b_subtracter_pop_2_push_1_43 -->
<g id="edge31" class="edge">
<title>BPFCore_42_join&#45;&gt;fm7b_subtracter_pop_2_push_1_43</title>
<path fill="none" stroke="black" d="M1466.89,-359.7C1464.89,-351.9 1462.47,-342.51 1460.24,-333.83"/>
<polygon fill="black" stroke="black" points="1463.62,-332.92 1457.74,-324.1 1456.84,-334.66 1463.62,-332.92"/>
</g>
<!-- fm7b_lowpass_filter_pop_1_peek_64_push_1_44 -->
<g id="node30" class="node">
<title>fm7b_lowpass_filter_pop_1_peek_64_push_1_44</title>
<ellipse fill="none" stroke="black" cx="1453.34" cy="-450" rx="103.18" ry="18"/>
<text text-anchor="middle" x="1453.34" y="-446.3" font-family="Times,serif" font-size="14.00">fm7b_lowpass_filter</text>
</g>
<!-- BPFCore_42_split&#45;&gt;fm7b_lowpass_filter_pop_1_peek_64_push_1_44 -->
<g id="edge32" class="edge">
<title>BPFCore_42_split&#45;&gt;fm7b_lowpass_filter_pop_1_peek_64_push_1_44</title>
<path fill="none" stroke="black" d="M1460.12,-503.7C1459.12,-495.98 1457.93,-486.71 1456.83,-478.11"/>
<polygon fill="black" stroke="black" points="1460.29,-477.58 1455.54,-468.1 1453.34,-478.47 1460.29,-477.58"/>
</g>
<!-- fm7b_lowpass_filter_pop_1_peek_64_push_1_45 -->
<g id="node31" class="node">
<title>fm7b_lowpass_filter_pop_1_peek_64_push_1_45</title>
<ellipse fill="none" stroke="black" cx="1678.34" cy="-450" rx="103.18" ry="18"/>
<text text-anchor="middle" x="1678.34" y="-446.3" font-family="Times,serif" font-size="14.00">fm7b_lowpass_filter</text>
</g>
<!-- BPFCore_42_split&#45;&gt;fm7b_lowpass_filter_pop_1_peek_64_push_1_45 -->
<g id="edge34" class="edge">
<title>BPFCore_42_split&#45;&gt;fm7b_lowpass_filter_pop_1_peek_64_push_1_45</title>
<path fill="none" stroke="black" d="M1509.74,-505.64C1542.89,-494.9 1587.29,-480.51 1622.21,-469.19"/>
<polygon fill="black" stroke="black" points="1623.36,-472.5 1631.79,-466.09 1621.2,-465.84 1623.36,-472.5"/>
</g>
<!-- fm7b_lowpass_filter_pop_1_peek_64_push_1_44&#45;&gt;BPFCore_42_join -->
<g id="edge33" class="edge">
<title>fm7b_lowpass_filter_pop_1_peek_64_push_1_44&#45;&gt;BPFCore_42_join</title>
<path fill="none" stroke="black" d="M1457.79,-431.7C1459.8,-423.9 1462.21,-414.51 1464.44,-405.83"/>
<polygon fill="black" stroke="black" points="1467.84,-406.66 1466.94,-396.1 1461.06,-404.92 1467.84,-406.66"/>
</g>
<!-- fm7b_lowpass_filter_pop_1_peek_64_push_1_45&#45;&gt;BPFCore_42_join -->
<g id="edge35" class="edge">
<title>fm7b_lowpass_filter_pop_1_peek_64_push_1_45&#45;&gt;BPFCore_42_join</title>
<path fill="none" stroke="black" d="M1633.17,-433.72C1602.1,-423.22 1560.61,-409.19 1527.42,-397.96"/>
<polygon fill="black" stroke="black" points="1528.44,-394.62 1517.85,-394.73 1526.2,-401.25 1528.44,-394.62"/>
</g>
<!-- fm7b_subtracter_pop_2_push_1_51 -->
<g id="node32" class="node">
<title>fm7b_subtracter_pop_2_push_1_51</title>
<ellipse fill="none" stroke="black" cx="1792.34" cy="-306" rx="87.99" ry="18"/>
<text text-anchor="middle" x="1792.34" y="-302.3" font-family="Times,serif" font-size="14.00">fm7b_subtracter</text>
</g>
<!-- fm7b_amplify_pop_1_push_1_49 -->
<g id="node33" class="node">
<title>fm7b_amplify_pop_1_push_1_49</title>
<ellipse fill="none" stroke="black" cx="1615.34" cy="-234" rx="73.39" ry="18"/>
<text text-anchor="middle" x="1615.34" y="-230.3" font-family="Times,serif" font-size="14.00">fm7b_amplify</text>
</g>
<!-- fm7b_subtracter_pop_2_push_1_51&#45;&gt;fm7b_amplify_pop_1_push_1_49 -->
<g id="edge38" class="edge">
<title>fm7b_subtracter_pop_2_push_1_51&#45;&gt;fm7b_amplify_pop_1_push_1_49</title>
<path fill="none" stroke="black" d="M1753.93,-289.81C1726.9,-279.12 1690.55,-264.75 1661.87,-253.4"/>
<polygon fill="black" stroke="black" points="1663.05,-250.1 1652.46,-249.68 1660.47,-256.61 1663.05,-250.1"/>
</g>
<!-- fm7b_amplify_pop_1_push_1_49&#45;&gt;EqSplit_8_join -->
<g id="edge45" class="edge">
<title>fm7b_amplify_pop_1_push_1_49&#45;&gt;EqSplit_8_join</title>
<path fill="none" stroke="black" d="M1565.72,-220.73C1520.32,-209.5 1452.68,-192.77 1401.9,-180.2"/>
<polygon fill="black" stroke="black" points="1402.52,-176.75 1391.98,-177.75 1400.84,-183.55 1402.52,-176.75"/>
</g>
<!-- BPFCore_50_join -->
<g id="node34" class="node">
<title>BPFCore_50_join</title>
<ellipse fill="none" stroke="black" cx="1903.34" cy="-378" rx="122.38" ry="18"/>
<text text-anchor="middle" x="1903.34" y="-374.3" font-family="Times,serif" font-size="14.00">fm7b_join2_round_robin</text>
</g>
<!-- BPFCore_50_join&#45;&gt;fm7b_subtracter_pop_2_push_1_51 -->
<g id="edge39" class="edge">
<title>BPFCore_50_join&#45;&gt;fm7b_subtracter_pop_2_push_1_51</title>
<path fill="none" stroke="black" d="M1877.04,-360.41C1862,-350.93 1842.96,-338.92 1826.75,-328.7"/>
<polygon fill="black" stroke="black" points="1828.4,-325.6 1818.07,-323.23 1824.67,-331.52 1828.4,-325.6"/>
</g>
<!-- fm7b_lowpass_filter_pop_1_peek_64_push_1_52 -->
<g id="node36" class="node">
<title>fm7b_lowpass_filter_pop_1_peek_64_push_1_52</title>
<ellipse fill="none" stroke="black" cx="1903.34" cy="-450" rx="103.18" ry="18"/>
<text text-anchor="middle" x="1903.34" y="-446.3" font-family="Times,serif" font-size="14.00">fm7b_lowpass_filter</text>
</g>
<!-- BPFCore_50_split&#45;&gt;fm7b_lowpass_filter_pop_1_peek_64_push_1_52 -->
<g id="edge40" class="edge">
<title>BPFCore_50_split&#45;&gt;fm7b_lowpass_filter_pop_1_peek_64_push_1_52</title>
<path fill="none" stroke="black" d="M1903.34,-503.7C1903.34,-495.98 1903.34,-486.71 1903.34,-478.11"/>
<polygon fill="black" stroke="black" points="1906.84,-478.1 1903.34,-468.1 1899.84,-478.1 1906.84,-478.1"/>
</g>
<!-- fm7b_lowpass_filter_pop_1_peek_64_push_1_53 -->
<g id="node37" class="node">
<title>fm7b_lowpass_filter_pop_1_peek_64_push_1_53</title>
<ellipse fill="none" stroke="black" cx="2128.34" cy="-450" rx="103.18" ry="18"/>
<text text-anchor="middle" x="2128.34" y="-446.3" font-family="Times,serif" font-size="14.00">fm7b_lowpass_filter</text>
</g>
<!-- BPFCore_50_split&#45;&gt;fm7b_lowpass_filter_pop_1_peek_64_push_1_53 -->
<g id="edge42" class="edge">
<title>BPFCore_50_split&#45;&gt;fm7b_lowpass_filter_pop_1_peek_64_push_1_53</title>
<path fill="none" stroke="black" d="M1952.44,-505.72C1987.07,-494.95 2033.6,-480.47 2070.11,-469.12"/>
<polygon fill="black" stroke="black" points="2071.61,-472.31 2080.12,-466 2069.53,-465.63 2071.61,-472.31"/>
</g>
<!-- fm7b_lowpass_filter_pop_1_peek_64_push_1_52&#45;&gt;BPFCore_50_join -->
<g id="edge41" class="edge">
<title>fm7b_lowpass_filter_pop_1_peek_64_push_1_52&#45;&gt;BPFCore_50_join</title>
<path fill="none" stroke="black" d="M1903.34,-431.7C1903.34,-423.98 1903.34,-414.71 1903.34,-406.11"/>
<polygon fill="black" stroke="black" points="1906.84,-406.1 1903.34,-396.1 1899.84,-406.1 1906.84,-406.1"/>
</g>
<!-- fm7b_lowpass_filter_pop_1_peek_64_push_1_53&#45;&gt;BPFCore_50_join -->
<g id="edge43" class="edge">
<title>fm7b_lowpass_filter_pop_1_peek_64_push_1_53&#45;&gt;BPFCore_50_join</title>
<path fill="none" stroke="black" d="M2080.07,-433.98C2045.7,-423.29 1999.29,-408.85 1962.66,-397.45"/>
<polygon fill="black" stroke="black" points="1963.67,-394.1 1953.09,-394.48 1961.59,-400.79 1963.67,-394.1"/>
</g>
<!-- fm7b_subtracter_pop_2_push_1_59 -->
<g id="node38" class="node">
<title>fm7b_subtracter_pop_2_push_1_59</title>
<ellipse fill="none" stroke="black" cx="2186.34" cy="-306" rx="87.99" ry="18"/>
<text text-anchor="middle" x="2186.34" y="-302.3" font-family="Times,serif" font-size="14.00">fm7b_subtracter</text>
</g>
<!-- fm7b_amplify_pop_1_push_1_57 -->
<g id="node39" class="node">
<title>fm7b_amplify_pop_1_push_1_57</title>
<ellipse fill="none" stroke="black" cx="1804.34" cy="-234" rx="73.39" ry="18"/>
<text text-anchor="middle" x="1804.34" y="-230.3" font-family="Times,serif" font-size="14.00">fm7b_amplify</text>
</g>
<!-- fm7b_subtracter_pop_2_push_1_59&#45;&gt;fm7b_amplify_pop_1_push_1_57 -->
<g id="edge46" class="edge">
<title>fm7b_subtracter_pop_2_push_1_59&#45;&gt;fm7b_amplify_pop_1_push_1_57</title>
<path fill="none" stroke="black" d="M2123.26,-293.44C2053.78,-280.71 1942.5,-260.32 1871.45,-247.3"/>
<polygon fill="black" stroke="black" points="1871.74,-243.79 1861.27,-245.43 1870.48,-250.68 1871.74,-243.79"/>
</g>
<!-- fm7b_amplify_pop_1_push_1_57&#45;&gt;EqSplit_8_join -->
<g id="edge53" class="edge">
<title>fm7b_amplify_pop_1_push_1_57&#45;&gt;EqSplit_8_join</title>
<path fill="none" stroke="black" d="M1744.66,-223.37C1729.25,-220.93 1712.68,-218.33 1697.34,-216 1605.74,-202.07 1501.08,-186.96 1427.39,-176.45"/>
<polygon fill="black" stroke="black" points="1427.6,-172.94 1417.2,-175 1426.61,-179.87 1427.6,-172.94"/>
</g>
<!-- BPFCore_58_join -->
<g id="node40" class="node">
<title>BPFCore_58_join</title>
<ellipse fill="none" stroke="black" cx="2353.34" cy="-378" rx="122.38" ry="18"/>
<text text-anchor="middle" x="2353.34" y="-374.3" font-family="Times,serif" font-size="14.00">fm7b_join2_round_robin</text>
</g>
<!-- BPFCore_58_join&#45;&gt;fm7b_subtracter_pop_2_push_1_59 -->
<g id="edge47" class="edge">
<title>BPFCore_58_join&#45;&gt;fm7b_subtracter_pop_2_push_1_59</title>
<path fill="none" stroke="black" d="M2314.61,-360.76C2290.17,-350.52 2258.47,-337.24 2232.7,-326.43"/>
<polygon fill="black" stroke="black" points="2233.72,-323.06 2223.14,-322.43 2231.01,-329.52 2233.72,-323.06"/>
</g>
<!-- fm7b_lowpass_filter_pop_1_peek_64_push_1_60 -->
<g id="node42" class="node">
<title>fm7b_lowpass_filter_pop_1_peek_64_push_1_60</title>
<ellipse fill="none" stroke="black" cx="2353.34" cy="-450" rx="103.18" ry="18"/>
<text text-anchor="middle" x="2353.34" y="-446.3" font-family="Times,serif" font-size="14.00">fm7b_lowpass_filter</text>
</g>
<!-- BPFCore_58_split&#45;&gt;fm7b_lowpass_filter_pop_1_peek_64_push_1_60 -->
<g id="edge48" class="edge">
<title>BPFCore_58_split&#45;&gt;fm7b_lowpass_filter_pop_1_peek_64_push_1_60</title>
<path fill="none" stroke="black" d="M2353.34,-503.7C2353.34,-495.98 2353.34,-486.71 2353.34,-478.11"/>
<polygon fill="black" stroke="black" points="2356.84,-478.1 2353.34,-468.1 2349.84,-478.1 2356.84,-478.1"/>
</g>
<!-- fm7b_lowpass_filter_pop_1_peek_64_push_1_61 -->
<g id="node43" class="node">
<title>fm7b_lowpass_filter_pop_1_peek_64_push_1_61</title>
<ellipse fill="none" stroke="black" cx="2578.34" cy="-450" rx="103.18" ry="18"/>
<text text-anchor="middle" x="2578.34" y="-446.3" font-family="Times,serif" font-size="14.00">fm7b_lowpass_filter</text>
</g>
<!-- BPFCore_58_split&#45;&gt;fm7b_lowpass_filter_pop_1_peek_64_push_1_61 -->
<g id="edge50" class="edge">
<title>BPFCore_58_split&#45;&gt;fm7b_lowpass_filter_pop_1_peek_64_push_1_61</title>
<path fill="none" stroke="black" d="M2402.44,-505.72C2437.07,-494.95 2483.6,-480.47 2520.11,-469.12"/>
<polygon fill="black" stroke="black" points="2521.61,-472.31 2530.12,-466 2519.53,-465.63 2521.61,-472.31"/>
</g>
<!-- fm7b_lowpass_filter_pop_1_peek_64_push_1_60&#45;&gt;BPFCore_58_join -->
<g id="edge49" class="edge">
<title>fm7b_lowpass_filter_pop_1_peek_64_push_1_60&#45;&gt;BPFCore_58_join</title>
<path fill="none" stroke="black" d="M2353.34,-431.7C2353.34,-423.98 2353.34,-414.71 2353.34,-406.11"/>
<polygon fill="black" stroke="black" points="2356.84,-406.1 2353.34,-396.1 2349.84,-406.1 2356.84,-406.1"/>
</g>
<!-- fm7b_lowpass_filter_pop_1_peek_64_push_1_61&#45;&gt;BPFCore_58_join -->
<g id="edge51" class="edge">
<title>fm7b_lowpass_filter_pop_1_peek_64_push_1_61&#45;&gt;BPFCore_58_join</title>
<path fill="none" stroke="black" d="M2530.07,-433.98C2495.7,-423.29 2449.29,-408.85 2412.66,-397.45"/>
<polygon fill="black" stroke="black" points="2413.67,-394.1 2403.09,-394.48 2411.59,-400.79 2413.67,-394.1"/>
</g>
</g>
</svg>
