<?xml version="1.0" encoding="UTF-8" standalone="no"?>
<!DOCTYPE svg PUBLIC "-//W3C//DTD SVG 1.1//EN"
 "http://www.w3.org/Graphics/SVG/1.1/DTD/svg11.dtd">
<!-- Generated by graphviz version 2.43.0 (0)
 -->
<!-- Title: FMRadio_244 Pages: 1 -->
<svg width="1430pt" height="332pt"
 viewBox="0.00 0.00 1430.00 332.00" xmlns="http://www.w3.org/2000/svg" xmlns:xlink="http://www.w3.org/1999/xlink">
<g id="graph0" class="graph" transform="scale(1 1) rotate(0) translate(4 328)">
<title>FMRadio_244</title>
<polygon fill="white" stroke="transparent" points="-4,4 -4,-328 1426,-328 1426,4 -4,4"/>
<!-- node0 -->
<g id="node1" class="node">
<title>node0</title>
<ellipse fill="grey" stroke="black" cx="711" cy="-306" rx="27" ry="18"/>
</g>
<!-- node4 -->
<g id="node2" class="node">
<title>node4</title>
<ellipse fill="grey" stroke="black" cx="99" cy="-234" rx="27" ry="18"/>
</g>
<!-- node0&#45;&gt;node4 -->
<g id="edge1" class="edge">
<title>node0&#45;&gt;node4</title>
<path fill="none" stroke="black" d="M684.44,-302.69C609.34,-296.06 389.1,-275.89 207,-252 183.01,-248.85 156.14,-244.63 135.2,-241.17"/>
<polygon fill="black" stroke="black" points="135.57,-237.69 125.13,-239.5 134.42,-244.59 135.57,-237.69"/>
</g>
<!-- node10 -->
<g id="node3" class="node">
<title>node10</title>
<ellipse fill="grey" stroke="black" cx="243" cy="-234" rx="27" ry="18"/>
</g>
<!-- node0&#45;&gt;node10 -->
<g id="edge2" class="edge">
<title>node0&#45;&gt;node10</title>
<path fill="none" stroke="black" d="M684.79,-301.23C625.37,-292.67 475.91,-271.02 351,-252 327.08,-248.36 300.21,-244.13 279.25,-240.8"/>
<polygon fill="black" stroke="black" points="279.6,-237.31 269.18,-239.2 278.5,-244.22 279.6,-237.31"/>
</g>
<!-- node16 -->
<g id="node4" class="node">
<title>node16</title>
<ellipse fill="grey" stroke="black" cx="387" cy="-234" rx="27" ry="18"/>
</g>
<!-- node0&#45;&gt;node16 -->
<g id="edge3" class="edge">
<title>node0&#45;&gt;node16</title>
<path fill="none" stroke="black" d="M685.58,-299.51C628.08,-287.09 487.98,-256.82 422.2,-242.61"/>
<polygon fill="black" stroke="black" points="422.82,-239.16 412.31,-240.47 421.34,-246 422.82,-239.16"/>
</g>
<!-- node22 -->
<g id="node5" class="node">
<title>node22</title>
<ellipse fill="grey" stroke="black" cx="531" cy="-234" rx="27" ry="18"/>
</g>
<!-- node0&#45;&gt;node22 -->
<g id="edge4" class="edge">
<title>node0&#45;&gt;node22</title>
<path fill="none" stroke="black" d="M688.2,-296.13C656.64,-283.86 599.46,-261.62 563.45,-247.62"/>
<polygon fill="black" stroke="black" points="564.48,-244.27 553.9,-243.9 561.95,-250.79 564.48,-244.27"/>
</g>
<!-- node28 -->
<g id="node6" class="node">
<title>node28</title>
<ellipse fill="grey" stroke="black" cx="675" cy="-234" rx="27" ry="18"/>
</g>
<!-- node0&#45;&gt;node28 -->
<g id="edge5" class="edge">
<title>node0&#45;&gt;node28</title>
<path fill="none" stroke="black" d="M702.65,-288.76C698.29,-280.28 692.85,-269.71 687.96,-260.2"/>
<polygon fill="black" stroke="black" points="690.99,-258.44 683.3,-251.15 684.77,-261.64 690.99,-258.44"/>
</g>
<!-- node34 -->
<g id="node7" class="node">
<title>node34</title>
<ellipse fill="grey" stroke="black" cx="747" cy="-234" rx="27" ry="18"/>
</g>
<!-- node0&#45;&gt;node34 -->
<g id="edge6" class="edge">
<title>node0&#45;&gt;node34</title>
<path fill="none" stroke="black" d="M719.35,-288.76C723.71,-280.28 729.15,-269.71 734.04,-260.2"/>
<polygon fill="black" stroke="black" points="737.23,-261.64 738.7,-251.15 731.01,-258.44 737.23,-261.64"/>
</g>
<!-- node40 -->
<g id="node8" class="node">
<title>node40</title>
<ellipse fill="grey" stroke="black" cx="891" cy="-234" rx="27" ry="18"/>
</g>
<!-- node0&#45;&gt;node40 -->
<g id="edge7" class="edge">
<title>node0&#45;&gt;node40</title>
<path fill="none" stroke="black" d="M733.8,-296.13C765.36,-283.86 822.54,-261.62 858.55,-247.62"/>
<polygon fill="black" stroke="black" points="860.05,-250.79 868.1,-243.9 857.52,-244.27 860.05,-250.79"/>
</g>
<!-- node46 -->
<g id="node9" class="node">
<title>node46</title>
<ellipse fill="grey" stroke="black" cx="1035" cy="-234" rx="27" ry="18"/>
</g>
<!-- node0&#45;&gt;node46 -->
<g id="edge8" class="edge">
<title>node0&#45;&gt;node46</title>
<path fill="none" stroke="black" d="M736.42,-299.51C793.92,-287.09 934.02,-256.82 999.8,-242.61"/>
<polygon fill="black" stroke="black" points="1000.66,-246 1009.69,-240.47 999.18,-239.16 1000.66,-246"/>
</g>
<!-- node52 -->
<g id="node10" class="node">
<title>node52</title>
<ellipse fill="grey" stroke="black" cx="1179" cy="-234" rx="27" ry="18"/>
</g>
<!-- node0&#45;&gt;node52 -->
<g id="edge9" class="edge">
<title>node0&#45;&gt;node52</title>
<path fill="none" stroke="black" d="M737.21,-301.23C796.63,-292.67 946.09,-271.02 1071,-252 1094.92,-248.36 1121.79,-244.13 1142.75,-240.8"/>
<polygon fill="black" stroke="black" points="1143.5,-244.22 1152.82,-239.2 1142.4,-237.31 1143.5,-244.22"/>
</g>
<!-- node58 -->
<g id="node11" class="node">
<title>node58</title>
<ellipse fill="grey" stroke="black" cx="1323" cy="-234" rx="27" ry="18"/>
</g>
<!-- node0&#45;&gt;node58 -->
<g id="edge10" class="edge">
<title>node0&#45;&gt;node58</title>
<path fill="none" stroke="black" d="M737.56,-302.69C812.66,-296.06 1032.9,-275.89 1215,-252 1238.99,-248.85 1265.86,-244.63 1286.8,-241.17"/>
<polygon fill="black" stroke="black" points="1287.58,-244.59 1296.87,-239.5 1286.43,-237.69 1287.58,-244.59"/>
</g>
<!-- node5 -->
<g id="node12" class="node">
<title>node5</title>
<ellipse fill="grey" stroke="black" cx="27" cy="-162" rx="27" ry="18"/>
</g>
<!-- node4&#45;&gt;node5 -->
<g id="edge11" class="edge">
<title>node4&#45;&gt;node5</title>
<path fill="none" stroke="black" d="M84.43,-218.83C74.25,-208.94 60.48,-195.55 48.97,-184.36"/>
<polygon fill="black" stroke="black" points="51.41,-181.85 41.8,-177.38 46.53,-186.87 51.41,-181.85"/>
</g>
<!-- node6 -->
<g id="node13" class="node">
<title>node6</title>
<ellipse fill="grey" stroke="black" cx="99" cy="-162" rx="27" ry="18"/>
</g>
<!-- node4&#45;&gt;node6 -->
<g id="edge12" class="edge">
<title>node4&#45;&gt;node6</title>
<path fill="none" stroke="black" d="M99,-215.7C99,-207.98 99,-198.71 99,-190.11"/>
<polygon fill="black" stroke="black" points="102.5,-190.1 99,-180.1 95.5,-190.1 102.5,-190.1"/>
</g>
<!-- node11 -->
<g id="node14" class="node">
<title>node11</title>
<ellipse fill="grey" stroke="black" cx="171" cy="-162" rx="27" ry="18"/>
</g>
<!-- node10&#45;&gt;node11 -->
<g id="edge13" class="edge">
<title>node10&#45;&gt;node11</title>
<path fill="none" stroke="black" d="M228.43,-218.83C218.25,-208.94 204.48,-195.55 192.97,-184.36"/>
<polygon fill="black" stroke="black" points="195.41,-181.85 185.8,-177.38 190.53,-186.87 195.41,-181.85"/>
</g>
<!-- node12 -->
<g id="node15" class="node">
<title>node12</title>
<ellipse fill="grey" stroke="black" cx="243" cy="-162" rx="27" ry="18"/>
</g>
<!-- node10&#45;&gt;node12 -->
<g id="edge14" class="edge">
<title>node10&#45;&gt;node12</title>
<path fill="none" stroke="black" d="M243,-215.7C243,-207.98 243,-198.71 243,-190.11"/>
<polygon fill="black" stroke="black" points="246.5,-190.1 243,-180.1 239.5,-190.1 246.5,-190.1"/>
</g>
<!-- node17 -->
<g id="node16" class="node">
<title>node17</title>
<ellipse fill="grey" stroke="black" cx="315" cy="-162" rx="27" ry="18"/>
</g>
<!-- node16&#45;&gt;node17 -->
<g id="edge15" class="edge">
<title>node16&#45;&gt;node17</title>
<path fill="none" stroke="black" d="M372.43,-218.83C362.25,-208.94 348.48,-195.55 336.97,-184.36"/>
<polygon fill="black" stroke="black" points="339.41,-181.85 329.8,-177.38 334.53,-186.87 339.41,-181.85"/>
</g>
<!-- node18 -->
<g id="node17" class="node">
<title>node18</title>
<ellipse fill="grey" stroke="black" cx="387" cy="-162" rx="27" ry="18"/>
</g>
<!-- node16&#45;&gt;node18 -->
<g id="edge16" class="edge">
<title>node16&#45;&gt;node18</title>
<path fill="none" stroke="black" d="M387,-215.7C387,-207.98 387,-198.71 387,-190.11"/>
<polygon fill="black" stroke="black" points="390.5,-190.1 387,-180.1 383.5,-190.1 390.5,-190.1"/>
</g>
<!-- node23 -->
<g id="node18" class="node">
<title>node23</title>
<ellipse fill="grey" stroke="black" cx="459" cy="-162" rx="27" ry="18"/>
</g>
<!-- node22&#45;&gt;node23 -->
<g id="edge17" class="edge">
<title>node22&#45;&gt;node23</title>
<path fill="none" stroke="black" d="M516.43,-218.83C506.25,-208.94 492.48,-195.55 480.97,-184.36"/>
<polygon fill="black" stroke="black" points="483.41,-181.85 473.8,-177.38 478.53,-186.87 483.41,-181.85"/>
</g>
<!-- node24 -->
<g id="node19" class="node">
<title>node24</title>
<ellipse fill="grey" stroke="black" cx="531" cy="-162" rx="27" ry="18"/>
</g>
<!-- node22&#45;&gt;node24 -->
<g id="edge18" class="edge">
<title>node22&#45;&gt;node24</title>
<path fill="none" stroke="black" d="M531,-215.7C531,-207.98 531,-198.71 531,-190.11"/>
<polygon fill="black" stroke="black" points="534.5,-190.1 531,-180.1 527.5,-190.1 534.5,-190.1"/>
</g>
<!-- node29 -->
<g id="node20" class="node">
<title>node29</title>
<ellipse fill="grey" stroke="black" cx="603" cy="-162" rx="27" ry="18"/>
</g>
<!-- node28&#45;&gt;node29 -->
<g id="edge19" class="edge">
<title>node28&#45;&gt;node29</title>
<path fill="none" stroke="black" d="M660.43,-218.83C650.25,-208.94 636.48,-195.55 624.97,-184.36"/>
<polygon fill="black" stroke="black" points="627.41,-181.85 617.8,-177.38 622.53,-186.87 627.41,-181.85"/>
</g>
<!-- node30 -->
<g id="node21" class="node">
<title>node30</title>
<ellipse fill="grey" stroke="black" cx="675" cy="-162" rx="27" ry="18"/>
</g>
<!-- node28&#45;&gt;node30 -->
<g id="edge20" class="edge">
<title>node28&#45;&gt;node30</title>
<path fill="none" stroke="black" d="M675,-215.7C675,-207.98 675,-198.71 675,-190.11"/>
<polygon fill="black" stroke="black" points="678.5,-190.1 675,-180.1 671.5,-190.1 678.5,-190.1"/>
</g>
<!-- node35 -->
<g id="node22" class="node">
<title>node35</title>
<ellipse fill="grey" stroke="black" cx="747" cy="-162" rx="27" ry="18"/>
</g>
<!-- node34&#45;&gt;node35 -->
<g id="edge21" class="edge">
<title>node34&#45;&gt;node35</title>
<path fill="none" stroke="black" d="M747,-215.7C747,-207.98 747,-198.71 747,-190.11"/>
<polygon fill="black" stroke="black" points="750.5,-190.1 747,-180.1 743.5,-190.1 750.5,-190.1"/>
</g>
<!-- node36 -->
<g id="node23" class="node">
<title>node36</title>
<ellipse fill="grey" stroke="black" cx="819" cy="-162" rx="27" ry="18"/>
</g>
<!-- node34&#45;&gt;node36 -->
<g id="edge22" class="edge">
<title>node34&#45;&gt;node36</title>
<path fill="none" stroke="black" d="M761.57,-218.83C771.75,-208.94 785.52,-195.55 797.03,-184.36"/>
<polygon fill="black" stroke="black" points="799.47,-186.87 804.2,-177.38 794.59,-181.85 799.47,-186.87"/>
</g>
<!-- node41 -->
<g id="node24" class="node">
<title>node41</title>
<ellipse fill="grey" stroke="black" cx="891" cy="-162" rx="27" ry="18"/>
</g>
<!-- node40&#45;&gt;node41 -->
<g id="edge23" class="edge">
<title>node40&#45;&gt;node41</title>
<path fill="none" stroke="black" d="M891,-215.7C891,-207.98 891,-198.71 891,-190.11"/>
<polygon fill="black" stroke="black" points="894.5,-190.1 891,-180.1 887.5,-190.1 894.5,-190.1"/>
</g>
<!-- node42 -->
<g id="node25" class="node">
<title>node42</title>
<ellipse fill="grey" stroke="black" cx="963" cy="-162" rx="27" ry="18"/>
</g>
<!-- node40&#45;&gt;node42 -->
<g id="edge24" class="edge">
<title>node40&#45;&gt;node42</title>
<path fill="none" stroke="black" d="M905.57,-218.83C915.75,-208.94 929.52,-195.55 941.03,-184.36"/>
<polygon fill="black" stroke="black" points="943.47,-186.87 948.2,-177.38 938.59,-181.85 943.47,-186.87"/>
</g>
<!-- node47 -->
<g id="node26" class="node">
<title>node47</title>
<ellipse fill="grey" stroke="black" cx="1035" cy="-162" rx="27" ry="18"/>
</g>
<!-- node46&#45;&gt;node47 -->
<g id="edge25" class="edge">
<title>node46&#45;&gt;node47</title>
<path fill="none" stroke="black" d="M1035,-215.7C1035,-207.98 1035,-198.71 1035,-190.11"/>
<polygon fill="black" stroke="black" points="1038.5,-190.1 1035,-180.1 1031.5,-190.1 1038.5,-190.1"/>
</g>
<!-- node48 -->
<g id="node27" class="node">
<title>node48</title>
<ellipse fill="grey" stroke="black" cx="1107" cy="-162" rx="27" ry="18"/>
</g>
<!-- node46&#45;&gt;node48 -->
<g id="edge26" class="edge">
<title>node46&#45;&gt;node48</title>
<path fill="none" stroke="black" d="M1049.57,-218.83C1059.75,-208.94 1073.52,-195.55 1085.03,-184.36"/>
<polygon fill="black" stroke="black" points="1087.47,-186.87 1092.2,-177.38 1082.59,-181.85 1087.47,-186.87"/>
</g>
<!-- node53 -->
<g id="node28" class="node">
<title>node53</title>
<ellipse fill="grey" stroke="black" cx="1179" cy="-162" rx="27" ry="18"/>
</g>
<!-- node52&#45;&gt;node53 -->
<g id="edge27" class="edge">
<title>node52&#45;&gt;node53</title>
<path fill="none" stroke="black" d="M1179,-215.7C1179,-207.98 1179,-198.71 1179,-190.11"/>
<polygon fill="black" stroke="black" points="1182.5,-190.1 1179,-180.1 1175.5,-190.1 1182.5,-190.1"/>
</g>
<!-- node54 -->
<g id="node29" class="node">
<title>node54</title>
<ellipse fill="grey" stroke="black" cx="1251" cy="-162" rx="27" ry="18"/>
</g>
<!-- node52&#45;&gt;node54 -->
<g id="edge28" class="edge">
<title>node52&#45;&gt;node54</title>
<path fill="none" stroke="black" d="M1193.57,-218.83C1203.75,-208.94 1217.52,-195.55 1229.03,-184.36"/>
<polygon fill="black" stroke="black" points="1231.47,-186.87 1236.2,-177.38 1226.59,-181.85 1231.47,-186.87"/>
</g>
<!-- node59 -->
<g id="node30" class="node">
<title>node59</title>
<ellipse fill="grey" stroke="black" cx="1323" cy="-162" rx="27" ry="18"/>
</g>
<!-- node58&#45;&gt;node59 -->
<g id="edge29" class="edge">
<title>node58&#45;&gt;node59</title>
<path fill="none" stroke="black" d="M1323,-215.7C1323,-207.98 1323,-198.71 1323,-190.11"/>
<polygon fill="black" stroke="black" points="1326.5,-190.1 1323,-180.1 1319.5,-190.1 1326.5,-190.1"/>
</g>
<!-- node60 -->
<g id="node31" class="node">
<title>node60</title>
<ellipse fill="grey" stroke="black" cx="1395" cy="-162" rx="27" ry="18"/>
</g>
<!-- node58&#45;&gt;node60 -->
<g id="edge30" class="edge">
<title>node58&#45;&gt;node60</title>
<path fill="none" stroke="black" d="M1337.57,-218.83C1347.75,-208.94 1361.52,-195.55 1373.03,-184.36"/>
<polygon fill="black" stroke="black" points="1375.47,-186.87 1380.2,-177.38 1370.59,-181.85 1375.47,-186.87"/>
</g>
<!-- node7 -->
<g id="node32" class="node">
<title>node7</title>
<ellipse fill="grey" stroke="black" cx="99" cy="-90" rx="27" ry="18"/>
</g>
<!-- node5&#45;&gt;node7 -->
<g id="edge31" class="edge">
<title>node5&#45;&gt;node7</title>
<path fill="none" stroke="black" d="M41.57,-146.83C51.75,-136.94 65.52,-123.55 77.03,-112.36"/>
<polygon fill="black" stroke="black" points="79.47,-114.87 84.2,-105.38 74.59,-109.85 79.47,-114.87"/>
</g>
<!-- node6&#45;&gt;node7 -->
<g id="edge32" class="edge">
<title>node6&#45;&gt;node7</title>
<path fill="none" stroke="black" d="M99,-143.7C99,-135.98 99,-126.71 99,-118.11"/>
<polygon fill="black" stroke="black" points="102.5,-118.1 99,-108.1 95.5,-118.1 102.5,-118.1"/>
</g>
<!-- node13 -->
<g id="node34" class="node">
<title>node13</title>
<ellipse fill="grey" stroke="black" cx="243" cy="-90" rx="27" ry="18"/>
</g>
<!-- node11&#45;&gt;node13 -->
<g id="edge34" class="edge">
<title>node11&#45;&gt;node13</title>
<path fill="none" stroke="black" d="M185.57,-146.83C195.75,-136.94 209.52,-123.55 221.03,-112.36"/>
<polygon fill="black" stroke="black" points="223.47,-114.87 228.2,-105.38 218.59,-109.85 223.47,-114.87"/>
</g>
<!-- node12&#45;&gt;node13 -->
<g id="edge35" class="edge">
<title>node12&#45;&gt;node13</title>
<path fill="none" stroke="black" d="M243,-143.7C243,-135.98 243,-126.71 243,-118.11"/>
<polygon fill="black" stroke="black" points="246.5,-118.1 243,-108.1 239.5,-118.1 246.5,-118.1"/>
</g>
<!-- node19 -->
<g id="node35" class="node">
<title>node19</title>
<ellipse fill="grey" stroke="black" cx="387" cy="-90" rx="27" ry="18"/>
</g>
<!-- node17&#45;&gt;node19 -->
<g id="edge37" class="edge">
<title>node17&#45;&gt;node19</title>
<path fill="none" stroke="black" d="M329.57,-146.83C339.75,-136.94 353.52,-123.55 365.03,-112.36"/>
<polygon fill="black" stroke="black" points="367.47,-114.87 372.2,-105.38 362.59,-109.85 367.47,-114.87"/>
</g>
<!-- node18&#45;&gt;node19 -->
<g id="edge38" class="edge">
<title>node18&#45;&gt;node19</title>
<path fill="none" stroke="black" d="M387,-143.7C387,-135.98 387,-126.71 387,-118.11"/>
<polygon fill="black" stroke="black" points="390.5,-118.1 387,-108.1 383.5,-118.1 390.5,-118.1"/>
</g>
<!-- node25 -->
<g id="node36" class="node">
<title>node25</title>
<ellipse fill="grey" stroke="black" cx="531" cy="-90" rx="27" ry="18"/>
</g>
<!-- node23&#45;&gt;node25 -->
<g id="edge40" class="edge">
<title>node23&#45;&gt;node25</title>
<path fill="none" stroke="black" d="M473.57,-146.83C483.75,-136.94 497.52,-123.55 509.03,-112.36"/>
<polygon fill="black" stroke="black" points="511.47,-114.87 516.2,-105.38 506.59,-109.85 511.47,-114.87"/>
</g>
<!-- node24&#45;&gt;node25 -->
<g id="edge41" class="edge">
<title>node24&#45;&gt;node25</title>
<path fill="none" stroke="black" d="M531,-143.7C531,-135.98 531,-126.71 531,-118.11"/>
<polygon fill="black" stroke="black" points="534.5,-118.1 531,-108.1 527.5,-118.1 534.5,-118.1"/>
</g>
<!-- node31 -->
<g id="node37" class="node">
<title>node31</title>
<ellipse fill="grey" stroke="black" cx="675" cy="-90" rx="27" ry="18"/>
</g>
<!-- node29&#45;&gt;node31 -->
<g id="edge43" class="edge">
<title>node29&#45;&gt;node31</title>
<path fill="none" stroke="black" d="M617.57,-146.83C627.75,-136.94 641.52,-123.55 653.03,-112.36"/>
<polygon fill="black" stroke="black" points="655.47,-114.87 660.2,-105.38 650.59,-109.85 655.47,-114.87"/>
</g>
<!-- node30&#45;&gt;node31 -->
<g id="edge44" class="edge">
<title>node30&#45;&gt;node31</title>
<path fill="none" stroke="black" d="M675,-143.7C675,-135.98 675,-126.71 675,-118.11"/>
<polygon fill="black" stroke="black" points="678.5,-118.1 675,-108.1 671.5,-118.1 678.5,-118.1"/>
</g>
<!-- node37 -->
<g id="node38" class="node">
<title>node37</title>
<ellipse fill="grey" stroke="black" cx="747" cy="-90" rx="27" ry="18"/>
</g>
<!-- node35&#45;&gt;node37 -->
<g id="edge46" class="edge">
<title>node35&#45;&gt;node37</title>
<path fill="none" stroke="black" d="M747,-143.7C747,-135.98 747,-126.71 747,-118.11"/>
<polygon fill="black" stroke="black" points="750.5,-118.1 747,-108.1 743.5,-118.1 750.5,-118.1"/>
</g>
<!-- node36&#45;&gt;node37 -->
<g id="edge47" class="edge">
<title>node36&#45;&gt;node37</title>
<path fill="none" stroke="black" d="M804.43,-146.83C794.25,-136.94 780.48,-123.55 768.97,-112.36"/>
<polygon fill="black" stroke="black" points="771.41,-109.85 761.8,-105.38 766.53,-114.87 771.41,-109.85"/>
</g>
<!-- node43 -->
<g id="node39" class="node">
<title>node43</title>
<ellipse fill="grey" stroke="black" cx="891" cy="-90" rx="27" ry="18"/>
</g>
<!-- node41&#45;&gt;node43 -->
<g id="edge49" class="edge">
<title>node41&#45;&gt;node43</title>
<path fill="none" stroke="black" d="M891,-143.7C891,-135.98 891,-126.71 891,-118.11"/>
<polygon fill="black" stroke="black" points="894.5,-118.1 891,-108.1 887.5,-118.1 894.5,-118.1"/>
</g>
<!-- node42&#45;&gt;node43 -->
<g id="edge50" class="edge">
<title>node42&#45;&gt;node43</title>
<path fill="none" stroke="black" d="M948.43,-146.83C938.25,-136.94 924.48,-123.55 912.97,-112.36"/>
<polygon fill="black" stroke="black" points="915.41,-109.85 905.8,-105.38 910.53,-114.87 915.41,-109.85"/>
</g>
<!-- node49 -->
<g id="node40" class="node">
<title>node49</title>
<ellipse fill="grey" stroke="black" cx="1035" cy="-90" rx="27" ry="18"/>
</g>
<!-- node47&#45;&gt;node49 -->
<g id="edge52" class="edge">
<title>node47&#45;&gt;node49</title>
<path fill="none" stroke="black" d="M1035,-143.7C1035,-135.98 1035,-126.71 1035,-118.11"/>
<polygon fill="black" stroke="black" points="1038.5,-118.1 1035,-108.1 1031.5,-118.1 1038.5,-118.1"/>
</g>
<!-- node48&#45;&gt;node49 -->
<g id="edge53" class="edge">
<title>node48&#45;&gt;node49</title>
<path fill="none" stroke="black" d="M1092.43,-146.83C1082.25,-136.94 1068.48,-123.55 1056.97,-112.36"/>
<polygon fill="black" stroke="black" points="1059.41,-109.85 1049.8,-105.38 1054.53,-114.87 1059.41,-109.85"/>
</g>
<!-- node55 -->
<g id="node41" class="node">
<title>node55</title>
<ellipse fill="grey" stroke="black" cx="1179" cy="-90" rx="27" ry="18"/>
</g>
<!-- node53&#45;&gt;node55 -->
<g id="edge55" class="edge">
<title>node53&#45;&gt;node55</title>
<path fill="none" stroke="black" d="M1179,-143.7C1179,-135.98 1179,-126.71 1179,-118.11"/>
<polygon fill="black" stroke="black" points="1182.5,-118.1 1179,-108.1 1175.5,-118.1 1182.5,-118.1"/>
</g>
<!-- node54&#45;&gt;node55 -->
<g id="edge56" class="edge">
<title>node54&#45;&gt;node55</title>
<path fill="none" stroke="black" d="M1236.43,-146.83C1226.25,-136.94 1212.48,-123.55 1200.97,-112.36"/>
<polygon fill="black" stroke="black" points="1203.41,-109.85 1193.8,-105.38 1198.53,-114.87 1203.41,-109.85"/>
</g>
<!-- node61 -->
<g id="node42" class="node">
<title>node61</title>
<ellipse fill="grey" stroke="black" cx="1323" cy="-90" rx="27" ry="18"/>
</g>
<!-- node59&#45;&gt;node61 -->
<g id="edge58" class="edge">
<title>node59&#45;&gt;node61</title>
<path fill="none" stroke="black" d="M1323,-143.7C1323,-135.98 1323,-126.71 1323,-118.11"/>
<polygon fill="black" stroke="black" points="1326.5,-118.1 1323,-108.1 1319.5,-118.1 1326.5,-118.1"/>
</g>
<!-- node60&#45;&gt;node61 -->
<g id="edge59" class="edge">
<title>node60&#45;&gt;node61</title>
<path fill="none" stroke="black" d="M1380.43,-146.83C1370.25,-136.94 1356.48,-123.55 1344.97,-112.36"/>
<polygon fill="black" stroke="black" points="1347.41,-109.85 1337.8,-105.38 1342.53,-114.87 1347.41,-109.85"/>
</g>
<!-- node64 -->
<g id="node33" class="node">
<title>node64</title>
<ellipse fill="grey" stroke="black" cx="711" cy="-18" rx="27" ry="18"/>
</g>
<!-- node7&#45;&gt;node64 -->
<g id="edge33" class="edge">
<title>node7&#45;&gt;node64</title>
<path fill="none" stroke="black" d="M125.13,-84.5C146.97,-80.83 178.96,-75.68 207,-72 381.46,-49.11 590.91,-29.64 674.23,-22.21"/>
<polygon fill="black" stroke="black" points="674.79,-25.68 684.44,-21.31 674.17,-18.71 674.79,-25.68"/>
</g>
<!-- node13&#45;&gt;node64 -->
<g id="edge36" class="edge">
<title>node13&#45;&gt;node64</title>
<path fill="none" stroke="black" d="M269.18,-84.8C291.04,-81.32 323.04,-76.26 351,-72 469.32,-53.98 609.68,-33.6 674.65,-24.23"/>
<polygon fill="black" stroke="black" points="675.39,-27.66 684.79,-22.77 674.39,-20.73 675.39,-27.66"/>
</g>
<!-- node19&#45;&gt;node64 -->
<g id="edge39" class="edge">
<title>node19&#45;&gt;node64</title>
<path fill="none" stroke="black" d="M412.42,-83.51C469.92,-71.09 610.02,-40.82 675.8,-26.61"/>
<polygon fill="black" stroke="black" points="676.66,-30 685.69,-24.47 675.18,-23.16 676.66,-30"/>
</g>
<!-- node25&#45;&gt;node64 -->
<g id="edge42" class="edge">
<title>node25&#45;&gt;node64</title>
<path fill="none" stroke="black" d="M553.8,-80.13C585.36,-67.86 642.54,-45.62 678.55,-31.62"/>
<polygon fill="black" stroke="black" points="680.05,-34.79 688.1,-27.9 677.52,-28.27 680.05,-34.79"/>
</g>
<!-- node31&#45;&gt;node64 -->
<g id="edge45" class="edge">
<title>node31&#45;&gt;node64</title>
<path fill="none" stroke="black" d="M683.35,-72.76C687.71,-64.28 693.15,-53.71 698.04,-44.2"/>
<polygon fill="black" stroke="black" points="701.23,-45.64 702.7,-35.15 695.01,-42.44 701.23,-45.64"/>
</g>
<!-- node37&#45;&gt;node64 -->
<g id="edge48" class="edge">
<title>node37&#45;&gt;node64</title>
<path fill="none" stroke="black" d="M738.65,-72.76C734.29,-64.28 728.85,-53.71 723.96,-44.2"/>
<polygon fill="black" stroke="black" points="726.99,-42.44 719.3,-35.15 720.77,-45.64 726.99,-42.44"/>
</g>
<!-- node43&#45;&gt;node64 -->
<g id="edge51" class="edge">
<title>node43&#45;&gt;node64</title>
<path fill="none" stroke="black" d="M868.2,-80.13C836.64,-67.86 779.46,-45.62 743.45,-31.62"/>
<polygon fill="black" stroke="black" points="744.48,-28.27 733.9,-27.9 741.95,-34.79 744.48,-28.27"/>
</g>
<!-- node49&#45;&gt;node64 -->
<g id="edge54" class="edge">
<title>node49&#45;&gt;node64</title>
<path fill="none" stroke="black" d="M1009.58,-83.51C952.08,-71.09 811.98,-40.82 746.2,-26.61"/>
<polygon fill="black" stroke="black" points="746.82,-23.16 736.31,-24.47 745.34,-30 746.82,-23.16"/>
</g>
<!-- node55&#45;&gt;node64 -->
<g id="edge57" class="edge">
<title>node55&#45;&gt;node64</title>
<path fill="none" stroke="black" d="M1152.82,-84.8C1130.96,-81.32 1098.96,-76.26 1071,-72 952.68,-53.98 812.32,-33.6 747.35,-24.23"/>
<polygon fill="black" stroke="black" points="747.61,-20.73 737.21,-22.77 746.61,-27.66 747.61,-20.73"/>
</g>
<!-- node61&#45;&gt;node64 -->
<g id="edge60" class="edge">
<title>node61&#45;&gt;node64</title>
<path fill="none" stroke="black" d="M1296.87,-84.5C1275.03,-80.83 1243.04,-75.68 1215,-72 1040.54,-49.11 831.09,-29.64 747.77,-22.21"/>
<polygon fill="black" stroke="black" points="747.83,-18.71 737.56,-21.31 747.21,-25.68 747.83,-18.71"/>
</g>
</g>
</svg>
