<?xml version="1.0" encoding="UTF-8" standalone="no"?>
<!DOCTYPE svg PUBLIC "-//W3C//DTD SVG 1.1//EN"
 "http://www.w3.org/Graphics/SVG/1.1/DTD/svg11.dtd">
<!-- Generated by graphviz version 2.43.0 (0)
 -->
<!-- Title: FMRadio_244 Pages: 1 -->
<svg width="4630pt" height="332pt"
 viewBox="0.00 0.00 4630.48 332.00" xmlns="http://www.w3.org/2000/svg" xmlns:xlink="http://www.w3.org/1999/xlink">
<g id="graph0" class="graph" transform="scale(1 1) rotate(0) translate(4 328)">
<title>FMRadio_244</title>
<polygon fill="white" stroke="transparent" points="-4,4 -4,-328 4626.48,-328 4626.48,4 -4,4"/>
<!-- node0 -->
<g id="node1" class="node">
<title>node0</title>
<ellipse fill="none" stroke="black" cx="2311.24" cy="-306" rx="116.18" ry="18"/>
<text text-anchor="middle" x="2311.24" y="-302.3" font-family="Times,serif" font-size="14.00">&quot;FloatOneSource_103&quot;</text>
</g>
<!-- node4 -->
<g id="node2" class="node">
<title>node4</title>
<ellipse fill="none" stroke="black" cx="339.24" cy="-234" rx="137.58" ry="18"/>
<text text-anchor="middle" x="339.24" y="-230.3" font-family="Times,serif" font-size="14.00">&quot;DUPLICATE_Splitter_182&quot;</text>
</g>
<!-- node0&#45;&gt;node4 -->
<g id="edge1" class="edge">
<title>node0&#45;&gt;node4</title>
<path fill="none" stroke="black" d="M2197.34,-302.2C1928.85,-295.41 1235.33,-276.8 656.24,-252 595.85,-249.41 529.03,-245.92 472.37,-242.78"/>
<polygon fill="black" stroke="black" points="472.46,-239.28 462.28,-242.22 472.07,-246.27 472.46,-239.28"/>
</g>
<!-- node10 -->
<g id="node3" class="node">
<title>node10</title>
<ellipse fill="none" stroke="black" cx="803.24" cy="-234" rx="137.58" ry="18"/>
<text text-anchor="middle" x="803.24" y="-230.3" font-family="Times,serif" font-size="14.00">&quot;DUPLICATE_Splitter_184&quot;</text>
</g>
<!-- node0&#45;&gt;node10 -->
<g id="edge2" class="edge">
<title>node0&#45;&gt;node10</title>
<path fill="none" stroke="black" d="M2200.39,-300.4C1989.86,-291.6 1517.67,-271.5 1120.24,-252 1060.13,-249.05 993.63,-245.52 937.12,-242.45"/>
<polygon fill="black" stroke="black" points="937.23,-238.95 927.05,-241.9 936.85,-245.94 937.23,-238.95"/>
</g>
<!-- node16 -->
<g id="node4" class="node">
<title>node16</title>
<ellipse fill="none" stroke="black" cx="1267.24" cy="-234" rx="137.58" ry="18"/>
<text text-anchor="middle" x="1267.24" y="-230.3" font-family="Times,serif" font-size="14.00">&quot;DUPLICATE_Splitter_186&quot;</text>
</g>
<!-- node0&#45;&gt;node16 -->
<g id="edge3" class="edge">
<title>node0&#45;&gt;node16</title>
<path fill="none" stroke="black" d="M2206.84,-298C2014.91,-285.13 1606.51,-257.75 1397.06,-243.7"/>
<polygon fill="black" stroke="black" points="1397.14,-240.2 1386.93,-243.02 1396.67,-247.19 1397.14,-240.2"/>
</g>
<!-- node22 -->
<g id="node5" class="node">
<title>node22</title>
<ellipse fill="none" stroke="black" cx="1731.24" cy="-234" rx="137.58" ry="18"/>
<text text-anchor="middle" x="1731.24" y="-230.3" font-family="Times,serif" font-size="14.00">&quot;DUPLICATE_Splitter_188&quot;</text>
</g>
<!-- node0&#45;&gt;node22 -->
<g id="edge4" class="edge">
<title>node0&#45;&gt;node22</title>
<path fill="none" stroke="black" d="M2222.52,-294.29C2119.43,-281.85 1949.38,-261.33 1838.85,-247.99"/>
<polygon fill="black" stroke="black" points="1839.02,-244.48 1828.67,-246.76 1838.18,-251.43 1839.02,-244.48"/>
</g>
<!-- node28 -->
<g id="node6" class="node">
<title>node28</title>
<ellipse fill="none" stroke="black" cx="2164.24" cy="-234" rx="137.58" ry="18"/>
<text text-anchor="middle" x="2164.24" y="-230.3" font-family="Times,serif" font-size="14.00">&quot;DUPLICATE_Splitter_190&quot;</text>
</g>
<!-- node0&#45;&gt;node28 -->
<g id="edge5" class="edge">
<title>node0&#45;&gt;node28</title>
<path fill="none" stroke="black" d="M2277.15,-288.76C2256.59,-278.98 2230.19,-266.41 2208.09,-255.88"/>
<polygon fill="black" stroke="black" points="2209.45,-252.65 2198.91,-251.51 2206.44,-258.97 2209.45,-252.65"/>
</g>
<!-- node34 -->
<g id="node7" class="node">
<title>node34</title>
<ellipse fill="none" stroke="black" cx="2458.24" cy="-234" rx="137.58" ry="18"/>
<text text-anchor="middle" x="2458.24" y="-230.3" font-family="Times,serif" font-size="14.00">&quot;DUPLICATE_Splitter_192&quot;</text>
</g>
<!-- node0&#45;&gt;node34 -->
<g id="edge6" class="edge">
<title>node0&#45;&gt;node34</title>
<path fill="none" stroke="black" d="M2345.33,-288.76C2365.89,-278.98 2392.29,-266.41 2414.39,-255.88"/>
<polygon fill="black" stroke="black" points="2416.04,-258.97 2423.57,-251.51 2413.03,-252.65 2416.04,-258.97"/>
</g>
<!-- node40 -->
<g id="node8" class="node">
<title>node40</title>
<ellipse fill="none" stroke="black" cx="2891.24" cy="-234" rx="137.58" ry="18"/>
<text text-anchor="middle" x="2891.24" y="-230.3" font-family="Times,serif" font-size="14.00">&quot;DUPLICATE_Splitter_194&quot;</text>
</g>
<!-- node0&#45;&gt;node40 -->
<g id="edge7" class="edge">
<title>node0&#45;&gt;node40</title>
<path fill="none" stroke="black" d="M2399.96,-294.29C2503.05,-281.85 2673.1,-261.33 2783.64,-247.99"/>
<polygon fill="black" stroke="black" points="2784.3,-251.43 2793.81,-246.76 2783.46,-244.48 2784.3,-251.43"/>
</g>
<!-- node46 -->
<g id="node9" class="node">
<title>node46</title>
<ellipse fill="none" stroke="black" cx="3355.24" cy="-234" rx="137.58" ry="18"/>
<text text-anchor="middle" x="3355.24" y="-230.3" font-family="Times,serif" font-size="14.00">&quot;DUPLICATE_Splitter_196&quot;</text>
</g>
<!-- node0&#45;&gt;node46 -->
<g id="edge8" class="edge">
<title>node0&#45;&gt;node46</title>
<path fill="none" stroke="black" d="M2415.64,-298C2607.58,-285.13 3015.97,-257.75 3225.43,-243.7"/>
<polygon fill="black" stroke="black" points="3225.81,-247.19 3235.55,-243.02 3225.34,-240.2 3225.81,-247.19"/>
</g>
<!-- node52 -->
<g id="node10" class="node">
<title>node52</title>
<ellipse fill="none" stroke="black" cx="3819.24" cy="-234" rx="137.58" ry="18"/>
<text text-anchor="middle" x="3819.24" y="-230.3" font-family="Times,serif" font-size="14.00">&quot;DUPLICATE_Splitter_198&quot;</text>
</g>
<!-- node0&#45;&gt;node52 -->
<g id="edge9" class="edge">
<title>node0&#45;&gt;node52</title>
<path fill="none" stroke="black" d="M2422.09,-300.4C2632.62,-291.6 3104.81,-271.5 3502.24,-252 3562.35,-249.05 3628.85,-245.52 3685.36,-242.45"/>
<polygon fill="black" stroke="black" points="3685.63,-245.94 3695.43,-241.9 3685.25,-238.95 3685.63,-245.94"/>
</g>
<!-- node58 -->
<g id="node11" class="node">
<title>node58</title>
<ellipse fill="none" stroke="black" cx="4283.24" cy="-234" rx="137.58" ry="18"/>
<text text-anchor="middle" x="4283.24" y="-230.3" font-family="Times,serif" font-size="14.00">&quot;DUPLICATE_Splitter_200&quot;</text>
</g>
<!-- node0&#45;&gt;node58 -->
<g id="edge10" class="edge">
<title>node0&#45;&gt;node58</title>
<path fill="none" stroke="black" d="M2425.14,-302.2C2693.63,-295.41 3387.15,-276.8 3966.24,-252 4026.63,-249.41 4093.45,-245.92 4150.11,-242.78"/>
<polygon fill="black" stroke="black" points="4150.41,-246.27 4160.2,-242.22 4150.02,-239.28 4150.41,-246.27"/>
</g>
<!-- node5 -->
<g id="node12" class="node">
<title>node5</title>
<ellipse fill="none" stroke="black" cx="107.24" cy="-162" rx="107.48" ry="18"/>
<text text-anchor="middle" x="107.24" y="-158.3" font-family="Times,serif" font-size="14.00">&quot;LowPassFilter_111&quot;</text>
</g>
<!-- node4&#45;&gt;node5 -->
<g id="edge11" class="edge">
<title>node4&#45;&gt;node5</title>
<path fill="none" stroke="black" d="M287.18,-217.29C251.49,-206.52 204.06,-192.21 166.86,-180.99"/>
<polygon fill="black" stroke="black" points="167.73,-177.59 157.14,-178.06 165.71,-184.3 167.73,-177.59"/>
</g>
<!-- node6 -->
<g id="node13" class="node">
<title>node6</title>
<ellipse fill="none" stroke="black" cx="339.24" cy="-162" rx="107.48" ry="18"/>
<text text-anchor="middle" x="339.24" y="-158.3" font-family="Times,serif" font-size="14.00">&quot;LowPassFilter_112&quot;</text>
</g>
<!-- node4&#45;&gt;node6 -->
<g id="edge12" class="edge">
<title>node4&#45;&gt;node6</title>
<path fill="none" stroke="black" d="M339.24,-215.7C339.24,-207.98 339.24,-198.71 339.24,-190.11"/>
<polygon fill="black" stroke="black" points="342.74,-190.1 339.24,-180.1 335.74,-190.1 342.74,-190.1"/>
</g>
<!-- node11 -->
<g id="node16" class="node">
<title>node11</title>
<ellipse fill="none" stroke="black" cx="571.24" cy="-162" rx="107.48" ry="18"/>
<text text-anchor="middle" x="571.24" y="-158.3" font-family="Times,serif" font-size="14.00">&quot;LowPassFilter_118&quot;</text>
</g>
<!-- node10&#45;&gt;node11 -->
<g id="edge16" class="edge">
<title>node10&#45;&gt;node11</title>
<path fill="none" stroke="black" d="M751.18,-217.29C715.49,-206.52 668.06,-192.21 630.86,-180.99"/>
<polygon fill="black" stroke="black" points="631.73,-177.59 621.14,-178.06 629.71,-184.3 631.73,-177.59"/>
</g>
<!-- node12 -->
<g id="node17" class="node">
<title>node12</title>
<ellipse fill="none" stroke="black" cx="803.24" cy="-162" rx="107.48" ry="18"/>
<text text-anchor="middle" x="803.24" y="-158.3" font-family="Times,serif" font-size="14.00">&quot;LowPassFilter_119&quot;</text>
</g>
<!-- node10&#45;&gt;node12 -->
<g id="edge17" class="edge">
<title>node10&#45;&gt;node12</title>
<path fill="none" stroke="black" d="M803.24,-215.7C803.24,-207.98 803.24,-198.71 803.24,-190.11"/>
<polygon fill="black" stroke="black" points="806.74,-190.1 803.24,-180.1 799.74,-190.1 806.74,-190.1"/>
</g>
<!-- node17 -->
<g id="node19" class="node">
<title>node17</title>
<ellipse fill="none" stroke="black" cx="1035.24" cy="-162" rx="107.48" ry="18"/>
<text text-anchor="middle" x="1035.24" y="-158.3" font-family="Times,serif" font-size="14.00">&quot;LowPassFilter_125&quot;</text>
</g>
<!-- node16&#45;&gt;node17 -->
<g id="edge21" class="edge">
<title>node16&#45;&gt;node17</title>
<path fill="none" stroke="black" d="M1215.18,-217.29C1179.49,-206.52 1132.06,-192.21 1094.86,-180.99"/>
<polygon fill="black" stroke="black" points="1095.73,-177.59 1085.14,-178.06 1093.71,-184.3 1095.73,-177.59"/>
</g>
<!-- node18 -->
<g id="node20" class="node">
<title>node18</title>
<ellipse fill="none" stroke="black" cx="1267.24" cy="-162" rx="107.48" ry="18"/>
<text text-anchor="middle" x="1267.24" y="-158.3" font-family="Times,serif" font-size="14.00">&quot;LowPassFilter_126&quot;</text>
</g>
<!-- node16&#45;&gt;node18 -->
<g id="edge22" class="edge">
<title>node16&#45;&gt;node18</title>
<path fill="none" stroke="black" d="M1267.24,-215.7C1267.24,-207.98 1267.24,-198.71 1267.24,-190.11"/>
<polygon fill="black" stroke="black" points="1270.74,-190.1 1267.24,-180.1 1263.74,-190.1 1270.74,-190.1"/>
</g>
<!-- node23 -->
<g id="node22" class="node">
<title>node23</title>
<ellipse fill="none" stroke="black" cx="1499.24" cy="-162" rx="107.48" ry="18"/>
<text text-anchor="middle" x="1499.24" y="-158.3" font-family="Times,serif" font-size="14.00">&quot;LowPassFilter_132&quot;</text>
</g>
<!-- node22&#45;&gt;node23 -->
<g id="edge26" class="edge">
<title>node22&#45;&gt;node23</title>
<path fill="none" stroke="black" d="M1679.18,-217.29C1643.49,-206.52 1596.06,-192.21 1558.86,-180.99"/>
<polygon fill="black" stroke="black" points="1559.73,-177.59 1549.14,-178.06 1557.71,-184.3 1559.73,-177.59"/>
</g>
<!-- node24 -->
<g id="node23" class="node">
<title>node24</title>
<ellipse fill="none" stroke="black" cx="1731.24" cy="-162" rx="107.48" ry="18"/>
<text text-anchor="middle" x="1731.24" y="-158.3" font-family="Times,serif" font-size="14.00">&quot;LowPassFilter_133&quot;</text>
</g>
<!-- node22&#45;&gt;node24 -->
<g id="edge27" class="edge">
<title>node22&#45;&gt;node24</title>
<path fill="none" stroke="black" d="M1731.24,-215.7C1731.24,-207.98 1731.24,-198.71 1731.24,-190.11"/>
<polygon fill="black" stroke="black" points="1734.74,-190.1 1731.24,-180.1 1727.74,-190.1 1734.74,-190.1"/>
</g>
<!-- node29 -->
<g id="node25" class="node">
<title>node29</title>
<ellipse fill="none" stroke="black" cx="1963.24" cy="-162" rx="107.48" ry="18"/>
<text text-anchor="middle" x="1963.24" y="-158.3" font-family="Times,serif" font-size="14.00">&quot;LowPassFilter_139&quot;</text>
</g>
<!-- node28&#45;&gt;node29 -->
<g id="edge31" class="edge">
<title>node28&#45;&gt;node29</title>
<path fill="none" stroke="black" d="M2118.13,-216.94C2088.09,-206.48 2048.77,-192.79 2017.26,-181.81"/>
<polygon fill="black" stroke="black" points="2018.35,-178.49 2007.76,-178.5 2016.05,-185.1 2018.35,-178.49"/>
</g>
<!-- node30 -->
<g id="node26" class="node">
<title>node30</title>
<ellipse fill="none" stroke="black" cx="2195.24" cy="-162" rx="107.48" ry="18"/>
<text text-anchor="middle" x="2195.24" y="-158.3" font-family="Times,serif" font-size="14.00">&quot;LowPassFilter_140&quot;</text>
</g>
<!-- node28&#45;&gt;node30 -->
<g id="edge32" class="edge">
<title>node28&#45;&gt;node30</title>
<path fill="none" stroke="black" d="M2171.9,-215.7C2175.43,-207.73 2179.7,-198.1 2183.61,-189.26"/>
<polygon fill="black" stroke="black" points="2186.82,-190.67 2187.67,-180.1 2180.42,-187.83 2186.82,-190.67"/>
</g>
<!-- node35 -->
<g id="node28" class="node">
<title>node35</title>
<ellipse fill="none" stroke="black" cx="2427.24" cy="-162" rx="107.48" ry="18"/>
<text text-anchor="middle" x="2427.24" y="-158.3" font-family="Times,serif" font-size="14.00">&quot;LowPassFilter_146&quot;</text>
</g>
<!-- node34&#45;&gt;node35 -->
<g id="edge36" class="edge">
<title>node34&#45;&gt;node35</title>
<path fill="none" stroke="black" d="M2450.58,-215.7C2447.05,-207.73 2442.78,-198.1 2438.87,-189.26"/>
<polygon fill="black" stroke="black" points="2442.06,-187.83 2434.82,-180.1 2435.66,-190.67 2442.06,-187.83"/>
</g>
<!-- node36 -->
<g id="node29" class="node">
<title>node36</title>
<ellipse fill="none" stroke="black" cx="2659.24" cy="-162" rx="107.48" ry="18"/>
<text text-anchor="middle" x="2659.24" y="-158.3" font-family="Times,serif" font-size="14.00">&quot;LowPassFilter_147&quot;</text>
</g>
<!-- node34&#45;&gt;node36 -->
<g id="edge37" class="edge">
<title>node34&#45;&gt;node36</title>
<path fill="none" stroke="black" d="M2504.35,-216.94C2534.39,-206.48 2573.71,-192.79 2605.22,-181.81"/>
<polygon fill="black" stroke="black" points="2606.43,-185.1 2614.72,-178.5 2604.13,-178.49 2606.43,-185.1"/>
</g>
<!-- node41 -->
<g id="node31" class="node">
<title>node41</title>
<ellipse fill="none" stroke="black" cx="2891.24" cy="-162" rx="107.48" ry="18"/>
<text text-anchor="middle" x="2891.24" y="-158.3" font-family="Times,serif" font-size="14.00">&quot;LowPassFilter_153&quot;</text>
</g>
<!-- node40&#45;&gt;node41 -->
<g id="edge41" class="edge">
<title>node40&#45;&gt;node41</title>
<path fill="none" stroke="black" d="M2891.24,-215.7C2891.24,-207.98 2891.24,-198.71 2891.24,-190.11"/>
<polygon fill="black" stroke="black" points="2894.74,-190.1 2891.24,-180.1 2887.74,-190.1 2894.74,-190.1"/>
</g>
<!-- node42 -->
<g id="node32" class="node">
<title>node42</title>
<ellipse fill="none" stroke="black" cx="3123.24" cy="-162" rx="107.48" ry="18"/>
<text text-anchor="middle" x="3123.24" y="-158.3" font-family="Times,serif" font-size="14.00">&quot;LowPassFilter_154&quot;</text>
</g>
<!-- node40&#45;&gt;node42 -->
<g id="edge42" class="edge">
<title>node40&#45;&gt;node42</title>
<path fill="none" stroke="black" d="M2943.31,-217.29C2978.99,-206.52 3026.42,-192.21 3063.63,-180.99"/>
<polygon fill="black" stroke="black" points="3064.78,-184.3 3073.34,-178.06 3062.75,-177.59 3064.78,-184.3"/>
</g>
<!-- node47 -->
<g id="node34" class="node">
<title>node47</title>
<ellipse fill="none" stroke="black" cx="3355.24" cy="-162" rx="107.48" ry="18"/>
<text text-anchor="middle" x="3355.24" y="-158.3" font-family="Times,serif" font-size="14.00">&quot;LowPassFilter_160&quot;</text>
</g>
<!-- node46&#45;&gt;node47 -->
<g id="edge46" class="edge">
<title>node46&#45;&gt;node47</title>
<path fill="none" stroke="black" d="M3355.24,-215.7C3355.24,-207.98 3355.24,-198.71 3355.24,-190.11"/>
<polygon fill="black" stroke="black" points="3358.74,-190.1 3355.24,-180.1 3351.74,-190.1 3358.74,-190.1"/>
</g>
<!-- node48 -->
<g id="node35" class="node">
<title>node48</title>
<ellipse fill="none" stroke="black" cx="3587.24" cy="-162" rx="107.48" ry="18"/>
<text text-anchor="middle" x="3587.24" y="-158.3" font-family="Times,serif" font-size="14.00">&quot;LowPassFilter_161&quot;</text>
</g>
<!-- node46&#45;&gt;node48 -->
<g id="edge47" class="edge">
<title>node46&#45;&gt;node48</title>
<path fill="none" stroke="black" d="M3407.31,-217.29C3442.99,-206.52 3490.42,-192.21 3527.63,-180.99"/>
<polygon fill="black" stroke="black" points="3528.78,-184.3 3537.34,-178.06 3526.75,-177.59 3528.78,-184.3"/>
</g>
<!-- node53 -->
<g id="node37" class="node">
<title>node53</title>
<ellipse fill="none" stroke="black" cx="3819.24" cy="-162" rx="107.48" ry="18"/>
<text text-anchor="middle" x="3819.24" y="-158.3" font-family="Times,serif" font-size="14.00">&quot;LowPassFilter_167&quot;</text>
</g>
<!-- node52&#45;&gt;node53 -->
<g id="edge51" class="edge">
<title>node52&#45;&gt;node53</title>
<path fill="none" stroke="black" d="M3819.24,-215.7C3819.24,-207.98 3819.24,-198.71 3819.24,-190.11"/>
<polygon fill="black" stroke="black" points="3822.74,-190.1 3819.24,-180.1 3815.74,-190.1 3822.74,-190.1"/>
</g>
<!-- node54 -->
<g id="node38" class="node">
<title>node54</title>
<ellipse fill="none" stroke="black" cx="4051.24" cy="-162" rx="107.48" ry="18"/>
<text text-anchor="middle" x="4051.24" y="-158.3" font-family="Times,serif" font-size="14.00">&quot;LowPassFilter_168&quot;</text>
</g>
<!-- node52&#45;&gt;node54 -->
<g id="edge52" class="edge">
<title>node52&#45;&gt;node54</title>
<path fill="none" stroke="black" d="M3871.31,-217.29C3906.99,-206.52 3954.42,-192.21 3991.63,-180.99"/>
<polygon fill="black" stroke="black" points="3992.78,-184.3 4001.34,-178.06 3990.75,-177.59 3992.78,-184.3"/>
</g>
<!-- node59 -->
<g id="node40" class="node">
<title>node59</title>
<ellipse fill="none" stroke="black" cx="4283.24" cy="-162" rx="107.48" ry="18"/>
<text text-anchor="middle" x="4283.24" y="-158.3" font-family="Times,serif" font-size="14.00">&quot;LowPassFilter_174&quot;</text>
</g>
<!-- node58&#45;&gt;node59 -->
<g id="edge56" class="edge">
<title>node58&#45;&gt;node59</title>
<path fill="none" stroke="black" d="M4283.24,-215.7C4283.24,-207.98 4283.24,-198.71 4283.24,-190.11"/>
<polygon fill="black" stroke="black" points="4286.74,-190.1 4283.24,-180.1 4279.74,-190.1 4286.74,-190.1"/>
</g>
<!-- node60 -->
<g id="node41" class="node">
<title>node60</title>
<ellipse fill="none" stroke="black" cx="4515.24" cy="-162" rx="107.48" ry="18"/>
<text text-anchor="middle" x="4515.24" y="-158.3" font-family="Times,serif" font-size="14.00">&quot;LowPassFilter_175&quot;</text>
</g>
<!-- node58&#45;&gt;node60 -->
<g id="edge57" class="edge">
<title>node58&#45;&gt;node60</title>
<path fill="none" stroke="black" d="M4335.31,-217.29C4370.99,-206.52 4418.42,-192.21 4455.63,-180.99"/>
<polygon fill="black" stroke="black" points="4456.78,-184.3 4465.34,-178.06 4454.75,-177.59 4456.78,-184.3"/>
</g>
<!-- node7 -->
<g id="node14" class="node">
<title>node7</title>
<ellipse fill="none" stroke="black" cx="339.24" cy="-90" rx="206.06" ry="18"/>
<text text-anchor="middle" x="339.24" y="-86.3" font-family="Times,serif" font-size="14.00">&quot;WEIGHTED_ROUND_ROBIN_Joiner_183&quot;</text>
</g>
<!-- node5&#45;&gt;node7 -->
<g id="edge13" class="edge">
<title>node5&#45;&gt;node7</title>
<path fill="none" stroke="black" d="M157.01,-145.98C191.48,-135.58 237.67,-121.64 274.93,-110.4"/>
<polygon fill="black" stroke="black" points="276.13,-113.7 284.69,-107.46 274.1,-107 276.13,-113.7"/>
</g>
<!-- node6&#45;&gt;node7 -->
<g id="edge14" class="edge">
<title>node6&#45;&gt;node7</title>
<path fill="none" stroke="black" d="M339.24,-143.7C339.24,-135.98 339.24,-126.71 339.24,-118.11"/>
<polygon fill="black" stroke="black" points="342.74,-118.1 339.24,-108.1 335.74,-118.1 342.74,-118.1"/>
</g>
<!-- node64 -->
<g id="node15" class="node">
<title>node64</title>
<ellipse fill="none" stroke="black" cx="2311.24" cy="-18" rx="206.06" ry="18"/>
<text text-anchor="middle" x="2311.24" y="-14.3" font-family="Times,serif" font-size="14.00">&quot;WEIGHTED_ROUND_ROBIN_Joiner_181&quot;</text>
</g>
<!-- node7&#45;&gt;node64 -->
<g id="edge15" class="edge">
<title>node7&#45;&gt;node64</title>
<path fill="none" stroke="black" d="M490.62,-77.76C522.83,-75.62 556.65,-73.56 588.24,-72 1133.8,-45 1777.26,-29.56 2101.7,-22.92"/>
<polygon fill="black" stroke="black" points="2102.23,-26.41 2112.16,-22.71 2102.09,-19.41 2102.23,-26.41"/>
</g>
<!-- node13 -->
<g id="node18" class="node">
<title>node13</title>
<ellipse fill="none" stroke="black" cx="803.24" cy="-90" rx="206.06" ry="18"/>
<text text-anchor="middle" x="803.24" y="-86.3" font-family="Times,serif" font-size="14.00">&quot;WEIGHTED_ROUND_ROBIN_Joiner_185&quot;</text>
</g>
<!-- node11&#45;&gt;node13 -->
<g id="edge18" class="edge">
<title>node11&#45;&gt;node13</title>
<path fill="none" stroke="black" d="M621.01,-145.98C655.48,-135.58 701.67,-121.64 738.93,-110.4"/>
<polygon fill="black" stroke="black" points="740.13,-113.7 748.69,-107.46 738.1,-107 740.13,-113.7"/>
</g>
<!-- node12&#45;&gt;node13 -->
<g id="edge19" class="edge">
<title>node12&#45;&gt;node13</title>
<path fill="none" stroke="black" d="M803.24,-143.7C803.24,-135.98 803.24,-126.71 803.24,-118.11"/>
<polygon fill="black" stroke="black" points="806.74,-118.1 803.24,-108.1 799.74,-118.1 806.74,-118.1"/>
</g>
<!-- node13&#45;&gt;node64 -->
<g id="edge20" class="edge">
<title>node13&#45;&gt;node64</title>
<path fill="none" stroke="black" d="M946.84,-77.05C971.64,-75.2 997.18,-73.43 1021.24,-72 1405.85,-49.11 1855.56,-33.06 2109.54,-24.99"/>
<polygon fill="black" stroke="black" points="2109.73,-28.49 2119.62,-24.67 2109.51,-21.49 2109.73,-28.49"/>
</g>
<!-- node19 -->
<g id="node21" class="node">
<title>node19</title>
<ellipse fill="none" stroke="black" cx="1236.24" cy="-90" rx="206.06" ry="18"/>
<text text-anchor="middle" x="1236.24" y="-86.3" font-family="Times,serif" font-size="14.00">&quot;WEIGHTED_ROUND_ROBIN_Joiner_187&quot;</text>
</g>
<!-- node17&#45;&gt;node19 -->
<g id="edge23" class="edge">
<title>node17&#45;&gt;node19</title>
<path fill="none" stroke="black" d="M1079.85,-145.46C1109.09,-135.28 1147.59,-121.87 1179.08,-110.91"/>
<polygon fill="black" stroke="black" points="1180.31,-114.18 1188.6,-107.59 1178.01,-107.57 1180.31,-114.18"/>
</g>
<!-- node18&#45;&gt;node19 -->
<g id="edge24" class="edge">
<title>node18&#45;&gt;node19</title>
<path fill="none" stroke="black" d="M1259.58,-143.7C1256.05,-135.73 1251.78,-126.1 1247.87,-117.26"/>
<polygon fill="black" stroke="black" points="1251.06,-115.83 1243.82,-108.1 1244.66,-118.67 1251.06,-115.83"/>
</g>
<!-- node19&#45;&gt;node64 -->
<g id="edge25" class="edge">
<title>node19&#45;&gt;node64</title>
<path fill="none" stroke="black" d="M1381.36,-77.18C1404.72,-75.38 1428.64,-73.59 1451.24,-72 1687.09,-55.41 1959.54,-39.1 2133.48,-29.05"/>
<polygon fill="black" stroke="black" points="2133.72,-32.54 2143.5,-28.47 2133.32,-25.56 2133.72,-32.54"/>
</g>
<!-- node25 -->
<g id="node24" class="node">
<title>node25</title>
<ellipse fill="none" stroke="black" cx="1666.24" cy="-90" rx="206.06" ry="18"/>
<text text-anchor="middle" x="1666.24" y="-86.3" font-family="Times,serif" font-size="14.00">&quot;WEIGHTED_ROUND_ROBIN_Joiner_189&quot;</text>
</g>
<!-- node23&#45;&gt;node25 -->
<g id="edge28" class="edge">
<title>node23&#45;&gt;node25</title>
<path fill="none" stroke="black" d="M1537.14,-145.12C1560.77,-135.21 1591.44,-122.35 1616.96,-111.66"/>
<polygon fill="black" stroke="black" points="1618.59,-114.77 1626.46,-107.67 1615.88,-108.31 1618.59,-114.77"/>
</g>
<!-- node24&#45;&gt;node25 -->
<g id="edge29" class="edge">
<title>node24&#45;&gt;node25</title>
<path fill="none" stroke="black" d="M1715.51,-144.05C1707.64,-135.58 1697.97,-125.17 1689.28,-115.82"/>
<polygon fill="black" stroke="black" points="1691.65,-113.22 1682.28,-108.28 1686.52,-117.98 1691.65,-113.22"/>
</g>
<!-- node25&#45;&gt;node64 -->
<g id="edge30" class="edge">
<title>node25&#45;&gt;node64</title>
<path fill="none" stroke="black" d="M1789.84,-75.59C1900.8,-63.54 2063.3,-45.91 2177.32,-33.53"/>
<polygon fill="black" stroke="black" points="2177.95,-36.99 2187.51,-32.43 2177.19,-30.03 2177.95,-36.99"/>
</g>
<!-- node31 -->
<g id="node27" class="node">
<title>node31</title>
<ellipse fill="none" stroke="black" cx="2096.24" cy="-90" rx="206.06" ry="18"/>
<text text-anchor="middle" x="2096.24" y="-86.3" font-family="Times,serif" font-size="14.00">&quot;WEIGHTED_ROUND_ROBIN_Joiner_191&quot;</text>
</g>
<!-- node29&#45;&gt;node31 -->
<g id="edge33" class="edge">
<title>node29&#45;&gt;node31</title>
<path fill="none" stroke="black" d="M1994.42,-144.59C2012.58,-135.03 2035.7,-122.87 2055.31,-112.54"/>
<polygon fill="black" stroke="black" points="2057.11,-115.55 2064.33,-107.8 2053.85,-109.36 2057.11,-115.55"/>
</g>
<!-- node30&#45;&gt;node31 -->
<g id="edge34" class="edge">
<title>node30&#45;&gt;node31</title>
<path fill="none" stroke="black" d="M2171.78,-144.41C2158.9,-135.3 2142.73,-123.87 2128.66,-113.92"/>
<polygon fill="black" stroke="black" points="2130.41,-110.87 2120.22,-107.96 2126.37,-116.59 2130.41,-110.87"/>
</g>
<!-- node31&#45;&gt;node64 -->
<g id="edge35" class="edge">
<title>node31&#45;&gt;node64</title>
<path fill="none" stroke="black" d="M2146.92,-72.5C2177.97,-62.39 2217.9,-49.39 2250.62,-38.74"/>
<polygon fill="black" stroke="black" points="2252.1,-41.93 2260.53,-35.51 2249.94,-35.28 2252.1,-41.93"/>
</g>
<!-- node37 -->
<g id="node30" class="node">
<title>node37</title>
<ellipse fill="none" stroke="black" cx="2526.24" cy="-90" rx="206.06" ry="18"/>
<text text-anchor="middle" x="2526.24" y="-86.3" font-family="Times,serif" font-size="14.00">&quot;WEIGHTED_ROUND_ROBIN_Joiner_193&quot;</text>
</g>
<!-- node35&#45;&gt;node37 -->
<g id="edge38" class="edge">
<title>node35&#45;&gt;node37</title>
<path fill="none" stroke="black" d="M2450.7,-144.41C2463.58,-135.3 2479.75,-123.87 2493.82,-113.92"/>
<polygon fill="black" stroke="black" points="2496.12,-116.59 2502.26,-107.96 2492.07,-110.87 2496.12,-116.59"/>
</g>
<!-- node36&#45;&gt;node37 -->
<g id="edge39" class="edge">
<title>node36&#45;&gt;node37</title>
<path fill="none" stroke="black" d="M2628.06,-144.59C2609.9,-135.03 2586.78,-122.87 2567.17,-112.54"/>
<polygon fill="black" stroke="black" points="2568.63,-109.36 2558.15,-107.8 2565.37,-115.55 2568.63,-109.36"/>
</g>
<!-- node37&#45;&gt;node64 -->
<g id="edge40" class="edge">
<title>node37&#45;&gt;node64</title>
<path fill="none" stroke="black" d="M2475.56,-72.5C2444.51,-62.39 2404.58,-49.39 2371.86,-38.74"/>
<polygon fill="black" stroke="black" points="2372.54,-35.28 2361.95,-35.51 2370.38,-41.93 2372.54,-35.28"/>
</g>
<!-- node43 -->
<g id="node33" class="node">
<title>node43</title>
<ellipse fill="none" stroke="black" cx="2956.24" cy="-90" rx="206.06" ry="18"/>
<text text-anchor="middle" x="2956.24" y="-86.3" font-family="Times,serif" font-size="14.00">&quot;WEIGHTED_ROUND_ROBIN_Joiner_195&quot;</text>
</g>
<!-- node41&#45;&gt;node43 -->
<g id="edge43" class="edge">
<title>node41&#45;&gt;node43</title>
<path fill="none" stroke="black" d="M2906.98,-144.05C2914.84,-135.58 2924.51,-125.17 2933.2,-115.82"/>
<polygon fill="black" stroke="black" points="2935.96,-117.98 2940.2,-108.28 2930.83,-113.22 2935.96,-117.98"/>
</g>
<!-- node42&#45;&gt;node43 -->
<g id="edge44" class="edge">
<title>node42&#45;&gt;node43</title>
<path fill="none" stroke="black" d="M3085.35,-145.12C3061.71,-135.21 3031.04,-122.35 3005.52,-111.66"/>
<polygon fill="black" stroke="black" points="3006.6,-108.31 2996.02,-107.67 3003.89,-114.77 3006.6,-108.31"/>
</g>
<!-- node43&#45;&gt;node64 -->
<g id="edge45" class="edge">
<title>node43&#45;&gt;node64</title>
<path fill="none" stroke="black" d="M2832.64,-75.59C2721.68,-63.54 2559.18,-45.91 2445.16,-33.53"/>
<polygon fill="black" stroke="black" points="2445.29,-30.03 2434.97,-32.43 2444.53,-36.99 2445.29,-30.03"/>
</g>
<!-- node49 -->
<g id="node36" class="node">
<title>node49</title>
<ellipse fill="none" stroke="black" cx="3386.24" cy="-90" rx="206.06" ry="18"/>
<text text-anchor="middle" x="3386.24" y="-86.3" font-family="Times,serif" font-size="14.00">&quot;WEIGHTED_ROUND_ROBIN_Joiner_197&quot;</text>
</g>
<!-- node47&#45;&gt;node49 -->
<g id="edge48" class="edge">
<title>node47&#45;&gt;node49</title>
<path fill="none" stroke="black" d="M3362.9,-143.7C3366.43,-135.73 3370.7,-126.1 3374.61,-117.26"/>
<polygon fill="black" stroke="black" points="3377.82,-118.67 3378.67,-108.1 3371.42,-115.83 3377.82,-118.67"/>
</g>
<!-- node48&#45;&gt;node49 -->
<g id="edge49" class="edge">
<title>node48&#45;&gt;node49</title>
<path fill="none" stroke="black" d="M3542.63,-145.46C3513.39,-135.28 3474.89,-121.87 3443.41,-110.91"/>
<polygon fill="black" stroke="black" points="3444.47,-107.57 3433.88,-107.59 3442.17,-114.18 3444.47,-107.57"/>
</g>
<!-- node49&#45;&gt;node64 -->
<g id="edge50" class="edge">
<title>node49&#45;&gt;node64</title>
<path fill="none" stroke="black" d="M3241.12,-77.18C3217.76,-75.38 3193.84,-73.59 3171.24,-72 2935.39,-55.41 2662.94,-39.1 2489,-29.05"/>
<polygon fill="black" stroke="black" points="2489.16,-25.56 2478.98,-28.47 2488.76,-32.54 2489.16,-25.56"/>
</g>
<!-- node55 -->
<g id="node39" class="node">
<title>node55</title>
<ellipse fill="none" stroke="black" cx="3819.24" cy="-90" rx="206.06" ry="18"/>
<text text-anchor="middle" x="3819.24" y="-86.3" font-family="Times,serif" font-size="14.00">&quot;WEIGHTED_ROUND_ROBIN_Joiner_199&quot;</text>
</g>
<!-- node53&#45;&gt;node55 -->
<g id="edge53" class="edge">
<title>node53&#45;&gt;node55</title>
<path fill="none" stroke="black" d="M3819.24,-143.7C3819.24,-135.98 3819.24,-126.71 3819.24,-118.11"/>
<polygon fill="black" stroke="black" points="3822.74,-118.1 3819.24,-108.1 3815.74,-118.1 3822.74,-118.1"/>
</g>
<!-- node54&#45;&gt;node55 -->
<g id="edge54" class="edge">
<title>node54&#45;&gt;node55</title>
<path fill="none" stroke="black" d="M4001.47,-145.98C3967,-135.58 3920.81,-121.64 3883.55,-110.4"/>
<polygon fill="black" stroke="black" points="3884.38,-107 3873.79,-107.46 3882.35,-113.7 3884.38,-107"/>
</g>
<!-- node55&#45;&gt;node64 -->
<g id="edge55" class="edge">
<title>node55&#45;&gt;node64</title>
<path fill="none" stroke="black" d="M3675.64,-77.05C3650.84,-75.2 3625.3,-73.43 3601.24,-72 3216.63,-49.11 2766.92,-33.06 2512.94,-24.99"/>
<polygon fill="black" stroke="black" points="2512.97,-21.49 2502.86,-24.67 2512.75,-28.49 2512.97,-21.49"/>
</g>
<!-- node61 -->
<g id="node42" class="node">
<title>node61</title>
<ellipse fill="none" stroke="black" cx="4283.24" cy="-90" rx="206.06" ry="18"/>
<text text-anchor="middle" x="4283.24" y="-86.3" font-family="Times,serif" font-size="14.00">&quot;WEIGHTED_ROUND_ROBIN_Joiner_201&quot;</text>
</g>
<!-- node59&#45;&gt;node61 -->
<g id="edge58" class="edge">
<title>node59&#45;&gt;node61</title>
<path fill="none" stroke="black" d="M4283.24,-143.7C4283.24,-135.98 4283.24,-126.71 4283.24,-118.11"/>
<polygon fill="black" stroke="black" points="4286.74,-118.1 4283.24,-108.1 4279.74,-118.1 4286.74,-118.1"/>
</g>
<!-- node60&#45;&gt;node61 -->
<g id="edge59" class="edge">
<title>node60&#45;&gt;node61</title>
<path fill="none" stroke="black" d="M4465.47,-145.98C4431,-135.58 4384.81,-121.64 4347.55,-110.4"/>
<polygon fill="black" stroke="black" points="4348.38,-107 4337.79,-107.46 4346.35,-113.7 4348.38,-107"/>
</g>
<!-- node61&#45;&gt;node64 -->
<g id="edge60" class="edge">
<title>node61&#45;&gt;node64</title>
<path fill="none" stroke="black" d="M4131.87,-77.76C4099.65,-75.62 4065.83,-73.56 4034.24,-72 3488.68,-45 2845.22,-29.56 2520.78,-22.92"/>
<polygon fill="black" stroke="black" points="2520.39,-19.41 2510.32,-22.71 2520.25,-26.41 2520.39,-19.41"/>
</g>
</g>
</svg>
