<?xml version="1.0" encoding="UTF-8" standalone="no"?>
<!DOCTYPE svg PUBLIC "-//W3C//DTD SVG 1.1//EN"
 "http://www.w3.org/Graphics/SVG/1.1/DTD/svg11.dtd">
<!-- Generated by graphviz version 2.43.0 (0)
 -->
<!-- Title: FMRadio_244 Pages: 1 -->
<svg width="4310pt" height="836pt"
 viewBox="0.00 0.00 4309.58 836.00" xmlns="http://www.w3.org/2000/svg" xmlns:xlink="http://www.w3.org/1999/xlink">
<g id="graph0" class="graph" transform="scale(1 1) rotate(0) translate(4 832)">
<title>FMRadio_244</title>
<polygon fill="white" stroke="transparent" points="-4,4 -4,-832 4305.58,-832 4305.58,4 -4,4"/>
<!-- node0 -->
<g id="node1" class="node">
<title>node0</title>
<ellipse fill="none" stroke="black" cx="2149.79" cy="-810" rx="107.48" ry="18"/>
<text text-anchor="middle" x="2149.79" y="-806.3" font-family="Times,serif" font-size="14.00">FloatOneSource_103</text>
</g>
<!-- node1 -->
<g id="node2" class="node">
<title>node1</title>
<ellipse fill="none" stroke="black" cx="2149.79" cy="-738" rx="98.58" ry="18"/>
<text text-anchor="middle" x="2149.79" y="-734.3" font-family="Times,serif" font-size="14.00">LowPassFilter_105</text>
</g>
<!-- node0&#45;&gt;node1 -->
<g id="edge1" class="edge">
<title>node0&#45;&gt;node1</title>
<path fill="none" stroke="black" d="M2149.79,-791.7C2149.79,-783.98 2149.79,-774.71 2149.79,-766.11"/>
<polygon fill="black" stroke="black" points="2153.29,-766.1 2149.79,-756.1 2146.29,-766.1 2153.29,-766.1"/>
</g>
<!-- node2 -->
<g id="node3" class="node">
<title>node2</title>
<ellipse fill="none" stroke="black" cx="2149.79" cy="-666" rx="108.58" ry="18"/>
<text text-anchor="middle" x="2149.79" y="-662.3" font-family="Times,serif" font-size="14.00">FMDemodulator_106</text>
</g>
<!-- node1&#45;&gt;node2 -->
<g id="edge2" class="edge">
<title>node1&#45;&gt;node2</title>
<path fill="none" stroke="black" d="M2149.79,-719.7C2149.79,-711.98 2149.79,-702.71 2149.79,-694.11"/>
<polygon fill="black" stroke="black" points="2153.29,-694.1 2149.79,-684.1 2146.29,-694.1 2153.29,-694.1"/>
</g>
<!-- node3 -->
<g id="node4" class="node">
<title>node3</title>
<ellipse fill="none" stroke="black" cx="2149.79" cy="-594" rx="129.18" ry="18"/>
<text text-anchor="middle" x="2149.79" y="-590.3" font-family="Times,serif" font-size="14.00">DUPLICATE_Splitter_180</text>
</g>
<!-- node2&#45;&gt;node3 -->
<g id="edge3" class="edge">
<title>node2&#45;&gt;node3</title>
<path fill="none" stroke="black" d="M2149.79,-647.7C2149.79,-639.98 2149.79,-630.71 2149.79,-622.11"/>
<polygon fill="black" stroke="black" points="2153.29,-622.1 2149.79,-612.1 2146.29,-622.1 2153.29,-622.1"/>
</g>
<!-- node4 -->
<g id="node5" class="node">
<title>node4</title>
<ellipse fill="none" stroke="black" cx="314.79" cy="-522" rx="129.18" ry="18"/>
<text text-anchor="middle" x="314.79" y="-518.3" font-family="Times,serif" font-size="14.00">DUPLICATE_Splitter_182</text>
</g>
<!-- node3&#45;&gt;node4 -->
<g id="edge4" class="edge">
<title>node3&#45;&gt;node4</title>
<path fill="none" stroke="black" d="M2024.16,-589.67C1761.37,-582.5 1134.42,-564.23 608.79,-540 553.49,-537.45 492.37,-534.02 440.25,-530.9"/>
<polygon fill="black" stroke="black" points="440.14,-527.39 429.95,-530.28 439.72,-534.38 440.14,-527.39"/>
</g>
<!-- node10 -->
<g id="node11" class="node">
<title>node10</title>
<ellipse fill="none" stroke="black" cx="746.79" cy="-522" rx="129.18" ry="18"/>
<text text-anchor="middle" x="746.79" y="-518.3" font-family="Times,serif" font-size="14.00">DUPLICATE_Splitter_184</text>
</g>
<!-- node3&#45;&gt;node10 -->
<g id="edge11" class="edge">
<title>node3&#45;&gt;node10</title>
<path fill="none" stroke="black" d="M2028.75,-587.61C1824.86,-578.45 1400.02,-558.97 1040.79,-540 985.87,-537.1 925.19,-533.63 873.29,-530.59"/>
<polygon fill="black" stroke="black" points="873.22,-527.08 863.03,-529.99 872.8,-534.07 873.22,-527.08"/>
</g>
<!-- node16 -->
<g id="node17" class="node">
<title>node16</title>
<ellipse fill="none" stroke="black" cx="1178.79" cy="-522" rx="129.18" ry="18"/>
<text text-anchor="middle" x="1178.79" y="-518.3" font-family="Times,serif" font-size="14.00">DUPLICATE_Splitter_186</text>
</g>
<!-- node3&#45;&gt;node16 -->
<g id="edge18" class="edge">
<title>node3&#45;&gt;node16</title>
<path fill="none" stroke="black" d="M2037.93,-584.94C1854.34,-571.7 1490.55,-545.47 1300.64,-531.78"/>
<polygon fill="black" stroke="black" points="1300.84,-528.29 1290.62,-531.06 1300.34,-535.27 1300.84,-528.29"/>
</g>
<!-- node22 -->
<g id="node23" class="node">
<title>node22</title>
<ellipse fill="none" stroke="black" cx="1610.79" cy="-522" rx="129.18" ry="18"/>
<text text-anchor="middle" x="1610.79" y="-518.3" font-family="Times,serif" font-size="14.00">DUPLICATE_Splitter_188</text>
</g>
<!-- node3&#45;&gt;node22 -->
<g id="edge25" class="edge">
<title>node3&#45;&gt;node22</title>
<path fill="none" stroke="black" d="M2058.66,-581.17C1962.6,-568.69 1811.66,-549.09 1711.97,-536.14"/>
<polygon fill="black" stroke="black" points="1712.25,-532.65 1701.88,-534.83 1711.35,-539.59 1712.25,-532.65"/>
</g>
<!-- node28 -->
<g id="node29" class="node">
<title>node28</title>
<ellipse fill="none" stroke="black" cx="2011.79" cy="-522" rx="129.18" ry="18"/>
<text text-anchor="middle" x="2011.79" y="-518.3" font-family="Times,serif" font-size="14.00">DUPLICATE_Splitter_190</text>
</g>
<!-- node3&#45;&gt;node28 -->
<g id="edge32" class="edge">
<title>node3&#45;&gt;node28</title>
<path fill="none" stroke="black" d="M2117.09,-576.41C2098.01,-566.73 2073.76,-554.43 2053.34,-544.08"/>
<polygon fill="black" stroke="black" points="2054.76,-540.87 2044.26,-539.47 2051.6,-547.12 2054.76,-540.87"/>
</g>
<!-- node34 -->
<g id="node35" class="node">
<title>node34</title>
<ellipse fill="none" stroke="black" cx="2288.79" cy="-522" rx="129.18" ry="18"/>
<text text-anchor="middle" x="2288.79" y="-518.3" font-family="Times,serif" font-size="14.00">DUPLICATE_Splitter_192</text>
</g>
<!-- node3&#45;&gt;node34 -->
<g id="edge39" class="edge">
<title>node3&#45;&gt;node34</title>
<path fill="none" stroke="black" d="M2182.73,-576.41C2201.95,-566.73 2226.37,-554.43 2246.94,-544.08"/>
<polygon fill="black" stroke="black" points="2248.73,-547.09 2256.09,-539.47 2245.58,-540.84 2248.73,-547.09"/>
</g>
<!-- node40 -->
<g id="node41" class="node">
<title>node40</title>
<ellipse fill="none" stroke="black" cx="2690.79" cy="-522" rx="129.18" ry="18"/>
<text text-anchor="middle" x="2690.79" y="-518.3" font-family="Times,serif" font-size="14.00">DUPLICATE_Splitter_194</text>
</g>
<!-- node3&#45;&gt;node40 -->
<g id="edge46" class="edge">
<title>node3&#45;&gt;node40</title>
<path fill="none" stroke="black" d="M2240.95,-581.2C2337.46,-568.72 2489.41,-549.06 2589.58,-536.1"/>
<polygon fill="black" stroke="black" points="2590.24,-539.54 2599.71,-534.79 2589.34,-532.6 2590.24,-539.54"/>
</g>
<!-- node46 -->
<g id="node47" class="node">
<title>node46</title>
<ellipse fill="none" stroke="black" cx="3122.79" cy="-522" rx="129.18" ry="18"/>
<text text-anchor="middle" x="3122.79" y="-518.3" font-family="Times,serif" font-size="14.00">DUPLICATE_Splitter_196</text>
</g>
<!-- node3&#45;&gt;node46 -->
<g id="edge53" class="edge">
<title>node3&#45;&gt;node46</title>
<path fill="none" stroke="black" d="M2261.88,-584.94C2445.86,-571.7 2810.39,-545.47 3000.69,-531.78"/>
<polygon fill="black" stroke="black" points="3001.01,-535.27 3010.74,-531.06 3000.51,-528.29 3001.01,-535.27"/>
</g>
<!-- node52 -->
<g id="node53" class="node">
<title>node52</title>
<ellipse fill="none" stroke="black" cx="3554.79" cy="-522" rx="129.18" ry="18"/>
<text text-anchor="middle" x="3554.79" y="-518.3" font-family="Times,serif" font-size="14.00">DUPLICATE_Splitter_198</text>
</g>
<!-- node3&#45;&gt;node52 -->
<g id="edge60" class="edge">
<title>node3&#45;&gt;node52</title>
<path fill="none" stroke="black" d="M2271.06,-587.62C2475.3,-578.46 2900.92,-558.99 3260.79,-540 3315.72,-537.1 3376.4,-533.64 3428.3,-530.59"/>
<polygon fill="black" stroke="black" points="3428.78,-534.07 3438.56,-529.99 3428.37,-527.08 3428.78,-534.07"/>
</g>
<!-- node58 -->
<g id="node59" class="node">
<title>node58</title>
<ellipse fill="none" stroke="black" cx="3986.79" cy="-522" rx="129.18" ry="18"/>
<text text-anchor="middle" x="3986.79" y="-518.3" font-family="Times,serif" font-size="14.00">DUPLICATE_Splitter_200</text>
</g>
<!-- node3&#45;&gt;node58 -->
<g id="edge67" class="edge">
<title>node3&#45;&gt;node58</title>
<path fill="none" stroke="black" d="M2275.59,-589.68C2538.72,-582.51 3166.48,-564.25 3692.79,-540 3748.09,-537.45 3809.21,-534.02 3861.33,-530.9"/>
<polygon fill="black" stroke="black" points="3861.86,-534.38 3871.63,-530.28 3861.44,-527.39 3861.86,-534.38"/>
</g>
<!-- node5 -->
<g id="node6" class="node">
<title>node5</title>
<ellipse fill="none" stroke="black" cx="98.79" cy="-450" rx="98.58" ry="18"/>
<text text-anchor="middle" x="98.79" y="-446.3" font-family="Times,serif" font-size="14.00">LowPassFilter_111</text>
</g>
<!-- node4&#45;&gt;node5 -->
<g id="edge5" class="edge">
<title>node4&#45;&gt;node5</title>
<path fill="none" stroke="black" d="M266.32,-505.29C233.26,-494.58 189.38,-480.36 154.83,-469.16"/>
<polygon fill="black" stroke="black" points="155.48,-465.69 144.88,-465.94 153.32,-472.35 155.48,-465.69"/>
</g>
<!-- node6 -->
<g id="node7" class="node">
<title>node6</title>
<ellipse fill="none" stroke="black" cx="314.79" cy="-450" rx="98.58" ry="18"/>
<text text-anchor="middle" x="314.79" y="-446.3" font-family="Times,serif" font-size="14.00">LowPassFilter_112</text>
</g>
<!-- node4&#45;&gt;node6 -->
<g id="edge6" class="edge">
<title>node4&#45;&gt;node6</title>
<path fill="none" stroke="black" d="M314.79,-503.7C314.79,-495.98 314.79,-486.71 314.79,-478.11"/>
<polygon fill="black" stroke="black" points="318.29,-478.1 314.79,-468.1 311.29,-478.1 318.29,-478.1"/>
</g>
<!-- node7 -->
<g id="node8" class="node">
<title>node7</title>
<ellipse fill="none" stroke="black" cx="296.79" cy="-378" rx="196.87" ry="18"/>
<text text-anchor="middle" x="296.79" y="-374.3" font-family="Times,serif" font-size="14.00">WEIGHTED_ROUND_ROBIN_Joiner_183</text>
</g>
<!-- node5&#45;&gt;node7 -->
<g id="edge7" class="edge">
<title>node5&#45;&gt;node7</title>
<path fill="none" stroke="black" d="M142.24,-433.64C171.13,-423.43 209.34,-409.92 240.55,-398.88"/>
<polygon fill="black" stroke="black" points="241.72,-402.18 249.99,-395.55 239.39,-395.58 241.72,-402.18"/>
</g>
<!-- node6&#45;&gt;node7 -->
<g id="edge8" class="edge">
<title>node6&#45;&gt;node7</title>
<path fill="none" stroke="black" d="M310.34,-431.7C308.34,-423.9 305.92,-414.51 303.69,-405.83"/>
<polygon fill="black" stroke="black" points="307.07,-404.92 301.19,-396.1 300.29,-406.66 307.07,-404.92"/>
</g>
<!-- node8 -->
<g id="node9" class="node">
<title>node8</title>
<ellipse fill="none" stroke="black" cx="474.79" cy="-306" rx="83.39" ry="18"/>
<text text-anchor="middle" x="474.79" y="-302.3" font-family="Times,serif" font-size="14.00">Subtracter_113</text>
</g>
<!-- node7&#45;&gt;node8 -->
<g id="edge9" class="edge">
<title>node7&#45;&gt;node8</title>
<path fill="none" stroke="black" d="M338.97,-360.41C365.46,-350 399.68,-336.54 427.14,-325.74"/>
<polygon fill="black" stroke="black" points="428.53,-328.96 436.55,-322.04 425.96,-322.44 428.53,-328.96"/>
</g>
<!-- node9 -->
<g id="node10" class="node">
<title>node9</title>
<ellipse fill="none" stroke="black" cx="732.79" cy="-234" rx="68.49" ry="18"/>
<text text-anchor="middle" x="732.79" y="-230.3" font-family="Times,serif" font-size="14.00">Amplify_114</text>
</g>
<!-- node8&#45;&gt;node9 -->
<g id="edge10" class="edge">
<title>node8&#45;&gt;node9</title>
<path fill="none" stroke="black" d="M524.54,-291.5C568.33,-279.62 632.01,-262.34 677.41,-250.03"/>
<polygon fill="black" stroke="black" points="678.36,-253.4 687.09,-247.4 676.53,-246.64 678.36,-253.4"/>
</g>
<!-- node64 -->
<g id="node65" class="node">
<title>node64</title>
<ellipse fill="none" stroke="black" cx="2142.79" cy="-162" rx="196.87" ry="18"/>
<text text-anchor="middle" x="2142.79" y="-158.3" font-family="Times,serif" font-size="14.00">WEIGHTED_ROUND_ROBIN_Joiner_181</text>
</g>
<!-- node9&#45;&gt;node64 -->
<g id="edge74" class="edge">
<title>node9&#45;&gt;node64</title>
<path fill="none" stroke="black" d="M784.66,-222.08C797.71,-219.7 811.72,-217.46 824.79,-216 1215.57,-172.26 1675.07,-163.35 1935.3,-162.23"/>
<polygon fill="black" stroke="black" points="1935.64,-165.73 1945.63,-162.19 1935.61,-158.73 1935.64,-165.73"/>
</g>
<!-- node11 -->
<g id="node12" class="node">
<title>node11</title>
<ellipse fill="none" stroke="black" cx="530.79" cy="-450" rx="98.58" ry="18"/>
<text text-anchor="middle" x="530.79" y="-446.3" font-family="Times,serif" font-size="14.00">LowPassFilter_118</text>
</g>
<!-- node10&#45;&gt;node11 -->
<g id="edge12" class="edge">
<title>node10&#45;&gt;node11</title>
<path fill="none" stroke="black" d="M698.32,-505.29C665.26,-494.58 621.38,-480.36 586.83,-469.16"/>
<polygon fill="black" stroke="black" points="587.48,-465.69 576.88,-465.94 585.32,-472.35 587.48,-465.69"/>
</g>
<!-- node12 -->
<g id="node13" class="node">
<title>node12</title>
<ellipse fill="none" stroke="black" cx="746.79" cy="-450" rx="98.58" ry="18"/>
<text text-anchor="middle" x="746.79" y="-446.3" font-family="Times,serif" font-size="14.00">LowPassFilter_119</text>
</g>
<!-- node10&#45;&gt;node12 -->
<g id="edge13" class="edge">
<title>node10&#45;&gt;node12</title>
<path fill="none" stroke="black" d="M746.79,-503.7C746.79,-495.98 746.79,-486.71 746.79,-478.11"/>
<polygon fill="black" stroke="black" points="750.29,-478.1 746.79,-468.1 743.29,-478.1 750.29,-478.1"/>
</g>
<!-- node13 -->
<g id="node14" class="node">
<title>node13</title>
<ellipse fill="none" stroke="black" cx="708.79" cy="-378" rx="196.87" ry="18"/>
<text text-anchor="middle" x="708.79" y="-374.3" font-family="Times,serif" font-size="14.00">WEIGHTED_ROUND_ROBIN_Joiner_185</text>
</g>
<!-- node11&#45;&gt;node13 -->
<g id="edge14" class="edge">
<title>node11&#45;&gt;node13</title>
<path fill="none" stroke="black" d="M570.3,-433.46C595.86,-423.41 629.41,-410.22 657.08,-399.33"/>
<polygon fill="black" stroke="black" points="658.58,-402.51 666.6,-395.59 656.02,-395.99 658.58,-402.51"/>
</g>
<!-- node12&#45;&gt;node13 -->
<g id="edge15" class="edge">
<title>node12&#45;&gt;node13</title>
<path fill="none" stroke="black" d="M737.59,-432.05C733.22,-424.01 727.9,-414.2 723.03,-405.23"/>
<polygon fill="black" stroke="black" points="726.02,-403.39 718.17,-396.28 719.86,-406.73 726.02,-403.39"/>
</g>
<!-- node14 -->
<g id="node15" class="node">
<title>node14</title>
<ellipse fill="none" stroke="black" cx="772.79" cy="-306" rx="83.39" ry="18"/>
<text text-anchor="middle" x="772.79" y="-302.3" font-family="Times,serif" font-size="14.00">Subtracter_120</text>
</g>
<!-- node13&#45;&gt;node14 -->
<g id="edge16" class="edge">
<title>node13&#45;&gt;node14</title>
<path fill="none" stroke="black" d="M724.28,-360.05C732.15,-351.46 741.84,-340.86 750.49,-331.4"/>
<polygon fill="black" stroke="black" points="753.28,-333.53 757.44,-323.79 748.11,-328.81 753.28,-333.53"/>
</g>
<!-- node15 -->
<g id="node16" class="node">
<title>node15</title>
<ellipse fill="none" stroke="black" cx="901.79" cy="-234" rx="68.49" ry="18"/>
<text text-anchor="middle" x="901.79" y="-230.3" font-family="Times,serif" font-size="14.00">Amplify_121</text>
</g>
<!-- node14&#45;&gt;node15 -->
<g id="edge17" class="edge">
<title>node14&#45;&gt;node15</title>
<path fill="none" stroke="black" d="M802.06,-289.12C820.42,-279.16 844.26,-266.22 864.03,-255.49"/>
<polygon fill="black" stroke="black" points="865.96,-258.43 873.08,-250.58 862.62,-252.27 865.96,-258.43"/>
</g>
<!-- node15&#45;&gt;node64 -->
<g id="edge75" class="edge">
<title>node15&#45;&gt;node64</title>
<path fill="none" stroke="black" d="M968.07,-229.26C1155.06,-218.71 1691.17,-188.47 1969.86,-172.75"/>
<polygon fill="black" stroke="black" points="1970.28,-176.24 1980.07,-172.18 1969.89,-169.25 1970.28,-176.24"/>
</g>
<!-- node17 -->
<g id="node18" class="node">
<title>node17</title>
<ellipse fill="none" stroke="black" cx="962.79" cy="-450" rx="98.58" ry="18"/>
<text text-anchor="middle" x="962.79" y="-446.3" font-family="Times,serif" font-size="14.00">LowPassFilter_125</text>
</g>
<!-- node16&#45;&gt;node17 -->
<g id="edge19" class="edge">
<title>node16&#45;&gt;node17</title>
<path fill="none" stroke="black" d="M1130.32,-505.29C1097.26,-494.58 1053.38,-480.36 1018.83,-469.16"/>
<polygon fill="black" stroke="black" points="1019.48,-465.69 1008.88,-465.94 1017.32,-472.35 1019.48,-465.69"/>
</g>
<!-- node18 -->
<g id="node19" class="node">
<title>node18</title>
<ellipse fill="none" stroke="black" cx="1178.79" cy="-450" rx="98.58" ry="18"/>
<text text-anchor="middle" x="1178.79" y="-446.3" font-family="Times,serif" font-size="14.00">LowPassFilter_126</text>
</g>
<!-- node16&#45;&gt;node18 -->
<g id="edge20" class="edge">
<title>node16&#45;&gt;node18</title>
<path fill="none" stroke="black" d="M1178.79,-503.7C1178.79,-495.98 1178.79,-486.71 1178.79,-478.11"/>
<polygon fill="black" stroke="black" points="1182.29,-478.1 1178.79,-468.1 1175.29,-478.1 1182.29,-478.1"/>
</g>
<!-- node19 -->
<g id="node20" class="node">
<title>node19</title>
<ellipse fill="none" stroke="black" cx="1120.79" cy="-378" rx="196.87" ry="18"/>
<text text-anchor="middle" x="1120.79" y="-374.3" font-family="Times,serif" font-size="14.00">WEIGHTED_ROUND_ROBIN_Joiner_187</text>
</g>
<!-- node17&#45;&gt;node19 -->
<g id="edge21" class="edge">
<title>node17&#45;&gt;node19</title>
<path fill="none" stroke="black" d="M998.64,-433.12C1020.91,-423.25 1049.77,-410.47 1073.85,-399.8"/>
<polygon fill="black" stroke="black" points="1075.43,-402.93 1083.15,-395.67 1072.59,-396.53 1075.43,-402.93"/>
</g>
<!-- node18&#45;&gt;node19 -->
<g id="edge22" class="edge">
<title>node18&#45;&gt;node19</title>
<path fill="none" stroke="black" d="M1164.75,-432.05C1157.8,-423.67 1149.27,-413.38 1141.59,-404.1"/>
<polygon fill="black" stroke="black" points="1144.18,-401.74 1135.11,-396.28 1138.79,-406.21 1144.18,-401.74"/>
</g>
<!-- node20 -->
<g id="node21" class="node">
<title>node20</title>
<ellipse fill="none" stroke="black" cx="1184.79" cy="-306" rx="83.39" ry="18"/>
<text text-anchor="middle" x="1184.79" y="-302.3" font-family="Times,serif" font-size="14.00">Subtracter_127</text>
</g>
<!-- node19&#45;&gt;node20 -->
<g id="edge23" class="edge">
<title>node19&#45;&gt;node20</title>
<path fill="none" stroke="black" d="M1136.28,-360.05C1144.15,-351.46 1153.84,-340.86 1162.49,-331.4"/>
<polygon fill="black" stroke="black" points="1165.28,-333.53 1169.44,-323.79 1160.11,-328.81 1165.28,-333.53"/>
</g>
<!-- node21 -->
<g id="node22" class="node">
<title>node21</title>
<ellipse fill="none" stroke="black" cx="1313.79" cy="-234" rx="68.49" ry="18"/>
<text text-anchor="middle" x="1313.79" y="-230.3" font-family="Times,serif" font-size="14.00">Amplify_128</text>
</g>
<!-- node20&#45;&gt;node21 -->
<g id="edge24" class="edge">
<title>node20&#45;&gt;node21</title>
<path fill="none" stroke="black" d="M1214.06,-289.12C1232.42,-279.16 1256.26,-266.22 1276.03,-255.49"/>
<polygon fill="black" stroke="black" points="1277.96,-258.43 1285.08,-250.58 1274.62,-252.27 1277.96,-258.43"/>
</g>
<!-- node21&#45;&gt;node64 -->
<g id="edge76" class="edge">
<title>node21&#45;&gt;node64</title>
<path fill="none" stroke="black" d="M1377.81,-227.59C1508.8,-216.53 1810.45,-191.06 1993.39,-175.62"/>
<polygon fill="black" stroke="black" points="1993.7,-179.1 2003.37,-174.77 1993.11,-172.13 1993.7,-179.1"/>
</g>
<!-- node23 -->
<g id="node24" class="node">
<title>node23</title>
<ellipse fill="none" stroke="black" cx="1394.79" cy="-450" rx="98.58" ry="18"/>
<text text-anchor="middle" x="1394.79" y="-446.3" font-family="Times,serif" font-size="14.00">LowPassFilter_132</text>
</g>
<!-- node22&#45;&gt;node23 -->
<g id="edge26" class="edge">
<title>node22&#45;&gt;node23</title>
<path fill="none" stroke="black" d="M1562.32,-505.29C1529.26,-494.58 1485.38,-480.36 1450.83,-469.16"/>
<polygon fill="black" stroke="black" points="1451.48,-465.69 1440.88,-465.94 1449.32,-472.35 1451.48,-465.69"/>
</g>
<!-- node24 -->
<g id="node25" class="node">
<title>node24</title>
<ellipse fill="none" stroke="black" cx="1610.79" cy="-450" rx="98.58" ry="18"/>
<text text-anchor="middle" x="1610.79" y="-446.3" font-family="Times,serif" font-size="14.00">LowPassFilter_133</text>
</g>
<!-- node22&#45;&gt;node24 -->
<g id="edge27" class="edge">
<title>node22&#45;&gt;node24</title>
<path fill="none" stroke="black" d="M1610.79,-503.7C1610.79,-495.98 1610.79,-486.71 1610.79,-478.11"/>
<polygon fill="black" stroke="black" points="1614.29,-478.1 1610.79,-468.1 1607.29,-478.1 1614.29,-478.1"/>
</g>
<!-- node25 -->
<g id="node26" class="node">
<title>node25</title>
<ellipse fill="none" stroke="black" cx="1532.79" cy="-378" rx="196.87" ry="18"/>
<text text-anchor="middle" x="1532.79" y="-374.3" font-family="Times,serif" font-size="14.00">WEIGHTED_ROUND_ROBIN_Joiner_189</text>
</g>
<!-- node23&#45;&gt;node25 -->
<g id="edge28" class="edge">
<title>node23&#45;&gt;node25</title>
<path fill="none" stroke="black" d="M1426.45,-432.94C1445.36,-423.35 1469.62,-411.04 1490.19,-400.61"/>
<polygon fill="black" stroke="black" points="1492.02,-403.61 1499.35,-395.96 1488.85,-397.36 1492.02,-403.61"/>
</g>
<!-- node24&#45;&gt;node25 -->
<g id="edge29" class="edge">
<title>node24&#45;&gt;node25</title>
<path fill="none" stroke="black" d="M1591.91,-432.05C1582.11,-423.26 1569.99,-412.38 1559.27,-402.76"/>
<polygon fill="black" stroke="black" points="1561.55,-400.11 1551.77,-396.03 1556.87,-405.32 1561.55,-400.11"/>
</g>
<!-- node26 -->
<g id="node27" class="node">
<title>node26</title>
<ellipse fill="none" stroke="black" cx="1596.79" cy="-306" rx="83.39" ry="18"/>
<text text-anchor="middle" x="1596.79" y="-302.3" font-family="Times,serif" font-size="14.00">Subtracter_134</text>
</g>
<!-- node25&#45;&gt;node26 -->
<g id="edge30" class="edge">
<title>node25&#45;&gt;node26</title>
<path fill="none" stroke="black" d="M1548.28,-360.05C1556.15,-351.46 1565.84,-340.86 1574.49,-331.4"/>
<polygon fill="black" stroke="black" points="1577.28,-333.53 1581.44,-323.79 1572.11,-328.81 1577.28,-333.53"/>
</g>
<!-- node27 -->
<g id="node28" class="node">
<title>node27</title>
<ellipse fill="none" stroke="black" cx="1725.79" cy="-234" rx="68.49" ry="18"/>
<text text-anchor="middle" x="1725.79" y="-230.3" font-family="Times,serif" font-size="14.00">Amplify_135</text>
</g>
<!-- node26&#45;&gt;node27 -->
<g id="edge31" class="edge">
<title>node26&#45;&gt;node27</title>
<path fill="none" stroke="black" d="M1626.06,-289.12C1644.42,-279.16 1668.26,-266.22 1688.03,-255.49"/>
<polygon fill="black" stroke="black" points="1689.96,-258.43 1697.08,-250.58 1686.62,-252.27 1689.96,-258.43"/>
</g>
<!-- node27&#45;&gt;node64 -->
<g id="edge77" class="edge">
<title>node27&#45;&gt;node64</title>
<path fill="none" stroke="black" d="M1781.6,-223.63C1848.28,-212.44 1961.09,-193.5 2042.92,-179.76"/>
<polygon fill="black" stroke="black" points="2043.71,-183.18 2053,-178.07 2042.55,-176.28 2043.71,-183.18"/>
</g>
<!-- node29 -->
<g id="node30" class="node">
<title>node29</title>
<ellipse fill="none" stroke="black" cx="1826.79" cy="-450" rx="98.58" ry="18"/>
<text text-anchor="middle" x="1826.79" y="-446.3" font-family="Times,serif" font-size="14.00">LowPassFilter_139</text>
</g>
<!-- node28&#45;&gt;node29 -->
<g id="edge33" class="edge">
<title>node28&#45;&gt;node29</title>
<path fill="none" stroke="black" d="M1969.35,-504.94C1941.94,-494.57 1906.13,-481.02 1877.27,-470.1"/>
<polygon fill="black" stroke="black" points="1878.36,-466.77 1867.76,-466.5 1875.88,-473.32 1878.36,-466.77"/>
</g>
<!-- node30 -->
<g id="node31" class="node">
<title>node30</title>
<ellipse fill="none" stroke="black" cx="2042.79" cy="-450" rx="98.58" ry="18"/>
<text text-anchor="middle" x="2042.79" y="-446.3" font-family="Times,serif" font-size="14.00">LowPassFilter_140</text>
</g>
<!-- node28&#45;&gt;node30 -->
<g id="edge34" class="edge">
<title>node28&#45;&gt;node30</title>
<path fill="none" stroke="black" d="M2019.45,-503.7C2022.98,-495.73 2027.25,-486.1 2031.16,-477.26"/>
<polygon fill="black" stroke="black" points="2034.37,-478.67 2035.22,-468.1 2027.97,-475.83 2034.37,-478.67"/>
</g>
<!-- node31 -->
<g id="node32" class="node">
<title>node31</title>
<ellipse fill="none" stroke="black" cx="1944.79" cy="-378" rx="196.87" ry="18"/>
<text text-anchor="middle" x="1944.79" y="-374.3" font-family="Times,serif" font-size="14.00">WEIGHTED_ROUND_ROBIN_Joiner_191</text>
</g>
<!-- node29&#45;&gt;node31 -->
<g id="edge35" class="edge">
<title>node29&#45;&gt;node31</title>
<path fill="none" stroke="black" d="M1854.46,-432.59C1870.24,-423.23 1890.23,-411.37 1907.39,-401.19"/>
<polygon fill="black" stroke="black" points="1909.25,-404.15 1916.07,-396.04 1905.68,-398.13 1909.25,-404.15"/>
</g>
<!-- node30&#45;&gt;node31 -->
<g id="edge36" class="edge">
<title>node30&#45;&gt;node31</title>
<path fill="none" stroke="black" d="M2019.57,-432.41C2006.82,-423.3 1990.81,-411.87 1976.89,-401.92"/>
<polygon fill="black" stroke="black" points="1978.7,-398.92 1968.53,-395.96 1974.63,-404.62 1978.7,-398.92"/>
</g>
<!-- node32 -->
<g id="node33" class="node">
<title>node32</title>
<ellipse fill="none" stroke="black" cx="2001.79" cy="-306" rx="83.39" ry="18"/>
<text text-anchor="middle" x="2001.79" y="-302.3" font-family="Times,serif" font-size="14.00">Subtracter_141</text>
</g>
<!-- node31&#45;&gt;node32 -->
<g id="edge37" class="edge">
<title>node31&#45;&gt;node32</title>
<path fill="none" stroke="black" d="M1958.88,-359.7C1965.71,-351.3 1974.05,-341.07 1981.55,-331.86"/>
<polygon fill="black" stroke="black" points="1984.26,-334.07 1987.86,-324.1 1978.84,-329.65 1984.26,-334.07"/>
</g>
<!-- node33 -->
<g id="node34" class="node">
<title>node33</title>
<ellipse fill="none" stroke="black" cx="2065.79" cy="-234" rx="68.49" ry="18"/>
<text text-anchor="middle" x="2065.79" y="-230.3" font-family="Times,serif" font-size="14.00">Amplify_142</text>
</g>
<!-- node32&#45;&gt;node33 -->
<g id="edge38" class="edge">
<title>node32&#45;&gt;node33</title>
<path fill="none" stroke="black" d="M2017.28,-288.05C2025.15,-279.46 2034.84,-268.86 2043.49,-259.4"/>
<polygon fill="black" stroke="black" points="2046.28,-261.53 2050.44,-251.79 2041.11,-256.81 2046.28,-261.53"/>
</g>
<!-- node33&#45;&gt;node64 -->
<g id="edge78" class="edge">
<title>node33&#45;&gt;node64</title>
<path fill="none" stroke="black" d="M2084.04,-216.41C2093.77,-207.56 2105.92,-196.52 2116.64,-186.77"/>
<polygon fill="black" stroke="black" points="2119.09,-189.27 2124.14,-179.96 2114.39,-184.09 2119.09,-189.27"/>
</g>
<!-- node35 -->
<g id="node36" class="node">
<title>node35</title>
<ellipse fill="none" stroke="black" cx="2258.79" cy="-450" rx="98.58" ry="18"/>
<text text-anchor="middle" x="2258.79" y="-446.3" font-family="Times,serif" font-size="14.00">LowPassFilter_146</text>
</g>
<!-- node34&#45;&gt;node35 -->
<g id="edge40" class="edge">
<title>node34&#45;&gt;node35</title>
<path fill="none" stroke="black" d="M2281.38,-503.7C2278,-495.81 2273.92,-486.3 2270.17,-477.55"/>
<polygon fill="black" stroke="black" points="2273.28,-475.92 2266.12,-468.1 2266.84,-478.67 2273.28,-475.92"/>
</g>
<!-- node36 -->
<g id="node37" class="node">
<title>node36</title>
<ellipse fill="none" stroke="black" cx="2474.79" cy="-450" rx="98.58" ry="18"/>
<text text-anchor="middle" x="2474.79" y="-446.3" font-family="Times,serif" font-size="14.00">LowPassFilter_147</text>
</g>
<!-- node34&#45;&gt;node36 -->
<g id="edge41" class="edge">
<title>node34&#45;&gt;node36</title>
<path fill="none" stroke="black" d="M2331.46,-504.94C2359.02,-494.57 2395.02,-481.02 2424.04,-470.1"/>
<polygon fill="black" stroke="black" points="2425.47,-473.3 2433.6,-466.5 2423,-466.75 2425.47,-473.3"/>
</g>
<!-- node37 -->
<g id="node38" class="node">
<title>node37</title>
<ellipse fill="none" stroke="black" cx="2356.79" cy="-378" rx="196.87" ry="18"/>
<text text-anchor="middle" x="2356.79" y="-374.3" font-family="Times,serif" font-size="14.00">WEIGHTED_ROUND_ROBIN_Joiner_193</text>
</g>
<!-- node35&#45;&gt;node37 -->
<g id="edge42" class="edge">
<title>node35&#45;&gt;node37</title>
<path fill="none" stroke="black" d="M2282.02,-432.41C2294.77,-423.3 2310.77,-411.87 2324.7,-401.92"/>
<polygon fill="black" stroke="black" points="2326.95,-404.62 2333.05,-395.96 2322.88,-398.92 2326.95,-404.62"/>
</g>
<!-- node36&#45;&gt;node37 -->
<g id="edge43" class="edge">
<title>node36&#45;&gt;node37</title>
<path fill="none" stroke="black" d="M2447.13,-432.59C2431.35,-423.23 2411.36,-411.37 2394.2,-401.19"/>
<polygon fill="black" stroke="black" points="2395.9,-398.13 2385.52,-396.04 2392.33,-404.15 2395.9,-398.13"/>
</g>
<!-- node38 -->
<g id="node39" class="node">
<title>node38</title>
<ellipse fill="none" stroke="black" cx="2299.79" cy="-306" rx="83.39" ry="18"/>
<text text-anchor="middle" x="2299.79" y="-302.3" font-family="Times,serif" font-size="14.00">Subtracter_148</text>
</g>
<!-- node37&#45;&gt;node38 -->
<g id="edge44" class="edge">
<title>node37&#45;&gt;node38</title>
<path fill="none" stroke="black" d="M2342.7,-359.7C2335.87,-351.3 2327.53,-341.07 2320.04,-331.86"/>
<polygon fill="black" stroke="black" points="2322.75,-329.65 2313.72,-324.1 2317.32,-334.07 2322.75,-329.65"/>
</g>
<!-- node39 -->
<g id="node40" class="node">
<title>node39</title>
<ellipse fill="none" stroke="black" cx="2234.79" cy="-234" rx="68.49" ry="18"/>
<text text-anchor="middle" x="2234.79" y="-230.3" font-family="Times,serif" font-size="14.00">Amplify_149</text>
</g>
<!-- node38&#45;&gt;node39 -->
<g id="edge45" class="edge">
<title>node38&#45;&gt;node39</title>
<path fill="none" stroke="black" d="M2284.06,-288.05C2276.07,-279.46 2266.23,-268.86 2257.45,-259.4"/>
<polygon fill="black" stroke="black" points="2259.75,-256.74 2250.38,-251.79 2254.62,-261.5 2259.75,-256.74"/>
</g>
<!-- node39&#45;&gt;node64 -->
<g id="edge79" class="edge">
<title>node39&#45;&gt;node64</title>
<path fill="none" stroke="black" d="M2213.45,-216.76C2201.61,-207.75 2186.67,-196.39 2173.58,-186.43"/>
<polygon fill="black" stroke="black" points="2175.37,-183.39 2165.3,-180.12 2171.14,-188.96 2175.37,-183.39"/>
</g>
<!-- node41 -->
<g id="node42" class="node">
<title>node41</title>
<ellipse fill="none" stroke="black" cx="2690.79" cy="-450" rx="98.58" ry="18"/>
<text text-anchor="middle" x="2690.79" y="-446.3" font-family="Times,serif" font-size="14.00">LowPassFilter_153</text>
</g>
<!-- node40&#45;&gt;node41 -->
<g id="edge47" class="edge">
<title>node40&#45;&gt;node41</title>
<path fill="none" stroke="black" d="M2690.79,-503.7C2690.79,-495.98 2690.79,-486.71 2690.79,-478.11"/>
<polygon fill="black" stroke="black" points="2694.29,-478.1 2690.79,-468.1 2687.29,-478.1 2694.29,-478.1"/>
</g>
<!-- node42 -->
<g id="node43" class="node">
<title>node42</title>
<ellipse fill="none" stroke="black" cx="2906.79" cy="-450" rx="98.58" ry="18"/>
<text text-anchor="middle" x="2906.79" y="-446.3" font-family="Times,serif" font-size="14.00">LowPassFilter_154</text>
</g>
<!-- node40&#45;&gt;node42 -->
<g id="edge48" class="edge">
<title>node40&#45;&gt;node42</title>
<path fill="none" stroke="black" d="M2739.27,-505.29C2772.32,-494.58 2816.2,-480.36 2850.76,-469.16"/>
<polygon fill="black" stroke="black" points="2852.26,-472.35 2860.7,-465.94 2850.11,-465.69 2852.26,-472.35"/>
</g>
<!-- node43 -->
<g id="node44" class="node">
<title>node43</title>
<ellipse fill="none" stroke="black" cx="2768.79" cy="-378" rx="196.87" ry="18"/>
<text text-anchor="middle" x="2768.79" y="-374.3" font-family="Times,serif" font-size="14.00">WEIGHTED_ROUND_ROBIN_Joiner_195</text>
</g>
<!-- node41&#45;&gt;node43 -->
<g id="edge49" class="edge">
<title>node41&#45;&gt;node43</title>
<path fill="none" stroke="black" d="M2709.67,-432.05C2719.47,-423.26 2731.6,-412.38 2742.31,-402.76"/>
<polygon fill="black" stroke="black" points="2744.71,-405.32 2749.81,-396.03 2740.03,-400.11 2744.71,-405.32"/>
</g>
<!-- node42&#45;&gt;node43 -->
<g id="edge50" class="edge">
<title>node42&#45;&gt;node43</title>
<path fill="none" stroke="black" d="M2875.13,-432.94C2856.22,-423.35 2831.96,-411.04 2811.39,-400.61"/>
<polygon fill="black" stroke="black" points="2812.73,-397.36 2802.23,-395.96 2809.56,-403.61 2812.73,-397.36"/>
</g>
<!-- node44 -->
<g id="node45" class="node">
<title>node44</title>
<ellipse fill="none" stroke="black" cx="2654.79" cy="-306" rx="83.39" ry="18"/>
<text text-anchor="middle" x="2654.79" y="-302.3" font-family="Times,serif" font-size="14.00">Subtracter_155</text>
</g>
<!-- node43&#45;&gt;node44 -->
<g id="edge51" class="edge">
<title>node43&#45;&gt;node44</title>
<path fill="none" stroke="black" d="M2741.2,-360.05C2725.85,-350.63 2706.59,-338.81 2690.15,-328.71"/>
<polygon fill="black" stroke="black" points="2691.7,-325.56 2681.35,-323.31 2688.04,-331.52 2691.7,-325.56"/>
</g>
<!-- node45 -->
<g id="node46" class="node">
<title>node45</title>
<ellipse fill="none" stroke="black" cx="2410.79" cy="-234" rx="68.49" ry="18"/>
<text text-anchor="middle" x="2410.79" y="-230.3" font-family="Times,serif" font-size="14.00">Amplify_156</text>
</g>
<!-- node44&#45;&gt;node45 -->
<g id="edge52" class="edge">
<title>node44&#45;&gt;node45</title>
<path fill="none" stroke="black" d="M2606.88,-291.25C2566.06,-279.54 2507.44,-262.73 2464.93,-250.53"/>
<polygon fill="black" stroke="black" points="2465.89,-247.16 2455.31,-247.77 2463.96,-253.89 2465.89,-247.16"/>
</g>
<!-- node45&#45;&gt;node64 -->
<g id="edge80" class="edge">
<title>node45&#45;&gt;node64</title>
<path fill="none" stroke="black" d="M2364.11,-220.81C2322.81,-210.02 2261.9,-194.11 2214.43,-181.71"/>
<polygon fill="black" stroke="black" points="2215.08,-178.26 2204.52,-179.12 2213.31,-185.04 2215.08,-178.26"/>
</g>
<!-- node47 -->
<g id="node48" class="node">
<title>node47</title>
<ellipse fill="none" stroke="black" cx="3122.79" cy="-450" rx="98.58" ry="18"/>
<text text-anchor="middle" x="3122.79" y="-446.3" font-family="Times,serif" font-size="14.00">LowPassFilter_160</text>
</g>
<!-- node46&#45;&gt;node47 -->
<g id="edge54" class="edge">
<title>node46&#45;&gt;node47</title>
<path fill="none" stroke="black" d="M3122.79,-503.7C3122.79,-495.98 3122.79,-486.71 3122.79,-478.11"/>
<polygon fill="black" stroke="black" points="3126.29,-478.1 3122.79,-468.1 3119.29,-478.1 3126.29,-478.1"/>
</g>
<!-- node48 -->
<g id="node49" class="node">
<title>node48</title>
<ellipse fill="none" stroke="black" cx="3338.79" cy="-450" rx="98.58" ry="18"/>
<text text-anchor="middle" x="3338.79" y="-446.3" font-family="Times,serif" font-size="14.00">LowPassFilter_161</text>
</g>
<!-- node46&#45;&gt;node48 -->
<g id="edge55" class="edge">
<title>node46&#45;&gt;node48</title>
<path fill="none" stroke="black" d="M3171.27,-505.29C3204.32,-494.58 3248.2,-480.36 3282.76,-469.16"/>
<polygon fill="black" stroke="black" points="3284.26,-472.35 3292.7,-465.94 3282.11,-465.69 3284.26,-472.35"/>
</g>
<!-- node49 -->
<g id="node50" class="node">
<title>node49</title>
<ellipse fill="none" stroke="black" cx="3180.79" cy="-378" rx="196.87" ry="18"/>
<text text-anchor="middle" x="3180.79" y="-374.3" font-family="Times,serif" font-size="14.00">WEIGHTED_ROUND_ROBIN_Joiner_197</text>
</g>
<!-- node47&#45;&gt;node49 -->
<g id="edge56" class="edge">
<title>node47&#45;&gt;node49</title>
<path fill="none" stroke="black" d="M3136.83,-432.05C3143.78,-423.67 3152.31,-413.38 3160,-404.1"/>
<polygon fill="black" stroke="black" points="3162.79,-406.21 3166.48,-396.28 3157.4,-401.74 3162.79,-406.21"/>
</g>
<!-- node48&#45;&gt;node49 -->
<g id="edge57" class="edge">
<title>node48&#45;&gt;node49</title>
<path fill="none" stroke="black" d="M3302.94,-433.12C3280.67,-423.25 3251.81,-410.47 3227.74,-399.8"/>
<polygon fill="black" stroke="black" points="3228.99,-396.53 3218.43,-395.67 3226.15,-402.93 3228.99,-396.53"/>
</g>
<!-- node50 -->
<g id="node51" class="node">
<title>node50</title>
<ellipse fill="none" stroke="black" cx="3037.79" cy="-306" rx="83.39" ry="18"/>
<text text-anchor="middle" x="3037.79" y="-302.3" font-family="Times,serif" font-size="14.00">Subtracter_162</text>
</g>
<!-- node49&#45;&gt;node50 -->
<g id="edge58" class="edge">
<title>node49&#45;&gt;node50</title>
<path fill="none" stroke="black" d="M3146.54,-360.23C3126.24,-350.3 3100.39,-337.64 3078.98,-327.16"/>
<polygon fill="black" stroke="black" points="3080.32,-323.92 3069.8,-322.67 3077.25,-330.21 3080.32,-323.92"/>
</g>
<!-- node51 -->
<g id="node52" class="node">
<title>node51</title>
<ellipse fill="none" stroke="black" cx="2590.79" cy="-234" rx="68.49" ry="18"/>
<text text-anchor="middle" x="2590.79" y="-230.3" font-family="Times,serif" font-size="14.00">Amplify_163</text>
</g>
<!-- node50&#45;&gt;node51 -->
<g id="edge59" class="edge">
<title>node50&#45;&gt;node51</title>
<path fill="none" stroke="black" d="M2971.89,-294.92C2903,-284.36 2791.78,-267.21 2695.79,-252 2683.34,-250.03 2670.07,-247.9 2657.29,-245.84"/>
<polygon fill="black" stroke="black" points="2657.61,-242.34 2647.18,-244.2 2656.49,-249.25 2657.61,-242.34"/>
</g>
<!-- node51&#45;&gt;node64 -->
<g id="edge81" class="edge">
<title>node51&#45;&gt;node64</title>
<path fill="none" stroke="black" d="M2534.68,-223.62C2519.47,-221.11 2503,-218.42 2487.79,-216 2408.22,-203.32 2318.24,-189.52 2250.13,-179.17"/>
<polygon fill="black" stroke="black" points="2250.65,-175.71 2240.24,-177.67 2249.6,-182.64 2250.65,-175.71"/>
</g>
<!-- node53 -->
<g id="node54" class="node">
<title>node53</title>
<ellipse fill="none" stroke="black" cx="3554.79" cy="-450" rx="98.58" ry="18"/>
<text text-anchor="middle" x="3554.79" y="-446.3" font-family="Times,serif" font-size="14.00">LowPassFilter_167</text>
</g>
<!-- node52&#45;&gt;node53 -->
<g id="edge61" class="edge">
<title>node52&#45;&gt;node53</title>
<path fill="none" stroke="black" d="M3554.79,-503.7C3554.79,-495.98 3554.79,-486.71 3554.79,-478.11"/>
<polygon fill="black" stroke="black" points="3558.29,-478.1 3554.79,-468.1 3551.29,-478.1 3558.29,-478.1"/>
</g>
<!-- node54 -->
<g id="node55" class="node">
<title>node54</title>
<ellipse fill="none" stroke="black" cx="3770.79" cy="-450" rx="98.58" ry="18"/>
<text text-anchor="middle" x="3770.79" y="-446.3" font-family="Times,serif" font-size="14.00">LowPassFilter_168</text>
</g>
<!-- node52&#45;&gt;node54 -->
<g id="edge62" class="edge">
<title>node52&#45;&gt;node54</title>
<path fill="none" stroke="black" d="M3603.27,-505.29C3636.32,-494.58 3680.2,-480.36 3714.76,-469.16"/>
<polygon fill="black" stroke="black" points="3716.26,-472.35 3724.7,-465.94 3714.11,-465.69 3716.26,-472.35"/>
</g>
<!-- node55 -->
<g id="node56" class="node">
<title>node55</title>
<ellipse fill="none" stroke="black" cx="3592.79" cy="-378" rx="196.87" ry="18"/>
<text text-anchor="middle" x="3592.79" y="-374.3" font-family="Times,serif" font-size="14.00">WEIGHTED_ROUND_ROBIN_Joiner_199</text>
</g>
<!-- node53&#45;&gt;node55 -->
<g id="edge63" class="edge">
<title>node53&#45;&gt;node55</title>
<path fill="none" stroke="black" d="M3563.99,-432.05C3568.36,-424.01 3573.68,-414.2 3578.55,-405.23"/>
<polygon fill="black" stroke="black" points="3581.72,-406.73 3583.41,-396.28 3575.57,-403.39 3581.72,-406.73"/>
</g>
<!-- node54&#45;&gt;node55 -->
<g id="edge64" class="edge">
<title>node54&#45;&gt;node55</title>
<path fill="none" stroke="black" d="M3731.29,-433.46C3705.73,-423.41 3672.18,-410.22 3644.5,-399.33"/>
<polygon fill="black" stroke="black" points="3645.57,-395.99 3634.98,-395.59 3643,-402.51 3645.57,-395.99"/>
</g>
<!-- node56 -->
<g id="node57" class="node">
<title>node56</title>
<ellipse fill="none" stroke="black" cx="3435.79" cy="-306" rx="83.39" ry="18"/>
<text text-anchor="middle" x="3435.79" y="-302.3" font-family="Times,serif" font-size="14.00">Subtracter_169</text>
</g>
<!-- node55&#45;&gt;node56 -->
<g id="edge65" class="edge">
<title>node55&#45;&gt;node56</title>
<path fill="none" stroke="black" d="M3555.19,-360.23C3532.44,-350.09 3503.34,-337.12 3479.57,-326.52"/>
<polygon fill="black" stroke="black" points="3480.97,-323.31 3470.41,-322.43 3478.11,-329.7 3480.97,-323.31"/>
</g>
<!-- node57 -->
<g id="node58" class="node">
<title>node57</title>
<ellipse fill="none" stroke="black" cx="2772.79" cy="-234" rx="68.49" ry="18"/>
<text text-anchor="middle" x="2772.79" y="-230.3" font-family="Times,serif" font-size="14.00">Amplify_170</text>
</g>
<!-- node56&#45;&gt;node57 -->
<g id="edge66" class="edge">
<title>node56&#45;&gt;node57</title>
<path fill="none" stroke="black" d="M3358.58,-299.23C3250.89,-290.82 3049.58,-273.8 2878.79,-252 2865.68,-250.33 2851.7,-248.28 2838.33,-246.18"/>
<polygon fill="black" stroke="black" points="2838.68,-242.7 2828.26,-244.58 2837.58,-249.61 2838.68,-242.7"/>
</g>
<!-- node57&#45;&gt;node64 -->
<g id="edge82" class="edge">
<title>node57&#45;&gt;node64</title>
<path fill="none" stroke="black" d="M2717.57,-223.42C2701.54,-220.82 2684,-218.13 2667.79,-216 2541.41,-199.41 2397.33,-185.19 2292.11,-175.68"/>
<polygon fill="black" stroke="black" points="2292.33,-172.18 2282.05,-174.77 2291.7,-179.15 2292.33,-172.18"/>
</g>
<!-- node59 -->
<g id="node60" class="node">
<title>node59</title>
<ellipse fill="none" stroke="black" cx="3986.79" cy="-450" rx="98.58" ry="18"/>
<text text-anchor="middle" x="3986.79" y="-446.3" font-family="Times,serif" font-size="14.00">LowPassFilter_174</text>
</g>
<!-- node58&#45;&gt;node59 -->
<g id="edge68" class="edge">
<title>node58&#45;&gt;node59</title>
<path fill="none" stroke="black" d="M3986.79,-503.7C3986.79,-495.98 3986.79,-486.71 3986.79,-478.11"/>
<polygon fill="black" stroke="black" points="3990.29,-478.1 3986.79,-468.1 3983.29,-478.1 3990.29,-478.1"/>
</g>
<!-- node60 -->
<g id="node61" class="node">
<title>node60</title>
<ellipse fill="none" stroke="black" cx="4202.79" cy="-450" rx="98.58" ry="18"/>
<text text-anchor="middle" x="4202.79" y="-446.3" font-family="Times,serif" font-size="14.00">LowPassFilter_175</text>
</g>
<!-- node58&#45;&gt;node60 -->
<g id="edge69" class="edge">
<title>node58&#45;&gt;node60</title>
<path fill="none" stroke="black" d="M4035.27,-505.29C4068.32,-494.58 4112.2,-480.36 4146.76,-469.16"/>
<polygon fill="black" stroke="black" points="4148.26,-472.35 4156.7,-465.94 4146.11,-465.69 4148.26,-472.35"/>
</g>
<!-- node61 -->
<g id="node62" class="node">
<title>node61</title>
<ellipse fill="none" stroke="black" cx="4004.79" cy="-378" rx="196.87" ry="18"/>
<text text-anchor="middle" x="4004.79" y="-374.3" font-family="Times,serif" font-size="14.00">WEIGHTED_ROUND_ROBIN_Joiner_201</text>
</g>
<!-- node59&#45;&gt;node61 -->
<g id="edge70" class="edge">
<title>node59&#45;&gt;node61</title>
<path fill="none" stroke="black" d="M3991.24,-431.7C3993.25,-423.9 3995.66,-414.51 3997.89,-405.83"/>
<polygon fill="black" stroke="black" points="4001.29,-406.66 4000.39,-396.1 3994.51,-404.92 4001.29,-406.66"/>
</g>
<!-- node60&#45;&gt;node61 -->
<g id="edge71" class="edge">
<title>node60&#45;&gt;node61</title>
<path fill="none" stroke="black" d="M4159.34,-433.64C4130.45,-423.43 4092.24,-409.92 4061.04,-398.88"/>
<polygon fill="black" stroke="black" points="4062.19,-395.58 4051.6,-395.55 4059.86,-402.18 4062.19,-395.58"/>
</g>
<!-- node62 -->
<g id="node63" class="node">
<title>node62</title>
<ellipse fill="none" stroke="black" cx="3840.79" cy="-306" rx="83.39" ry="18"/>
<text text-anchor="middle" x="3840.79" y="-302.3" font-family="Times,serif" font-size="14.00">Subtracter_176</text>
</g>
<!-- node61&#45;&gt;node62 -->
<g id="edge72" class="edge">
<title>node61&#45;&gt;node62</title>
<path fill="none" stroke="black" d="M3965.51,-360.23C3941.56,-350.01 3910.87,-336.91 3885.93,-326.26"/>
<polygon fill="black" stroke="black" points="3887.24,-323.02 3876.67,-322.32 3884.5,-329.46 3887.24,-323.02"/>
</g>
<!-- node63 -->
<g id="node64" class="node">
<title>node63</title>
<ellipse fill="none" stroke="black" cx="2955.79" cy="-234" rx="68.49" ry="18"/>
<text text-anchor="middle" x="2955.79" y="-230.3" font-family="Times,serif" font-size="14.00">Amplify_177</text>
</g>
<!-- node62&#45;&gt;node63 -->
<g id="edge73" class="edge">
<title>node62&#45;&gt;node63</title>
<path fill="none" stroke="black" d="M3764.19,-298.94C3596.07,-285.64 3196.56,-254.04 3030.35,-240.9"/>
<polygon fill="black" stroke="black" points="3030.46,-237.4 3020.22,-240.1 3029.91,-244.37 3030.46,-237.4"/>
</g>
<!-- node63&#45;&gt;node64 -->
<g id="edge83" class="edge">
<title>node63&#45;&gt;node64</title>
<path fill="none" stroke="black" d="M2900.9,-223.29C2884.5,-220.64 2866.45,-217.96 2849.79,-216 2669.97,-194.88 2463.38,-180.53 2320.15,-172.15"/>
<polygon fill="black" stroke="black" points="2320.13,-168.64 2309.95,-171.55 2319.73,-175.63 2320.13,-168.64"/>
</g>
<!-- node65 -->
<g id="node66" class="node">
<title>node65</title>
<ellipse fill="none" stroke="black" cx="2142.79" cy="-90" rx="97.48" ry="18"/>
<text text-anchor="middle" x="2142.79" y="-86.3" font-family="Times,serif" font-size="14.00">AnonFilter_a0_178</text>
</g>
<!-- node64&#45;&gt;node65 -->
<g id="edge84" class="edge">
<title>node64&#45;&gt;node65</title>
<path fill="none" stroke="black" d="M2142.79,-143.7C2142.79,-135.98 2142.79,-126.71 2142.79,-118.11"/>
<polygon fill="black" stroke="black" points="2146.29,-118.1 2142.79,-108.1 2139.29,-118.1 2146.29,-118.1"/>
</g>
<!-- node66 -->
<g id="node67" class="node">
<title>node66</title>
<ellipse fill="none" stroke="black" cx="2142.79" cy="-18" rx="89.88" ry="18"/>
<text text-anchor="middle" x="2142.79" y="-14.3" font-family="Times,serif" font-size="14.00">FloatPrinter_179</text>
</g>
<!-- node65&#45;&gt;node66 -->
<g id="edge85" class="edge">
<title>node65&#45;&gt;node66</title>
<path fill="none" stroke="black" d="M2142.79,-71.7C2142.79,-63.98 2142.79,-54.71 2142.79,-46.11"/>
<polygon fill="black" stroke="black" points="2146.29,-46.1 2142.79,-36.1 2139.29,-46.1 2146.29,-46.1"/>
</g>
</g>
</svg>
