<?xml version="1.0" encoding="UTF-8" standalone="no"?>
<!DOCTYPE svg PUBLIC "-//W3C//DTD SVG 1.1//EN"
 "http://www.w3.org/Graphics/SVG/1.1/DTD/svg11.dtd">
<!-- Generated by graphviz version 2.43.0 (0)
 -->
<!-- Title: FMRadio_244 Pages: 1 -->
<svg width="1430pt" height="836pt"
 viewBox="0.00 0.00 1430.00 836.00" xmlns="http://www.w3.org/2000/svg" xmlns:xlink="http://www.w3.org/1999/xlink">
<g id="graph0" class="graph" transform="scale(1 1) rotate(0) translate(4 832)">
<title>FMRadio_244</title>
<polygon fill="white" stroke="transparent" points="-4,4 -4,-832 1426,-832 1426,4 -4,4"/>
<!-- node0 -->
<g id="node1" class="node">
<title>node0</title>
<ellipse fill="grey" stroke="black" cx="711" cy="-810" rx="27" ry="18"/>
</g>
<!-- node1 -->
<g id="node2" class="node">
<title>node1</title>
<ellipse fill="grey" stroke="black" cx="711" cy="-738" rx="27" ry="18"/>
</g>
<!-- node0&#45;&gt;node1 -->
<g id="edge1" class="edge">
<title>node0&#45;&gt;node1</title>
<path fill="none" stroke="black" d="M711,-791.7C711,-783.98 711,-774.71 711,-766.11"/>
<polygon fill="black" stroke="black" points="714.5,-766.1 711,-756.1 707.5,-766.1 714.5,-766.1"/>
</g>
<!-- node2 -->
<g id="node3" class="node">
<title>node2</title>
<ellipse fill="grey" stroke="black" cx="711" cy="-666" rx="27" ry="18"/>
</g>
<!-- node1&#45;&gt;node2 -->
<g id="edge2" class="edge">
<title>node1&#45;&gt;node2</title>
<path fill="none" stroke="black" d="M711,-719.7C711,-711.98 711,-702.71 711,-694.11"/>
<polygon fill="black" stroke="black" points="714.5,-694.1 711,-684.1 707.5,-694.1 714.5,-694.1"/>
</g>
<!-- node3 -->
<g id="node4" class="node">
<title>node3</title>
<ellipse fill="grey" stroke="black" cx="711" cy="-594" rx="27" ry="18"/>
</g>
<!-- node2&#45;&gt;node3 -->
<g id="edge3" class="edge">
<title>node2&#45;&gt;node3</title>
<path fill="none" stroke="black" d="M711,-647.7C711,-639.98 711,-630.71 711,-622.11"/>
<polygon fill="black" stroke="black" points="714.5,-622.1 711,-612.1 707.5,-622.1 714.5,-622.1"/>
</g>
<!-- node4 -->
<g id="node5" class="node">
<title>node4</title>
<ellipse fill="grey" stroke="black" cx="99" cy="-522" rx="27" ry="18"/>
</g>
<!-- node3&#45;&gt;node4 -->
<g id="edge4" class="edge">
<title>node3&#45;&gt;node4</title>
<path fill="none" stroke="black" d="M684.44,-590.69C609.34,-584.06 389.1,-563.89 207,-540 183.01,-536.85 156.14,-532.63 135.2,-529.17"/>
<polygon fill="black" stroke="black" points="135.57,-525.69 125.13,-527.5 134.42,-532.59 135.57,-525.69"/>
</g>
<!-- node10 -->
<g id="node6" class="node">
<title>node10</title>
<ellipse fill="grey" stroke="black" cx="243" cy="-522" rx="27" ry="18"/>
</g>
<!-- node3&#45;&gt;node10 -->
<g id="edge5" class="edge">
<title>node3&#45;&gt;node10</title>
<path fill="none" stroke="black" d="M684.79,-589.23C625.37,-580.67 475.91,-559.02 351,-540 327.08,-536.36 300.21,-532.13 279.25,-528.8"/>
<polygon fill="black" stroke="black" points="279.6,-525.31 269.18,-527.2 278.5,-532.22 279.6,-525.31"/>
</g>
<!-- node16 -->
<g id="node7" class="node">
<title>node16</title>
<ellipse fill="grey" stroke="black" cx="387" cy="-522" rx="27" ry="18"/>
</g>
<!-- node3&#45;&gt;node16 -->
<g id="edge6" class="edge">
<title>node3&#45;&gt;node16</title>
<path fill="none" stroke="black" d="M685.58,-587.51C628.08,-575.09 487.98,-544.82 422.2,-530.61"/>
<polygon fill="black" stroke="black" points="422.82,-527.16 412.31,-528.47 421.34,-534 422.82,-527.16"/>
</g>
<!-- node22 -->
<g id="node8" class="node">
<title>node22</title>
<ellipse fill="grey" stroke="black" cx="531" cy="-522" rx="27" ry="18"/>
</g>
<!-- node3&#45;&gt;node22 -->
<g id="edge7" class="edge">
<title>node3&#45;&gt;node22</title>
<path fill="none" stroke="black" d="M688.2,-584.13C656.64,-571.86 599.46,-549.62 563.45,-535.62"/>
<polygon fill="black" stroke="black" points="564.48,-532.27 553.9,-531.9 561.95,-538.79 564.48,-532.27"/>
</g>
<!-- node28 -->
<g id="node9" class="node">
<title>node28</title>
<ellipse fill="grey" stroke="black" cx="675" cy="-522" rx="27" ry="18"/>
</g>
<!-- node3&#45;&gt;node28 -->
<g id="edge8" class="edge">
<title>node3&#45;&gt;node28</title>
<path fill="none" stroke="black" d="M702.65,-576.76C698.29,-568.28 692.85,-557.71 687.96,-548.2"/>
<polygon fill="black" stroke="black" points="690.99,-546.44 683.3,-539.15 684.77,-549.64 690.99,-546.44"/>
</g>
<!-- node34 -->
<g id="node10" class="node">
<title>node34</title>
<ellipse fill="grey" stroke="black" cx="747" cy="-522" rx="27" ry="18"/>
</g>
<!-- node3&#45;&gt;node34 -->
<g id="edge9" class="edge">
<title>node3&#45;&gt;node34</title>
<path fill="none" stroke="black" d="M719.35,-576.76C723.71,-568.28 729.15,-557.71 734.04,-548.2"/>
<polygon fill="black" stroke="black" points="737.23,-549.64 738.7,-539.15 731.01,-546.44 737.23,-549.64"/>
</g>
<!-- node40 -->
<g id="node11" class="node">
<title>node40</title>
<ellipse fill="grey" stroke="black" cx="891" cy="-522" rx="27" ry="18"/>
</g>
<!-- node3&#45;&gt;node40 -->
<g id="edge10" class="edge">
<title>node3&#45;&gt;node40</title>
<path fill="none" stroke="black" d="M733.8,-584.13C765.36,-571.86 822.54,-549.62 858.55,-535.62"/>
<polygon fill="black" stroke="black" points="860.05,-538.79 868.1,-531.9 857.52,-532.27 860.05,-538.79"/>
</g>
<!-- node46 -->
<g id="node12" class="node">
<title>node46</title>
<ellipse fill="grey" stroke="black" cx="1035" cy="-522" rx="27" ry="18"/>
</g>
<!-- node3&#45;&gt;node46 -->
<g id="edge11" class="edge">
<title>node3&#45;&gt;node46</title>
<path fill="none" stroke="black" d="M736.42,-587.51C793.92,-575.09 934.02,-544.82 999.8,-530.61"/>
<polygon fill="black" stroke="black" points="1000.66,-534 1009.69,-528.47 999.18,-527.16 1000.66,-534"/>
</g>
<!-- node52 -->
<g id="node13" class="node">
<title>node52</title>
<ellipse fill="grey" stroke="black" cx="1179" cy="-522" rx="27" ry="18"/>
</g>
<!-- node3&#45;&gt;node52 -->
<g id="edge12" class="edge">
<title>node3&#45;&gt;node52</title>
<path fill="none" stroke="black" d="M737.21,-589.23C796.63,-580.67 946.09,-559.02 1071,-540 1094.92,-536.36 1121.79,-532.13 1142.75,-528.8"/>
<polygon fill="black" stroke="black" points="1143.5,-532.22 1152.82,-527.2 1142.4,-525.31 1143.5,-532.22"/>
</g>
<!-- node58 -->
<g id="node14" class="node">
<title>node58</title>
<ellipse fill="grey" stroke="black" cx="1323" cy="-522" rx="27" ry="18"/>
</g>
<!-- node3&#45;&gt;node58 -->
<g id="edge13" class="edge">
<title>node3&#45;&gt;node58</title>
<path fill="none" stroke="black" d="M737.56,-590.69C812.66,-584.06 1032.9,-563.89 1215,-540 1238.99,-536.85 1265.86,-532.63 1286.8,-529.17"/>
<polygon fill="black" stroke="black" points="1287.58,-532.59 1296.87,-527.5 1286.43,-525.69 1287.58,-532.59"/>
</g>
<!-- node5 -->
<g id="node15" class="node">
<title>node5</title>
<ellipse fill="grey" stroke="black" cx="27" cy="-450" rx="27" ry="18"/>
</g>
<!-- node4&#45;&gt;node5 -->
<g id="edge14" class="edge">
<title>node4&#45;&gt;node5</title>
<path fill="none" stroke="black" d="M84.43,-506.83C74.25,-496.94 60.48,-483.55 48.97,-472.36"/>
<polygon fill="black" stroke="black" points="51.41,-469.85 41.8,-465.38 46.53,-474.87 51.41,-469.85"/>
</g>
<!-- node6 -->
<g id="node16" class="node">
<title>node6</title>
<ellipse fill="grey" stroke="black" cx="99" cy="-450" rx="27" ry="18"/>
</g>
<!-- node4&#45;&gt;node6 -->
<g id="edge15" class="edge">
<title>node4&#45;&gt;node6</title>
<path fill="none" stroke="black" d="M99,-503.7C99,-495.98 99,-486.71 99,-478.11"/>
<polygon fill="black" stroke="black" points="102.5,-478.1 99,-468.1 95.5,-478.1 102.5,-478.1"/>
</g>
<!-- node11 -->
<g id="node21" class="node">
<title>node11</title>
<ellipse fill="grey" stroke="black" cx="171" cy="-450" rx="27" ry="18"/>
</g>
<!-- node10&#45;&gt;node11 -->
<g id="edge21" class="edge">
<title>node10&#45;&gt;node11</title>
<path fill="none" stroke="black" d="M228.43,-506.83C218.25,-496.94 204.48,-483.55 192.97,-472.36"/>
<polygon fill="black" stroke="black" points="195.41,-469.85 185.8,-465.38 190.53,-474.87 195.41,-469.85"/>
</g>
<!-- node12 -->
<g id="node22" class="node">
<title>node12</title>
<ellipse fill="grey" stroke="black" cx="243" cy="-450" rx="27" ry="18"/>
</g>
<!-- node10&#45;&gt;node12 -->
<g id="edge22" class="edge">
<title>node10&#45;&gt;node12</title>
<path fill="none" stroke="black" d="M243,-503.7C243,-495.98 243,-486.71 243,-478.11"/>
<polygon fill="black" stroke="black" points="246.5,-478.1 243,-468.1 239.5,-478.1 246.5,-478.1"/>
</g>
<!-- node17 -->
<g id="node26" class="node">
<title>node17</title>
<ellipse fill="grey" stroke="black" cx="315" cy="-450" rx="27" ry="18"/>
</g>
<!-- node16&#45;&gt;node17 -->
<g id="edge28" class="edge">
<title>node16&#45;&gt;node17</title>
<path fill="none" stroke="black" d="M372.43,-506.83C362.25,-496.94 348.48,-483.55 336.97,-472.36"/>
<polygon fill="black" stroke="black" points="339.41,-469.85 329.8,-465.38 334.53,-474.87 339.41,-469.85"/>
</g>
<!-- node18 -->
<g id="node27" class="node">
<title>node18</title>
<ellipse fill="grey" stroke="black" cx="387" cy="-450" rx="27" ry="18"/>
</g>
<!-- node16&#45;&gt;node18 -->
<g id="edge29" class="edge">
<title>node16&#45;&gt;node18</title>
<path fill="none" stroke="black" d="M387,-503.7C387,-495.98 387,-486.71 387,-478.11"/>
<polygon fill="black" stroke="black" points="390.5,-478.1 387,-468.1 383.5,-478.1 390.5,-478.1"/>
</g>
<!-- node23 -->
<g id="node31" class="node">
<title>node23</title>
<ellipse fill="grey" stroke="black" cx="459" cy="-450" rx="27" ry="18"/>
</g>
<!-- node22&#45;&gt;node23 -->
<g id="edge35" class="edge">
<title>node22&#45;&gt;node23</title>
<path fill="none" stroke="black" d="M516.43,-506.83C506.25,-496.94 492.48,-483.55 480.97,-472.36"/>
<polygon fill="black" stroke="black" points="483.41,-469.85 473.8,-465.38 478.53,-474.87 483.41,-469.85"/>
</g>
<!-- node24 -->
<g id="node32" class="node">
<title>node24</title>
<ellipse fill="grey" stroke="black" cx="531" cy="-450" rx="27" ry="18"/>
</g>
<!-- node22&#45;&gt;node24 -->
<g id="edge36" class="edge">
<title>node22&#45;&gt;node24</title>
<path fill="none" stroke="black" d="M531,-503.7C531,-495.98 531,-486.71 531,-478.11"/>
<polygon fill="black" stroke="black" points="534.5,-478.1 531,-468.1 527.5,-478.1 534.5,-478.1"/>
</g>
<!-- node29 -->
<g id="node36" class="node">
<title>node29</title>
<ellipse fill="grey" stroke="black" cx="603" cy="-450" rx="27" ry="18"/>
</g>
<!-- node28&#45;&gt;node29 -->
<g id="edge42" class="edge">
<title>node28&#45;&gt;node29</title>
<path fill="none" stroke="black" d="M660.43,-506.83C650.25,-496.94 636.48,-483.55 624.97,-472.36"/>
<polygon fill="black" stroke="black" points="627.41,-469.85 617.8,-465.38 622.53,-474.87 627.41,-469.85"/>
</g>
<!-- node30 -->
<g id="node37" class="node">
<title>node30</title>
<ellipse fill="grey" stroke="black" cx="675" cy="-450" rx="27" ry="18"/>
</g>
<!-- node28&#45;&gt;node30 -->
<g id="edge43" class="edge">
<title>node28&#45;&gt;node30</title>
<path fill="none" stroke="black" d="M675,-503.7C675,-495.98 675,-486.71 675,-478.11"/>
<polygon fill="black" stroke="black" points="678.5,-478.1 675,-468.1 671.5,-478.1 678.5,-478.1"/>
</g>
<!-- node35 -->
<g id="node41" class="node">
<title>node35</title>
<ellipse fill="grey" stroke="black" cx="747" cy="-450" rx="27" ry="18"/>
</g>
<!-- node34&#45;&gt;node35 -->
<g id="edge49" class="edge">
<title>node34&#45;&gt;node35</title>
<path fill="none" stroke="black" d="M747,-503.7C747,-495.98 747,-486.71 747,-478.11"/>
<polygon fill="black" stroke="black" points="750.5,-478.1 747,-468.1 743.5,-478.1 750.5,-478.1"/>
</g>
<!-- node36 -->
<g id="node42" class="node">
<title>node36</title>
<ellipse fill="grey" stroke="black" cx="819" cy="-450" rx="27" ry="18"/>
</g>
<!-- node34&#45;&gt;node36 -->
<g id="edge50" class="edge">
<title>node34&#45;&gt;node36</title>
<path fill="none" stroke="black" d="M761.57,-506.83C771.75,-496.94 785.52,-483.55 797.03,-472.36"/>
<polygon fill="black" stroke="black" points="799.47,-474.87 804.2,-465.38 794.59,-469.85 799.47,-474.87"/>
</g>
<!-- node41 -->
<g id="node46" class="node">
<title>node41</title>
<ellipse fill="grey" stroke="black" cx="891" cy="-450" rx="27" ry="18"/>
</g>
<!-- node40&#45;&gt;node41 -->
<g id="edge56" class="edge">
<title>node40&#45;&gt;node41</title>
<path fill="none" stroke="black" d="M891,-503.7C891,-495.98 891,-486.71 891,-478.11"/>
<polygon fill="black" stroke="black" points="894.5,-478.1 891,-468.1 887.5,-478.1 894.5,-478.1"/>
</g>
<!-- node42 -->
<g id="node47" class="node">
<title>node42</title>
<ellipse fill="grey" stroke="black" cx="963" cy="-450" rx="27" ry="18"/>
</g>
<!-- node40&#45;&gt;node42 -->
<g id="edge57" class="edge">
<title>node40&#45;&gt;node42</title>
<path fill="none" stroke="black" d="M905.57,-506.83C915.75,-496.94 929.52,-483.55 941.03,-472.36"/>
<polygon fill="black" stroke="black" points="943.47,-474.87 948.2,-465.38 938.59,-469.85 943.47,-474.87"/>
</g>
<!-- node47 -->
<g id="node51" class="node">
<title>node47</title>
<ellipse fill="grey" stroke="black" cx="1035" cy="-450" rx="27" ry="18"/>
</g>
<!-- node46&#45;&gt;node47 -->
<g id="edge63" class="edge">
<title>node46&#45;&gt;node47</title>
<path fill="none" stroke="black" d="M1035,-503.7C1035,-495.98 1035,-486.71 1035,-478.11"/>
<polygon fill="black" stroke="black" points="1038.5,-478.1 1035,-468.1 1031.5,-478.1 1038.5,-478.1"/>
</g>
<!-- node48 -->
<g id="node52" class="node">
<title>node48</title>
<ellipse fill="grey" stroke="black" cx="1107" cy="-450" rx="27" ry="18"/>
</g>
<!-- node46&#45;&gt;node48 -->
<g id="edge64" class="edge">
<title>node46&#45;&gt;node48</title>
<path fill="none" stroke="black" d="M1049.57,-506.83C1059.75,-496.94 1073.52,-483.55 1085.03,-472.36"/>
<polygon fill="black" stroke="black" points="1087.47,-474.87 1092.2,-465.38 1082.59,-469.85 1087.47,-474.87"/>
</g>
<!-- node53 -->
<g id="node56" class="node">
<title>node53</title>
<ellipse fill="grey" stroke="black" cx="1179" cy="-450" rx="27" ry="18"/>
</g>
<!-- node52&#45;&gt;node53 -->
<g id="edge70" class="edge">
<title>node52&#45;&gt;node53</title>
<path fill="none" stroke="black" d="M1179,-503.7C1179,-495.98 1179,-486.71 1179,-478.11"/>
<polygon fill="black" stroke="black" points="1182.5,-478.1 1179,-468.1 1175.5,-478.1 1182.5,-478.1"/>
</g>
<!-- node54 -->
<g id="node57" class="node">
<title>node54</title>
<ellipse fill="grey" stroke="black" cx="1251" cy="-450" rx="27" ry="18"/>
</g>
<!-- node52&#45;&gt;node54 -->
<g id="edge71" class="edge">
<title>node52&#45;&gt;node54</title>
<path fill="none" stroke="black" d="M1193.57,-506.83C1203.75,-496.94 1217.52,-483.55 1229.03,-472.36"/>
<polygon fill="black" stroke="black" points="1231.47,-474.87 1236.2,-465.38 1226.59,-469.85 1231.47,-474.87"/>
</g>
<!-- node59 -->
<g id="node61" class="node">
<title>node59</title>
<ellipse fill="grey" stroke="black" cx="1323" cy="-450" rx="27" ry="18"/>
</g>
<!-- node58&#45;&gt;node59 -->
<g id="edge77" class="edge">
<title>node58&#45;&gt;node59</title>
<path fill="none" stroke="black" d="M1323,-503.7C1323,-495.98 1323,-486.71 1323,-478.11"/>
<polygon fill="black" stroke="black" points="1326.5,-478.1 1323,-468.1 1319.5,-478.1 1326.5,-478.1"/>
</g>
<!-- node60 -->
<g id="node62" class="node">
<title>node60</title>
<ellipse fill="grey" stroke="black" cx="1395" cy="-450" rx="27" ry="18"/>
</g>
<!-- node58&#45;&gt;node60 -->
<g id="edge78" class="edge">
<title>node58&#45;&gt;node60</title>
<path fill="none" stroke="black" d="M1337.57,-506.83C1347.75,-496.94 1361.52,-483.55 1373.03,-472.36"/>
<polygon fill="black" stroke="black" points="1375.47,-474.87 1380.2,-465.38 1370.59,-469.85 1375.47,-474.87"/>
</g>
<!-- node7 -->
<g id="node17" class="node">
<title>node7</title>
<ellipse fill="grey" stroke="black" cx="99" cy="-378" rx="27" ry="18"/>
</g>
<!-- node5&#45;&gt;node7 -->
<g id="edge16" class="edge">
<title>node5&#45;&gt;node7</title>
<path fill="none" stroke="black" d="M41.57,-434.83C51.75,-424.94 65.52,-411.55 77.03,-400.36"/>
<polygon fill="black" stroke="black" points="79.47,-402.87 84.2,-393.38 74.59,-397.85 79.47,-402.87"/>
</g>
<!-- node6&#45;&gt;node7 -->
<g id="edge17" class="edge">
<title>node6&#45;&gt;node7</title>
<path fill="none" stroke="black" d="M99,-431.7C99,-423.98 99,-414.71 99,-406.11"/>
<polygon fill="black" stroke="black" points="102.5,-406.1 99,-396.1 95.5,-406.1 102.5,-406.1"/>
</g>
<!-- node8 -->
<g id="node18" class="node">
<title>node8</title>
<ellipse fill="grey" stroke="black" cx="202" cy="-306" rx="27" ry="18"/>
</g>
<!-- node7&#45;&gt;node8 -->
<g id="edge18" class="edge">
<title>node7&#45;&gt;node8</title>
<path fill="none" stroke="black" d="M117.41,-364.49C133.53,-353.54 157.13,-337.49 175.31,-325.14"/>
<polygon fill="black" stroke="black" points="177.44,-327.92 183.75,-319.41 173.51,-322.13 177.44,-327.92"/>
</g>
<!-- node9 -->
<g id="node19" class="node">
<title>node9</title>
<ellipse fill="grey" stroke="black" cx="238" cy="-234" rx="27" ry="18"/>
</g>
<!-- node8&#45;&gt;node9 -->
<g id="edge19" class="edge">
<title>node8&#45;&gt;node9</title>
<path fill="none" stroke="black" d="M210.35,-288.76C214.71,-280.28 220.15,-269.71 225.04,-260.2"/>
<polygon fill="black" stroke="black" points="228.23,-261.64 229.7,-251.15 222.01,-258.44 228.23,-261.64"/>
</g>
<!-- node64 -->
<g id="node20" class="node">
<title>node64</title>
<ellipse fill="grey" stroke="black" cx="711" cy="-162" rx="27" ry="18"/>
</g>
<!-- node9&#45;&gt;node64 -->
<g id="edge20" class="edge">
<title>node9&#45;&gt;node64</title>
<path fill="none" stroke="black" d="M261.14,-224.71C270.61,-221.59 281.73,-218.25 292,-216 431.27,-185.53 600.69,-170.77 674.12,-165.43"/>
<polygon fill="black" stroke="black" points="674.52,-168.91 684.25,-164.71 674.02,-161.93 674.52,-168.91"/>
</g>
<!-- node65 -->
<g id="node66" class="node">
<title>node65</title>
<ellipse fill="grey" stroke="black" cx="711" cy="-90" rx="27" ry="18"/>
</g>
<!-- node64&#45;&gt;node65 -->
<g id="edge84" class="edge">
<title>node64&#45;&gt;node65</title>
<path fill="none" stroke="black" d="M711,-143.7C711,-135.98 711,-126.71 711,-118.11"/>
<polygon fill="black" stroke="black" points="714.5,-118.1 711,-108.1 707.5,-118.1 714.5,-118.1"/>
</g>
<!-- node13 -->
<g id="node23" class="node">
<title>node13</title>
<ellipse fill="grey" stroke="black" cx="243" cy="-378" rx="27" ry="18"/>
</g>
<!-- node11&#45;&gt;node13 -->
<g id="edge23" class="edge">
<title>node11&#45;&gt;node13</title>
<path fill="none" stroke="black" d="M185.57,-434.83C195.75,-424.94 209.52,-411.55 221.03,-400.36"/>
<polygon fill="black" stroke="black" points="223.47,-402.87 228.2,-393.38 218.59,-397.85 223.47,-402.87"/>
</g>
<!-- node12&#45;&gt;node13 -->
<g id="edge24" class="edge">
<title>node12&#45;&gt;node13</title>
<path fill="none" stroke="black" d="M243,-431.7C243,-423.98 243,-414.71 243,-406.11"/>
<polygon fill="black" stroke="black" points="246.5,-406.1 243,-396.1 239.5,-406.1 246.5,-406.1"/>
</g>
<!-- node14 -->
<g id="node24" class="node">
<title>node14</title>
<ellipse fill="grey" stroke="black" cx="301" cy="-306" rx="27" ry="18"/>
</g>
<!-- node13&#45;&gt;node14 -->
<g id="edge25" class="edge">
<title>node13&#45;&gt;node14</title>
<path fill="none" stroke="black" d="M255.59,-361.81C263.26,-352.55 273.23,-340.52 281.86,-330.09"/>
<polygon fill="black" stroke="black" points="284.75,-332.09 288.44,-322.16 279.36,-327.63 284.75,-332.09"/>
</g>
<!-- node15 -->
<g id="node25" class="node">
<title>node15</title>
<ellipse fill="grey" stroke="black" cx="328" cy="-234" rx="27" ry="18"/>
</g>
<!-- node14&#45;&gt;node15 -->
<g id="edge26" class="edge">
<title>node14&#45;&gt;node15</title>
<path fill="none" stroke="black" d="M307.4,-288.41C310.51,-280.34 314.33,-270.43 317.83,-261.35"/>
<polygon fill="black" stroke="black" points="321.13,-262.55 321.46,-251.96 314.6,-260.03 321.13,-262.55"/>
</g>
<!-- node15&#45;&gt;node64 -->
<g id="edge27" class="edge">
<title>node15&#45;&gt;node64</title>
<path fill="none" stroke="black" d="M353.72,-228.3C420.28,-216.13 598.29,-183.6 675.01,-169.58"/>
<polygon fill="black" stroke="black" points="675.93,-172.97 685.14,-167.73 674.67,-166.08 675.93,-172.97"/>
</g>
<!-- node19 -->
<g id="node28" class="node">
<title>node19</title>
<ellipse fill="grey" stroke="black" cx="387" cy="-378" rx="27" ry="18"/>
</g>
<!-- node17&#45;&gt;node19 -->
<g id="edge30" class="edge">
<title>node17&#45;&gt;node19</title>
<path fill="none" stroke="black" d="M329.57,-434.83C339.75,-424.94 353.52,-411.55 365.03,-400.36"/>
<polygon fill="black" stroke="black" points="367.47,-402.87 372.2,-393.38 362.59,-397.85 367.47,-402.87"/>
</g>
<!-- node18&#45;&gt;node19 -->
<g id="edge31" class="edge">
<title>node18&#45;&gt;node19</title>
<path fill="none" stroke="black" d="M387,-431.7C387,-423.98 387,-414.71 387,-406.11"/>
<polygon fill="black" stroke="black" points="390.5,-406.1 387,-396.1 383.5,-406.1 390.5,-406.1"/>
</g>
<!-- node20 -->
<g id="node29" class="node">
<title>node20</title>
<ellipse fill="grey" stroke="black" cx="454" cy="-306" rx="27" ry="18"/>
</g>
<!-- node19&#45;&gt;node20 -->
<g id="edge32" class="edge">
<title>node19&#45;&gt;node20</title>
<path fill="none" stroke="black" d="M400.88,-362.5C410.14,-352.83 422.47,-339.94 432.93,-329.02"/>
<polygon fill="black" stroke="black" points="435.75,-331.13 440.14,-321.49 430.69,-326.29 435.75,-331.13"/>
</g>
<!-- node21 -->
<g id="node30" class="node">
<title>node21</title>
<ellipse fill="grey" stroke="black" cx="490" cy="-234" rx="27" ry="18"/>
</g>
<!-- node20&#45;&gt;node21 -->
<g id="edge33" class="edge">
<title>node20&#45;&gt;node21</title>
<path fill="none" stroke="black" d="M462.35,-288.76C466.71,-280.28 472.15,-269.71 477.04,-260.2"/>
<polygon fill="black" stroke="black" points="480.23,-261.64 481.7,-251.15 474.01,-258.44 480.23,-261.64"/>
</g>
<!-- node21&#45;&gt;node64 -->
<g id="edge34" class="edge">
<title>node21&#45;&gt;node64</title>
<path fill="none" stroke="black" d="M514.07,-225.38C553.59,-212.86 632.33,-187.92 677.35,-173.66"/>
<polygon fill="black" stroke="black" points="678.48,-176.97 686.96,-170.62 676.37,-170.3 678.48,-176.97"/>
</g>
<!-- node25 -->
<g id="node33" class="node">
<title>node25</title>
<ellipse fill="grey" stroke="black" cx="531" cy="-378" rx="27" ry="18"/>
</g>
<!-- node23&#45;&gt;node25 -->
<g id="edge37" class="edge">
<title>node23&#45;&gt;node25</title>
<path fill="none" stroke="black" d="M473.57,-434.83C483.75,-424.94 497.52,-411.55 509.03,-400.36"/>
<polygon fill="black" stroke="black" points="511.47,-402.87 516.2,-393.38 506.59,-397.85 511.47,-402.87"/>
</g>
<!-- node24&#45;&gt;node25 -->
<g id="edge38" class="edge">
<title>node24&#45;&gt;node25</title>
<path fill="none" stroke="black" d="M531,-431.7C531,-423.98 531,-414.71 531,-406.11"/>
<polygon fill="black" stroke="black" points="534.5,-406.1 531,-396.1 527.5,-406.1 534.5,-406.1"/>
</g>
<!-- node26 -->
<g id="node34" class="node">
<title>node26</title>
<ellipse fill="grey" stroke="black" cx="553" cy="-306" rx="27" ry="18"/>
</g>
<!-- node25&#45;&gt;node26 -->
<g id="edge39" class="edge">
<title>node25&#45;&gt;node26</title>
<path fill="none" stroke="black" d="M536.33,-360.05C538.84,-352.06 541.9,-342.33 544.7,-333.4"/>
<polygon fill="black" stroke="black" points="548.06,-334.38 547.72,-323.79 541.39,-332.28 548.06,-334.38"/>
</g>
<!-- node27 -->
<g id="node35" class="node">
<title>node27</title>
<ellipse fill="grey" stroke="black" cx="580" cy="-234" rx="27" ry="18"/>
</g>
<!-- node26&#45;&gt;node27 -->
<g id="edge40" class="edge">
<title>node26&#45;&gt;node27</title>
<path fill="none" stroke="black" d="M559.4,-288.41C562.51,-280.34 566.33,-270.43 569.83,-261.35"/>
<polygon fill="black" stroke="black" points="573.13,-262.55 573.46,-251.96 566.6,-260.03 573.13,-262.55"/>
</g>
<!-- node27&#45;&gt;node64 -->
<g id="edge41" class="edge">
<title>node27&#45;&gt;node64</title>
<path fill="none" stroke="black" d="M600.47,-222.06C622.29,-210.4 657.04,-191.83 681.75,-178.63"/>
<polygon fill="black" stroke="black" points="683.5,-181.66 690.67,-173.86 680.21,-175.49 683.5,-181.66"/>
</g>
<!-- node31 -->
<g id="node38" class="node">
<title>node31</title>
<ellipse fill="grey" stroke="black" cx="675" cy="-378" rx="27" ry="18"/>
</g>
<!-- node29&#45;&gt;node31 -->
<g id="edge44" class="edge">
<title>node29&#45;&gt;node31</title>
<path fill="none" stroke="black" d="M617.57,-434.83C627.75,-424.94 641.52,-411.55 653.03,-400.36"/>
<polygon fill="black" stroke="black" points="655.47,-402.87 660.2,-393.38 650.59,-397.85 655.47,-402.87"/>
</g>
<!-- node30&#45;&gt;node31 -->
<g id="edge45" class="edge">
<title>node30&#45;&gt;node31</title>
<path fill="none" stroke="black" d="M675,-431.7C675,-423.98 675,-414.71 675,-406.11"/>
<polygon fill="black" stroke="black" points="678.5,-406.1 675,-396.1 671.5,-406.1 678.5,-406.1"/>
</g>
<!-- node32 -->
<g id="node39" class="node">
<title>node32</title>
<ellipse fill="grey" stroke="black" cx="675" cy="-306" rx="27" ry="18"/>
</g>
<!-- node31&#45;&gt;node32 -->
<g id="edge46" class="edge">
<title>node31&#45;&gt;node32</title>
<path fill="none" stroke="black" d="M675,-359.7C675,-351.98 675,-342.71 675,-334.11"/>
<polygon fill="black" stroke="black" points="678.5,-334.1 675,-324.1 671.5,-334.1 678.5,-334.1"/>
</g>
<!-- node33 -->
<g id="node40" class="node">
<title>node33</title>
<ellipse fill="grey" stroke="black" cx="675" cy="-234" rx="27" ry="18"/>
</g>
<!-- node32&#45;&gt;node33 -->
<g id="edge47" class="edge">
<title>node32&#45;&gt;node33</title>
<path fill="none" stroke="black" d="M675,-287.7C675,-279.98 675,-270.71 675,-262.11"/>
<polygon fill="black" stroke="black" points="678.5,-262.1 675,-252.1 671.5,-262.1 678.5,-262.1"/>
</g>
<!-- node33&#45;&gt;node64 -->
<g id="edge48" class="edge">
<title>node33&#45;&gt;node64</title>
<path fill="none" stroke="black" d="M683.35,-216.76C687.71,-208.28 693.15,-197.71 698.04,-188.2"/>
<polygon fill="black" stroke="black" points="701.23,-189.64 702.7,-179.15 695.01,-186.44 701.23,-189.64"/>
</g>
<!-- node37 -->
<g id="node43" class="node">
<title>node37</title>
<ellipse fill="grey" stroke="black" cx="747" cy="-378" rx="27" ry="18"/>
</g>
<!-- node35&#45;&gt;node37 -->
<g id="edge51" class="edge">
<title>node35&#45;&gt;node37</title>
<path fill="none" stroke="black" d="M747,-431.7C747,-423.98 747,-414.71 747,-406.11"/>
<polygon fill="black" stroke="black" points="750.5,-406.1 747,-396.1 743.5,-406.1 750.5,-406.1"/>
</g>
<!-- node36&#45;&gt;node37 -->
<g id="edge52" class="edge">
<title>node36&#45;&gt;node37</title>
<path fill="none" stroke="black" d="M804.43,-434.83C794.25,-424.94 780.48,-411.55 768.97,-400.36"/>
<polygon fill="black" stroke="black" points="771.41,-397.85 761.8,-393.38 766.53,-402.87 771.41,-397.85"/>
</g>
<!-- node38 -->
<g id="node44" class="node">
<title>node38</title>
<ellipse fill="grey" stroke="black" cx="747" cy="-306" rx="27" ry="18"/>
</g>
<!-- node37&#45;&gt;node38 -->
<g id="edge53" class="edge">
<title>node37&#45;&gt;node38</title>
<path fill="none" stroke="black" d="M747,-359.7C747,-351.98 747,-342.71 747,-334.11"/>
<polygon fill="black" stroke="black" points="750.5,-334.1 747,-324.1 743.5,-334.1 750.5,-334.1"/>
</g>
<!-- node39 -->
<g id="node45" class="node">
<title>node39</title>
<ellipse fill="grey" stroke="black" cx="747" cy="-234" rx="27" ry="18"/>
</g>
<!-- node38&#45;&gt;node39 -->
<g id="edge54" class="edge">
<title>node38&#45;&gt;node39</title>
<path fill="none" stroke="black" d="M747,-287.7C747,-279.98 747,-270.71 747,-262.11"/>
<polygon fill="black" stroke="black" points="750.5,-262.1 747,-252.1 743.5,-262.1 750.5,-262.1"/>
</g>
<!-- node39&#45;&gt;node64 -->
<g id="edge55" class="edge">
<title>node39&#45;&gt;node64</title>
<path fill="none" stroke="black" d="M738.65,-216.76C734.29,-208.28 728.85,-197.71 723.96,-188.2"/>
<polygon fill="black" stroke="black" points="726.99,-186.44 719.3,-179.15 720.77,-189.64 726.99,-186.44"/>
</g>
<!-- node43 -->
<g id="node48" class="node">
<title>node43</title>
<ellipse fill="grey" stroke="black" cx="891" cy="-378" rx="27" ry="18"/>
</g>
<!-- node41&#45;&gt;node43 -->
<g id="edge58" class="edge">
<title>node41&#45;&gt;node43</title>
<path fill="none" stroke="black" d="M891,-431.7C891,-423.98 891,-414.71 891,-406.11"/>
<polygon fill="black" stroke="black" points="894.5,-406.1 891,-396.1 887.5,-406.1 894.5,-406.1"/>
</g>
<!-- node42&#45;&gt;node43 -->
<g id="edge59" class="edge">
<title>node42&#45;&gt;node43</title>
<path fill="none" stroke="black" d="M948.43,-434.83C938.25,-424.94 924.48,-411.55 912.97,-400.36"/>
<polygon fill="black" stroke="black" points="915.41,-397.85 905.8,-393.38 910.53,-402.87 915.41,-397.85"/>
</g>
<!-- node44 -->
<g id="node49" class="node">
<title>node44</title>
<ellipse fill="grey" stroke="black" cx="855" cy="-306" rx="27" ry="18"/>
</g>
<!-- node43&#45;&gt;node44 -->
<g id="edge60" class="edge">
<title>node43&#45;&gt;node44</title>
<path fill="none" stroke="black" d="M882.65,-360.76C878.29,-352.28 872.85,-341.71 867.96,-332.2"/>
<polygon fill="black" stroke="black" points="870.99,-330.44 863.3,-323.15 864.77,-333.64 870.99,-330.44"/>
</g>
<!-- node45 -->
<g id="node50" class="node">
<title>node45</title>
<ellipse fill="grey" stroke="black" cx="837" cy="-234" rx="27" ry="18"/>
</g>
<!-- node44&#45;&gt;node45 -->
<g id="edge61" class="edge">
<title>node44&#45;&gt;node45</title>
<path fill="none" stroke="black" d="M850.64,-288.05C848.61,-280.14 846.14,-270.54 843.86,-261.69"/>
<polygon fill="black" stroke="black" points="847.2,-260.6 841.32,-251.79 840.42,-262.35 847.2,-260.6"/>
</g>
<!-- node45&#45;&gt;node64 -->
<g id="edge62" class="edge">
<title>node45&#45;&gt;node64</title>
<path fill="none" stroke="black" d="M816.76,-221.75C796,-210.22 763.52,-192.18 740.02,-179.12"/>
<polygon fill="black" stroke="black" points="741.64,-176.02 731.19,-174.22 738.24,-182.13 741.64,-176.02"/>
</g>
<!-- node49 -->
<g id="node53" class="node">
<title>node49</title>
<ellipse fill="grey" stroke="black" cx="1035" cy="-378" rx="27" ry="18"/>
</g>
<!-- node47&#45;&gt;node49 -->
<g id="edge65" class="edge">
<title>node47&#45;&gt;node49</title>
<path fill="none" stroke="black" d="M1035,-431.7C1035,-423.98 1035,-414.71 1035,-406.11"/>
<polygon fill="black" stroke="black" points="1038.5,-406.1 1035,-396.1 1031.5,-406.1 1038.5,-406.1"/>
</g>
<!-- node48&#45;&gt;node49 -->
<g id="edge66" class="edge">
<title>node48&#45;&gt;node49</title>
<path fill="none" stroke="black" d="M1092.43,-434.83C1082.25,-424.94 1068.48,-411.55 1056.97,-400.36"/>
<polygon fill="black" stroke="black" points="1059.41,-397.85 1049.8,-393.38 1054.53,-402.87 1059.41,-397.85"/>
</g>
<!-- node50 -->
<g id="node54" class="node">
<title>node50</title>
<ellipse fill="grey" stroke="black" cx="1004" cy="-306" rx="27" ry="18"/>
</g>
<!-- node49&#45;&gt;node50 -->
<g id="edge67" class="edge">
<title>node49&#45;&gt;node50</title>
<path fill="none" stroke="black" d="M1027.65,-360.41C1023.99,-352.13 1019.47,-341.92 1015.36,-332.66"/>
<polygon fill="black" stroke="black" points="1018.54,-331.2 1011.29,-323.47 1012.14,-334.03 1018.54,-331.2"/>
</g>
<!-- node51 -->
<g id="node55" class="node">
<title>node51</title>
<ellipse fill="grey" stroke="black" cx="941" cy="-234" rx="27" ry="18"/>
</g>
<!-- node50&#45;&gt;node51 -->
<g id="edge68" class="edge">
<title>node50&#45;&gt;node51</title>
<path fill="none" stroke="black" d="M990.64,-290.15C982.12,-280.69 970.91,-268.24 961.31,-257.56"/>
<polygon fill="black" stroke="black" points="963.63,-254.92 954.34,-249.82 958.43,-259.6 963.63,-254.92"/>
</g>
<!-- node51&#45;&gt;node64 -->
<g id="edge69" class="edge">
<title>node51&#45;&gt;node64</title>
<path fill="none" stroke="black" d="M916.82,-225.64C875.67,-213.12 791.91,-187.62 744.92,-173.32"/>
<polygon fill="black" stroke="black" points="745.79,-169.93 735.2,-170.37 743.75,-176.63 745.79,-169.93"/>
</g>
<!-- node55 -->
<g id="node58" class="node">
<title>node55</title>
<ellipse fill="grey" stroke="black" cx="1179" cy="-378" rx="27" ry="18"/>
</g>
<!-- node53&#45;&gt;node55 -->
<g id="edge72" class="edge">
<title>node53&#45;&gt;node55</title>
<path fill="none" stroke="black" d="M1179,-431.7C1179,-423.98 1179,-414.71 1179,-406.11"/>
<polygon fill="black" stroke="black" points="1182.5,-406.1 1179,-396.1 1175.5,-406.1 1182.5,-406.1"/>
</g>
<!-- node54&#45;&gt;node55 -->
<g id="edge73" class="edge">
<title>node54&#45;&gt;node55</title>
<path fill="none" stroke="black" d="M1236.43,-434.83C1226.25,-424.94 1212.48,-411.55 1200.97,-400.36"/>
<polygon fill="black" stroke="black" points="1203.41,-397.85 1193.8,-393.38 1198.53,-402.87 1203.41,-397.85"/>
</g>
<!-- node56 -->
<g id="node59" class="node">
<title>node56</title>
<ellipse fill="grey" stroke="black" cx="1128" cy="-306" rx="27" ry="18"/>
</g>
<!-- node55&#45;&gt;node56 -->
<g id="edge74" class="edge">
<title>node55&#45;&gt;node56</title>
<path fill="none" stroke="black" d="M1167.68,-361.46C1161.08,-352.4 1152.62,-340.79 1145.2,-330.61"/>
<polygon fill="black" stroke="black" points="1148,-328.51 1139.29,-322.49 1142.35,-332.64 1148,-328.51"/>
</g>
<!-- node57 -->
<g id="node60" class="node">
<title>node57</title>
<ellipse fill="grey" stroke="black" cx="1071" cy="-234" rx="27" ry="18"/>
</g>
<!-- node56&#45;&gt;node57 -->
<g id="edge75" class="edge">
<title>node56&#45;&gt;node57</title>
<path fill="none" stroke="black" d="M1115.63,-289.81C1108.09,-280.55 1098.3,-268.52 1089.81,-258.09"/>
<polygon fill="black" stroke="black" points="1092.37,-255.7 1083.34,-250.16 1086.94,-260.12 1092.37,-255.7"/>
</g>
<!-- node57&#45;&gt;node64 -->
<g id="edge76" class="edge">
<title>node57&#45;&gt;node64</title>
<path fill="none" stroke="black" d="M1045.4,-228.02C982.32,-215.76 819.29,-184.06 746.74,-169.95"/>
<polygon fill="black" stroke="black" points="747.2,-166.47 736.71,-168 745.86,-173.34 747.2,-166.47"/>
</g>
<!-- node61 -->
<g id="node63" class="node">
<title>node61</title>
<ellipse fill="grey" stroke="black" cx="1323" cy="-378" rx="27" ry="18"/>
</g>
<!-- node59&#45;&gt;node61 -->
<g id="edge79" class="edge">
<title>node59&#45;&gt;node61</title>
<path fill="none" stroke="black" d="M1323,-431.7C1323,-423.98 1323,-414.71 1323,-406.11"/>
<polygon fill="black" stroke="black" points="1326.5,-406.1 1323,-396.1 1319.5,-406.1 1326.5,-406.1"/>
</g>
<!-- node60&#45;&gt;node61 -->
<g id="edge80" class="edge">
<title>node60&#45;&gt;node61</title>
<path fill="none" stroke="black" d="M1380.43,-434.83C1370.25,-424.94 1356.48,-411.55 1344.97,-400.36"/>
<polygon fill="black" stroke="black" points="1347.41,-397.85 1337.8,-393.38 1342.53,-402.87 1347.41,-397.85"/>
</g>
<!-- node62 -->
<g id="node64" class="node">
<title>node62</title>
<ellipse fill="grey" stroke="black" cx="1278" cy="-306" rx="27" ry="18"/>
</g>
<!-- node61&#45;&gt;node62 -->
<g id="edge81" class="edge">
<title>node61&#45;&gt;node62</title>
<path fill="none" stroke="black" d="M1312.79,-361.12C1307.15,-352.34 1300.03,-341.26 1293.7,-331.42"/>
<polygon fill="black" stroke="black" points="1296.52,-329.34 1288.17,-322.82 1290.63,-333.13 1296.52,-329.34"/>
</g>
<!-- node63 -->
<g id="node65" class="node">
<title>node63</title>
<ellipse fill="grey" stroke="black" cx="1188" cy="-234" rx="27" ry="18"/>
</g>
<!-- node62&#45;&gt;node63 -->
<g id="edge82" class="edge">
<title>node62&#45;&gt;node63</title>
<path fill="none" stroke="black" d="M1261.07,-291.83C1247.5,-281.27 1228.24,-266.3 1212.91,-254.37"/>
<polygon fill="black" stroke="black" points="1214.89,-251.48 1204.85,-248.11 1210.6,-257.01 1214.89,-251.48"/>
</g>
<!-- node63&#45;&gt;node64 -->
<g id="edge83" class="edge">
<title>node63&#45;&gt;node64</title>
<path fill="none" stroke="black" d="M1162.92,-227.24C1146.96,-223.69 1125.84,-219.23 1107,-216 975.32,-193.4 817.62,-174.81 747.59,-166.98"/>
<polygon fill="black" stroke="black" points="747.84,-163.49 737.52,-165.86 747.07,-170.45 747.84,-163.49"/>
</g>
<!-- node66 -->
<g id="node67" class="node">
<title>node66</title>
<ellipse fill="grey" stroke="black" cx="711" cy="-18" rx="27" ry="18"/>
</g>
<!-- node65&#45;&gt;node66 -->
<g id="edge85" class="edge">
<title>node65&#45;&gt;node66</title>
<path fill="none" stroke="black" d="M711,-71.7C711,-63.98 711,-54.71 711,-46.11"/>
<polygon fill="black" stroke="black" points="714.5,-46.1 711,-36.1 707.5,-46.1 714.5,-46.1"/>
</g>
</g>
</svg>
