<?xml version="1.0" encoding="UTF-8" standalone="no"?>
<!DOCTYPE svg PUBLIC "-//W3C//DTD SVG 1.1//EN"
 "http://www.w3.org/Graphics/SVG/1.1/DTD/svg11.dtd">
<!-- Generated by graphviz version 2.43.0 (0)
 -->
<!-- Title: streamit Pages: 1 -->
<svg width="1686pt" height="764pt"
 viewBox="0.00 0.00 1685.68 764.00" xmlns="http://www.w3.org/2000/svg" xmlns:xlink="http://www.w3.org/1999/xlink">
<g id="graph0" class="graph" transform="scale(1 1) rotate(0) translate(4 760)">
<title>streamit</title>
<polygon fill="white" stroke="transparent" points="-4,4 -4,-760 1681.68,-760 1681.68,4 -4,4"/>
<!-- source_pop_0_push_1_1 -->
<g id="node1" class="node">
<title>source_pop_0_push_1_1</title>
<ellipse fill="none" stroke="black" cx="838.84" cy="-738" rx="65.79" ry="18"/>
<text text-anchor="middle" x="838.84" y="-734.3" font-family="Times,serif" font-size="14.00">fb8s_source</text>
</g>
<!-- Branches_4_split -->
<g id="node2" class="node">
<title>Branches_4_split</title>
<ellipse fill="none" stroke="black" cx="838.84" cy="-666" rx="102.88" ry="18"/>
<text text-anchor="middle" x="838.84" y="-662.3" font-family="Times,serif" font-size="14.00">fb8s_split_duplicate</text>
</g>
<!-- source_pop_0_push_1_1&#45;&gt;Branches_4_split -->
<g id="edge1" class="edge">
<title>source_pop_0_push_1_1&#45;&gt;Branches_4_split</title>
<path fill="none" stroke="black" d="M838.84,-719.7C838.84,-711.98 838.84,-702.71 838.84,-694.11"/>
<polygon fill="black" stroke="black" points="842.34,-694.1 838.84,-684.1 835.34,-694.1 842.34,-694.1"/>
</g>
<!-- Delay_N_initPop_0_initPush_31_pop_8_push_8_14 -->
<g id="node6" class="node">
<title>Delay_N_initPop_0_initPush_31_pop_8_push_8_14</title>
<ellipse fill="none" stroke="black" cx="96.84" cy="-594" rx="96.68" ry="18"/>
<text text-anchor="middle" x="96.84" y="-590.3" font-family="Times,serif" font-size="14.00">fb8s_delay_n_start</text>
</g>
<!-- Branches_4_split&#45;&gt;Delay_N_initPop_0_initPush_31_pop_8_push_8_14 -->
<g id="edge9" class="edge">
<title>Branches_4_split&#45;&gt;Delay_N_initPop_0_initPush_31_pop_8_push_8_14</title>
<path fill="none" stroke="black" d="M743.25,-659.3C618.61,-651.36 393.95,-635.25 202.84,-612 193.94,-610.92 184.64,-609.64 175.41,-608.28"/>
<polygon fill="black" stroke="black" points="175.85,-604.81 165.44,-606.78 174.81,-611.73 175.85,-604.81"/>
</g>
<!-- Delay_N_initPop_0_initPush_31_pop_8_push_8_25 -->
<g id="node12" class="node">
<title>Delay_N_initPop_0_initPush_31_pop_8_push_8_25</title>
<ellipse fill="none" stroke="black" cx="308.84" cy="-594" rx="96.68" ry="18"/>
<text text-anchor="middle" x="308.84" y="-590.3" font-family="Times,serif" font-size="14.00">fb8s_delay_n_start</text>
</g>
<!-- Branches_4_split&#45;&gt;Delay_N_initPop_0_initPush_31_pop_8_push_8_25 -->
<g id="edge16" class="edge">
<title>Branches_4_split&#45;&gt;Delay_N_initPop_0_initPush_31_pop_8_push_8_25</title>
<path fill="none" stroke="black" d="M755.46,-655.44C669.87,-645.43 532.9,-628.84 414.84,-612 406.33,-610.79 397.44,-609.46 388.59,-608.09"/>
<polygon fill="black" stroke="black" points="389.06,-604.62 378.64,-606.55 387.98,-611.54 389.06,-604.62"/>
</g>
<!-- Delay_N_initPop_0_initPush_31_pop_8_push_8_36 -->
<g id="node18" class="node">
<title>Delay_N_initPop_0_initPush_31_pop_8_push_8_36</title>
<ellipse fill="none" stroke="black" cx="520.84" cy="-594" rx="96.68" ry="18"/>
<text text-anchor="middle" x="520.84" y="-590.3" font-family="Times,serif" font-size="14.00">fb8s_delay_n_start</text>
</g>
<!-- Branches_4_split&#45;&gt;Delay_N_initPop_0_initPush_31_pop_8_push_8_36 -->
<g id="edge23" class="edge">
<title>Branches_4_split&#45;&gt;Delay_N_initPop_0_initPush_31_pop_8_push_8_36</title>
<path fill="none" stroke="black" d="M777.53,-651.5C724.07,-639.74 646.55,-622.67 590.7,-610.38"/>
<polygon fill="black" stroke="black" points="591.41,-606.95 580.89,-608.22 589.9,-613.79 591.41,-606.95"/>
</g>
<!-- Delay_N_initPop_0_initPush_31_pop_8_push_8_47 -->
<g id="node24" class="node">
<title>Delay_N_initPop_0_initPush_31_pop_8_push_8_47</title>
<ellipse fill="none" stroke="black" cx="732.84" cy="-594" rx="96.68" ry="18"/>
<text text-anchor="middle" x="732.84" y="-590.3" font-family="Times,serif" font-size="14.00">fb8s_delay_n_start</text>
</g>
<!-- Branches_4_split&#45;&gt;Delay_N_initPop_0_initPush_31_pop_8_push_8_47 -->
<g id="edge30" class="edge">
<title>Branches_4_split&#45;&gt;Delay_N_initPop_0_initPush_31_pop_8_push_8_47</title>
<path fill="none" stroke="black" d="M813.72,-648.41C799.6,-639.08 781.78,-627.32 766.46,-617.2"/>
<polygon fill="black" stroke="black" points="768.06,-614.06 757.78,-611.47 764.2,-619.9 768.06,-614.06"/>
</g>
<!-- Delay_N_initPop_0_initPush_31_pop_8_push_8_58 -->
<g id="node30" class="node">
<title>Delay_N_initPop_0_initPush_31_pop_8_push_8_58</title>
<ellipse fill="none" stroke="black" cx="944.84" cy="-594" rx="96.68" ry="18"/>
<text text-anchor="middle" x="944.84" y="-590.3" font-family="Times,serif" font-size="14.00">fb8s_delay_n_start</text>
</g>
<!-- Branches_4_split&#45;&gt;Delay_N_initPop_0_initPush_31_pop_8_push_8_58 -->
<g id="edge37" class="edge">
<title>Branches_4_split&#45;&gt;Delay_N_initPop_0_initPush_31_pop_8_push_8_58</title>
<path fill="none" stroke="black" d="M863.96,-648.41C878.09,-639.08 895.91,-627.32 911.22,-617.2"/>
<polygon fill="black" stroke="black" points="913.49,-619.9 919.9,-611.47 909.63,-614.06 913.49,-619.9"/>
</g>
<!-- Delay_N_initPop_0_initPush_31_pop_8_push_8_69 -->
<g id="node36" class="node">
<title>Delay_N_initPop_0_initPush_31_pop_8_push_8_69</title>
<ellipse fill="none" stroke="black" cx="1156.84" cy="-594" rx="96.68" ry="18"/>
<text text-anchor="middle" x="1156.84" y="-590.3" font-family="Times,serif" font-size="14.00">fb8s_delay_n_start</text>
</g>
<!-- Branches_4_split&#45;&gt;Delay_N_initPop_0_initPush_31_pop_8_push_8_69 -->
<g id="edge44" class="edge">
<title>Branches_4_split&#45;&gt;Delay_N_initPop_0_initPush_31_pop_8_push_8_69</title>
<path fill="none" stroke="black" d="M900.16,-651.5C953.62,-639.74 1031.13,-622.67 1086.98,-610.38"/>
<polygon fill="black" stroke="black" points="1087.78,-613.79 1096.79,-608.22 1086.28,-606.95 1087.78,-613.79"/>
</g>
<!-- Delay_N_initPop_0_initPush_31_pop_8_push_8_80 -->
<g id="node42" class="node">
<title>Delay_N_initPop_0_initPush_31_pop_8_push_8_80</title>
<ellipse fill="none" stroke="black" cx="1368.84" cy="-594" rx="96.68" ry="18"/>
<text text-anchor="middle" x="1368.84" y="-590.3" font-family="Times,serif" font-size="14.00">fb8s_delay_n_start</text>
</g>
<!-- Branches_4_split&#45;&gt;Delay_N_initPop_0_initPush_31_pop_8_push_8_80 -->
<g id="edge51" class="edge">
<title>Branches_4_split&#45;&gt;Delay_N_initPop_0_initPush_31_pop_8_push_8_80</title>
<path fill="none" stroke="black" d="M922.22,-655.44C1007.81,-645.43 1144.79,-628.84 1262.84,-612 1271.35,-610.79 1280.24,-609.46 1289.09,-608.09"/>
<polygon fill="black" stroke="black" points="1289.7,-611.54 1299.05,-606.55 1288.63,-604.62 1289.7,-611.54"/>
</g>
<!-- Delay_N_initPop_0_initPush_31_pop_8_push_8_91 -->
<g id="node48" class="node">
<title>Delay_N_initPop_0_initPush_31_pop_8_push_8_91</title>
<ellipse fill="none" stroke="black" cx="1580.84" cy="-594" rx="96.68" ry="18"/>
<text text-anchor="middle" x="1580.84" y="-590.3" font-family="Times,serif" font-size="14.00">fb8s_delay_n_start</text>
</g>
<!-- Branches_4_split&#45;&gt;Delay_N_initPop_0_initPush_31_pop_8_push_8_91 -->
<g id="edge58" class="edge">
<title>Branches_4_split&#45;&gt;Delay_N_initPop_0_initPush_31_pop_8_push_8_91</title>
<path fill="none" stroke="black" d="M934.43,-659.3C1059.07,-651.36 1283.74,-635.25 1474.84,-612 1483.74,-610.92 1493.04,-609.64 1502.27,-608.28"/>
<polygon fill="black" stroke="black" points="1502.87,-611.73 1512.24,-606.78 1501.83,-604.81 1502.87,-611.73"/>
</g>
<!-- Combine_pop_8_push_1_5 -->
<g id="node3" class="node">
<title>Combine_pop_8_push_1_5</title>
<ellipse fill="none" stroke="black" cx="840.84" cy="-90" rx="74.19" ry="18"/>
<text text-anchor="middle" x="840.84" y="-86.3" font-family="Times,serif" font-size="14.00">fb8s_combine</text>
</g>
<!-- sink_pop_1_push_0_3 -->
<g id="node4" class="node">
<title>sink_pop_1_push_0_3</title>
<ellipse fill="none" stroke="black" cx="840.84" cy="-18" rx="53.89" ry="18"/>
<text text-anchor="middle" x="840.84" y="-14.3" font-family="Times,serif" font-size="14.00">fb8s_sink</text>
</g>
<!-- Combine_pop_8_push_1_5&#45;&gt;sink_pop_1_push_0_3 -->
<g id="edge2" class="edge">
<title>Combine_pop_8_push_1_5&#45;&gt;sink_pop_1_push_0_3</title>
<path fill="none" stroke="black" d="M840.84,-71.7C840.84,-63.98 840.84,-54.71 840.84,-46.11"/>
<polygon fill="black" stroke="black" points="844.34,-46.1 840.84,-36.1 837.34,-46.1 844.34,-46.1"/>
</g>
<!-- Branches_4_join -->
<g id="node5" class="node">
<title>Branches_4_join</title>
<ellipse fill="none" stroke="black" cx="840.84" cy="-162" rx="112.38" ry="18"/>
<text text-anchor="middle" x="840.84" y="-158.3" font-family="Times,serif" font-size="14.00">fb8s_join_round_robin</text>
</g>
<!-- Branches_4_join&#45;&gt;Combine_pop_8_push_1_5 -->
<g id="edge3" class="edge">
<title>Branches_4_join&#45;&gt;Combine_pop_8_push_1_5</title>
<path fill="none" stroke="black" d="M840.84,-143.7C840.84,-135.98 840.84,-126.71 840.84,-118.11"/>
<polygon fill="black" stroke="black" points="844.34,-118.1 840.84,-108.1 837.34,-118.1 844.34,-118.1"/>
</g>
<!-- FirFilter_pop_8_peek_32_push_8_15 -->
<g id="node7" class="node">
<title>FirFilter_pop_8_peek_32_push_8_15</title>
<ellipse fill="none" stroke="black" cx="100.84" cy="-522" rx="83.39" ry="18"/>
<text text-anchor="middle" x="100.84" y="-518.3" font-family="Times,serif" font-size="14.00">fb8s_fir_filter_h</text>
</g>
<!-- Delay_N_initPop_0_initPush_31_pop_8_push_8_14&#45;&gt;FirFilter_pop_8_peek_32_push_8_15 -->
<g id="edge4" class="edge">
<title>Delay_N_initPop_0_initPush_31_pop_8_push_8_14&#45;&gt;FirFilter_pop_8_peek_32_push_8_15</title>
<path fill="none" stroke="black" d="M97.83,-575.7C98.27,-567.98 98.8,-558.71 99.29,-550.11"/>
<polygon fill="black" stroke="black" points="102.79,-550.29 99.86,-540.1 95.8,-549.89 102.79,-550.29"/>
</g>
<!-- DownSamp_pop_8_push_1_16 -->
<g id="node8" class="node">
<title>DownSamp_pop_8_push_1_16</title>
<ellipse fill="none" stroke="black" cx="108.84" cy="-450" rx="89.08" ry="18"/>
<text text-anchor="middle" x="108.84" y="-446.3" font-family="Times,serif" font-size="14.00">fb8s_down_samp</text>
</g>
<!-- FirFilter_pop_8_peek_32_push_8_15&#45;&gt;DownSamp_pop_8_push_1_16 -->
<g id="edge5" class="edge">
<title>FirFilter_pop_8_peek_32_push_8_15&#45;&gt;DownSamp_pop_8_push_1_16</title>
<path fill="none" stroke="black" d="M102.82,-503.7C103.7,-495.98 104.76,-486.71 105.74,-478.11"/>
<polygon fill="black" stroke="black" points="109.23,-478.44 106.89,-468.1 102.27,-477.64 109.23,-478.44"/>
</g>
<!-- UpSamp_pop_1_push_8_17 -->
<g id="node9" class="node">
<title>UpSamp_pop_1_push_8_17</title>
<ellipse fill="none" stroke="black" cx="124.84" cy="-378" rx="76.09" ry="18"/>
<text text-anchor="middle" x="124.84" y="-374.3" font-family="Times,serif" font-size="14.00">fb8s_up_samp</text>
</g>
<!-- DownSamp_pop_8_push_1_16&#45;&gt;UpSamp_pop_1_push_8_17 -->
<g id="edge6" class="edge">
<title>DownSamp_pop_8_push_1_16&#45;&gt;UpSamp_pop_1_push_8_17</title>
<path fill="none" stroke="black" d="M112.8,-431.7C114.56,-423.98 116.68,-414.71 118.64,-406.11"/>
<polygon fill="black" stroke="black" points="122.12,-406.63 120.93,-396.1 115.29,-405.07 122.12,-406.63"/>
</g>
<!-- Delay_N_initPop_0_initPush_31_pop_8_push_8_18 -->
<g id="node10" class="node">
<title>Delay_N_initPop_0_initPush_31_pop_8_push_8_18</title>
<ellipse fill="none" stroke="black" cx="126.84" cy="-306" rx="91.78" ry="18"/>
<text text-anchor="middle" x="126.84" y="-302.3" font-family="Times,serif" font-size="14.00">fb8s_delay_n_end</text>
</g>
<!-- UpSamp_pop_1_push_8_17&#45;&gt;Delay_N_initPop_0_initPush_31_pop_8_push_8_18 -->
<g id="edge7" class="edge">
<title>UpSamp_pop_1_push_8_17&#45;&gt;Delay_N_initPop_0_initPush_31_pop_8_push_8_18</title>
<path fill="none" stroke="black" d="M125.34,-359.7C125.56,-351.98 125.82,-342.71 126.07,-334.11"/>
<polygon fill="black" stroke="black" points="129.57,-334.2 126.35,-324.1 122.57,-334 129.57,-334.2"/>
</g>
<!-- FirFilter_pop_8_peek_32_push_8_19 -->
<g id="node11" class="node">
<title>FirFilter_pop_8_peek_32_push_8_19</title>
<ellipse fill="none" stroke="black" cx="152.84" cy="-234" rx="81.49" ry="18"/>
<text text-anchor="middle" x="152.84" y="-230.3" font-family="Times,serif" font-size="14.00">fb8s_fir_filter_f</text>
</g>
<!-- Delay_N_initPop_0_initPush_31_pop_8_push_8_18&#45;&gt;FirFilter_pop_8_peek_32_push_8_19 -->
<g id="edge8" class="edge">
<title>Delay_N_initPop_0_initPush_31_pop_8_push_8_18&#45;&gt;FirFilter_pop_8_peek_32_push_8_19</title>
<path fill="none" stroke="black" d="M133.27,-287.7C136.2,-279.81 139.73,-270.3 142.98,-261.55"/>
<polygon fill="black" stroke="black" points="146.29,-262.7 146.49,-252.1 139.73,-260.26 146.29,-262.7"/>
</g>
<!-- FirFilter_pop_8_peek_32_push_8_19&#45;&gt;Branches_4_join -->
<g id="edge10" class="edge">
<title>FirFilter_pop_8_peek_32_push_8_19&#45;&gt;Branches_4_join</title>
<path fill="none" stroke="black" d="M214.01,-222.15C227.74,-219.92 242.27,-217.73 255.84,-216 420.24,-195.02 611.66,-179.31 729.55,-170.65"/>
<polygon fill="black" stroke="black" points="729.95,-174.13 739.66,-169.91 729.44,-167.15 729.95,-174.13"/>
</g>
<!-- FirFilter_pop_8_peek_32_push_8_26 -->
<g id="node13" class="node">
<title>FirFilter_pop_8_peek_32_push_8_26</title>
<ellipse fill="none" stroke="black" cx="311.84" cy="-522" rx="83.39" ry="18"/>
<text text-anchor="middle" x="311.84" y="-518.3" font-family="Times,serif" font-size="14.00">fb8s_fir_filter_h</text>
</g>
<!-- Delay_N_initPop_0_initPush_31_pop_8_push_8_25&#45;&gt;FirFilter_pop_8_peek_32_push_8_26 -->
<g id="edge11" class="edge">
<title>Delay_N_initPop_0_initPush_31_pop_8_push_8_25&#45;&gt;FirFilter_pop_8_peek_32_push_8_26</title>
<path fill="none" stroke="black" d="M309.58,-575.7C309.91,-567.98 310.31,-558.71 310.68,-550.11"/>
<polygon fill="black" stroke="black" points="314.18,-550.25 311.11,-540.1 307.18,-549.95 314.18,-550.25"/>
</g>
<!-- DownSamp_pop_8_push_1_27 -->
<g id="node14" class="node">
<title>DownSamp_pop_8_push_1_27</title>
<ellipse fill="none" stroke="black" cx="314.84" cy="-450" rx="89.08" ry="18"/>
<text text-anchor="middle" x="314.84" y="-446.3" font-family="Times,serif" font-size="14.00">fb8s_down_samp</text>
</g>
<!-- FirFilter_pop_8_peek_32_push_8_26&#45;&gt;DownSamp_pop_8_push_1_27 -->
<g id="edge12" class="edge">
<title>FirFilter_pop_8_peek_32_push_8_26&#45;&gt;DownSamp_pop_8_push_1_27</title>
<path fill="none" stroke="black" d="M312.58,-503.7C312.91,-495.98 313.31,-486.71 313.68,-478.11"/>
<polygon fill="black" stroke="black" points="317.18,-478.25 314.11,-468.1 310.18,-477.95 317.18,-478.25"/>
</g>
<!-- UpSamp_pop_1_push_8_28 -->
<g id="node15" class="node">
<title>UpSamp_pop_1_push_8_28</title>
<ellipse fill="none" stroke="black" cx="320.84" cy="-378" rx="76.09" ry="18"/>
<text text-anchor="middle" x="320.84" y="-374.3" font-family="Times,serif" font-size="14.00">fb8s_up_samp</text>
</g>
<!-- DownSamp_pop_8_push_1_27&#45;&gt;UpSamp_pop_1_push_8_28 -->
<g id="edge13" class="edge">
<title>DownSamp_pop_8_push_1_27&#45;&gt;UpSamp_pop_1_push_8_28</title>
<path fill="none" stroke="black" d="M316.32,-431.7C316.99,-423.98 317.78,-414.71 318.52,-406.11"/>
<polygon fill="black" stroke="black" points="322.01,-406.37 319.38,-396.1 315.03,-405.77 322.01,-406.37"/>
</g>
<!-- Delay_N_initPop_0_initPush_31_pop_8_push_8_29 -->
<g id="node16" class="node">
<title>Delay_N_initPop_0_initPush_31_pop_8_push_8_29</title>
<ellipse fill="none" stroke="black" cx="333.84" cy="-306" rx="91.78" ry="18"/>
<text text-anchor="middle" x="333.84" y="-302.3" font-family="Times,serif" font-size="14.00">fb8s_delay_n_end</text>
</g>
<!-- UpSamp_pop_1_push_8_28&#45;&gt;Delay_N_initPop_0_initPush_31_pop_8_push_8_29 -->
<g id="edge14" class="edge">
<title>UpSamp_pop_1_push_8_28&#45;&gt;Delay_N_initPop_0_initPush_31_pop_8_push_8_29</title>
<path fill="none" stroke="black" d="M324.05,-359.7C325.49,-351.98 327.21,-342.71 328.81,-334.11"/>
<polygon fill="black" stroke="black" points="332.28,-334.58 330.66,-324.1 325.4,-333.3 332.28,-334.58"/>
</g>
<!-- FirFilter_pop_8_peek_32_push_8_30 -->
<g id="node17" class="node">
<title>FirFilter_pop_8_peek_32_push_8_30</title>
<ellipse fill="none" stroke="black" cx="345.84" cy="-234" rx="81.49" ry="18"/>
<text text-anchor="middle" x="345.84" y="-230.3" font-family="Times,serif" font-size="14.00">fb8s_fir_filter_f</text>
</g>
<!-- Delay_N_initPop_0_initPush_31_pop_8_push_8_29&#45;&gt;FirFilter_pop_8_peek_32_push_8_30 -->
<g id="edge15" class="edge">
<title>Delay_N_initPop_0_initPush_31_pop_8_push_8_29&#45;&gt;FirFilter_pop_8_peek_32_push_8_30</title>
<path fill="none" stroke="black" d="M336.81,-287.7C338.13,-279.98 339.72,-270.71 341.19,-262.11"/>
<polygon fill="black" stroke="black" points="344.67,-262.55 342.91,-252.1 337.77,-261.37 344.67,-262.55"/>
</g>
<!-- FirFilter_pop_8_peek_32_push_8_30&#45;&gt;Branches_4_join -->
<g id="edge17" class="edge">
<title>FirFilter_pop_8_peek_32_push_8_30&#45;&gt;Branches_4_join</title>
<path fill="none" stroke="black" d="M410.66,-223.12C426.42,-220.75 443.23,-218.26 458.84,-216 557.46,-201.74 670.51,-186.15 747.89,-175.59"/>
<polygon fill="black" stroke="black" points="748.65,-179.02 758.09,-174.2 747.71,-172.09 748.65,-179.02"/>
</g>
<!-- FirFilter_pop_8_peek_32_push_8_37 -->
<g id="node19" class="node">
<title>FirFilter_pop_8_peek_32_push_8_37</title>
<ellipse fill="none" stroke="black" cx="522.84" cy="-522" rx="83.39" ry="18"/>
<text text-anchor="middle" x="522.84" y="-518.3" font-family="Times,serif" font-size="14.00">fb8s_fir_filter_h</text>
</g>
<!-- Delay_N_initPop_0_initPush_31_pop_8_push_8_36&#45;&gt;FirFilter_pop_8_peek_32_push_8_37 -->
<g id="edge18" class="edge">
<title>Delay_N_initPop_0_initPush_31_pop_8_push_8_36&#45;&gt;FirFilter_pop_8_peek_32_push_8_37</title>
<path fill="none" stroke="black" d="M521.34,-575.7C521.56,-567.98 521.82,-558.71 522.07,-550.11"/>
<polygon fill="black" stroke="black" points="525.57,-550.2 522.35,-540.1 518.57,-550 525.57,-550.2"/>
</g>
<!-- DownSamp_pop_8_push_1_38 -->
<g id="node20" class="node">
<title>DownSamp_pop_8_push_1_38</title>
<ellipse fill="none" stroke="black" cx="525.84" cy="-450" rx="89.08" ry="18"/>
<text text-anchor="middle" x="525.84" y="-446.3" font-family="Times,serif" font-size="14.00">fb8s_down_samp</text>
</g>
<!-- FirFilter_pop_8_peek_32_push_8_37&#45;&gt;DownSamp_pop_8_push_1_38 -->
<g id="edge19" class="edge">
<title>FirFilter_pop_8_peek_32_push_8_37&#45;&gt;DownSamp_pop_8_push_1_38</title>
<path fill="none" stroke="black" d="M523.58,-503.7C523.91,-495.98 524.31,-486.71 524.68,-478.11"/>
<polygon fill="black" stroke="black" points="528.18,-478.25 525.11,-468.1 521.18,-477.95 528.18,-478.25"/>
</g>
<!-- UpSamp_pop_1_push_8_39 -->
<g id="node21" class="node">
<title>UpSamp_pop_1_push_8_39</title>
<ellipse fill="none" stroke="black" cx="529.84" cy="-378" rx="76.09" ry="18"/>
<text text-anchor="middle" x="529.84" y="-374.3" font-family="Times,serif" font-size="14.00">fb8s_up_samp</text>
</g>
<!-- DownSamp_pop_8_push_1_38&#45;&gt;UpSamp_pop_1_push_8_39 -->
<g id="edge20" class="edge">
<title>DownSamp_pop_8_push_1_38&#45;&gt;UpSamp_pop_1_push_8_39</title>
<path fill="none" stroke="black" d="M526.83,-431.7C527.27,-423.98 527.8,-414.71 528.29,-406.11"/>
<polygon fill="black" stroke="black" points="531.79,-406.29 528.86,-396.1 524.8,-405.89 531.79,-406.29"/>
</g>
<!-- Delay_N_initPop_0_initPush_31_pop_8_push_8_40 -->
<g id="node22" class="node">
<title>Delay_N_initPop_0_initPush_31_pop_8_push_8_40</title>
<ellipse fill="none" stroke="black" cx="537.84" cy="-306" rx="91.78" ry="18"/>
<text text-anchor="middle" x="537.84" y="-302.3" font-family="Times,serif" font-size="14.00">fb8s_delay_n_end</text>
</g>
<!-- UpSamp_pop_1_push_8_39&#45;&gt;Delay_N_initPop_0_initPush_31_pop_8_push_8_40 -->
<g id="edge21" class="edge">
<title>UpSamp_pop_1_push_8_39&#45;&gt;Delay_N_initPop_0_initPush_31_pop_8_push_8_40</title>
<path fill="none" stroke="black" d="M531.82,-359.7C532.7,-351.98 533.76,-342.71 534.74,-334.11"/>
<polygon fill="black" stroke="black" points="538.23,-334.44 535.89,-324.1 531.27,-333.64 538.23,-334.44"/>
</g>
<!-- FirFilter_pop_8_peek_32_push_8_41 -->
<g id="node23" class="node">
<title>FirFilter_pop_8_peek_32_push_8_41</title>
<ellipse fill="none" stroke="black" cx="548.84" cy="-234" rx="81.49" ry="18"/>
<text text-anchor="middle" x="548.84" y="-230.3" font-family="Times,serif" font-size="14.00">fb8s_fir_filter_f</text>
</g>
<!-- Delay_N_initPop_0_initPush_31_pop_8_push_8_40&#45;&gt;FirFilter_pop_8_peek_32_push_8_41 -->
<g id="edge22" class="edge">
<title>Delay_N_initPop_0_initPush_31_pop_8_push_8_40&#45;&gt;FirFilter_pop_8_peek_32_push_8_41</title>
<path fill="none" stroke="black" d="M540.56,-287.7C541.77,-279.98 543.23,-270.71 544.58,-262.11"/>
<polygon fill="black" stroke="black" points="548.06,-262.53 546.15,-252.1 541.14,-261.44 548.06,-262.53"/>
</g>
<!-- FirFilter_pop_8_peek_32_push_8_41&#45;&gt;Branches_4_join -->
<g id="edge24" class="edge">
<title>FirFilter_pop_8_peek_32_push_8_41&#45;&gt;Branches_4_join</title>
<path fill="none" stroke="black" d="M601.72,-220.32C649.2,-208.94 719.22,-192.16 771.24,-179.69"/>
<polygon fill="black" stroke="black" points="772.15,-183.07 781.06,-177.33 770.52,-176.26 772.15,-183.07"/>
</g>
<!-- FirFilter_pop_8_peek_32_push_8_48 -->
<g id="node25" class="node">
<title>FirFilter_pop_8_peek_32_push_8_48</title>
<ellipse fill="none" stroke="black" cx="732.84" cy="-522" rx="83.39" ry="18"/>
<text text-anchor="middle" x="732.84" y="-518.3" font-family="Times,serif" font-size="14.00">fb8s_fir_filter_h</text>
</g>
<!-- Delay_N_initPop_0_initPush_31_pop_8_push_8_47&#45;&gt;FirFilter_pop_8_peek_32_push_8_48 -->
<g id="edge25" class="edge">
<title>Delay_N_initPop_0_initPush_31_pop_8_push_8_47&#45;&gt;FirFilter_pop_8_peek_32_push_8_48</title>
<path fill="none" stroke="black" d="M732.84,-575.7C732.84,-567.98 732.84,-558.71 732.84,-550.11"/>
<polygon fill="black" stroke="black" points="736.34,-550.1 732.84,-540.1 729.34,-550.1 736.34,-550.1"/>
</g>
<!-- DownSamp_pop_8_push_1_49 -->
<g id="node26" class="node">
<title>DownSamp_pop_8_push_1_49</title>
<ellipse fill="none" stroke="black" cx="737.84" cy="-450" rx="89.08" ry="18"/>
<text text-anchor="middle" x="737.84" y="-446.3" font-family="Times,serif" font-size="14.00">fb8s_down_samp</text>
</g>
<!-- FirFilter_pop_8_peek_32_push_8_48&#45;&gt;DownSamp_pop_8_push_1_49 -->
<g id="edge26" class="edge">
<title>FirFilter_pop_8_peek_32_push_8_48&#45;&gt;DownSamp_pop_8_push_1_49</title>
<path fill="none" stroke="black" d="M734.08,-503.7C734.63,-495.98 735.29,-486.71 735.9,-478.11"/>
<polygon fill="black" stroke="black" points="739.4,-478.33 736.62,-468.1 732.42,-477.83 739.4,-478.33"/>
</g>
<!-- UpSamp_pop_1_push_8_50 -->
<g id="node27" class="node">
<title>UpSamp_pop_1_push_8_50</title>
<ellipse fill="none" stroke="black" cx="737.84" cy="-378" rx="76.09" ry="18"/>
<text text-anchor="middle" x="737.84" y="-374.3" font-family="Times,serif" font-size="14.00">fb8s_up_samp</text>
</g>
<!-- DownSamp_pop_8_push_1_49&#45;&gt;UpSamp_pop_1_push_8_50 -->
<g id="edge27" class="edge">
<title>DownSamp_pop_8_push_1_49&#45;&gt;UpSamp_pop_1_push_8_50</title>
<path fill="none" stroke="black" d="M737.84,-431.7C737.84,-423.98 737.84,-414.71 737.84,-406.11"/>
<polygon fill="black" stroke="black" points="741.34,-406.1 737.84,-396.1 734.34,-406.1 741.34,-406.1"/>
</g>
<!-- Delay_N_initPop_0_initPush_31_pop_8_push_8_51 -->
<g id="node28" class="node">
<title>Delay_N_initPop_0_initPush_31_pop_8_push_8_51</title>
<ellipse fill="none" stroke="black" cx="740.84" cy="-306" rx="91.78" ry="18"/>
<text text-anchor="middle" x="740.84" y="-302.3" font-family="Times,serif" font-size="14.00">fb8s_delay_n_end</text>
</g>
<!-- UpSamp_pop_1_push_8_50&#45;&gt;Delay_N_initPop_0_initPush_31_pop_8_push_8_51 -->
<g id="edge28" class="edge">
<title>UpSamp_pop_1_push_8_50&#45;&gt;Delay_N_initPop_0_initPush_31_pop_8_push_8_51</title>
<path fill="none" stroke="black" d="M738.58,-359.7C738.91,-351.98 739.31,-342.71 739.68,-334.11"/>
<polygon fill="black" stroke="black" points="743.18,-334.25 740.11,-324.1 736.18,-333.95 743.18,-334.25"/>
</g>
<!-- FirFilter_pop_8_peek_32_push_8_52 -->
<g id="node29" class="node">
<title>FirFilter_pop_8_peek_32_push_8_52</title>
<ellipse fill="none" stroke="black" cx="745.84" cy="-234" rx="81.49" ry="18"/>
<text text-anchor="middle" x="745.84" y="-230.3" font-family="Times,serif" font-size="14.00">fb8s_fir_filter_f</text>
</g>
<!-- Delay_N_initPop_0_initPush_31_pop_8_push_8_51&#45;&gt;FirFilter_pop_8_peek_32_push_8_52 -->
<g id="edge29" class="edge">
<title>Delay_N_initPop_0_initPush_31_pop_8_push_8_51&#45;&gt;FirFilter_pop_8_peek_32_push_8_52</title>
<path fill="none" stroke="black" d="M742.08,-287.7C742.63,-279.98 743.29,-270.71 743.9,-262.11"/>
<polygon fill="black" stroke="black" points="747.4,-262.33 744.62,-252.1 740.42,-261.83 747.4,-262.33"/>
</g>
<!-- FirFilter_pop_8_peek_32_push_8_52&#45;&gt;Branches_4_join -->
<g id="edge31" class="edge">
<title>FirFilter_pop_8_peek_32_push_8_52&#45;&gt;Branches_4_join</title>
<path fill="none" stroke="black" d="M768.36,-216.41C780.81,-207.24 796.46,-195.7 810.03,-185.71"/>
<polygon fill="black" stroke="black" points="812.19,-188.46 818.16,-179.71 808.03,-182.83 812.19,-188.46"/>
</g>
<!-- FirFilter_pop_8_peek_32_push_8_59 -->
<g id="node31" class="node">
<title>FirFilter_pop_8_peek_32_push_8_59</title>
<ellipse fill="none" stroke="black" cx="943.84" cy="-522" rx="83.39" ry="18"/>
<text text-anchor="middle" x="943.84" y="-518.3" font-family="Times,serif" font-size="14.00">fb8s_fir_filter_h</text>
</g>
<!-- Delay_N_initPop_0_initPush_31_pop_8_push_8_58&#45;&gt;FirFilter_pop_8_peek_32_push_8_59 -->
<g id="edge32" class="edge">
<title>Delay_N_initPop_0_initPush_31_pop_8_push_8_58&#45;&gt;FirFilter_pop_8_peek_32_push_8_59</title>
<path fill="none" stroke="black" d="M944.59,-575.7C944.48,-567.98 944.35,-558.71 944.23,-550.11"/>
<polygon fill="black" stroke="black" points="947.73,-550.05 944.09,-540.1 940.73,-550.15 947.73,-550.05"/>
</g>
<!-- DownSamp_pop_8_push_1_60 -->
<g id="node32" class="node">
<title>DownSamp_pop_8_push_1_60</title>
<ellipse fill="none" stroke="black" cx="943.84" cy="-450" rx="89.08" ry="18"/>
<text text-anchor="middle" x="943.84" y="-446.3" font-family="Times,serif" font-size="14.00">fb8s_down_samp</text>
</g>
<!-- FirFilter_pop_8_peek_32_push_8_59&#45;&gt;DownSamp_pop_8_push_1_60 -->
<g id="edge33" class="edge">
<title>FirFilter_pop_8_peek_32_push_8_59&#45;&gt;DownSamp_pop_8_push_1_60</title>
<path fill="none" stroke="black" d="M943.84,-503.7C943.84,-495.98 943.84,-486.71 943.84,-478.11"/>
<polygon fill="black" stroke="black" points="947.34,-478.1 943.84,-468.1 940.34,-478.1 947.34,-478.1"/>
</g>
<!-- UpSamp_pop_1_push_8_61 -->
<g id="node33" class="node">
<title>UpSamp_pop_1_push_8_61</title>
<ellipse fill="none" stroke="black" cx="942.84" cy="-378" rx="76.09" ry="18"/>
<text text-anchor="middle" x="942.84" y="-374.3" font-family="Times,serif" font-size="14.00">fb8s_up_samp</text>
</g>
<!-- DownSamp_pop_8_push_1_60&#45;&gt;UpSamp_pop_1_push_8_61 -->
<g id="edge34" class="edge">
<title>DownSamp_pop_8_push_1_60&#45;&gt;UpSamp_pop_1_push_8_61</title>
<path fill="none" stroke="black" d="M943.59,-431.7C943.48,-423.98 943.35,-414.71 943.23,-406.11"/>
<polygon fill="black" stroke="black" points="946.73,-406.05 943.09,-396.1 939.73,-406.15 946.73,-406.05"/>
</g>
<!-- Delay_N_initPop_0_initPush_31_pop_8_push_8_62 -->
<g id="node34" class="node">
<title>Delay_N_initPop_0_initPush_31_pop_8_push_8_62</title>
<ellipse fill="none" stroke="black" cx="942.84" cy="-306" rx="91.78" ry="18"/>
<text text-anchor="middle" x="942.84" y="-302.3" font-family="Times,serif" font-size="14.00">fb8s_delay_n_end</text>
</g>
<!-- UpSamp_pop_1_push_8_61&#45;&gt;Delay_N_initPop_0_initPush_31_pop_8_push_8_62 -->
<g id="edge35" class="edge">
<title>UpSamp_pop_1_push_8_61&#45;&gt;Delay_N_initPop_0_initPush_31_pop_8_push_8_62</title>
<path fill="none" stroke="black" d="M942.84,-359.7C942.84,-351.98 942.84,-342.71 942.84,-334.11"/>
<polygon fill="black" stroke="black" points="946.34,-334.1 942.84,-324.1 939.34,-334.1 946.34,-334.1"/>
</g>
<!-- FirFilter_pop_8_peek_32_push_8_63 -->
<g id="node35" class="node">
<title>FirFilter_pop_8_peek_32_push_8_63</title>
<ellipse fill="none" stroke="black" cx="936.84" cy="-234" rx="81.49" ry="18"/>
<text text-anchor="middle" x="936.84" y="-230.3" font-family="Times,serif" font-size="14.00">fb8s_fir_filter_f</text>
</g>
<!-- Delay_N_initPop_0_initPush_31_pop_8_push_8_62&#45;&gt;FirFilter_pop_8_peek_32_push_8_63 -->
<g id="edge36" class="edge">
<title>Delay_N_initPop_0_initPush_31_pop_8_push_8_62&#45;&gt;FirFilter_pop_8_peek_32_push_8_63</title>
<path fill="none" stroke="black" d="M941.36,-287.7C940.7,-279.98 939.9,-270.71 939.17,-262.11"/>
<polygon fill="black" stroke="black" points="942.65,-261.77 938.31,-252.1 935.67,-262.37 942.65,-261.77"/>
</g>
<!-- FirFilter_pop_8_peek_32_push_8_63&#45;&gt;Branches_4_join -->
<g id="edge38" class="edge">
<title>FirFilter_pop_8_peek_32_push_8_63&#45;&gt;Branches_4_join</title>
<path fill="none" stroke="black" d="M914.09,-216.41C901.51,-207.24 885.69,-195.7 871.98,-185.71"/>
<polygon fill="black" stroke="black" points="873.9,-182.78 863.76,-179.71 869.78,-188.43 873.9,-182.78"/>
</g>
<!-- FirFilter_pop_8_peek_32_push_8_70 -->
<g id="node37" class="node">
<title>FirFilter_pop_8_peek_32_push_8_70</title>
<ellipse fill="none" stroke="black" cx="1154.84" cy="-522" rx="83.39" ry="18"/>
<text text-anchor="middle" x="1154.84" y="-518.3" font-family="Times,serif" font-size="14.00">fb8s_fir_filter_h</text>
</g>
<!-- Delay_N_initPop_0_initPush_31_pop_8_push_8_69&#45;&gt;FirFilter_pop_8_peek_32_push_8_70 -->
<g id="edge39" class="edge">
<title>Delay_N_initPop_0_initPush_31_pop_8_push_8_69&#45;&gt;FirFilter_pop_8_peek_32_push_8_70</title>
<path fill="none" stroke="black" d="M1156.35,-575.7C1156.13,-567.98 1155.86,-558.71 1155.62,-550.11"/>
<polygon fill="black" stroke="black" points="1159.11,-550 1155.33,-540.1 1152.12,-550.2 1159.11,-550"/>
</g>
<!-- DownSamp_pop_8_push_1_71 -->
<g id="node38" class="node">
<title>DownSamp_pop_8_push_1_71</title>
<ellipse fill="none" stroke="black" cx="1153.84" cy="-450" rx="89.08" ry="18"/>
<text text-anchor="middle" x="1153.84" y="-446.3" font-family="Times,serif" font-size="14.00">fb8s_down_samp</text>
</g>
<!-- FirFilter_pop_8_peek_32_push_8_70&#45;&gt;DownSamp_pop_8_push_1_71 -->
<g id="edge40" class="edge">
<title>FirFilter_pop_8_peek_32_push_8_70&#45;&gt;DownSamp_pop_8_push_1_71</title>
<path fill="none" stroke="black" d="M1154.59,-503.7C1154.48,-495.98 1154.35,-486.71 1154.23,-478.11"/>
<polygon fill="black" stroke="black" points="1157.73,-478.05 1154.09,-468.1 1150.73,-478.15 1157.73,-478.05"/>
</g>
<!-- UpSamp_pop_1_push_8_72 -->
<g id="node39" class="node">
<title>UpSamp_pop_1_push_8_72</title>
<ellipse fill="none" stroke="black" cx="1151.84" cy="-378" rx="76.09" ry="18"/>
<text text-anchor="middle" x="1151.84" y="-374.3" font-family="Times,serif" font-size="14.00">fb8s_up_samp</text>
</g>
<!-- DownSamp_pop_8_push_1_71&#45;&gt;UpSamp_pop_1_push_8_72 -->
<g id="edge41" class="edge">
<title>DownSamp_pop_8_push_1_71&#45;&gt;UpSamp_pop_1_push_8_72</title>
<path fill="none" stroke="black" d="M1153.35,-431.7C1153.13,-423.98 1152.86,-414.71 1152.62,-406.11"/>
<polygon fill="black" stroke="black" points="1156.11,-406 1152.33,-396.1 1149.12,-406.2 1156.11,-406"/>
</g>
<!-- Delay_N_initPop_0_initPush_31_pop_8_push_8_73 -->
<g id="node40" class="node">
<title>Delay_N_initPop_0_initPush_31_pop_8_push_8_73</title>
<ellipse fill="none" stroke="black" cx="1148.84" cy="-306" rx="91.78" ry="18"/>
<text text-anchor="middle" x="1148.84" y="-302.3" font-family="Times,serif" font-size="14.00">fb8s_delay_n_end</text>
</g>
<!-- UpSamp_pop_1_push_8_72&#45;&gt;Delay_N_initPop_0_initPush_31_pop_8_push_8_73 -->
<g id="edge42" class="edge">
<title>UpSamp_pop_1_push_8_72&#45;&gt;Delay_N_initPop_0_initPush_31_pop_8_push_8_73</title>
<path fill="none" stroke="black" d="M1151.1,-359.7C1150.77,-351.98 1150.37,-342.71 1150,-334.11"/>
<polygon fill="black" stroke="black" points="1153.5,-333.95 1149.57,-324.1 1146.51,-334.25 1153.5,-333.95"/>
</g>
<!-- FirFilter_pop_8_peek_32_push_8_74 -->
<g id="node41" class="node">
<title>FirFilter_pop_8_peek_32_push_8_74</title>
<ellipse fill="none" stroke="black" cx="1134.84" cy="-234" rx="81.49" ry="18"/>
<text text-anchor="middle" x="1134.84" y="-230.3" font-family="Times,serif" font-size="14.00">fb8s_fir_filter_f</text>
</g>
<!-- Delay_N_initPop_0_initPush_31_pop_8_push_8_73&#45;&gt;FirFilter_pop_8_peek_32_push_8_74 -->
<g id="edge43" class="edge">
<title>Delay_N_initPop_0_initPush_31_pop_8_push_8_73&#45;&gt;FirFilter_pop_8_peek_32_push_8_74</title>
<path fill="none" stroke="black" d="M1145.38,-287.7C1143.84,-279.98 1141.98,-270.71 1140.26,-262.11"/>
<polygon fill="black" stroke="black" points="1143.66,-261.22 1138.26,-252.1 1136.79,-262.6 1143.66,-261.22"/>
</g>
<!-- FirFilter_pop_8_peek_32_push_8_74&#45;&gt;Branches_4_join -->
<g id="edge45" class="edge">
<title>FirFilter_pop_8_peek_32_push_8_74&#45;&gt;Branches_4_join</title>
<path fill="none" stroke="black" d="M1081.6,-220.32C1033.72,-208.92 963.06,-192.1 910.67,-179.63"/>
<polygon fill="black" stroke="black" points="911.31,-176.18 900.77,-177.27 909.69,-182.99 911.31,-176.18"/>
</g>
<!-- FirFilter_pop_8_peek_32_push_8_81 -->
<g id="node43" class="node">
<title>FirFilter_pop_8_peek_32_push_8_81</title>
<ellipse fill="none" stroke="black" cx="1365.84" cy="-522" rx="83.39" ry="18"/>
<text text-anchor="middle" x="1365.84" y="-518.3" font-family="Times,serif" font-size="14.00">fb8s_fir_filter_h</text>
</g>
<!-- Delay_N_initPop_0_initPush_31_pop_8_push_8_80&#45;&gt;FirFilter_pop_8_peek_32_push_8_81 -->
<g id="edge46" class="edge">
<title>Delay_N_initPop_0_initPush_31_pop_8_push_8_80&#45;&gt;FirFilter_pop_8_peek_32_push_8_81</title>
<path fill="none" stroke="black" d="M1368.1,-575.7C1367.77,-567.98 1367.37,-558.71 1367,-550.11"/>
<polygon fill="black" stroke="black" points="1370.5,-549.95 1366.57,-540.1 1363.51,-550.25 1370.5,-549.95"/>
</g>
<!-- DownSamp_pop_8_push_1_82 -->
<g id="node44" class="node">
<title>DownSamp_pop_8_push_1_82</title>
<ellipse fill="none" stroke="black" cx="1362.84" cy="-450" rx="89.08" ry="18"/>
<text text-anchor="middle" x="1362.84" y="-446.3" font-family="Times,serif" font-size="14.00">fb8s_down_samp</text>
</g>
<!-- FirFilter_pop_8_peek_32_push_8_81&#45;&gt;DownSamp_pop_8_push_1_82 -->
<g id="edge47" class="edge">
<title>FirFilter_pop_8_peek_32_push_8_81&#45;&gt;DownSamp_pop_8_push_1_82</title>
<path fill="none" stroke="black" d="M1365.1,-503.7C1364.77,-495.98 1364.37,-486.71 1364,-478.11"/>
<polygon fill="black" stroke="black" points="1367.5,-477.95 1363.57,-468.1 1360.51,-478.25 1367.5,-477.95"/>
</g>
<!-- UpSamp_pop_1_push_8_83 -->
<g id="node45" class="node">
<title>UpSamp_pop_1_push_8_83</title>
<ellipse fill="none" stroke="black" cx="1360.84" cy="-378" rx="76.09" ry="18"/>
<text text-anchor="middle" x="1360.84" y="-374.3" font-family="Times,serif" font-size="14.00">fb8s_up_samp</text>
</g>
<!-- DownSamp_pop_8_push_1_82&#45;&gt;UpSamp_pop_1_push_8_83 -->
<g id="edge48" class="edge">
<title>DownSamp_pop_8_push_1_82&#45;&gt;UpSamp_pop_1_push_8_83</title>
<path fill="none" stroke="black" d="M1362.35,-431.7C1362.13,-423.98 1361.86,-414.71 1361.62,-406.11"/>
<polygon fill="black" stroke="black" points="1365.11,-406 1361.33,-396.1 1358.12,-406.2 1365.11,-406"/>
</g>
<!-- Delay_N_initPop_0_initPush_31_pop_8_push_8_84 -->
<g id="node46" class="node">
<title>Delay_N_initPop_0_initPush_31_pop_8_push_8_84</title>
<ellipse fill="none" stroke="black" cx="1355.84" cy="-306" rx="91.78" ry="18"/>
<text text-anchor="middle" x="1355.84" y="-302.3" font-family="Times,serif" font-size="14.00">fb8s_delay_n_end</text>
</g>
<!-- UpSamp_pop_1_push_8_83&#45;&gt;Delay_N_initPop_0_initPush_31_pop_8_push_8_84 -->
<g id="edge49" class="edge">
<title>UpSamp_pop_1_push_8_83&#45;&gt;Delay_N_initPop_0_initPush_31_pop_8_push_8_84</title>
<path fill="none" stroke="black" d="M1359.61,-359.7C1359.05,-351.98 1358.39,-342.71 1357.78,-334.11"/>
<polygon fill="black" stroke="black" points="1361.27,-333.83 1357.06,-324.1 1354.28,-334.33 1361.27,-333.83"/>
</g>
<!-- FirFilter_pop_8_peek_32_push_8_85 -->
<g id="node47" class="node">
<title>FirFilter_pop_8_peek_32_push_8_85</title>
<ellipse fill="none" stroke="black" cx="1337.84" cy="-234" rx="81.49" ry="18"/>
<text text-anchor="middle" x="1337.84" y="-230.3" font-family="Times,serif" font-size="14.00">fb8s_fir_filter_f</text>
</g>
<!-- Delay_N_initPop_0_initPush_31_pop_8_push_8_84&#45;&gt;FirFilter_pop_8_peek_32_push_8_85 -->
<g id="edge50" class="edge">
<title>Delay_N_initPop_0_initPush_31_pop_8_push_8_84&#45;&gt;FirFilter_pop_8_peek_32_push_8_85</title>
<path fill="none" stroke="black" d="M1351.39,-287.7C1349.39,-279.9 1346.97,-270.51 1344.74,-261.83"/>
<polygon fill="black" stroke="black" points="1348.12,-260.92 1342.24,-252.1 1341.34,-262.66 1348.12,-260.92"/>
</g>
<!-- FirFilter_pop_8_peek_32_push_8_85&#45;&gt;Branches_4_join -->
<g id="edge52" class="edge">
<title>FirFilter_pop_8_peek_32_push_8_85&#45;&gt;Branches_4_join</title>
<path fill="none" stroke="black" d="M1273.03,-223.11C1257.26,-220.74 1240.45,-218.25 1224.84,-216 1125.71,-201.7 1012.07,-186.12 934.28,-175.57"/>
<polygon fill="black" stroke="black" points="934.41,-172.06 924.03,-174.18 933.47,-179 934.41,-172.06"/>
</g>
<!-- FirFilter_pop_8_peek_32_push_8_92 -->
<g id="node49" class="node">
<title>FirFilter_pop_8_peek_32_push_8_92</title>
<ellipse fill="none" stroke="black" cx="1579.84" cy="-522" rx="83.39" ry="18"/>
<text text-anchor="middle" x="1579.84" y="-518.3" font-family="Times,serif" font-size="14.00">fb8s_fir_filter_h</text>
</g>
<!-- Delay_N_initPop_0_initPush_31_pop_8_push_8_91&#45;&gt;FirFilter_pop_8_peek_32_push_8_92 -->
<g id="edge53" class="edge">
<title>Delay_N_initPop_0_initPush_31_pop_8_push_8_91&#45;&gt;FirFilter_pop_8_peek_32_push_8_92</title>
<path fill="none" stroke="black" d="M1580.59,-575.7C1580.48,-567.98 1580.35,-558.71 1580.23,-550.11"/>
<polygon fill="black" stroke="black" points="1583.73,-550.05 1580.09,-540.1 1576.73,-550.15 1583.73,-550.05"/>
</g>
<!-- DownSamp_pop_8_push_1_93 -->
<g id="node50" class="node">
<title>DownSamp_pop_8_push_1_93</title>
<ellipse fill="none" stroke="black" cx="1578.84" cy="-450" rx="89.08" ry="18"/>
<text text-anchor="middle" x="1578.84" y="-446.3" font-family="Times,serif" font-size="14.00">fb8s_down_samp</text>
</g>
<!-- FirFilter_pop_8_peek_32_push_8_92&#45;&gt;DownSamp_pop_8_push_1_93 -->
<g id="edge54" class="edge">
<title>FirFilter_pop_8_peek_32_push_8_92&#45;&gt;DownSamp_pop_8_push_1_93</title>
<path fill="none" stroke="black" d="M1579.59,-503.7C1579.48,-495.98 1579.35,-486.71 1579.23,-478.11"/>
<polygon fill="black" stroke="black" points="1582.73,-478.05 1579.09,-468.1 1575.73,-478.15 1582.73,-478.05"/>
</g>
<!-- UpSamp_pop_1_push_8_94 -->
<g id="node51" class="node">
<title>UpSamp_pop_1_push_8_94</title>
<ellipse fill="none" stroke="black" cx="1560.84" cy="-378" rx="76.09" ry="18"/>
<text text-anchor="middle" x="1560.84" y="-374.3" font-family="Times,serif" font-size="14.00">fb8s_up_samp</text>
</g>
<!-- DownSamp_pop_8_push_1_93&#45;&gt;UpSamp_pop_1_push_8_94 -->
<g id="edge55" class="edge">
<title>DownSamp_pop_8_push_1_93&#45;&gt;UpSamp_pop_1_push_8_94</title>
<path fill="none" stroke="black" d="M1574.39,-431.7C1572.39,-423.9 1569.97,-414.51 1567.74,-405.83"/>
<polygon fill="black" stroke="black" points="1571.12,-404.92 1565.24,-396.1 1564.34,-406.66 1571.12,-404.92"/>
</g>
<!-- Delay_N_initPop_0_initPush_31_pop_8_push_8_95 -->
<g id="node52" class="node">
<title>Delay_N_initPop_0_initPush_31_pop_8_push_8_95</title>
<ellipse fill="none" stroke="black" cx="1559.84" cy="-306" rx="91.78" ry="18"/>
<text text-anchor="middle" x="1559.84" y="-302.3" font-family="Times,serif" font-size="14.00">fb8s_delay_n_end</text>
</g>
<!-- UpSamp_pop_1_push_8_94&#45;&gt;Delay_N_initPop_0_initPush_31_pop_8_push_8_95 -->
<g id="edge56" class="edge">
<title>UpSamp_pop_1_push_8_94&#45;&gt;Delay_N_initPop_0_initPush_31_pop_8_push_8_95</title>
<path fill="none" stroke="black" d="M1560.59,-359.7C1560.48,-351.98 1560.35,-342.71 1560.23,-334.11"/>
<polygon fill="black" stroke="black" points="1563.73,-334.05 1560.09,-324.1 1556.73,-334.15 1563.73,-334.05"/>
</g>
<!-- FirFilter_pop_8_peek_32_push_8_96 -->
<g id="node53" class="node">
<title>FirFilter_pop_8_peek_32_push_8_96</title>
<ellipse fill="none" stroke="black" cx="1540.84" cy="-234" rx="81.49" ry="18"/>
<text text-anchor="middle" x="1540.84" y="-230.3" font-family="Times,serif" font-size="14.00">fb8s_fir_filter_f</text>
</g>
<!-- Delay_N_initPop_0_initPush_31_pop_8_push_8_95&#45;&gt;FirFilter_pop_8_peek_32_push_8_96 -->
<g id="edge57" class="edge">
<title>Delay_N_initPop_0_initPush_31_pop_8_push_8_95&#45;&gt;FirFilter_pop_8_peek_32_push_8_96</title>
<path fill="none" stroke="black" d="M1555.14,-287.7C1553.03,-279.9 1550.48,-270.51 1548.12,-261.83"/>
<polygon fill="black" stroke="black" points="1551.48,-260.84 1545.48,-252.1 1544.73,-262.67 1551.48,-260.84"/>
</g>
<!-- FirFilter_pop_8_peek_32_push_8_96&#45;&gt;Branches_4_join -->
<g id="edge59" class="edge">
<title>FirFilter_pop_8_peek_32_push_8_96&#45;&gt;Branches_4_join</title>
<path fill="none" stroke="black" d="M1477.28,-222.76C1461.18,-220.35 1443.89,-217.93 1427.84,-216 1262.12,-196.07 1069.26,-180.02 951.14,-171"/>
<polygon fill="black" stroke="black" points="951.24,-167.49 941,-170.23 950.71,-174.47 951.24,-167.49"/>
</g>
</g>
</svg>
