<?xml version="1.0" encoding="UTF-8" standalone="no"?>
<!DOCTYPE svg PUBLIC "-//W3C//DTD SVG 1.1//EN"
 "http://www.w3.org/Graphics/SVG/1.1/DTD/svg11.dtd">
<!-- Generated by graphviz version 2.43.0 (0)
 -->
<!-- Title: FilterBankNew_141 Pages: 1 -->
<svg width="1438pt" height="764pt"
 viewBox="0.00 0.00 1438.44 764.00" xmlns="http://www.w3.org/2000/svg" xmlns:xlink="http://www.w3.org/1999/xlink">
<g id="graph0" class="graph" transform="scale(1 1) rotate(0) translate(4 760)">
<title>FilterBankNew_141</title>
<polygon fill="white" stroke="transparent" points="-4,4 -4,-760 1434.44,-760 1434.44,4 -4,4"/>
<!-- node0 -->
<g id="node1" class="node">
<title>node0</title>
<ellipse fill="none" stroke="black" cx="697.29" cy="-738" rx="57.69" ry="18"/>
<text text-anchor="middle" x="697.29" y="-734.3" font-family="Times,serif" font-size="14.00">source_61</text>
</g>
<!-- node1 -->
<g id="node2" class="node">
<title>node1</title>
<ellipse fill="none" stroke="black" cx="697.29" cy="-666" rx="129.18" ry="18"/>
<text text-anchor="middle" x="697.29" y="-662.3" font-family="Times,serif" font-size="14.00">DUPLICATE_Splitter_121</text>
</g>
<!-- node0&#45;&gt;node1 -->
<g id="edge1" class="edge">
<title>node0&#45;&gt;node1</title>
<path fill="none" stroke="black" d="M697.29,-719.7C697.29,-711.98 697.29,-702.71 697.29,-694.11"/>
<polygon fill="black" stroke="black" points="700.79,-694.1 697.29,-684.1 693.79,-694.1 700.79,-694.1"/>
</g>
<!-- node2 -->
<g id="node3" class="node">
<title>node2</title>
<ellipse fill="none" stroke="black" cx="126.29" cy="-594" rx="65.79" ry="18"/>
<text text-anchor="middle" x="126.29" y="-590.3" font-family="Times,serif" font-size="14.00">Delay_N_64</text>
</g>
<!-- node1&#45;&gt;node2 -->
<g id="edge2" class="edge">
<title>node1&#45;&gt;node2</title>
<path fill="none" stroke="black" d="M585.49,-656.79C484.63,-648.51 332.43,-633.79 201.29,-612 195.56,-611.05 189.6,-609.93 183.66,-608.72"/>
<polygon fill="black" stroke="black" points="184.25,-605.27 173.74,-606.63 182.8,-612.12 184.25,-605.27"/>
</g>
<!-- node8 -->
<g id="node9" class="node">
<title>node8</title>
<ellipse fill="none" stroke="black" cx="276.29" cy="-594" rx="65.79" ry="18"/>
<text text-anchor="middle" x="276.29" y="-590.3" font-family="Times,serif" font-size="14.00">Delay_N_71</text>
</g>
<!-- node1&#45;&gt;node8 -->
<g id="edge8" class="edge">
<title>node1&#45;&gt;node8</title>
<path fill="none" stroke="black" d="M617.65,-651.78C553.12,-641.06 459.84,-625.57 378.29,-612 366.14,-609.98 353.16,-607.82 340.69,-605.74"/>
<polygon fill="black" stroke="black" points="341.25,-602.28 330.82,-604.09 340.1,-609.19 341.25,-602.28"/>
</g>
<!-- node14 -->
<g id="node15" class="node">
<title>node14</title>
<ellipse fill="none" stroke="black" cx="453.29" cy="-594" rx="65.79" ry="18"/>
<text text-anchor="middle" x="453.29" y="-590.3" font-family="Times,serif" font-size="14.00">Delay_N_78</text>
</g>
<!-- node1&#45;&gt;node14 -->
<g id="edge14" class="edge">
<title>node1&#45;&gt;node14</title>
<path fill="none" stroke="black" d="M643.44,-649.55C602.73,-637.87 547.12,-621.92 506.55,-610.28"/>
<polygon fill="black" stroke="black" points="507.42,-606.89 496.84,-607.49 505.49,-613.61 507.42,-606.89"/>
</g>
<!-- node20 -->
<g id="node21" class="node">
<title>node20</title>
<ellipse fill="none" stroke="black" cx="623.29" cy="-594" rx="65.79" ry="18"/>
<text text-anchor="middle" x="623.29" y="-590.3" font-family="Times,serif" font-size="14.00">Delay_N_85</text>
</g>
<!-- node1&#45;&gt;node20 -->
<g id="edge20" class="edge">
<title>node1&#45;&gt;node20</title>
<path fill="none" stroke="black" d="M679.38,-648.05C670.04,-639.22 658.47,-628.27 648.26,-618.62"/>
<polygon fill="black" stroke="black" points="650.46,-615.88 640.79,-611.55 645.65,-620.96 650.46,-615.88"/>
</g>
<!-- node26 -->
<g id="node27" class="node">
<title>node26</title>
<ellipse fill="none" stroke="black" cx="773.29" cy="-594" rx="65.79" ry="18"/>
<text text-anchor="middle" x="773.29" y="-590.3" font-family="Times,serif" font-size="14.00">Delay_N_92</text>
</g>
<!-- node1&#45;&gt;node26 -->
<g id="edge26" class="edge">
<title>node1&#45;&gt;node26</title>
<path fill="none" stroke="black" d="M715.69,-648.05C725.38,-639.13 737.4,-628.06 747.96,-618.34"/>
<polygon fill="black" stroke="black" points="750.34,-620.9 755.33,-611.55 745.6,-615.75 750.34,-620.9"/>
</g>
<!-- node32 -->
<g id="node33" class="node">
<title>node32</title>
<ellipse fill="none" stroke="black" cx="926.29" cy="-594" rx="65.79" ry="18"/>
<text text-anchor="middle" x="926.29" y="-590.3" font-family="Times,serif" font-size="14.00">Delay_N_99</text>
</g>
<!-- node1&#45;&gt;node32 -->
<g id="edge32" class="edge">
<title>node1&#45;&gt;node32</title>
<path fill="none" stroke="black" d="M748.4,-649.38C785.91,-637.91 836.68,-622.39 874.38,-610.87"/>
<polygon fill="black" stroke="black" points="875.61,-614.15 884.15,-607.88 873.57,-607.46 875.61,-614.15"/>
</g>
<!-- node38 -->
<g id="node39" class="node">
<title>node38</title>
<ellipse fill="none" stroke="black" cx="1086.29" cy="-594" rx="71.49" ry="18"/>
<text text-anchor="middle" x="1086.29" y="-590.3" font-family="Times,serif" font-size="14.00">Delay_N_106</text>
</g>
<!-- node1&#45;&gt;node38 -->
<g id="edge38" class="edge">
<title>node1&#45;&gt;node38</title>
<path fill="none" stroke="black" d="M776.44,-651.75C837.85,-641.34 925.07,-626.26 1001.29,-612 1008.05,-610.74 1015.1,-609.38 1022.13,-608.01"/>
<polygon fill="black" stroke="black" points="1023.24,-611.36 1032.37,-605.99 1021.89,-604.49 1023.24,-611.36"/>
</g>
<!-- node44 -->
<g id="node45" class="node">
<title>node44</title>
<ellipse fill="none" stroke="black" cx="1250.29" cy="-594" rx="71.49" ry="18"/>
<text text-anchor="middle" x="1250.29" y="-590.3" font-family="Times,serif" font-size="14.00">Delay_N_113</text>
</g>
<!-- node1&#45;&gt;node44 -->
<g id="edge44" class="edge">
<title>node1&#45;&gt;node44</title>
<path fill="none" stroke="black" d="M803.35,-655.68C898.64,-646.67 1042.24,-631.52 1166.29,-612 1173.37,-610.89 1180.75,-609.59 1188.07,-608.22"/>
<polygon fill="black" stroke="black" points="1188.83,-611.64 1197.99,-606.32 1187.51,-604.77 1188.83,-611.64"/>
</g>
<!-- node3 -->
<g id="node4" class="node">
<title>node3</title>
<ellipse fill="none" stroke="black" cx="105.29" cy="-522" rx="66.09" ry="18"/>
<text text-anchor="middle" x="105.29" y="-518.3" font-family="Times,serif" font-size="14.00">FirFilter_65</text>
</g>
<!-- node2&#45;&gt;node3 -->
<g id="edge3" class="edge">
<title>node2&#45;&gt;node3</title>
<path fill="none" stroke="black" d="M121.1,-575.7C118.76,-567.9 115.95,-558.51 113.34,-549.83"/>
<polygon fill="black" stroke="black" points="116.65,-548.68 110.42,-540.1 109.95,-550.69 116.65,-548.68"/>
</g>
<!-- node4 -->
<g id="node5" class="node">
<title>node4</title>
<ellipse fill="none" stroke="black" cx="79.29" cy="-450" rx="79.09" ry="18"/>
<text text-anchor="middle" x="79.29" y="-446.3" font-family="Times,serif" font-size="14.00">DownSamp_66</text>
</g>
<!-- node3&#45;&gt;node4 -->
<g id="edge4" class="edge">
<title>node3&#45;&gt;node4</title>
<path fill="none" stroke="black" d="M99,-504.05C96.07,-496.18 92.52,-486.62 89.25,-477.79"/>
<polygon fill="black" stroke="black" points="92.47,-476.43 85.71,-468.28 85.91,-478.87 92.47,-476.43"/>
</g>
<!-- node5 -->
<g id="node6" class="node">
<title>node5</title>
<ellipse fill="none" stroke="black" cx="96.29" cy="-378" rx="66.89" ry="18"/>
<text text-anchor="middle" x="96.29" y="-374.3" font-family="Times,serif" font-size="14.00">UpSamp_67</text>
</g>
<!-- node4&#45;&gt;node5 -->
<g id="edge5" class="edge">
<title>node4&#45;&gt;node5</title>
<path fill="none" stroke="black" d="M83.5,-431.7C85.39,-423.9 87.67,-414.51 89.78,-405.83"/>
<polygon fill="black" stroke="black" points="93.18,-406.65 92.14,-396.1 86.38,-405 93.18,-406.65"/>
</g>
<!-- node6 -->
<g id="node7" class="node">
<title>node6</title>
<ellipse fill="none" stroke="black" cx="97.29" cy="-306" rx="65.79" ry="18"/>
<text text-anchor="middle" x="97.29" y="-302.3" font-family="Times,serif" font-size="14.00">Delay_N_68</text>
</g>
<!-- node5&#45;&gt;node6 -->
<g id="edge6" class="edge">
<title>node5&#45;&gt;node6</title>
<path fill="none" stroke="black" d="M96.54,-359.7C96.65,-351.98 96.78,-342.71 96.91,-334.11"/>
<polygon fill="black" stroke="black" points="100.41,-334.15 97.05,-324.1 93.41,-334.05 100.41,-334.15"/>
</g>
<!-- node7 -->
<g id="node8" class="node">
<title>node7</title>
<ellipse fill="none" stroke="black" cx="110.29" cy="-234" rx="66.09" ry="18"/>
<text text-anchor="middle" x="110.29" y="-230.3" font-family="Times,serif" font-size="14.00">FirFilter_69</text>
</g>
<!-- node6&#45;&gt;node7 -->
<g id="edge7" class="edge">
<title>node6&#45;&gt;node7</title>
<path fill="none" stroke="black" d="M100.51,-287.7C101.94,-279.98 103.66,-270.71 105.26,-262.11"/>
<polygon fill="black" stroke="black" points="108.73,-262.58 107.12,-252.1 101.85,-261.3 108.73,-262.58"/>
</g>
<!-- node50 -->
<g id="node51" class="node">
<title>node50</title>
<ellipse fill="none" stroke="black" cx="701.29" cy="-162" rx="196.87" ry="18"/>
<text text-anchor="middle" x="701.29" y="-158.3" font-family="Times,serif" font-size="14.00">WEIGHTED_ROUND_ROBIN_Joiner_122</text>
</g>
<!-- node7&#45;&gt;node50 -->
<g id="edge50" class="edge">
<title>node7&#45;&gt;node50</title>
<path fill="none" stroke="black" d="M165.84,-224.02C183.54,-221.29 203.22,-218.38 221.29,-216 336.19,-200.86 466.96,-186.62 562.96,-176.72"/>
<polygon fill="black" stroke="black" points="563.43,-180.19 573.02,-175.69 562.71,-173.23 563.43,-180.19"/>
</g>
<!-- node9 -->
<g id="node10" class="node">
<title>node9</title>
<ellipse fill="none" stroke="black" cx="269.29" cy="-522" rx="66.09" ry="18"/>
<text text-anchor="middle" x="269.29" y="-518.3" font-family="Times,serif" font-size="14.00">FirFilter_72</text>
</g>
<!-- node8&#45;&gt;node9 -->
<g id="edge9" class="edge">
<title>node8&#45;&gt;node9</title>
<path fill="none" stroke="black" d="M274.56,-575.7C273.79,-567.98 272.86,-558.71 272,-550.11"/>
<polygon fill="black" stroke="black" points="275.48,-549.71 271,-540.1 268.52,-550.4 275.48,-549.71"/>
</g>
<!-- node10 -->
<g id="node11" class="node">
<title>node10</title>
<ellipse fill="none" stroke="black" cx="256.29" cy="-450" rx="79.09" ry="18"/>
<text text-anchor="middle" x="256.29" y="-446.3" font-family="Times,serif" font-size="14.00">DownSamp_73</text>
</g>
<!-- node9&#45;&gt;node10 -->
<g id="edge10" class="edge">
<title>node9&#45;&gt;node10</title>
<path fill="none" stroke="black" d="M266.08,-503.7C264.65,-495.98 262.93,-486.71 261.33,-478.11"/>
<polygon fill="black" stroke="black" points="264.74,-477.3 259.47,-468.1 257.85,-478.58 264.74,-477.3"/>
</g>
<!-- node11 -->
<g id="node12" class="node">
<title>node11</title>
<ellipse fill="none" stroke="black" cx="260.29" cy="-378" rx="66.89" ry="18"/>
<text text-anchor="middle" x="260.29" y="-374.3" font-family="Times,serif" font-size="14.00">UpSamp_74</text>
</g>
<!-- node10&#45;&gt;node11 -->
<g id="edge11" class="edge">
<title>node10&#45;&gt;node11</title>
<path fill="none" stroke="black" d="M257.28,-431.7C257.72,-423.98 258.25,-414.71 258.74,-406.11"/>
<polygon fill="black" stroke="black" points="262.24,-406.29 259.32,-396.1 255.25,-405.89 262.24,-406.29"/>
</g>
<!-- node12 -->
<g id="node13" class="node">
<title>node12</title>
<ellipse fill="none" stroke="black" cx="274.29" cy="-306" rx="65.79" ry="18"/>
<text text-anchor="middle" x="274.29" y="-302.3" font-family="Times,serif" font-size="14.00">Delay_N_75</text>
</g>
<!-- node11&#45;&gt;node12 -->
<g id="edge12" class="edge">
<title>node11&#45;&gt;node12</title>
<path fill="none" stroke="black" d="M263.75,-359.7C265.3,-351.98 267.15,-342.71 268.87,-334.11"/>
<polygon fill="black" stroke="black" points="272.34,-334.6 270.87,-324.1 265.48,-333.22 272.34,-334.6"/>
</g>
<!-- node13 -->
<g id="node14" class="node">
<title>node13</title>
<ellipse fill="none" stroke="black" cx="296.29" cy="-234" rx="66.09" ry="18"/>
<text text-anchor="middle" x="296.29" y="-230.3" font-family="Times,serif" font-size="14.00">FirFilter_76</text>
</g>
<!-- node12&#45;&gt;node13 -->
<g id="edge13" class="edge">
<title>node12&#45;&gt;node13</title>
<path fill="none" stroke="black" d="M279.62,-288.05C282.07,-280.26 285.03,-270.82 287.78,-262.08"/>
<polygon fill="black" stroke="black" points="291.2,-262.86 290.86,-252.28 284.53,-260.77 291.2,-262.86"/>
</g>
<!-- node13&#45;&gt;node50 -->
<g id="edge51" class="edge">
<title>node13&#45;&gt;node50</title>
<path fill="none" stroke="black" d="M349.39,-223.18C362.43,-220.8 376.36,-218.28 389.29,-216 460.02,-203.53 539.87,-189.97 601.09,-179.69"/>
<polygon fill="black" stroke="black" points="601.85,-183.12 611.13,-178.01 600.69,-176.21 601.85,-183.12"/>
</g>
<!-- node15 -->
<g id="node16" class="node">
<title>node15</title>
<ellipse fill="none" stroke="black" cx="446.29" cy="-522" rx="66.09" ry="18"/>
<text text-anchor="middle" x="446.29" y="-518.3" font-family="Times,serif" font-size="14.00">FirFilter_79</text>
</g>
<!-- node14&#45;&gt;node15 -->
<g id="edge15" class="edge">
<title>node14&#45;&gt;node15</title>
<path fill="none" stroke="black" d="M451.56,-575.7C450.79,-567.98 449.86,-558.71 449,-550.11"/>
<polygon fill="black" stroke="black" points="452.48,-549.71 448,-540.1 445.52,-550.4 452.48,-549.71"/>
</g>
<!-- node16 -->
<g id="node17" class="node">
<title>node16</title>
<ellipse fill="none" stroke="black" cx="433.29" cy="-450" rx="79.09" ry="18"/>
<text text-anchor="middle" x="433.29" y="-446.3" font-family="Times,serif" font-size="14.00">DownSamp_80</text>
</g>
<!-- node15&#45;&gt;node16 -->
<g id="edge16" class="edge">
<title>node15&#45;&gt;node16</title>
<path fill="none" stroke="black" d="M443.08,-503.7C441.65,-495.98 439.93,-486.71 438.33,-478.11"/>
<polygon fill="black" stroke="black" points="441.74,-477.3 436.47,-468.1 434.85,-478.58 441.74,-477.3"/>
</g>
<!-- node17 -->
<g id="node18" class="node">
<title>node17</title>
<ellipse fill="none" stroke="black" cx="439.29" cy="-378" rx="66.89" ry="18"/>
<text text-anchor="middle" x="439.29" y="-374.3" font-family="Times,serif" font-size="14.00">UpSamp_81</text>
</g>
<!-- node16&#45;&gt;node17 -->
<g id="edge17" class="edge">
<title>node16&#45;&gt;node17</title>
<path fill="none" stroke="black" d="M434.78,-431.7C435.44,-423.98 436.23,-414.71 436.97,-406.11"/>
<polygon fill="black" stroke="black" points="440.46,-406.37 437.83,-396.1 433.49,-405.77 440.46,-406.37"/>
</g>
<!-- node18 -->
<g id="node19" class="node">
<title>node18</title>
<ellipse fill="none" stroke="black" cx="450.29" cy="-306" rx="65.79" ry="18"/>
<text text-anchor="middle" x="450.29" y="-302.3" font-family="Times,serif" font-size="14.00">Delay_N_82</text>
</g>
<!-- node17&#45;&gt;node18 -->
<g id="edge18" class="edge">
<title>node17&#45;&gt;node18</title>
<path fill="none" stroke="black" d="M442.01,-359.7C443.22,-351.98 444.68,-342.71 446.03,-334.11"/>
<polygon fill="black" stroke="black" points="449.51,-334.53 447.61,-324.1 442.6,-333.44 449.51,-334.53"/>
</g>
<!-- node19 -->
<g id="node20" class="node">
<title>node19</title>
<ellipse fill="none" stroke="black" cx="464.29" cy="-234" rx="66.09" ry="18"/>
<text text-anchor="middle" x="464.29" y="-230.3" font-family="Times,serif" font-size="14.00">FirFilter_83</text>
</g>
<!-- node18&#45;&gt;node19 -->
<g id="edge19" class="edge">
<title>node18&#45;&gt;node19</title>
<path fill="none" stroke="black" d="M453.75,-287.7C455.3,-279.98 457.15,-270.71 458.87,-262.11"/>
<polygon fill="black" stroke="black" points="462.34,-262.6 460.87,-252.1 455.48,-261.22 462.34,-262.6"/>
</g>
<!-- node19&#45;&gt;node50 -->
<g id="edge52" class="edge">
<title>node19&#45;&gt;node50</title>
<path fill="none" stroke="black" d="M507.49,-220.24C543.46,-209.62 595.23,-194.33 636.22,-182.22"/>
<polygon fill="black" stroke="black" points="637.26,-185.56 645.85,-179.37 635.27,-178.85 637.26,-185.56"/>
</g>
<!-- node21 -->
<g id="node22" class="node">
<title>node21</title>
<ellipse fill="none" stroke="black" cx="616.29" cy="-522" rx="66.09" ry="18"/>
<text text-anchor="middle" x="616.29" y="-518.3" font-family="Times,serif" font-size="14.00">FirFilter_86</text>
</g>
<!-- node20&#45;&gt;node21 -->
<g id="edge21" class="edge">
<title>node20&#45;&gt;node21</title>
<path fill="none" stroke="black" d="M621.56,-575.7C620.79,-567.98 619.86,-558.71 619,-550.11"/>
<polygon fill="black" stroke="black" points="622.48,-549.71 618,-540.1 615.52,-550.4 622.48,-549.71"/>
</g>
<!-- node22 -->
<g id="node23" class="node">
<title>node22</title>
<ellipse fill="none" stroke="black" cx="610.29" cy="-450" rx="79.09" ry="18"/>
<text text-anchor="middle" x="610.29" y="-446.3" font-family="Times,serif" font-size="14.00">DownSamp_87</text>
</g>
<!-- node21&#45;&gt;node22 -->
<g id="edge22" class="edge">
<title>node21&#45;&gt;node22</title>
<path fill="none" stroke="black" d="M614.81,-503.7C614.15,-495.98 613.35,-486.71 612.62,-478.11"/>
<polygon fill="black" stroke="black" points="616.1,-477.77 611.76,-468.1 609.13,-478.37 616.1,-477.77"/>
</g>
<!-- node23 -->
<g id="node24" class="node">
<title>node23</title>
<ellipse fill="none" stroke="black" cx="616.29" cy="-378" rx="66.89" ry="18"/>
<text text-anchor="middle" x="616.29" y="-374.3" font-family="Times,serif" font-size="14.00">UpSamp_88</text>
</g>
<!-- node22&#45;&gt;node23 -->
<g id="edge23" class="edge">
<title>node22&#45;&gt;node23</title>
<path fill="none" stroke="black" d="M611.78,-431.7C612.44,-423.98 613.23,-414.71 613.97,-406.11"/>
<polygon fill="black" stroke="black" points="617.46,-406.37 614.83,-396.1 610.49,-405.77 617.46,-406.37"/>
</g>
<!-- node24 -->
<g id="node25" class="node">
<title>node24</title>
<ellipse fill="none" stroke="black" cx="618.29" cy="-306" rx="65.79" ry="18"/>
<text text-anchor="middle" x="618.29" y="-302.3" font-family="Times,serif" font-size="14.00">Delay_N_89</text>
</g>
<!-- node23&#45;&gt;node24 -->
<g id="edge24" class="edge">
<title>node23&#45;&gt;node24</title>
<path fill="none" stroke="black" d="M616.79,-359.7C617.01,-351.98 617.27,-342.71 617.52,-334.11"/>
<polygon fill="black" stroke="black" points="621.02,-334.2 617.8,-324.1 614.02,-334 621.02,-334.2"/>
</g>
<!-- node25 -->
<g id="node26" class="node">
<title>node25</title>
<ellipse fill="none" stroke="black" cx="624.29" cy="-234" rx="66.09" ry="18"/>
<text text-anchor="middle" x="624.29" y="-230.3" font-family="Times,serif" font-size="14.00">FirFilter_90</text>
</g>
<!-- node24&#45;&gt;node25 -->
<g id="edge25" class="edge">
<title>node24&#45;&gt;node25</title>
<path fill="none" stroke="black" d="M619.78,-287.7C620.44,-279.98 621.23,-270.71 621.97,-262.11"/>
<polygon fill="black" stroke="black" points="625.46,-262.37 622.83,-252.1 618.49,-261.77 625.46,-262.37"/>
</g>
<!-- node25&#45;&gt;node50 -->
<g id="edge53" class="edge">
<title>node25&#45;&gt;node50</title>
<path fill="none" stroke="black" d="M642.54,-216.41C652.27,-207.56 664.42,-196.52 675.14,-186.77"/>
<polygon fill="black" stroke="black" points="677.6,-189.27 682.64,-179.96 672.89,-184.09 677.6,-189.27"/>
</g>
<!-- node27 -->
<g id="node28" class="node">
<title>node27</title>
<ellipse fill="none" stroke="black" cx="780.29" cy="-522" rx="66.09" ry="18"/>
<text text-anchor="middle" x="780.29" y="-518.3" font-family="Times,serif" font-size="14.00">FirFilter_93</text>
</g>
<!-- node26&#45;&gt;node27 -->
<g id="edge27" class="edge">
<title>node26&#45;&gt;node27</title>
<path fill="none" stroke="black" d="M775.02,-575.7C775.79,-567.98 776.72,-558.71 777.58,-550.11"/>
<polygon fill="black" stroke="black" points="781.07,-550.4 778.58,-540.1 774.1,-549.71 781.07,-550.4"/>
</g>
<!-- node28 -->
<g id="node29" class="node">
<title>node28</title>
<ellipse fill="none" stroke="black" cx="787.29" cy="-450" rx="79.09" ry="18"/>
<text text-anchor="middle" x="787.29" y="-446.3" font-family="Times,serif" font-size="14.00">DownSamp_94</text>
</g>
<!-- node27&#45;&gt;node28 -->
<g id="edge28" class="edge">
<title>node27&#45;&gt;node28</title>
<path fill="none" stroke="black" d="M782.02,-503.7C782.79,-495.98 783.72,-486.71 784.58,-478.11"/>
<polygon fill="black" stroke="black" points="788.07,-478.4 785.58,-468.1 781.1,-477.71 788.07,-478.4"/>
</g>
<!-- node29 -->
<g id="node30" class="node">
<title>node29</title>
<ellipse fill="none" stroke="black" cx="780.29" cy="-378" rx="66.89" ry="18"/>
<text text-anchor="middle" x="780.29" y="-374.3" font-family="Times,serif" font-size="14.00">UpSamp_95</text>
</g>
<!-- node28&#45;&gt;node29 -->
<g id="edge29" class="edge">
<title>node28&#45;&gt;node29</title>
<path fill="none" stroke="black" d="M785.56,-431.7C784.79,-423.98 783.86,-414.71 783,-406.11"/>
<polygon fill="black" stroke="black" points="786.48,-405.71 782,-396.1 779.52,-406.4 786.48,-405.71"/>
</g>
<!-- node30 -->
<g id="node31" class="node">
<title>node30</title>
<ellipse fill="none" stroke="black" cx="779.29" cy="-306" rx="65.79" ry="18"/>
<text text-anchor="middle" x="779.29" y="-302.3" font-family="Times,serif" font-size="14.00">Delay_N_96</text>
</g>
<!-- node29&#45;&gt;node30 -->
<g id="edge30" class="edge">
<title>node29&#45;&gt;node30</title>
<path fill="none" stroke="black" d="M780.05,-359.7C779.94,-351.98 779.8,-342.71 779.68,-334.11"/>
<polygon fill="black" stroke="black" points="783.18,-334.05 779.54,-324.1 776.18,-334.15 783.18,-334.05"/>
</g>
<!-- node31 -->
<g id="node32" class="node">
<title>node31</title>
<ellipse fill="none" stroke="black" cx="778.29" cy="-234" rx="66.09" ry="18"/>
<text text-anchor="middle" x="778.29" y="-230.3" font-family="Times,serif" font-size="14.00">FirFilter_97</text>
</g>
<!-- node30&#45;&gt;node31 -->
<g id="edge31" class="edge">
<title>node30&#45;&gt;node31</title>
<path fill="none" stroke="black" d="M779.05,-287.7C778.94,-279.98 778.8,-270.71 778.68,-262.11"/>
<polygon fill="black" stroke="black" points="782.18,-262.05 778.54,-252.1 775.18,-262.15 782.18,-262.05"/>
</g>
<!-- node31&#45;&gt;node50 -->
<g id="edge54" class="edge">
<title>node31&#45;&gt;node50</title>
<path fill="none" stroke="black" d="M760.05,-216.41C750.31,-207.56 738.16,-196.52 727.44,-186.77"/>
<polygon fill="black" stroke="black" points="729.7,-184.09 719.94,-179.96 724.99,-189.27 729.7,-184.09"/>
</g>
<!-- node33 -->
<g id="node34" class="node">
<title>node33</title>
<ellipse fill="none" stroke="black" cx="955.29" cy="-522" rx="72.29" ry="18"/>
<text text-anchor="middle" x="955.29" y="-518.3" font-family="Times,serif" font-size="14.00">FirFilter_100</text>
</g>
<!-- node32&#45;&gt;node33 -->
<g id="edge33" class="edge">
<title>node32&#45;&gt;node33</title>
<path fill="none" stroke="black" d="M933.31,-576.05C936.58,-568.18 940.54,-558.62 944.19,-549.79"/>
<polygon fill="black" stroke="black" points="947.54,-550.85 948.14,-540.28 941.08,-548.17 947.54,-550.85"/>
</g>
<!-- node34 -->
<g id="node35" class="node">
<title>node34</title>
<ellipse fill="none" stroke="black" cx="969.29" cy="-450" rx="85.29" ry="18"/>
<text text-anchor="middle" x="969.29" y="-446.3" font-family="Times,serif" font-size="14.00">DownSamp_101</text>
</g>
<!-- node33&#45;&gt;node34 -->
<g id="edge34" class="edge">
<title>node33&#45;&gt;node34</title>
<path fill="none" stroke="black" d="M958.75,-503.7C960.3,-495.98 962.15,-486.71 963.87,-478.11"/>
<polygon fill="black" stroke="black" points="967.34,-478.6 965.87,-468.1 960.48,-477.22 967.34,-478.6"/>
</g>
<!-- node35 -->
<g id="node36" class="node">
<title>node35</title>
<ellipse fill="none" stroke="black" cx="956.29" cy="-378" rx="72.59" ry="18"/>
<text text-anchor="middle" x="956.29" y="-374.3" font-family="Times,serif" font-size="14.00">UpSamp_102</text>
</g>
<!-- node34&#45;&gt;node35 -->
<g id="edge35" class="edge">
<title>node34&#45;&gt;node35</title>
<path fill="none" stroke="black" d="M966.08,-431.7C964.65,-423.98 962.93,-414.71 961.33,-406.11"/>
<polygon fill="black" stroke="black" points="964.74,-405.3 959.47,-396.1 957.85,-406.58 964.74,-405.3"/>
</g>
<!-- node36 -->
<g id="node37" class="node">
<title>node36</title>
<ellipse fill="none" stroke="black" cx="951.29" cy="-306" rx="71.49" ry="18"/>
<text text-anchor="middle" x="951.29" y="-302.3" font-family="Times,serif" font-size="14.00">Delay_N_103</text>
</g>
<!-- node35&#45;&gt;node36 -->
<g id="edge36" class="edge">
<title>node35&#45;&gt;node36</title>
<path fill="none" stroke="black" d="M955.06,-359.7C954.51,-351.98 953.84,-342.71 953.23,-334.11"/>
<polygon fill="black" stroke="black" points="956.72,-333.83 952.51,-324.1 949.74,-334.33 956.72,-333.83"/>
</g>
<!-- node37 -->
<g id="node38" class="node">
<title>node37</title>
<ellipse fill="none" stroke="black" cx="946.29" cy="-234" rx="72.29" ry="18"/>
<text text-anchor="middle" x="946.29" y="-230.3" font-family="Times,serif" font-size="14.00">FirFilter_104</text>
</g>
<!-- node36&#45;&gt;node37 -->
<g id="edge37" class="edge">
<title>node36&#45;&gt;node37</title>
<path fill="none" stroke="black" d="M950.06,-287.7C949.51,-279.98 948.84,-270.71 948.23,-262.11"/>
<polygon fill="black" stroke="black" points="951.72,-261.83 947.51,-252.1 944.74,-262.33 951.72,-261.83"/>
</g>
<!-- node37&#45;&gt;node50 -->
<g id="edge55" class="edge">
<title>node37&#45;&gt;node50</title>
<path fill="none" stroke="black" d="M900.78,-220C863.43,-209.32 810,-194.06 767.84,-182.01"/>
<polygon fill="black" stroke="black" points="768.78,-178.64 758.2,-179.26 766.86,-185.37 768.78,-178.64"/>
</g>
<!-- node39 -->
<g id="node40" class="node">
<title>node39</title>
<ellipse fill="none" stroke="black" cx="1140.29" cy="-522" rx="72.29" ry="18"/>
<text text-anchor="middle" x="1140.29" y="-518.3" font-family="Times,serif" font-size="14.00">FirFilter_107</text>
</g>
<!-- node38&#45;&gt;node39 -->
<g id="edge39" class="edge">
<title>node38&#45;&gt;node39</title>
<path fill="none" stroke="black" d="M1099.36,-576.05C1105.87,-567.63 1113.85,-557.28 1121.03,-547.97"/>
<polygon fill="black" stroke="black" points="1124,-549.84 1127.34,-539.79 1118.46,-545.57 1124,-549.84"/>
</g>
<!-- node40 -->
<g id="node41" class="node">
<title>node40</title>
<ellipse fill="none" stroke="black" cx="1157.29" cy="-450" rx="85.29" ry="18"/>
<text text-anchor="middle" x="1157.29" y="-446.3" font-family="Times,serif" font-size="14.00">DownSamp_108</text>
</g>
<!-- node39&#45;&gt;node40 -->
<g id="edge40" class="edge">
<title>node39&#45;&gt;node40</title>
<path fill="none" stroke="black" d="M1144.5,-503.7C1146.39,-495.9 1148.67,-486.51 1150.78,-477.83"/>
<polygon fill="black" stroke="black" points="1154.18,-478.65 1153.14,-468.1 1147.38,-477 1154.18,-478.65"/>
</g>
<!-- node41 -->
<g id="node42" class="node">
<title>node41</title>
<ellipse fill="none" stroke="black" cx="1141.29" cy="-378" rx="72.59" ry="18"/>
<text text-anchor="middle" x="1141.29" y="-374.3" font-family="Times,serif" font-size="14.00">UpSamp_109</text>
</g>
<!-- node40&#45;&gt;node41 -->
<g id="edge41" class="edge">
<title>node40&#45;&gt;node41</title>
<path fill="none" stroke="black" d="M1153.34,-431.7C1151.57,-423.98 1149.46,-414.71 1147.49,-406.11"/>
<polygon fill="black" stroke="black" points="1150.84,-405.07 1145.2,-396.1 1144.02,-406.63 1150.84,-405.07"/>
</g>
<!-- node42 -->
<g id="node43" class="node">
<title>node42</title>
<ellipse fill="none" stroke="black" cx="1133.29" cy="-306" rx="71.49" ry="18"/>
<text text-anchor="middle" x="1133.29" y="-302.3" font-family="Times,serif" font-size="14.00">Delay_N_110</text>
</g>
<!-- node41&#45;&gt;node42 -->
<g id="edge42" class="edge">
<title>node41&#45;&gt;node42</title>
<path fill="none" stroke="black" d="M1139.32,-359.7C1138.43,-351.98 1137.37,-342.71 1136.39,-334.11"/>
<polygon fill="black" stroke="black" points="1139.86,-333.64 1135.25,-324.1 1132.91,-334.44 1139.86,-333.64"/>
</g>
<!-- node43 -->
<g id="node44" class="node">
<title>node43</title>
<ellipse fill="none" stroke="black" cx="1125.29" cy="-234" rx="72.29" ry="18"/>
<text text-anchor="middle" x="1125.29" y="-230.3" font-family="Times,serif" font-size="14.00">FirFilter_111</text>
</g>
<!-- node42&#45;&gt;node43 -->
<g id="edge43" class="edge">
<title>node42&#45;&gt;node43</title>
<path fill="none" stroke="black" d="M1131.32,-287.7C1130.43,-279.98 1129.37,-270.71 1128.39,-262.11"/>
<polygon fill="black" stroke="black" points="1131.86,-261.64 1127.25,-252.1 1124.91,-262.44 1131.86,-261.64"/>
</g>
<!-- node43&#45;&gt;node50 -->
<g id="edge56" class="edge">
<title>node43&#45;&gt;node50</title>
<path fill="none" stroke="black" d="M1068.05,-222.96C1054.68,-220.65 1040.49,-218.22 1027.29,-216 952.82,-203.49 868.69,-189.82 804.55,-179.5"/>
<polygon fill="black" stroke="black" points="804.86,-176.01 794.43,-177.87 803.75,-182.92 804.86,-176.01"/>
</g>
<!-- node45 -->
<g id="node46" class="node">
<title>node45</title>
<ellipse fill="none" stroke="black" cx="1326.29" cy="-522" rx="72.29" ry="18"/>
<text text-anchor="middle" x="1326.29" y="-518.3" font-family="Times,serif" font-size="14.00">FirFilter_114</text>
</g>
<!-- node44&#45;&gt;node45 -->
<g id="edge45" class="edge">
<title>node44&#45;&gt;node45</title>
<path fill="none" stroke="black" d="M1268.3,-576.41C1278.05,-567.43 1290.26,-556.19 1300.95,-546.34"/>
<polygon fill="black" stroke="black" points="1303.43,-548.82 1308.41,-539.47 1298.68,-543.67 1303.43,-548.82"/>
</g>
<!-- node46 -->
<g id="node47" class="node">
<title>node46</title>
<ellipse fill="none" stroke="black" cx="1345.29" cy="-450" rx="85.29" ry="18"/>
<text text-anchor="middle" x="1345.29" y="-446.3" font-family="Times,serif" font-size="14.00">DownSamp_115</text>
</g>
<!-- node45&#45;&gt;node46 -->
<g id="edge46" class="edge">
<title>node45&#45;&gt;node46</title>
<path fill="none" stroke="black" d="M1330.99,-503.7C1333.11,-495.9 1335.65,-486.51 1338.01,-477.83"/>
<polygon fill="black" stroke="black" points="1341.41,-478.67 1340.65,-468.1 1334.65,-476.84 1341.41,-478.67"/>
</g>
<!-- node47 -->
<g id="node48" class="node">
<title>node47</title>
<ellipse fill="none" stroke="black" cx="1328.29" cy="-378" rx="72.59" ry="18"/>
<text text-anchor="middle" x="1328.29" y="-374.3" font-family="Times,serif" font-size="14.00">UpSamp_116</text>
</g>
<!-- node46&#45;&gt;node47 -->
<g id="edge47" class="edge">
<title>node46&#45;&gt;node47</title>
<path fill="none" stroke="black" d="M1341.09,-431.7C1339.2,-423.9 1336.92,-414.51 1334.81,-405.83"/>
<polygon fill="black" stroke="black" points="1338.21,-405 1332.45,-396.1 1331.41,-406.65 1338.21,-405"/>
</g>
<!-- node48 -->
<g id="node49" class="node">
<title>node48</title>
<ellipse fill="none" stroke="black" cx="1318.29" cy="-306" rx="71.49" ry="18"/>
<text text-anchor="middle" x="1318.29" y="-302.3" font-family="Times,serif" font-size="14.00">Delay_N_117</text>
</g>
<!-- node47&#45;&gt;node48 -->
<g id="edge48" class="edge">
<title>node47&#45;&gt;node48</title>
<path fill="none" stroke="black" d="M1325.82,-359.7C1324.72,-351.98 1323.39,-342.71 1322.17,-334.11"/>
<polygon fill="black" stroke="black" points="1325.62,-333.51 1320.74,-324.1 1318.69,-334.5 1325.62,-333.51"/>
</g>
<!-- node49 -->
<g id="node50" class="node">
<title>node49</title>
<ellipse fill="none" stroke="black" cx="1308.29" cy="-234" rx="72.29" ry="18"/>
<text text-anchor="middle" x="1308.29" y="-230.3" font-family="Times,serif" font-size="14.00">FirFilter_118</text>
</g>
<!-- node48&#45;&gt;node49 -->
<g id="edge49" class="edge">
<title>node48&#45;&gt;node49</title>
<path fill="none" stroke="black" d="M1315.82,-287.7C1314.72,-279.98 1313.39,-270.71 1312.17,-262.11"/>
<polygon fill="black" stroke="black" points="1315.62,-261.51 1310.74,-252.1 1308.69,-262.5 1315.62,-261.51"/>
</g>
<!-- node49&#45;&gt;node50 -->
<g id="edge57" class="edge">
<title>node49&#45;&gt;node50</title>
<path fill="none" stroke="black" d="M1251.47,-222.9C1236.78,-220.46 1220.97,-217.99 1206.29,-216 1085.72,-199.64 948.36,-185.51 847.36,-175.97"/>
<polygon fill="black" stroke="black" points="847.68,-172.48 837.4,-175.03 847.02,-179.45 847.68,-172.48"/>
</g>
<!-- node51 -->
<g id="node52" class="node">
<title>node51</title>
<ellipse fill="none" stroke="black" cx="701.29" cy="-90" rx="73.39" ry="18"/>
<text text-anchor="middle" x="701.29" y="-86.3" font-family="Times,serif" font-size="14.00">Combine_119</text>
</g>
<!-- node50&#45;&gt;node51 -->
<g id="edge58" class="edge">
<title>node50&#45;&gt;node51</title>
<path fill="none" stroke="black" d="M701.29,-143.7C701.29,-135.98 701.29,-126.71 701.29,-118.11"/>
<polygon fill="black" stroke="black" points="704.79,-118.1 701.29,-108.1 697.79,-118.1 704.79,-118.1"/>
</g>
<!-- node52 -->
<g id="node53" class="node">
<title>node52</title>
<ellipse fill="none" stroke="black" cx="701.29" cy="-18" rx="51.99" ry="18"/>
<text text-anchor="middle" x="701.29" y="-14.3" font-family="Times,serif" font-size="14.00">sink_120</text>
</g>
<!-- node51&#45;&gt;node52 -->
<g id="edge59" class="edge">
<title>node51&#45;&gt;node52</title>
<path fill="none" stroke="black" d="M701.29,-71.7C701.29,-63.98 701.29,-54.71 701.29,-46.11"/>
<polygon fill="black" stroke="black" points="704.79,-46.1 701.29,-36.1 697.79,-46.1 704.79,-46.1"/>
</g>
</g>
</svg>
