<?xml version="1.0" encoding="UTF-8" standalone="no"?>
<!DOCTYPE svg PUBLIC "-//W3C//DTD SVG 1.1//EN"
 "http://www.w3.org/Graphics/SVG/1.1/DTD/svg11.dtd">
<!-- Generated by graphviz version 2.43.0 (0)
 -->
<!-- Title: FilterBankNew_141 Pages: 1 -->
<svg width="1342pt" height="188pt"
 viewBox="0.00 0.00 1342.04 188.00" xmlns="http://www.w3.org/2000/svg" xmlns:xlink="http://www.w3.org/1999/xlink">
<g id="graph0" class="graph" transform="scale(1 1) rotate(0) translate(4 184)">
<title>FilterBankNew_141</title>
<polygon fill="white" stroke="transparent" points="-4,4 -4,-184 1338.04,-184 1338.04,4 -4,4"/>
<!-- node0 -->
<g id="node1" class="node">
<title>node0</title>
<ellipse fill="none" stroke="black" cx="655.09" cy="-162" rx="66.09" ry="18"/>
<text text-anchor="middle" x="655.09" y="-158.3" font-family="Times,serif" font-size="14.00">&quot;source_61&quot;</text>
</g>
<!-- node2 -->
<g id="node2" class="node">
<title>node2</title>
<ellipse fill="none" stroke="black" cx="74.09" cy="-90" rx="74.19" ry="18"/>
<text text-anchor="middle" x="74.09" y="-86.3" font-family="Times,serif" font-size="14.00">&quot;Delay_N_64&quot;</text>
</g>
<!-- node0&#45;&gt;node2 -->
<g id="edge1" class="edge">
<title>node0&#45;&gt;node2</title>
<path fill="none" stroke="black" d="M591.95,-156.24C497.16,-148.64 312.6,-132.14 157.09,-108 150.55,-106.98 143.74,-105.8 136.96,-104.54"/>
<polygon fill="black" stroke="black" points="137.57,-101.09 127.09,-102.64 136.25,-107.97 137.57,-101.09"/>
</g>
<!-- node8 -->
<g id="node3" class="node">
<title>node8</title>
<ellipse fill="none" stroke="black" cx="240.09" cy="-90" rx="74.19" ry="18"/>
<text text-anchor="middle" x="240.09" y="-86.3" font-family="Times,serif" font-size="14.00">&quot;Delay_N_71&quot;</text>
</g>
<!-- node0&#45;&gt;node8 -->
<g id="edge2" class="edge">
<title>node0&#45;&gt;node8</title>
<path fill="none" stroke="black" d="M598.28,-152.7C532.06,-142.85 419.42,-125.55 323.09,-108 316.92,-106.88 310.5,-105.65 304.09,-104.4"/>
<polygon fill="black" stroke="black" points="304.54,-100.92 294.05,-102.41 303.18,-107.79 304.54,-100.92"/>
</g>
<!-- node14 -->
<g id="node4" class="node">
<title>node14</title>
<ellipse fill="none" stroke="black" cx="406.09" cy="-90" rx="74.19" ry="18"/>
<text text-anchor="middle" x="406.09" y="-86.3" font-family="Times,serif" font-size="14.00">&quot;Delay_N_78&quot;</text>
</g>
<!-- node0&#45;&gt;node14 -->
<g id="edge3" class="edge">
<title>node0&#45;&gt;node14</title>
<path fill="none" stroke="black" d="M610.86,-148.57C569.55,-136.95 507.67,-119.56 462.75,-106.93"/>
<polygon fill="black" stroke="black" points="463.44,-103.49 452.87,-104.15 461.55,-110.23 463.44,-103.49"/>
</g>
<!-- node20 -->
<g id="node5" class="node">
<title>node20</title>
<ellipse fill="none" stroke="black" cx="572.09" cy="-90" rx="74.19" ry="18"/>
<text text-anchor="middle" x="572.09" y="-86.3" font-family="Times,serif" font-size="14.00">&quot;Delay_N_85&quot;</text>
</g>
<!-- node0&#45;&gt;node20 -->
<g id="edge4" class="edge">
<title>node0&#45;&gt;node20</title>
<path fill="none" stroke="black" d="M635.84,-144.76C625.03,-135.64 611.35,-124.1 599.43,-114.06"/>
<polygon fill="black" stroke="black" points="601.43,-111.16 591.53,-107.39 596.91,-116.51 601.43,-111.16"/>
</g>
<!-- node26 -->
<g id="node6" class="node">
<title>node26</title>
<ellipse fill="none" stroke="black" cx="738.09" cy="-90" rx="74.19" ry="18"/>
<text text-anchor="middle" x="738.09" y="-86.3" font-family="Times,serif" font-size="14.00">&quot;Delay_N_92&quot;</text>
</g>
<!-- node0&#45;&gt;node26 -->
<g id="edge5" class="edge">
<title>node0&#45;&gt;node26</title>
<path fill="none" stroke="black" d="M674.34,-144.76C685.16,-135.64 698.84,-124.1 710.75,-114.06"/>
<polygon fill="black" stroke="black" points="713.27,-116.51 718.66,-107.39 708.76,-111.16 713.27,-116.51"/>
</g>
<!-- node32 -->
<g id="node7" class="node">
<title>node32</title>
<ellipse fill="none" stroke="black" cx="904.09" cy="-90" rx="74.19" ry="18"/>
<text text-anchor="middle" x="904.09" y="-86.3" font-family="Times,serif" font-size="14.00">&quot;Delay_N_99&quot;</text>
</g>
<!-- node0&#45;&gt;node32 -->
<g id="edge6" class="edge">
<title>node0&#45;&gt;node32</title>
<path fill="none" stroke="black" d="M699.32,-148.57C740.64,-136.95 802.52,-119.56 847.43,-106.93"/>
<polygon fill="black" stroke="black" points="848.64,-110.23 857.32,-104.15 846.74,-103.49 848.64,-110.23"/>
</g>
<!-- node38 -->
<g id="node8" class="node">
<title>node38</title>
<ellipse fill="none" stroke="black" cx="1076.09" cy="-90" rx="79.89" ry="18"/>
<text text-anchor="middle" x="1076.09" y="-86.3" font-family="Times,serif" font-size="14.00">&quot;Delay_N_106&quot;</text>
</g>
<!-- node0&#45;&gt;node38 -->
<g id="edge7" class="edge">
<title>node0&#45;&gt;node38</title>
<path fill="none" stroke="black" d="M711.57,-152.52C777.71,-142.46 890.51,-124.93 987.09,-108 993.76,-106.83 1000.69,-105.58 1007.62,-104.3"/>
<polygon fill="black" stroke="black" points="1008.54,-107.68 1017.73,-102.41 1007.26,-100.8 1008.54,-107.68"/>
</g>
<!-- node44 -->
<g id="node9" class="node">
<title>node44</title>
<ellipse fill="none" stroke="black" cx="1254.09" cy="-90" rx="79.89" ry="18"/>
<text text-anchor="middle" x="1254.09" y="-86.3" font-family="Times,serif" font-size="14.00">&quot;Delay_N_113&quot;</text>
</g>
<!-- node0&#45;&gt;node44 -->
<g id="edge8" class="edge">
<title>node0&#45;&gt;node44</title>
<path fill="none" stroke="black" d="M718.12,-156.19C814.66,-148.43 1004.81,-131.59 1165.09,-108 1172.16,-106.96 1179.51,-105.76 1186.83,-104.48"/>
<polygon fill="black" stroke="black" points="1187.54,-107.91 1196.76,-102.69 1186.3,-101.02 1187.54,-107.91"/>
</g>
<!-- node50 -->
<g id="node10" class="node">
<title>node50</title>
<ellipse fill="none" stroke="black" cx="655.09" cy="-18" rx="206.06" ry="18"/>
<text text-anchor="middle" x="655.09" y="-14.3" font-family="Times,serif" font-size="14.00">&quot;WEIGHTED_ROUND_ROBIN_Joiner_122&quot;</text>
</g>
<!-- node2&#45;&gt;node50 -->
<g id="edge9" class="edge">
<title>node2&#45;&gt;node50</title>
<path fill="none" stroke="black" d="M127.09,-77.36C137.03,-75.4 147.36,-73.51 157.09,-72 271.31,-54.27 401.19,-40.66 499.67,-31.67"/>
<polygon fill="black" stroke="black" points="500.06,-35.15 509.7,-30.77 499.43,-28.18 500.06,-35.15"/>
</g>
<!-- node8&#45;&gt;node50 -->
<g id="edge10" class="edge">
<title>node8&#45;&gt;node50</title>
<path fill="none" stroke="black" d="M294.05,-77.59C303.71,-75.65 313.69,-73.71 323.09,-72 396.95,-58.55 480.4,-45.23 545.16,-35.32"/>
<polygon fill="black" stroke="black" points="546.03,-38.72 555.39,-33.75 544.97,-31.8 546.03,-38.72"/>
</g>
<!-- node14&#45;&gt;node50 -->
<g id="edge11" class="edge">
<title>node14&#45;&gt;node50</title>
<path fill="none" stroke="black" d="M452.64,-75.92C490.51,-65.27 544.48,-50.1 587.18,-38.09"/>
<polygon fill="black" stroke="black" points="588.26,-41.43 596.94,-35.35 586.36,-34.69 588.26,-41.43"/>
</g>
<!-- node20&#45;&gt;node50 -->
<g id="edge12" class="edge">
<title>node20&#45;&gt;node50</title>
<path fill="none" stroke="black" d="M591.76,-72.41C602.36,-63.48 615.61,-52.3 627.24,-42.49"/>
<polygon fill="black" stroke="black" points="629.6,-45.08 634.99,-35.96 625.09,-39.73 629.6,-45.08"/>
</g>
<!-- node26&#45;&gt;node50 -->
<g id="edge13" class="edge">
<title>node26&#45;&gt;node50</title>
<path fill="none" stroke="black" d="M718.42,-72.41C707.83,-63.48 694.58,-52.3 682.94,-42.49"/>
<polygon fill="black" stroke="black" points="685.1,-39.73 675.2,-35.96 680.59,-45.08 685.1,-39.73"/>
</g>
<!-- node32&#45;&gt;node50 -->
<g id="edge14" class="edge">
<title>node32&#45;&gt;node50</title>
<path fill="none" stroke="black" d="M857.55,-75.92C819.68,-65.27 765.71,-50.1 723.01,-38.09"/>
<polygon fill="black" stroke="black" points="723.82,-34.69 713.25,-35.35 721.93,-41.43 723.82,-34.69"/>
</g>
<!-- node38&#45;&gt;node50 -->
<g id="edge15" class="edge">
<title>node38&#45;&gt;node50</title>
<path fill="none" stroke="black" d="M1017.73,-77.59C1007.53,-75.67 997.01,-73.74 987.09,-72 912.6,-58.94 828.47,-45.53 763.53,-35.46"/>
<polygon fill="black" stroke="black" points="763.7,-31.94 753.28,-33.87 762.63,-38.86 763.7,-31.94"/>
</g>
<!-- node44&#45;&gt;node50 -->
<g id="edge16" class="edge">
<title>node44&#45;&gt;node50</title>
<path fill="none" stroke="black" d="M1196.76,-77.31C1186.26,-75.37 1175.37,-73.51 1165.09,-72 1046.52,-54.55 911.59,-40.79 810.32,-31.67"/>
<polygon fill="black" stroke="black" points="810.59,-28.18 800.32,-30.78 809.97,-35.15 810.59,-28.18"/>
</g>
</g>
</svg>
